<?xml version="1.0" standalone="no"?>
<!DOCTYPE svg PUBLIC "-//W3C//DTD SVG 1.1//EN" "http://www.w3.org/Graphics/SVG/1.1/DTD/svg11.dtd" >
<svg>
<metadata>
Created by FontForge 20120731 at Wed Mar 23 04:54:24 2022
 By ffonts
Typeface \(c\) \(Kong Font\). 2021. All Rights Reserved \(fontkong@gmail.com\)
</metadata>
<defs>
<font id="Moulin" horiz-adv-x="1486" >
  <font-face 
    font-family="Moulin"
    font-weight="400"
    font-stretch="normal"
    units-per-em="2048"
    panose-1="2 0 5 0 0 0 0 0 0 0"
    ascent="1638"
    descent="-410"
    x-height="1446"
    cap-height="1437"
    bbox="40 -570 2878 2188"
    underline-thickness="150"
    underline-position="-142"
    stemh="228"
    stemv="136"
    unicode-range="U+000D-2122"
  />
<missing-glyph horiz-adv-x="1024" 
d="M924 0h-824v1434h824v-1434zM150 1384v-1334h724v1334h-724zM325 1103v45c21 19 40 33 58 43c35 20 73 30 112 30c61 0 111 -16 148 -47c37 -32 56 -75 56 -128c0 -33 -8 -65 -23 -98s-44 -77 -87 -130c-42 -53 -75 -97 -99 -132s-36 -68 -36 -99c0 -25 8 -70 24 -133
h-32c-23 65 -35 114 -35 148c0 51 27 123 82 218c54 95 81 167 81 217c0 76 -47 123 -124 123c-25 0 -48 -6 -69 -17c-17 -10 -36 -23 -56 -40zM389 334l57 58c7 7 14 10 20 10c7 0 14 -4 22 -11l56 -60c6 -7 9 -14 9 -20c0 -7 -3 -15 -10 -22l-56 -62
c-9 -9 -16 -14 -21 -14c-7 0 -14 3 -20 10l-61 71c-5 6 -7 12 -7 18c0 7 4 14 11 22z" />
    <glyph glyph-name=".notdef" horiz-adv-x="1024" 
d="M924 0h-824v1434h824v-1434zM150 1384v-1334h724v1334h-724zM325 1103v45c21 19 40 33 58 43c35 20 73 30 112 30c61 0 111 -16 148 -47c37 -32 56 -75 56 -128c0 -33 -8 -65 -23 -98s-44 -77 -87 -130c-42 -53 -75 -97 -99 -132s-36 -68 -36 -99c0 -25 8 -70 24 -133
h-32c-23 65 -35 114 -35 148c0 51 27 123 82 218c54 95 81 167 81 217c0 76 -47 123 -124 123c-25 0 -48 -6 -69 -17c-17 -10 -36 -23 -56 -40zM389 334l57 58c7 7 14 10 20 10c7 0 14 -4 22 -11l56 -60c6 -7 9 -14 9 -20c0 -7 -3 -15 -10 -22l-56 -62
c-9 -9 -16 -14 -21 -14c-7 0 -14 3 -20 10l-61 71c-5 6 -7 12 -7 18c0 7 4 14 11 22z" />
    <glyph glyph-name="uni0000" horiz-adv-x="0" 
 />
    <glyph glyph-name="uni0000" horiz-adv-x="0" 
 />
    <glyph glyph-name="uni000D" unicode="&#xd;" horiz-adv-x="512" 
 />
    <glyph glyph-name="space" unicode=" " horiz-adv-x="700" 
 />
    <glyph glyph-name="space" unicode="&#xa0;" horiz-adv-x="700" 
 />
    <glyph glyph-name="uni0009" horiz-adv-x="508" 
 />
    <glyph glyph-name="exclam" unicode="!" horiz-adv-x="900" 
d="M429 1456h32c321 -13 390 -160 390 -318c0 -12 0 -24 -1 -35v-9c0 -103 -19 -213 -58 -330s-87 -216 -146 -299s-121 -130 -185 -141c-6 -1 -12 -1 -18 -1c-51 0 -100 23 -147 68s-89 103 -125 174c-37 71 -66 147 -87 228c-22 81 -33 157 -33 229c0 8 0 16 1 25
c1 65 10 128 29 190c18 61 54 113 108 154c53 41 133 63 240 65zM230 241h113c91 -1 171 -1 242 -1h78c49 0 86 -12 113 -36c26 -24 39 -51 39 -81c0 -79 -60 -122 -159 -123h-61c-63 0 -142 0 -237 1h-130c-88 0 -141 65 -141 124c2 35 17 63 45 84s61 32 98 32z" />
    <glyph glyph-name="quotedbl" unicode="&#x22;" horiz-adv-x="1130" 
d="M369 1453c138 0 223 -103 223 -223c0 -51 -12 -102 -36 -151c-25 -50 -54 -95 -88 -136c-69 -81 -141 -136 -178 -147c-7 -2 -14 -3 -21 -3c-25 0 -52 8 -81 25c-29 16 -53 34 -73 53s-30 34 -30 43c0 3 1 6 4 7c17 8 39 25 64 51s42 56 53 91c-53 55 -77 114 -77 170
c0 59 23 110 68 154s103 66 172 66zM866 1453c139 0 224 -103 224 -223c0 -51 -12 -102 -36 -151c-25 -50 -54 -95 -88 -136c-69 -81 -141 -136 -178 -147c-7 -2 -14 -3 -21 -3c-25 0 -52 8 -81 25c-29 16 -53 34 -73 53s-30 34 -30 43c0 3 1 6 4 7c17 8 39 25 64 51
s42 56 53 91c-53 55 -77 114 -77 170c0 59 23 111 68 155c45 43 102 65 171 65z" />
    <glyph glyph-name="numbersign" unicode="#" horiz-adv-x="1669" 
d="M389 1452c74 0 135 -34 139 -147v-68c1 -7 1 -15 1 -22h212c2 53 4 93 6 120c4 33 24 59 59 76s79 28 130 33s101 8 149 8c111 0 210 -8 267 -44c29 -19 44 -47 46 -84c1 -32 2 -70 3 -114c41 -1 73 -1 94 -2c70 -4 134 -41 134 -132c0 -74 -33 -155 -146 -159h-66
c-5 0 -9 0 -13 -1c0 -120 -1 -239 -2 -358c41 -1 72 -1 93 -2c70 -4 134 -41 134 -132c0 -74 -33 -156 -146 -158c-22 -1 -48 -1 -77 -1h-10c-2 -69 -5 -118 -8 -147c-12 -117 -114 -118 -350 -118c-184 0 -294 21 -300 134c-3 35 -5 79 -6 130c-72 0 -141 0 -206 1
c-1 -49 -2 -86 -3 -109c-5 -116 -50 -156 -155 -156c-81 0 -129 41 -133 153c-1 32 -1 71 -2 116c-16 0 -29 0 -38 1c-116 5 -155 51 -155 156c0 83 41 130 152 134c11 1 24 1 37 1h3c0 121 0 241 1 359c-16 1 -29 1 -38 2c-116 5 -155 51 -155 156c0 83 41 130 152 134
c13 1 28 1 45 1c1 45 1 79 2 104c3 36 17 68 43 95s62 40 107 40zM530 916c0 -119 0 -236 -1 -352h201v38c1 106 2 210 3 313c-71 1 -139 1 -203 1z" />
    <glyph glyph-name="dollar" unicode="$" horiz-adv-x="1227" 
d="M504 1448v26c0 45 3 95 23 111c28 19 70 26 110 26c48 0 91 -9 103 -21c16 -19 20 -68 20 -112c0 -14 0 -27 -1 -38h6c32 1 68 2 108 2c52 0 103 -3 153 -8c50 -6 85 -18 104 -36c12 -16 21 -58 21 -109c0 -56 -13 -118 -46 -151c-16 -13 -58 -16 -111 -17
c-48 0 -93 -4 -136 -13s-66 -32 -70 -69v-2c0 -61 71 -63 147 -65c36 0 70 -3 103 -8c33 -6 57 -21 74 -44c53 -85 63 -198 63 -314c0 -24 0 -48 -1 -72v-11c-1 -89 -8 -176 -23 -259s-42 -149 -81 -198c-31 -24 -73 -40 -126 -47c-54 -7 -108 -12 -162 -13
c-12 0 -23 0 -34 -1v-20c0 -27 -1 -57 -6 -72c-15 -37 -52 -42 -115 -42h-24c-35 0 -70 4 -85 39c-3 9 -4 23 -5 43s-1 36 -1 47c-9 -1 -19 -1 -28 -1c-74 -3 -137 -5 -188 -5c-174 0 -225 26 -225 152v1c0 127 96 148 195 148c27 0 53 -1 79 -3c24 -1 46 -2 65 -2
c47 0 80 7 80 39c0 51 -70 55 -146 55h-55c-60 0 -117 3 -145 27c-29 27 -50 66 -65 116s-25 104 -30 162s-8 112 -8 161c0 39 1 73 2 100c1 13 1 26 2 39c1 55 5 109 13 163c7 53 25 102 54 147c28 45 73 81 134 108s147 41 258 41z" />
    <glyph glyph-name="percent" unicode="%" horiz-adv-x="1546" 
d="M437 1515c234 0 312 -168 312 -333c0 -11 0 -21 -1 -31c-4 -63 -34 -149 -90 -225s-138 -134 -246 -134c-163 0 -267 70 -318 179c-26 54 -39 114 -39 180c0 14 1 28 2 42c10 95 51 173 124 233c72 59 157 89 256 89zM1171 1515c33 -1 65 -14 96 -37
c30 -23 45 -50 45 -81c0 -15 -5 -29 -14 -44c-89 -136 -198 -301 -326 -495c-128 -195 -249 -379 -362 -552c-77 -117 -140 -212 -189 -287c-10 -13 -24 -19 -42 -19c-40 0 -93 27 -128 67c-17 20 -26 41 -26 63c0 15 5 29 14 43c291 431 580 868 868 1311
c15 21 39 31 64 31zM531 1389h-3c-23 0 -45 -9 -66 -26c-21 -18 -33 -48 -36 -89v-8c0 -43 23 -81 95 -81h5c25 3 44 18 58 45c13 27 20 52 20 75v2c-2 26 -11 46 -27 61c-17 14 -32 21 -46 21zM1185 723c234 0 312 -168 312 -333c0 -11 0 -21 -1 -31
c-4 -63 -34 -149 -90 -225s-138 -134 -246 -134c-163 0 -267 70 -318 179c-26 54 -39 114 -39 180c0 14 1 28 2 42c10 95 51 173 124 233c72 59 157 89 256 89zM1279 597h-3c-23 0 -45 -9 -66 -26c-21 -18 -33 -48 -36 -89v-8c0 -43 23 -81 95 -81h5c25 3 44 18 58 45
c13 27 20 52 20 75v2c-2 26 -11 46 -27 61c-17 14 -32 21 -46 21z" />
    <glyph glyph-name="ampersand" unicode="&#x26;" horiz-adv-x="1376" 
d="M630 1450c61 0 121 -19 179 -58s97 -95 116 -168c7 -33 11 -64 11 -93c0 -141 -79 -251 -156 -338c20 -35 69 -90 96 -116c63 67 107 91 146 91s74 -25 115 -58c7 -6 15 -12 24 -19c9 -8 17 -16 26 -24c55 -48 89 -82 89 -129c0 -43 -34 -108 -102 -193
c14 -15 29 -28 45 -39c23 -19 41 -34 41 -47c0 -21 -12 -49 -37 -84s-53 -67 -86 -98s-62 -53 -89 -67c-11 -7 -23 -11 -36 -11c-3 0 -5 0 -8 1c-39 5 -83 27 -134 66c-53 -38 -118 -69 -193 -93s-147 -36 -214 -36c-165 0 -297 62 -369 171c-36 54 -54 118 -54 191
c0 204 127 351 276 466c-40 80 -79 189 -79 302c1 84 21 155 60 212s88 99 148 128s122 43 185 43zM696 1224c-30 0 -52 -12 -67 -35s-23 -49 -23 -78c0 -42 12 -79 37 -112c28 16 53 37 75 64s33 53 33 79c0 40 -18 82 -55 82zM492 487c-19 -18 -37 -40 -54 -66
c-17 -27 -26 -51 -26 -73c0 -11 3 -20 9 -29c4 -5 11 -7 20 -7c18 0 41 6 69 19c27 12 50 26 69 43c-30 37 -59 74 -87 113z" />
    <glyph glyph-name="quotesingle" unicode="'" horiz-adv-x="632" 
d="M368 1452c139 0 224 -103 224 -223c0 -51 -12 -102 -36 -151c-25 -50 -54 -95 -88 -136c-69 -81 -141 -136 -178 -147c-7 -1 -13 -2 -20 -2c-26 0 -53 8 -82 24s-53 34 -73 54c-20 19 -30 34 -30 43c0 3 1 6 4 7c17 8 39 25 64 51s42 56 53 90c-53 55 -77 114 -77 170
c0 59 23 111 68 155c45 43 102 65 171 65z" />
    <glyph glyph-name="parenleft" unicode="(" horiz-adv-x="1014" 
d="M834 1510c5 -7 8 -15 8 -24c0 -24 -24 -54 -57 -94c-87 -100 -232 -282 -232 -665c0 -344 130 -528 211 -638c37 -49 63 -86 63 -117c0 -24 -18 -46 -55 -67c-35 -19 -75 -29 -118 -29c-63 0 -131 19 -202 58s-138 96 -200 169s-113 162 -152 265
c-40 103 -60 220 -60 349c0 316 148 564 320 706c116 96 239 148 335 148c60 0 106 -20 139 -61z" />
    <glyph glyph-name="parenright" unicode=")" horiz-adv-x="1013" 
d="M179 1510c33 41 79 61 139 61c144 0 351 -117 494 -324c96 -140 161 -318 161 -530c0 -129 -20 -246 -59 -349c-40 -103 -91 -192 -153 -265s-129 -130 -200 -169s-139 -58 -202 -58c-43 0 -83 10 -118 29c-36 21 -54 43 -54 67c0 31 25 68 62 117
c82 111 211 293 211 638c0 193 -36 335 -84 440c-49 104 -104 176 -148 225c-33 41 -57 70 -57 94c0 9 3 17 8 24z" />
    <glyph glyph-name="asterisk" unicode="*" horiz-adv-x="675" 
d="M131 1419c26 22 55 33 86 33c44 0 89 -24 128 -85c52 56 106 83 151 83c29 0 53 -10 74 -31c20 -21 30 -44 30 -71c0 -56 -39 -118 -91 -150c38 -54 57 -100 57 -137c0 -49 -26 -84 -65 -112c-25 -18 -51 -27 -80 -27c-44 0 -91 26 -132 91c-45 -37 -82 -53 -114 -53
c-45 0 -77 30 -100 66c-7 12 -11 24 -11 37c0 25 9 50 26 76c17 25 36 48 55 68c-33 45 -50 88 -50 129c0 33 12 61 36 83z" />
    <glyph glyph-name="plus" unicode="+" horiz-adv-x="1206" 
d="M249 761v46c0 111 9 193 26 245s44 87 80 106c36 18 82 30 139 35c33 3 74 5 123 5s95 -2 138 -5c40 -1 91 -12 133 -58s73 -134 73 -294c0 -21 -1 -42 -2 -65c14 -3 30 -5 49 -6c48 -4 100 -12 127 -32c15 -13 21 -52 21 -95c0 -49 -8 -99 -23 -114
c-24 -20 -76 -25 -137 -28l-39 -3v-10c0 -22 -2 -54 -7 -96c-5 -43 -13 -84 -22 -123c-9 -40 -20 -69 -33 -88c-21 -27 -63 -47 -124 -61c-61 -15 -126 -22 -195 -22c-64 0 -122 7 -175 21s-87 36 -102 65c-28 66 -44 170 -47 313c-6 0 -12 0 -17 -1c-21 -1 -41 -1 -61 -1
c-40 0 -75 3 -92 15c-23 17 -33 72 -33 123c0 37 5 72 16 85c15 15 39 25 72 31c33 5 65 9 96 11c5 0 11 0 16 1z" />
    <glyph glyph-name="comma" unicode="," horiz-adv-x="463" 
d="M268 399c48 0 86 -15 114 -46c27 -31 41 -68 41 -109c0 -71 -38 -142 -86 -198c-48 -57 -98 -96 -123 -103c-5 -1 -9 -2 -14 -2c-36 0 -79 27 -107 54c-14 13 -21 23 -21 30c0 2 1 4 3 5c12 5 27 17 44 36c17 18 29 39 37 63c-37 37 -54 79 -54 118c0 41 16 76 48 107
c31 30 71 45 118 45z" />
    <glyph glyph-name="hyphen" unicode="-" horiz-adv-x="991" 
d="M40 556c0 46 13 79 39 98c25 19 74 30 145 34c71 3 174 5 310 5h81c23 1 44 1 65 1c185 0 271 -13 271 -137c0 -61 -13 -98 -73 -117c-61 -20 -176 -25 -383 -25c-120 0 -213 2 -279 6s-112 16 -137 36c-26 19 -39 52 -39 99z" />
    <glyph glyph-name="hyphen" unicode="&#xad;" horiz-adv-x="991" 
d="M40 556c0 46 13 79 39 98c25 19 74 30 145 34c71 3 174 5 310 5h81c23 1 44 1 65 1c185 0 271 -13 271 -137c0 -61 -13 -98 -73 -117c-61 -20 -176 -25 -383 -25c-120 0 -213 2 -279 6s-112 16 -137 36c-26 19 -39 52 -39 99z" />
    <glyph glyph-name="period" unicode="." horiz-adv-x="434" 
d="M202 398h17c51 -3 89 -15 114 -38s41 -50 48 -80s11 -55 11 -76v-15c-7 -89 -49 -140 -104 -163c-28 -11 -55 -17 -81 -17h-8c-48 3 -83 14 -105 35c-23 21 -37 44 -43 71s-9 51 -9 74v7v1c0 17 6 41 18 73c11 31 29 60 53 86c23 25 53 39 89 42z" />
    <glyph glyph-name="slash" unicode="/" horiz-adv-x="1058" 
d="M886 1540c68 -31 109 -90 109 -153c0 -19 -4 -38 -12 -57l-590 -1307c-25 -57 -83 -89 -147 -89c-24 0 -49 5 -74 15c-68 31 -109 91 -109 152c0 19 4 38 12 57l590 1308c25 57 83 89 147 89c24 0 49 -5 74 -15z" />
    <glyph glyph-name="zero" unicode="0" horiz-adv-x="1349" 
d="M702 1459c117 0 221 -26 313 -79c91 -53 163 -127 216 -223c52 -96 78 -209 78 -338c0 -261 -57 -463 -170 -604s-277 -212 -491 -212c-462 0 -608 400 -608 750c0 443 317 706 662 706zM810 993c-95 0 -113 -151 -113 -211c0 -72 8 -142 41 -182c17 -21 41 -31 73 -32h1
c64 0 100 96 100 193v15c0 71 -10 141 -39 185c-15 21 -36 32 -63 32z" />
    <glyph glyph-name="one" unicode="1" horiz-adv-x="1189" 
d="M322 308c5 114 7 232 7 353v32c0 140 4 286 12 440c-51 -14 -91 -26 -120 -36c-40 -15 -71 -22 -93 -22c-7 0 -14 1 -21 3c-33 13 -56 60 -56 100c0 12 2 23 6 32c15 31 56 64 123 101c67 36 142 67 225 94s155 41 216 42h14c347 0 395 -111 395 -228
c0 -42 -1 -107 -2 -194s-3 -180 -5 -277c-1 -91 -3 -174 -4 -250s-2 -131 -2 -164v-22c5 1 10 1 15 1c82 0 99 -63 103 -102c0 -6 0 -12 1 -18c1 -13 1 -26 1 -39c0 -43 -7 -86 -46 -113c-25 -17 -60 -27 -105 -31c-45 -5 -108 -7 -191 -7h-157c-271 0 -415 1 -450 20
c-20 11 -44 47 -48 104c-1 10 -1 20 -1 30c0 47 11 95 64 125c26 15 66 23 119 26z" />
    <glyph glyph-name="two" unicode="2" horiz-adv-x="1281" 
d="M96 1160c31 44 112 113 225 175c112 62 253 109 400 109c129 0 257 -22 357 -71c99 -49 163 -129 163 -248c0 -65 -16 -136 -47 -213c-32 -77 -71 -154 -116 -230c-46 -76 -92 -145 -138 -208s-85 -114 -116 -153c-32 -39 -48 -58 -48 -58c-2 1 195 15 245 15
c33 0 58 -11 73 -34s22 -50 22 -79c0 -31 -8 -61 -23 -88c-16 -28 -39 -45 -68 -51c-41 -6 -108 -11 -200 -14c-93 -3 -185 -5 -276 -5c-118 0 -205 3 -261 10c-5 1 -9 1 -14 2c-30 3 -61 10 -94 21s-61 32 -85 64c-17 31 -25 69 -25 114c0 41 8 81 24 105
c15 20 34 45 56 74c51 65 109 141 174 228c64 87 121 170 170 249s73 137 73 174c0 41 -28 81 -81 81c-39 0 -78 -13 -116 -39s-78 -58 -121 -95c-9 -7 -19 -11 -30 -11c-27 0 -57 15 -88 45c-31 29 -47 60 -47 92c0 13 4 26 12 39z" />
    <glyph glyph-name="three" unicode="3" horiz-adv-x="1305" 
d="M205 1423c15 3 56 7 122 12c66 4 144 8 233 11s173 4 251 4c82 0 146 -2 192 -7c92 -13 153 -65 189 -130c29 -57 44 -120 44 -189c0 -70 -15 -135 -44 -194c-32 -56 -78 -87 -109 -102c-16 -7 -24 -11 -24 -11s43 -18 90 -61c23 -22 43 -51 59 -87
c29 -73 43 -149 43 -229s-14 -156 -43 -228c-17 -41 -42 -79 -75 -113c-33 -35 -71 -58 -114 -71c-26 -7 -69 -11 -128 -14s-126 -5 -199 -5c-105 0 -208 3 -309 8s-169 12 -205 21c-33 11 -56 38 -71 81s-23 91 -23 144c0 59 8 113 25 164c16 50 39 80 69 90
c20 4 48 6 83 6c41 0 85 -1 130 -4c31 -1 54 -2 69 -2c29 0 50 41 50 81c0 33 -14 64 -50 75c-6 1 -15 2 -27 2c-18 0 -40 -1 -65 -2c-28 -2 -53 -3 -76 -3c-17 0 -31 1 -41 3c-15 5 -26 24 -33 56s-11 67 -11 106c0 40 4 77 11 111s18 54 33 59c17 4 33 6 48 6
c14 0 29 -1 44 -3c18 -2 40 -3 66 -3h19c43 3 66 42 66 81c0 36 -21 71 -66 71h-223c-24 0 -43 14 -58 43c-15 28 -22 59 -22 92c0 59 24 114 80 131z" />
    <glyph glyph-name="four" unicode="4" horiz-adv-x="1580" 
d="M703 1454h7c132 0 242 -54 242 -147c0 -25 -10 -59 -29 -102c-20 -43 -43 -91 -70 -144c-67 -132 -144 -286 -144 -388c0 -6 0 -12 1 -17c5 -37 60 -50 131 -50c13 0 27 0 42 1c1 72 2 138 3 197c1 83 2 146 2 188c0 124 194 172 338 172c111 0 211 -18 270 -71
c29 -27 44 -64 44 -113c0 -185 -2 -363 -6 -533c-3 -117 -4 -210 -4 -278c0 -129 -100 -155 -318 -155h-39c-119 0 -209 5 -257 46c-25 21 -37 56 -37 105c0 72 0 145 1 218c-81 -11 -167 -16 -256 -16c-79 0 -155 6 -229 18c-75 11 -138 31 -190 60s-86 68 -102 117
c-7 25 -11 53 -11 83c0 56 10 116 31 181c20 65 45 128 75 191c60 124 126 229 171 285c43 51 94 89 154 114c59 24 119 37 180 38z" />
    <glyph glyph-name="five" unicode="5" horiz-adv-x="1354" 
d="M215 1403c35 15 113 27 233 37c119 9 243 14 372 14c93 0 177 -3 253 -9c75 -6 128 -16 159 -30c29 -16 44 -70 44 -127c0 -60 -16 -121 -49 -142c-13 -7 -38 -11 -75 -14s-77 -5 -121 -6c-45 -1 -84 -1 -117 -1c-80 0 -108 -17 -108 -68c0 -24 3 -65 69 -65
c53 0 132 -8 212 -41c39 -17 76 -41 111 -73c68 -64 116 -165 116 -321c0 -205 -60 -334 -156 -413c-49 -39 -104 -68 -166 -87c-124 -38 -266 -45 -401 -45c-25 0 -50 0 -75 1h-70c-63 0 -146 1 -217 19c-72 18 -124 56 -124 132c0 123 90 150 201 150c47 0 96 -3 147 -10
c48 -6 91 -9 130 -9c73 0 124 17 127 77v2c0 53 -54 66 -130 66c-33 0 -68 -2 -107 -5c-41 -3 -82 -5 -122 -5c-84 0 -156 12 -195 60c-24 33 -42 89 -55 168s-20 164 -20 256c0 109 11 211 32 306s55 156 102 183z" />
    <glyph glyph-name="six" unicode="6" horiz-adv-x="1244" 
d="M920 1454c44 0 81 -37 101 -84c10 -23 15 -45 15 -64c0 -24 -8 -43 -27 -50c-96 -33 -188 -94 -247 -181c292 0 442 -237 442 -470c0 -368 -196 -591 -576 -591c-324 0 -588 134 -588 598c0 295 177 540 404 688c152 99 321 154 476 154zM772 838c-34 0 -60 -14 -78 -43
c-19 -29 -28 -62 -28 -100v-3c0 -77 27 -144 112 -144c55 0 83 44 96 93c6 24 9 46 9 65v3c0 73 -38 129 -111 129z" />
    <glyph glyph-name="seven" unicode="7" horiz-adv-x="1281" 
d="M121 1135c-36 23 -56 76 -56 133s20 117 65 153c16 9 77 16 184 23s221 10 344 10c93 0 179 -3 258 -8c78 -5 133 -14 164 -27c115 -48 159 -101 159 -188v-6c0 -60 -24 -149 -71 -268s-104 -242 -169 -371s-127 -244 -186 -344s-103 -164 -130 -193
c-27 -25 -83 -37 -151 -37c-91 0 -199 20 -289 58s-154 92 -154 160c0 31 18 88 55 171s80 173 131 272c51 98 99 189 146 274c47 84 81 145 104 184c-60 -2 -115 -5 -165 -8c-51 -4 -95 -6 -132 -6c-47 0 -83 6 -107 18z" />
    <glyph glyph-name="eight" unicode="8" horiz-adv-x="1302" 
d="M102 1085v4c0 270 184 366 595 366c280 0 504 -66 504 -347c0 -116 -41 -214 -145 -286c0 0 44 -18 90 -62c23 -22 42 -51 58 -87c29 -73 43 -149 43 -230c0 -79 -14 -155 -43 -227c-17 -41 -42 -79 -75 -113c-33 -35 -70 -58 -113 -70c-84 -21 -202 -30 -322 -30
c-91 0 -176 3 -253 10c-78 7 -129 13 -154 20c-43 12 -80 35 -113 70c-33 34 -59 72 -76 113c-29 72 -43 148 -43 227c0 81 14 157 43 230c32 72 84 115 121 135c19 9 28 14 28 14c-39 23 -73 60 -102 112c-29 51 -43 102 -43 151zM789 1179c-30 0 -53 -11 -69 -34
c-17 -23 -25 -47 -25 -74c0 -25 8 -47 23 -67c15 -21 38 -31 71 -31c31 0 53 10 68 31s22 44 22 69c0 26 -8 50 -23 73c-15 22 -38 33 -67 33zM813 696c-7 2 -15 3 -23 3c-9 0 -17 -1 -26 -3c-49 -13 -73 -62 -73 -110c0 -45 21 -88 62 -100c11 -3 23 -4 36 -4
c11 0 23 1 35 4c37 11 58 56 58 104c0 47 -21 91 -69 106z" />
    <glyph glyph-name="nine" unicode="9" horiz-adv-x="1244" 
d="M324 15c-44 0 -81 37 -101 84c-10 23 -15 45 -15 64c0 24 8 43 27 50c96 32 188 94 247 181c-292 0 -442 237 -442 470c0 369 197 591 576 591c324 0 588 -134 588 -598c0 -295 -177 -540 -403 -687c-153 -100 -322 -155 -477 -155zM622 935c34 0 60 14 79 43
s28 62 28 100v3c-2 76 -26 143 -113 143c-55 0 -83 -43 -95 -91c-6 -25 -9 -47 -9 -66v-3c0 -73 38 -129 110 -129z" />
    <glyph glyph-name="colon" unicode=":" horiz-adv-x="434" 
d="M202 1145h16c51 -3 89 -15 114 -38s42 -50 49 -80s11 -55 11 -76v-15c-10 -134 -107 -180 -186 -180h-8c-95 5 -135 53 -147 106c-6 27 -9 51 -9 74v7v1c0 17 6 41 18 73c11 31 29 60 53 86c23 25 53 39 89 42zM202 558h16c101 -5 148 -58 163 -118c7 -31 11 -56 11 -76
v-15c-10 -134 -107 -180 -186 -180h-8c-47 2 -82 13 -104 34c-23 21 -37 44 -43 71s-9 52 -9 75v7v1c0 16 6 40 18 72c11 31 29 60 53 86c23 26 53 40 89 43z" />
    <glyph glyph-name="semicolon" unicode=";" horiz-adv-x="463" 
d="M222 1145h17c51 -3 89 -15 114 -38s41 -50 48 -80c7 -31 11 -56 11 -76v-15c-7 -91 -50 -141 -106 -164c-28 -11 -55 -17 -82 -17h-5c-95 5 -135 52 -148 107c-6 27 -9 52 -9 74v7v1c0 16 6 40 18 72c11 31 29 60 53 86c23 26 53 40 89 43zM269 549c48 0 86 -15 114 -46
c27 -31 41 -67 41 -108c0 -143 -161 -288 -210 -301c-5 -1 -9 -2 -14 -2c-36 0 -79 27 -107 54c-14 13 -21 23 -21 30c0 3 1 4 3 5c12 5 27 17 44 35s30 39 37 63c-37 37 -53 79 -53 118c0 41 16 76 47 107c31 30 71 45 119 45z" />
    <glyph glyph-name="semicolon" unicode="&#x37e;" horiz-adv-x="463" 
d="M222 1145h17c51 -3 89 -15 114 -38s41 -50 48 -80c7 -31 11 -56 11 -76v-15c-7 -91 -50 -141 -106 -164c-28 -11 -55 -17 -82 -17h-5c-95 5 -135 52 -148 107c-6 27 -9 52 -9 74v7v1c0 16 6 40 18 72c11 31 29 60 53 86c23 26 53 40 89 43zM269 549c48 0 86 -15 114 -46
c27 -31 41 -67 41 -108c0 -143 -161 -288 -210 -301c-5 -1 -9 -2 -14 -2c-36 0 -79 27 -107 54c-14 13 -21 23 -21 30c0 3 1 4 3 5c12 5 27 17 44 35s30 39 37 63c-37 37 -53 79 -53 118c0 41 16 76 47 107c31 30 71 45 119 45z" />
    <glyph glyph-name="less" unicode="&#x3c;" horiz-adv-x="887" 
d="M560 1313c29 0 66 -18 111 -55s85 -77 120 -120s52 -72 52 -88v-1c-2 -20 -16 -44 -43 -73s-58 -60 -93 -93c-59 -55 -116 -111 -141 -156c16 -13 33 -26 51 -39c55 -40 105 -80 152 -121s72 -76 77 -105v-1c0 -24 -17 -60 -50 -108c-34 -48 -73 -92 -116 -131
c-43 -40 -80 -60 -109 -60c-4 0 -8 0 -11 1c-53 23 -109 56 -168 99c-60 43 -116 91 -169 144s-97 106 -131 161c-35 54 -52 103 -52 147c0 45 20 102 60 169c39 67 88 134 145 199s115 120 173 165c58 44 105 66 142 66z" />
    <glyph glyph-name="equal" unicode="=" horiz-adv-x="1014" 
d="M644 1192c48 0 95 -4 142 -11c46 -8 85 -25 116 -52s48 -68 51 -123c2 -29 3 -57 3 -82c0 -73 -14 -128 -41 -167s-78 -65 -153 -80s-183 -23 -322 -23c-25 0 -49 0 -72 -1s-46 -2 -68 -2c-80 0 -145 10 -197 57c-45 43 -60 108 -60 189v25c3 65 14 117 32 157
c17 39 53 68 108 86c54 17 141 26 260 26c21 0 44 0 67 -1h23c23 0 47 0 73 1c13 1 25 1 38 1zM681 561h19c161 0 253 -11 253 -137c0 -61 -13 -98 -73 -117c-61 -20 -176 -25 -383 -25c-120 0 -213 2 -278 6c-66 4 -112 16 -137 36c-26 19 -39 52 -39 99c0 46 13 79 39 98
c25 19 73 30 144 34c71 3 174 5 310 5c28 0 55 0 80 1h65z" />
    <glyph glyph-name="greater" unicode="&#x3e;" horiz-adv-x="887" 
d="M327 1313c37 0 84 -22 142 -66c58 -45 116 -100 173 -165s106 -131 146 -198c39 -67 59 -124 59 -169c0 -44 -17 -93 -51 -147c-35 -55 -78 -109 -131 -162s-110 -101 -169 -144c-60 -43 -116 -76 -169 -99c-3 -1 -7 -1 -11 -1c-29 0 -65 20 -108 59s-82 83 -115 131
c-34 48 -51 84 -51 109v1c4 29 29 63 75 104c45 40 95 80 149 120c19 15 38 29 55 42c-25 45 -81 99 -140 154c-36 33 -67 65 -94 94s-41 53 -43 73v1c0 16 18 45 53 88s74 83 119 120s82 55 111 55z" />
    <glyph glyph-name="question" unicode="?" horiz-adv-x="1378" 
d="M852 1470h21c62 -1 128 -18 199 -51c70 -34 131 -87 182 -158c51 -72 78 -165 81 -279v-2c0 -65 -20 -130 -59 -193c-40 -63 -92 -123 -156 -178c-65 -55 -135 -104 -212 -147s-153 -76 -229 -100c-77 -25 -145 -37 -206 -37c-64 0 -114 16 -151 47c-19 19 -29 41 -29 64
c0 77 101 176 202 271c95 91 187 180 187 247c0 20 -9 38 -27 54c-15 12 -29 18 -44 18c-40 0 -80 -40 -121 -87c-23 -26 -46 -49 -71 -70s-51 -32 -80 -32c-8 0 -16 1 -24 3c-65 16 -95 59 -95 116c0 61 29 132 88 212s136 149 231 208c95 58 199 89 313 94zM418 255h114
c90 -1 170 -1 241 -1h78c49 0 86 -12 113 -36c26 -24 39 -51 39 -81c0 -79 -60 -122 -159 -123h-61c-63 0 -142 0 -237 1h-130c-88 0 -141 65 -141 124c2 35 17 64 45 85s61 31 98 31z" />
    <glyph glyph-name="at" unicode="@" horiz-adv-x="1840" 
d="M988 1584h20c317 0 554 -104 681 -308c63 -103 95 -230 95 -381c0 -12 0 -24 -1 -37c-5 -126 -29 -237 -70 -333c-42 -97 -96 -173 -163 -228s-140 -83 -219 -83h-12c-68 0 -127 31 -177 92s-75 132 -75 215c-105 -79 -193 -113 -264 -113c-108 0 -178 72 -213 176
c-18 52 -27 108 -27 169v2c0 75 15 145 45 208s70 113 121 152c51 38 107 57 169 57c61 0 127 -22 192 -70c17 39 40 66 68 79s57 19 88 19c15 0 30 -1 45 -2c104 -11 147 -53 147 -128c0 -17 -2 -37 -7 -58c-2 -9 -4 -18 -5 -27c-19 -88 -38 -187 -38 -268
c0 -84 23 -146 94 -150h1c31 0 60 27 86 81c25 53 38 117 38 190c0 105 -32 223 -118 316c-86 92 -229 156 -449 156h-10c-304 -5 -574 -228 -574 -581c0 -89 26 -192 79 -275c52 -84 132 -141 241 -141c52 0 111 15 177 45c2 1 4 2 7 2c19 0 42 -22 69 -66
c27 -45 52 -94 73 -149s31 -99 31 -132c0 -16 -4 -27 -11 -34c-85 -64 -201 -97 -326 -97c-343 0 -752 250 -752 794v6c2 163 43 311 122 446s188 243 329 325s305 126 493 131zM978 1000h-2c-32 0 -98 -32 -98 -106c0 -20 7 -40 22 -61c14 -21 31 -31 50 -31h1
c27 1 50 13 69 35c19 21 29 46 31 74v2c0 17 -7 36 -21 55s-31 30 -52 32z" />
    <glyph glyph-name="A" unicode="A" 
d="M902 1426c171 -13 316 -78 405 -197c37 -57 63 -155 77 -292c14 -138 21 -278 21 -420c0 -119 -3 -223 -9 -313c-6 -91 -13 -145 -20 -163c-10 -13 -56 -23 -137 -30s-166 -11 -255 -11c-66 0 -124 2 -174 7c-51 5 -81 12 -90 22c-13 21 -21 53 -24 98
c-3 44 -4 80 -4 108v10c-96 -2 -191 -5 -286 -8c0 -31 -1 -68 -4 -113s-9 -76 -18 -94c-7 -10 -27 -18 -58 -23s-66 -8 -103 -8c-39 0 -74 3 -107 9c-33 5 -52 13 -59 24c-5 20 -8 72 -8 157c0 86 2 188 7 307c4 118 9 222 15 313c32 443 215 626 588 626h27
c13 -1 27 -1 41 -1c55 -1 113 -4 175 -8zM408 941l282 1c-3 65 -18 118 -43 159s-57 61 -94 61h-5c-65 -4 -140 -77 -140 -221z" />
    <glyph glyph-name="B" unicode="B" horiz-adv-x="1328" 
d="M632 1441h19c147 -1 291 -17 405 -53c114 -37 187 -97 187 -189c0 -80 -57 -148 -126 -196c-35 -24 -68 -43 -100 -56c81 -25 146 -76 196 -154c50 -79 75 -158 75 -238c0 -121 -17 -253 -68 -361c-25 -54 -61 -99 -107 -134c-34 -23 -96 -39 -185 -48
c-89 -10 -186 -15 -289 -15c-115 0 -221 4 -320 13c-99 8 -162 18 -189 30c-19 13 -32 66 -39 161c-8 95 -12 206 -12 335c0 182 6 360 17 535s23 277 38 308c13 14 68 28 166 42c97 13 208 20 332 20zM742 1183h-6c-29 -1 -53 -6 -53 -6v-160s15 -2 36 -2c33 0 80 6 110 33
c15 13 22 34 22 61c0 62 -61 74 -109 74zM730 857c-14 -1 -25 -1 -34 -2l-13 -2v-307c0 2 203 16 203 172c0 79 -41 115 -89 129c-24 7 -46 10 -67 10z" />
    <glyph glyph-name="C" unicode="C" horiz-adv-x="1333" 
d="M1292 1352v-658c0 -94 -93 -92 -170 -92h-18h-61c-100 0 -203 0 -203 -59v-89c3 -28 17 -46 44 -55s58 -14 94 -14c26 0 52 1 79 3c23 1 44 2 63 3h8c142 0 165 -50 165 -181c0 -191 -29 -212 -316 -212c-38 0 -81 0 -128 1c-60 1 -129 1 -206 1h-21
c-335 0 -476 1 -534 72c-37 46 -42 124 -42 255c0 83 -1 171 -3 266c-2 84 -3 155 -3 214c0 363 6 518 68 584c40 43 106 49 210 49h368c66 -1 128 -1 186 -1h122c87 0 152 -2 195 -7c42 -5 70 -13 83 -26s20 -31 20 -54z" />
    <glyph glyph-name="D" unicode="D" horiz-adv-x="1314" 
d="M609 1440h29c125 0 227 -15 307 -44c79 -30 142 -69 187 -117c45 -49 77 -102 98 -160c20 -58 32 -116 37 -175s7 -113 7 -162c0 -61 -6 -138 -17 -231c-11 -94 -30 -184 -55 -269c-26 -85 -60 -149 -102 -191c-41 -35 -111 -60 -210 -74s-202 -21 -311 -21
s-208 5 -297 15c-89 9 -142 20 -161 32c-17 17 -30 77 -37 182c-8 104 -12 224 -12 361c0 176 5 345 15 507c9 162 21 257 34 285c12 14 66 28 162 42c95 13 204 20 326 20zM873 995v3c-3 69 -45 108 -100 124c-28 8 -55 12 -80 12c-8 0 -16 0 -23 -1v-307
c-2 0 203 16 203 169z" />
    <glyph glyph-name="E" unicode="E" horiz-adv-x="1333" 
d="M1292 1352v-80c0 -94 -93 -92 -170 -92h-18h-61c-102 0 -210 0 -210 -59c0 -49 21 -55 84 -55h63c92 0 128 -7 139 -39c5 -16 8 -40 8 -73c0 -59 -5 -91 -42 -105c-19 -7 -50 -11 -93 -11c-122 0 -147 -49 -147 -81c0 -56 62 -69 133 -69c26 0 52 1 79 3c23 1 44 2 63 3
h8c95 0 137 -25 153 -106c8 -41 12 -99 12 -176c0 -164 -9 -263 -54 -322c-23 -29 -57 -50 -103 -63c-93 -25 -241 -27 -476 -27h-38c-335 0 -476 1 -534 72c-37 46 -42 124 -42 255c0 83 -1 171 -3 266c-2 84 -3 155 -3 214c0 363 6 518 68 584c40 43 106 49 210 49h368
c66 -1 128 -1 186 -1h122c87 0 152 -2 195 -7c42 -5 70 -13 83 -26s20 -31 20 -54z" />
    <glyph glyph-name="F" unicode="F" horiz-adv-x="1240" 
d="M1033 1168h-313c-51 0 -118 -5 -122 -64v-4c0 -66 70 -71 119 -71h20c80 0 141 1 184 2c37 1 77 2 121 2c37 0 64 -10 82 -31c17 -21 26 -44 26 -69c0 -27 -10 -53 -29 -76c-19 -24 -47 -36 -84 -36c-29 0 -59 -3 -88 -9c-30 -6 -50 -20 -59 -43c-9 -33 -13 -85 -13 -155
c0 -72 2 -153 7 -243c4 -85 6 -160 6 -223c0 -41 -9 -93 -49 -127c-21 -17 -53 -26 -96 -26h-537c-96 0 -129 72 -135 135c-16 174 -24 352 -24 533c0 188 8 378 24 570c3 63 24 199 181 199c147 0 308 -1 485 -2c131 -1 232 -1 301 -1c37 0 66 -14 86 -41
c19 -27 29 -58 29 -91c0 -63 -39 -129 -122 -129z" />
    <glyph glyph-name="G" unicode="G" horiz-adv-x="1616" 
d="M1244 1437c93 -15 134 -70 134 -125c0 -29 -10 -54 -30 -77c-21 -23 -49 -34 -86 -34c-108 -1 -197 -6 -268 -15c-33 -4 -67 -14 -102 -30c-35 -17 -64 -43 -87 -80c-21 -39 -36 -93 -45 -161s-14 -140 -14 -215c0 -119 8 -225 24 -319c9 -45 46 -65 87 -65
c45 0 92 25 101 65c6 35 9 69 9 103c0 44 -3 88 -9 133c-5 35 -31 58 -59 81c-18 13 -33 28 -46 45c-10 18 -15 38 -15 60c0 25 4 49 12 71c13 39 39 79 78 96c35 15 78 25 129 32c51 6 103 9 154 9c75 0 136 -6 185 -17c89 -27 142 -87 159 -180c7 -55 11 -121 11 -197
c0 -66 -2 -132 -6 -199c-5 -67 -10 -122 -17 -167c-11 -75 -46 -131 -104 -167c-59 -37 -142 -63 -250 -78c-46 -7 -106 -12 -180 -15s-150 -4 -229 -4c-95 0 -182 2 -261 5c-80 3 -134 8 -161 14c-147 35 -213 90 -244 156c-15 33 -26 67 -33 103c-5 23 -9 81 -14 172
s-8 188 -8 293c0 75 2 147 6 215c3 67 10 121 19 162c13 70 37 133 74 190c36 56 103 99 202 128c46 12 108 21 187 26c78 5 160 7 245 7c94 0 183 -2 266 -6s145 -9 186 -15z" />
    <glyph glyph-name="H" unicode="H" horiz-adv-x="1370" 
d="M241 1437c111 0 156 -28 172 -67c8 -19 12 -39 12 -60c2 -80 3 -183 3 -309h159c3 152 7 259 11 320c4 33 24 58 59 75s79 28 130 33s101 8 149 8c55 0 108 -3 159 -8c50 -5 91 -17 123 -35c31 -19 48 -47 50 -84c4 -121 6 -274 6 -460c0 -154 -1 -303 -4 -446
c-3 -144 -7 -241 -12 -290c-14 -116 -131 -118 -368 -118c-186 0 -293 21 -301 134c-5 103 -8 239 -8 406c0 65 0 131 1 200h-156c-1 -145 -3 -277 -5 -394c-3 -117 -5 -193 -6 -228c-2 -60 -29 -118 -179 -118c-87 0 -169 21 -179 134c-5 101 -8 233 -8 396
c0 157 2 313 5 469s7 265 12 326c4 67 32 116 175 116z" />
    <glyph glyph-name="I" unicode="I" horiz-adv-x="768" 
d="M66 1321c4 33 24 58 59 75s79 28 130 33s101 8 149 8c111 0 210 -8 267 -44c29 -19 44 -47 46 -84c4 -121 6 -274 6 -460c0 -154 -1 -303 -4 -446c-3 -144 -7 -241 -12 -290c-8 -76 -57 -105 -156 -112c-50 -3 -114 -5 -193 -5c-186 0 -293 22 -301 133
c-5 101 -8 233 -8 396c0 157 2 313 5 470c3 156 7 265 12 326z" />
    <glyph glyph-name="J" unicode="J" horiz-adv-x="1055" 
d="M328 355c0 66 1 153 4 261c5 162 7 349 7 562c0 129 47 195 112 227c65 31 145 33 212 33c125 0 206 -5 258 -45c25 -20 45 -51 58 -94c26 -86 32 -231 32 -463c0 -57 0 -121 -1 -190v-39c0 -146 -7 -264 -21 -355c-15 -91 -51 -157 -110 -197c-58 -39 -152 -59 -280 -59
h-6h-135c-65 0 -123 -1 -138 -1c-19 -1 -37 -1 -54 -1c-171 0 -226 23 -226 142c0 85 40 120 92 134c26 7 53 11 80 14c63 6 116 14 116 71z" />
    <glyph glyph-name="K" unicode="K" horiz-adv-x="1440" 
d="M1197 1438c20 -1 42 -10 67 -25c25 -16 47 -33 66 -51c19 -19 29 -32 32 -41c1 -3 1 -7 1 -11c0 -25 -13 -57 -38 -98c-26 -41 -56 -84 -90 -130c-33 -45 -63 -89 -89 -131c-27 -42 -42 -78 -46 -107c-1 -4 -1 -8 -1 -12c0 -85 79 -221 154 -351c36 -60 67 -116 94 -168
c27 -53 40 -95 40 -127v-8c-5 -41 -28 -74 -68 -101c-41 -27 -89 -48 -145 -61c-57 -13 -110 -20 -159 -20c-77 0 -136 16 -145 48c1 -2 -84 152 -152 306c-3 -116 -6 -195 -11 -237c-14 -116 -113 -118 -350 -118c-184 0 -293 22 -301 133c-5 97 -7 223 -7 380
c0 158 2 317 5 478c3 160 7 271 12 334c4 33 24 58 59 75s79 28 130 33s101 8 149 8c111 0 210 -8 267 -44c29 -19 44 -46 46 -83c3 -82 5 -193 6 -334c7 -24 17 -39 33 -39h2c22 4 53 31 93 82c39 50 82 108 127 173c41 59 80 113 116 160s65 75 87 85c5 1 10 2 16 2z" />
    <glyph glyph-name="L" unicode="L" horiz-adv-x="1129" 
d="M838 317c27 -43 72 -51 120 -52c45 -3 88 -8 113 -43c13 -18 19 -47 19 -87c0 -117 -53 -141 -217 -141c-19 0 -40 0 -62 1h-61s-73 0 -116 1h-171c-133 0 -229 20 -287 59s-94 105 -109 196c-14 91 -21 209 -21 355v39c-1 69 -1 133 -1 190c0 348 12 497 91 558
c51 40 132 45 257 45c135 0 398 -3 398 -261c-1 -64 -4 -133 -8 -207c-5 -91 -8 -182 -8 -271c0 -152 14 -291 63 -382z" />
    <glyph glyph-name="M" unicode="M" horiz-adv-x="1664" 
d="M659 984c37 105 83 200 138 283s123 134 206 154c48 9 97 13 148 13c92 0 178 -11 215 -22c41 -12 81 -34 122 -65c41 -32 69 -70 84 -114c11 -39 19 -105 26 -199c6 -95 9 -199 9 -313c0 -91 -2 -183 -7 -274s-12 -173 -23 -245c-9 -77 -39 -138 -108 -174
c-53 -27 -134 -37 -215 -37c-87 0 -164 8 -230 24c-64 17 -86 76 -94 143c-5 45 -7 95 -7 152c0 150 15 332 14 328c1 3 -70 -153 -134 -271c-41 -75 -89 -102 -136 -102c-57 0 -110 40 -135 85c-24 43 -50 110 -70 172s-34 109 -34 109c-1 -27 -2 -53 -2 -78
c0 -57 2 -113 6 -170c5 -68 9 -156 10 -263c0 -54 -71 -126 -173 -126c-105 0 -162 64 -170 133c-3 29 -7 95 -12 198s-7 220 -7 349c0 155 6 304 19 445c12 141 35 234 70 277c27 27 82 39 138 39c52 0 101 -10 126 -33c17 -17 39 -48 64 -91c25 -44 49 -91 74 -141
s46 -93 63 -130s25 -56 25 -56z" />
    <glyph glyph-name="N" unicode="N" horiz-adv-x="1563" 
d="M351 1430c27 4 58 6 91 6c43 0 86 -2 129 -7s76 -10 99 -16c72 -21 137 -61 194 -121c57 -61 106 -126 147 -196c41 -71 72 -132 94 -185c21 -53 32 -79 32 -79s-3 24 -8 72s-8 104 -8 167c0 62 5 124 16 185c10 61 30 107 59 139c29 29 86 45 141 45
c56 0 107 -17 123 -54c12 -32 21 -83 27 -152c5 -70 8 -149 8 -237c0 -140 -6 -282 -19 -426s-30 -248 -51 -313c-17 -48 -43 -95 -78 -142s-73 -79 -116 -96c-43 -13 -104 -20 -181 -20c-45 0 -90 4 -134 11c-45 7 -81 18 -109 34c-47 30 -91 69 -132 118s-77 98 -108 149
c-31 50 -56 93 -73 128c-18 35 -27 53 -27 53s-1 -15 -3 -44c-2 -30 -5 -66 -10 -109c-9 -85 -24 -178 -45 -235c-28 -65 -94 -100 -161 -100c-65 0 -129 35 -149 107c-13 51 -22 118 -29 203c-7 84 -10 175 -10 272c0 131 7 260 20 386s32 224 59 293c32 81 99 144 212 164
z" />
    <glyph glyph-name="O" unicode="O" horiz-adv-x="1349" 
d="M652 1458h22c197 -6 347 -69 449 -188s157 -282 166 -488c1 -16 1 -32 1 -48c0 -154 -28 -287 -83 -399c-56 -112 -130 -198 -222 -259c-93 -61 -195 -92 -308 -93c-151 0 -303 48 -419 155c-117 107 -193 274 -193 510c0 19 1 39 2 60c3 80 15 163 35 249
c19 86 51 167 94 242s101 136 176 184c74 47 167 72 280 75zM833 1029v9c-2 85 -47 170 -147 170c-65 0 -95 -48 -106 -101c-5 -27 -8 -49 -8 -68v-15c4 -73 42 -158 137 -158h6c41 3 71 22 90 55s28 69 28 108z" />
    <glyph glyph-name="P" unicode="P" horiz-adv-x="1463" 
d="M561 1436h13c75 0 142 -3 202 -8l90 -9c363 0 508 -245 508 -495c0 -258 -157 -523 -393 -523l-174 -12v-44c0 -26 0 -58 -1 -95c-1 -38 -4 -71 -8 -99c-13 -64 -51 -107 -114 -130c-68 -23 -157 -33 -242 -33c-93 0 -167 11 -224 33c-69 32 -100 75 -124 147
c-8 27 -15 92 -20 195c-6 103 -9 217 -9 341c0 119 4 230 11 335s20 179 38 222c36 72 114 119 193 144c69 21 151 31 245 31h9zM839 1175c-14 0 -25 0 -34 -1l-13 -2v-307c-2 0 203 15 203 172c0 79 -42 115 -87 128c-23 7 -44 10 -64 10h-5z" />
    <glyph glyph-name="Q" unicode="Q" horiz-adv-x="1343" 
d="M653 1458h21c197 -6 347 -69 449 -188s157 -282 166 -488c1 -16 1 -32 1 -47c0 -329 -140 -571 -343 -682c29 -48 56 -99 56 -124c0 -2 0 -4 -1 -6c-7 -21 -48 -50 -91 -71c-21 -10 -37 -15 -48 -15c-3 0 -5 0 -7 1c-16 10 -34 30 -55 61s-40 60 -57 89
c-23 -3 -45 -4 -67 -4h-2c-151 0 -302 48 -418 155s-192 273 -192 509c0 19 1 39 2 60c3 80 15 163 35 249c19 86 51 167 94 242s101 136 176 184c74 47 168 72 281 75zM686 1209c-33 0 -57 -10 -73 -31c-17 -21 -28 -44 -33 -71s-8 -49 -8 -68v-15c4 -73 42 -158 137 -158
h6c41 3 71 22 90 55s28 69 28 108v9c-2 85 -47 171 -147 171z" />
    <glyph glyph-name="R" unicode="R" horiz-adv-x="1598" 
d="M866 1447c391 0 587 -222 587 -406c0 -105 -63 -195 -187 -230c87 -28 158 -79 198 -166c9 -20 16 -57 21 -111c5 -55 7 -113 7 -176c0 -77 -5 -147 -14 -210c-5 -27 -17 -52 -36 -77s-42 -42 -68 -49c-17 -4 -44 -7 -81 -9c-37 -3 -76 -4 -116 -4c-59 0 -106 3 -141 10
c-65 16 -119 58 -119 138v227c0 68 -41 109 -87 131c-23 11 -43 18 -60 22v-88c0 -46 0 -97 -1 -153s-4 -99 -8 -128c-13 -63 -51 -106 -113 -129c-75 -22 -150 -33 -227 -33c-83 0 -150 11 -203 33c-68 32 -100 74 -124 147c-8 27 -15 91 -20 194c-6 102 -9 214 -9 337
c0 117 4 228 11 332s20 177 38 220c36 72 115 119 194 144c67 23 161 31 254 31c80 1 144 1 192 2c43 1 81 1 112 1zM974 1045c0 108 -73 144 -142 144c-21 0 -40 -3 -59 -9v-307h4c13 0 61 3 109 24c47 21 88 65 88 148z" />
    <glyph glyph-name="S" unicode="S" horiz-adv-x="1272" 
d="M1227 1211c0 -114 -83 -138 -179 -138c-41 0 -82 3 -123 8c-37 5 -69 7 -96 7c-45 0 -75 -9 -75 -41c0 -51 36 -59 99 -70c59 -9 138 -28 229 -87c80 -56 121 -145 138 -244c8 -49 12 -97 12 -143c0 -455 -327 -499 -604 -499c-37 0 -72 0 -107 1c-15 1 -30 1 -45 1
c-80 1 -183 21 -274 61s-157 101 -157 182c0 86 70 107 156 107c45 0 93 -4 143 -11c45 -7 84 -10 118 -10c47 0 79 10 82 41v9c0 31 -11 50 -33 59c-23 8 -54 14 -95 18c-43 4 -95 13 -156 28c-177 48 -220 193 -220 369c0 117 9 213 27 289s52 136 101 179s119 74 210 92
c91 17 209 26 355 26c162 0 494 -50 494 -234z" />
    <glyph glyph-name="T" unicode="T" horiz-adv-x="1251" 
d="M198 1427c104 10 232 15 383 15c155 0 312 -5 471 -15c45 -5 83 -21 114 -50c30 -29 45 -65 45 -108c0 -44 -15 -81 -46 -112s-69 -47 -113 -47h-73c1 -89 2 -185 2 -286c0 -149 -1 -291 -4 -426c-3 -136 -7 -228 -12 -276c-14 -116 -131 -117 -368 -117
c-186 0 -310 22 -320 133c-5 99 -7 228 -7 385c0 198 3 394 8 587h-80c-44 0 -81 16 -112 47s-46 68 -46 112c0 43 15 79 46 108c30 28 67 45 112 50z" />
    <glyph glyph-name="U" unicode="U" horiz-adv-x="1507" 
d="M133 1327c21 68 98 101 192 113c47 5 92 8 136 8c31 0 59 -1 85 -2c19 -1 37 -1 56 -2c66 -1 127 -7 183 -16s96 -31 119 -66c35 -60 44 -142 44 -229c0 -37 -1 -73 -3 -109c-2 -33 -3 -64 -3 -93c0 -42 4 -77 12 -104s25 -41 51 -41c65 0 90 48 95 121c3 37 4 78 4 121
v30c0 54 1 114 4 180c7 119 30 173 80 191c25 9 57 13 97 13c79 0 131 -5 159 -56c13 -26 20 -68 20 -125v-13c-1 -35 -1 -75 -1 -118c-1 -128 -4 -269 -8 -422c-5 -153 -14 -289 -27 -408c-14 -119 -35 -190 -64 -214c-112 -72 -258 -82 -439 -82c-28 0 -57 0 -86 1h-63
c-71 0 -149 2 -233 5s-160 12 -227 25c-68 13 -113 33 -135 62c-27 45 -49 140 -67 287c-19 146 -28 301 -28 465c0 183 14 357 47 478z" />
    <glyph glyph-name="V" unicode="V" horiz-adv-x="1512" 
d="M175 1338c45 43 102 74 171 95c69 20 138 30 208 30c119 0 225 -27 278 -79c31 -34 54 -86 69 -157s28 -145 38 -223c9 -75 20 -140 33 -193s31 -81 55 -84c48 0 80 69 105 169c12 50 24 104 36 163c24 121 51 245 92 334c17 33 61 52 105 52c49 0 95 -23 99 -72v-20
c0 -105 -16 -246 -49 -422c-33 -177 -74 -343 -121 -500c-48 -157 -95 -268 -142 -331c-78 -94 -203 -97 -328 -97c-38 0 -81 1 -129 3s-93 8 -134 17c-42 9 -74 24 -96 44c-56 57 -109 151 -159 281c-51 130 -92 270 -124 420c-33 149 -49 278 -49 385c0 88 13 156 42 185z
" />
    <glyph glyph-name="W" unicode="W" horiz-adv-x="2075" 
d="M451 1448h10c31 0 59 -1 84 -2c17 -1 35 -1 53 -2c67 -1 128 -5 185 -14s97 -32 121 -67c35 -60 43 -143 43 -227c0 -37 -1 -74 -3 -111c-1 -34 -2 -65 -2 -94c0 -42 4 -76 12 -103s25 -41 51 -41c65 0 90 48 95 121c3 37 4 78 4 121v30c0 54 1 114 4 180c0 3 0 6 1 9v13
c0 113 27 159 76 172c24 7 54 10 87 10h10h10h10c66 0 117 -7 143 -58c13 -26 19 -67 19 -124v-4c1 -6 1 -12 1 -18c3 -56 4 -108 4 -155v-28c0 -167 1 -269 99 -269c71 0 83 116 83 247c0 38 -1 77 -2 116c-1 37 -2 72 -2 105c0 44 2 81 7 112c14 71 62 80 114 80
c9 0 17 0 25 -1h47c46 0 109 -8 137 -117c9 -38 16 -101 22 -190c5 -89 8 -189 8 -298c0 -141 -6 -280 -19 -417s-36 -236 -68 -299c-45 -77 -124 -107 -197 -114c-37 -3 -67 -5 -90 -5h-8c-86 0 -150 7 -193 21s-73 32 -92 54c-19 21 -35 45 -46 70l-3 6
c-72 -92 -174 -131 -290 -142c-59 -6 -119 -9 -180 -9h-45c-71 0 -149 2 -233 5s-160 11 -227 24c-68 13 -113 34 -135 63c-27 45 -49 142 -67 289c-19 147 -28 302 -28 465c0 181 14 354 46 475c21 67 94 100 185 112c45 6 90 9 134 9z" />
    <glyph glyph-name="X" unicode="X" horiz-adv-x="1485" 
d="M1298 1446h2c31 0 58 -12 79 -35c21 -24 32 -51 32 -80c0 -22 -7 -44 -22 -65c-95 -126 -213 -274 -355 -444c75 -143 143 -276 202 -399s88 -200 88 -231c0 -27 -18 -54 -54 -80c-37 -27 -82 -50 -137 -71s-113 -38 -172 -51c-60 -12 -113 -18 -160 -18
c-43 0 -76 6 -99 18c-21 13 -49 45 -86 96s-75 109 -116 175c-18 -21 -35 -40 -50 -58c-51 -60 -98 -113 -139 -159c-25 -25 -52 -37 -80 -37c-26 0 -49 9 -69 27c-21 17 -31 40 -31 68c0 23 9 48 28 75c19 25 37 50 54 73c49 67 104 141 166 221c-86 157 -164 312 -234 463
s-105 250 -105 297c0 69 59 123 145 160s193 57 290 57c92 0 172 -18 212 -57c23 -23 54 -65 94 -126s82 -131 127 -209c125 150 218 261 281 332c37 41 76 58 109 58z" />
    <glyph glyph-name="Y" unicode="Y" horiz-adv-x="1520" 
d="M145 1438c31 5 61 8 89 8c56 0 103 -14 135 -51c17 -21 43 -85 74 -161c35 -87 72 -178 108 -235c17 -29 33 -43 47 -43c48 0 93 92 140 195c23 51 49 100 76 147s56 81 88 103c35 19 80 30 135 34s99 6 134 6h10c112 0 299 -1 299 -114c0 -34 -16 -84 -47 -150
c-32 -66 -70 -137 -115 -214s-90 -152 -135 -223c-39 -63 -71 -117 -98 -163c0 -37 0 -78 1 -121c1 -46 2 -91 2 -135c0 -111 -5 -207 -28 -248c-18 -27 -55 -44 -110 -52c-56 -8 -112 -12 -168 -12h-21c-66 0 -134 5 -203 15c-70 9 -115 27 -134 53c-24 43 -30 135 -30 236
c0 56 1 111 3 166c2 45 3 83 3 114c-13 23 -29 50 -48 81c-38 63 -80 136 -126 218s-87 162 -122 241c-35 78 -56 143 -61 196v5c0 51 41 93 102 104z" />
    <glyph glyph-name="Z" unicode="Z" horiz-adv-x="1234" 
d="M498 1218c1 0 -166 -9 -246 -9c-89 0 -134 49 -134 102c0 29 14 56 41 82c27 25 69 40 124 44c133 9 267 13 404 13c111 0 225 -4 340 -13c41 -5 80 -24 115 -57c35 -34 52 -71 52 -110c0 -48 -24 -126 -72 -235s-103 -222 -165 -339s-117 -218 -165 -303
s-72 -128 -72 -128s40 -1 120 -2c37 0 79 1 126 2h3c31 0 54 -11 70 -33s24 -46 24 -73c0 -53 -32 -106 -97 -121c-45 -8 -106 -14 -183 -18c-77 -5 -157 -7 -240 -7c-77 0 -148 2 -215 6s-118 10 -153 19c-79 23 -120 76 -123 161v9c0 47 15 111 46 193
c30 82 67 170 111 263s88 182 132 266c44 83 81 152 112 207z" />
    <glyph glyph-name="bracketleft" unicode="[" horiz-adv-x="907" 
d="M849 1503v-1c0 -71 -44 -98 -99 -106c-27 -5 -54 -7 -79 -8c-30 0 -52 -3 -65 -9c-11 -73 -19 -160 -24 -262c-5 -103 -7 -210 -7 -323c0 -263 8 -507 24 -733h32c91 0 151 -9 180 -26c29 -18 44 -45 44 -82v-3v-3c0 -60 -78 -88 -192 -97c-57 -5 -118 -7 -181 -7h-54
h-20c-60 0 -105 3 -135 8c-31 6 -62 23 -94 50c-122 102 -139 285 -139 556v89c1 35 1 71 1 108c0 130 3 257 9 380c5 123 19 230 41 321c21 91 56 152 105 184c37 21 92 39 165 53s147 21 222 21c71 0 132 -8 184 -25s79 -45 82 -85z" />
    <glyph glyph-name="backslash" unicode="\" horiz-adv-x="1058" 
d="M172 1540c25 10 50 15 74 15c64 0 122 -32 147 -89l590 -1308c8 -19 12 -38 12 -57c0 -61 -41 -121 -109 -152c-25 -10 -50 -15 -74 -15c-64 0 -122 32 -147 89l-590 1307c-8 19 -12 38 -12 57c0 63 41 122 109 153z" />
    <glyph glyph-name="bracketright" unicode="]" horiz-adv-x="907" 
d="M52 -47v1c0 71 44 98 99 107c27 4 54 6 79 7c30 0 52 3 65 9c11 73 19 160 24 263c5 102 7 209 7 322c0 263 -8 507 -24 734h-39c-88 0 -146 9 -175 27c-29 17 -43 45 -43 83v3c0 60 79 88 193 97c57 5 117 7 181 7h54h20c59 0 104 -3 135 -8c31 -6 62 -23 94 -50
c121 -101 139 -286 139 -560v-85c-1 -35 -1 -71 -1 -107c0 -130 -3 -257 -8 -380c-6 -124 -20 -231 -42 -322s-57 -152 -106 -184c-37 -21 -91 -39 -164 -53s-147 -21 -222 -21c-71 0 -132 8 -184 25s-79 45 -82 85z" />
    <glyph glyph-name="asciicircum" unicode="^" horiz-adv-x="941" 
d="M43 1038v2c0 36 19 86 57 149c37 63 84 121 139 172s109 80 164 87h15c103 0 202 -61 278 -142c38 -41 68 -82 91 -124c23 -43 34 -79 34 -110c0 -24 -8 -42 -24 -53c-26 -16 -61 -29 -106 -38c-45 -10 -89 -15 -133 -15c-52 0 -95 8 -130 23c-11 5 -20 24 -32 47
c-17 39 -40 79 -71 79h-2c-31 -3 -45 -33 -57 -66c-9 -25 -21 -49 -38 -60c-27 -13 -53 -20 -79 -20c-56 0 -103 26 -106 69z" />
    <glyph glyph-name="underscore" unicode="_" horiz-adv-x="991" 
d="M40 -138c0 46 13 78 39 97c25 19 74 31 145 34c71 4 174 6 309 6h78c22 1 43 1 63 1c188 0 276 -12 276 -137c0 -61 -13 -98 -73 -118c-61 -19 -176 -24 -383 -24c-120 0 -213 2 -278 6c-66 4 -112 16 -137 35c-26 20 -39 53 -39 100z" />
    <glyph glyph-name="grave" unicode="`" horiz-adv-x="733" 
d="M145 1396c37 39 73 54 108 54c68 0 133 -58 184 -105c8 -8 16 -15 24 -22c9 -7 18 -15 28 -23c60 -48 130 -109 130 -182c0 -30 -14 -63 -42 -98c-29 -33 -62 -48 -97 -48c-88 0 -182 84 -243 143c-5 5 -10 10 -16 15c-51 47 -116 110 -116 178c0 29 13 58 40 88z" />
    <glyph glyph-name="a" unicode="a" 
d="M902 1426c171 -13 316 -78 405 -197c37 -57 63 -155 77 -292c14 -138 21 -278 21 -420c0 -119 -3 -223 -9 -313c-6 -91 -13 -145 -20 -163c-10 -13 -56 -23 -137 -30s-166 -11 -255 -11c-66 0 -124 2 -174 7c-51 5 -81 12 -90 22c-13 21 -21 53 -24 98
c-3 44 -4 80 -4 108v10c-96 -2 -191 -5 -286 -8c0 -31 -1 -68 -4 -113s-9 -76 -18 -94c-7 -10 -27 -18 -58 -23s-66 -8 -103 -8c-39 0 -74 3 -107 9c-33 5 -52 13 -59 24c-5 20 -8 72 -8 157c0 86 2 188 7 307c4 118 9 222 15 313c32 443 215 626 588 626h27
c13 -1 27 -1 41 -1c55 -1 113 -4 175 -8zM408 941l282 1c-3 65 -18 118 -43 159s-57 61 -94 61h-5c-65 -4 -140 -77 -140 -221z" />
    <glyph glyph-name="b" unicode="b" horiz-adv-x="1328" 
d="M632 1441h19c147 -1 291 -17 405 -53c114 -37 187 -97 187 -189c0 -80 -57 -148 -126 -196c-35 -24 -68 -43 -100 -56c81 -25 146 -76 196 -154c50 -79 75 -158 75 -238c0 -121 -17 -253 -68 -361c-25 -54 -61 -99 -107 -134c-34 -23 -96 -39 -185 -48
c-89 -10 -186 -15 -289 -15c-115 0 -221 4 -320 13c-99 8 -162 18 -189 30c-19 13 -32 66 -39 161c-8 95 -12 206 -12 335c0 182 6 360 17 535s23 277 38 308c13 14 68 28 166 42c97 13 208 20 332 20zM742 1183h-6c-29 -1 -53 -6 -53 -6v-160s15 -2 36 -2c33 0 80 6 110 33
c15 13 22 34 22 61c0 62 -61 74 -109 74zM730 857c-14 -1 -25 -1 -34 -2l-13 -2v-307c0 2 203 16 203 172c0 79 -41 115 -89 129c-24 7 -46 10 -67 10z" />
    <glyph glyph-name="c" unicode="c" horiz-adv-x="1333" 
d="M1292 1352v-658c0 -94 -93 -92 -170 -92h-18h-61c-100 0 -203 0 -203 -59v-89c3 -28 17 -46 44 -55s58 -14 94 -14c26 0 52 1 79 3c23 1 44 2 63 3h8c142 0 165 -50 165 -181c0 -191 -29 -212 -316 -212c-38 0 -81 0 -128 1c-60 1 -129 1 -206 1h-21
c-335 0 -476 1 -534 72c-37 46 -42 124 -42 255c0 83 -1 171 -3 266c-2 84 -3 155 -3 214c0 363 6 518 68 584c40 43 106 49 210 49h368c66 -1 128 -1 186 -1h122c87 0 152 -2 195 -7c42 -5 70 -13 83 -26s20 -31 20 -54z" />
    <glyph glyph-name="d" unicode="d" horiz-adv-x="1314" 
d="M609 1440h29c125 0 227 -15 307 -44c79 -30 142 -69 187 -117c45 -49 77 -102 98 -160c20 -58 32 -116 37 -175s7 -113 7 -162c0 -61 -6 -138 -17 -231c-11 -94 -30 -184 -55 -269c-26 -85 -60 -149 -102 -191c-41 -35 -111 -60 -210 -74s-202 -21 -311 -21
s-208 5 -297 15c-89 9 -142 20 -161 32c-17 17 -30 77 -37 182c-8 104 -12 224 -12 361c0 176 5 345 15 507c9 162 21 257 34 285c12 14 66 28 162 42c95 13 204 20 326 20zM873 995v3c-3 69 -45 108 -100 124c-28 8 -55 12 -80 12c-8 0 -16 0 -23 -1v-307
c-2 0 203 16 203 169z" />
    <glyph glyph-name="e" unicode="e" horiz-adv-x="1333" 
d="M1292 1352v-80c0 -94 -93 -92 -170 -92h-18h-61c-102 0 -210 0 -210 -59c0 -49 21 -55 84 -55h63c92 0 128 -7 139 -39c5 -16 8 -40 8 -73c0 -59 -5 -91 -42 -105c-19 -7 -50 -11 -93 -11c-122 0 -147 -49 -147 -81c0 -56 62 -69 133 -69c26 0 52 1 79 3c23 1 44 2 63 3
h8c95 0 137 -25 153 -106c8 -41 12 -99 12 -176c0 -164 -9 -263 -54 -322c-23 -29 -57 -50 -103 -63c-93 -25 -241 -27 -476 -27h-38c-335 0 -476 1 -534 72c-37 46 -42 124 -42 255c0 83 -1 171 -3 266c-2 84 -3 155 -3 214c0 363 6 518 68 584c40 43 106 49 210 49h368
c66 -1 128 -1 186 -1h122c87 0 152 -2 195 -7c42 -5 70 -13 83 -26s20 -31 20 -54z" />
    <glyph glyph-name="f" unicode="f" horiz-adv-x="1240" 
d="M1033 1168h-313c-51 0 -118 -5 -122 -64v-4c0 -66 70 -71 119 -71h20c80 0 141 1 184 2c37 1 77 2 121 2c37 0 64 -10 82 -31c17 -21 26 -44 26 -69c0 -27 -10 -53 -29 -76c-19 -24 -47 -36 -84 -36c-29 0 -59 -3 -88 -9c-30 -6 -50 -20 -59 -43c-9 -33 -13 -85 -13 -155
c0 -72 2 -153 7 -243c4 -85 6 -160 6 -223c0 -41 -9 -93 -49 -127c-21 -17 -53 -26 -96 -26h-537c-96 0 -129 72 -135 135c-16 174 -24 352 -24 533c0 188 8 378 24 570c3 63 24 199 181 199c147 0 308 -1 485 -2c131 -1 232 -1 301 -1c37 0 66 -14 86 -41
c19 -27 29 -58 29 -91c0 -63 -39 -129 -122 -129z" />
    <glyph glyph-name="g" unicode="g" horiz-adv-x="1616" 
d="M1244 1437c93 -15 134 -70 134 -125c0 -29 -10 -54 -30 -77c-21 -23 -49 -34 -86 -34c-108 -1 -197 -6 -268 -15c-33 -4 -67 -14 -102 -30c-35 -17 -64 -43 -87 -80c-21 -39 -36 -93 -45 -161s-14 -140 -14 -215c0 -119 8 -225 24 -319c9 -45 46 -65 87 -65
c45 0 92 25 101 65c6 35 9 69 9 103c0 44 -3 88 -9 133c-5 35 -31 58 -59 81c-18 13 -33 28 -46 45c-10 18 -15 38 -15 60c0 25 4 49 12 71c13 39 39 79 78 96c35 15 78 25 129 32c51 6 103 9 154 9c75 0 136 -6 185 -17c89 -27 142 -87 159 -180c7 -55 11 -121 11 -197
c0 -66 -2 -132 -6 -199c-5 -67 -10 -122 -17 -167c-11 -75 -46 -131 -104 -167c-59 -37 -142 -63 -250 -78c-46 -7 -106 -12 -180 -15s-150 -4 -229 -4c-95 0 -182 2 -261 5c-80 3 -134 8 -161 14c-147 35 -213 90 -244 156c-15 33 -26 67 -33 103c-5 23 -9 81 -14 172
s-8 188 -8 293c0 75 2 147 6 215c3 67 10 121 19 162c13 70 37 133 74 190c36 56 103 99 202 128c46 12 108 21 187 26c78 5 160 7 245 7c94 0 183 -2 266 -6s145 -9 186 -15z" />
    <glyph glyph-name="h" unicode="h" horiz-adv-x="1370" 
d="M241 1437c111 0 156 -28 172 -67c8 -19 12 -39 12 -60c2 -80 3 -183 3 -309h159c3 152 7 259 11 320c4 33 24 58 59 75s79 28 130 33s101 8 149 8c55 0 108 -3 159 -8c50 -5 91 -17 123 -35c31 -19 48 -47 50 -84c4 -121 6 -274 6 -460c0 -154 -1 -303 -4 -446
c-3 -144 -7 -241 -12 -290c-14 -116 -131 -118 -368 -118c-186 0 -293 21 -301 134c-5 103 -8 239 -8 406c0 65 0 131 1 200h-156c-1 -145 -3 -277 -5 -394c-3 -117 -5 -193 -6 -228c-2 -60 -29 -118 -179 -118c-87 0 -169 21 -179 134c-5 101 -8 233 -8 396
c0 157 2 313 5 469s7 265 12 326c4 67 32 116 175 116z" />
    <glyph glyph-name="i" unicode="i" horiz-adv-x="768" 
d="M66 1321c4 33 24 58 59 75s79 28 130 33s101 8 149 8c111 0 210 -8 267 -44c29 -19 44 -47 46 -84c4 -121 6 -274 6 -460c0 -154 -1 -303 -4 -446c-3 -144 -7 -241 -12 -290c-8 -76 -57 -105 -156 -112c-50 -3 -114 -5 -193 -5c-186 0 -293 22 -301 133
c-5 101 -8 233 -8 396c0 157 2 313 5 470c3 156 7 265 12 326z" />
    <glyph glyph-name="j" unicode="j" horiz-adv-x="1055" 
d="M328 355c0 66 1 153 4 261c5 162 7 349 7 562c0 129 47 195 112 227c65 31 145 33 212 33c125 0 206 -5 258 -45c25 -20 45 -51 58 -94c26 -86 32 -231 32 -463c0 -57 0 -121 -1 -190v-39c0 -146 -7 -264 -21 -355c-15 -91 -51 -157 -110 -197c-58 -39 -152 -59 -280 -59
h-6h-135c-65 0 -123 -1 -138 -1c-19 -1 -37 -1 -54 -1c-171 0 -226 23 -226 142c0 85 40 120 92 134c26 7 53 11 80 14c63 6 116 14 116 71z" />
    <glyph glyph-name="k" unicode="k" horiz-adv-x="1440" 
d="M1197 1438c20 -1 42 -10 67 -25c25 -16 47 -33 66 -51c19 -19 29 -32 32 -41c1 -3 1 -7 1 -11c0 -25 -13 -57 -38 -98c-26 -41 -56 -84 -90 -130c-33 -45 -63 -89 -89 -131c-27 -42 -42 -78 -46 -107c-1 -4 -1 -8 -1 -12c0 -85 79 -221 154 -351c36 -60 67 -116 94 -168
c27 -53 40 -95 40 -127v-8c-5 -41 -28 -74 -68 -101c-41 -27 -89 -48 -145 -61c-57 -13 -110 -20 -159 -20c-77 0 -136 16 -145 48c1 -2 -84 152 -152 306c-3 -116 -6 -195 -11 -237c-14 -116 -113 -118 -350 -118c-184 0 -293 22 -301 133c-5 97 -7 223 -7 380
c0 158 2 317 5 478c3 160 7 271 12 334c4 33 24 58 59 75s79 28 130 33s101 8 149 8c111 0 210 -8 267 -44c29 -19 44 -46 46 -83c3 -82 5 -193 6 -334c7 -24 17 -39 33 -39h2c22 4 53 31 93 82c39 50 82 108 127 173c41 59 80 113 116 160s65 75 87 85c5 1 10 2 16 2z" />
    <glyph glyph-name="l" unicode="l" horiz-adv-x="1129" 
d="M838 317c27 -43 72 -51 120 -52c45 -3 88 -8 113 -43c13 -18 19 -47 19 -87c0 -117 -53 -141 -217 -141c-19 0 -40 0 -62 1h-61s-73 0 -116 1h-171c-133 0 -229 20 -287 59s-94 105 -109 196c-14 91 -21 209 -21 355v39c-1 69 -1 133 -1 190c0 348 12 497 91 558
c51 40 132 45 257 45c135 0 398 -3 398 -261c-1 -64 -4 -133 -8 -207c-5 -91 -8 -182 -8 -271c0 -152 14 -291 63 -382z" />
    <glyph glyph-name="m" unicode="m" horiz-adv-x="1664" 
d="M659 984c37 105 83 200 138 283s123 134 206 154c48 9 97 13 148 13c92 0 178 -11 215 -22c41 -12 81 -34 122 -65c41 -32 69 -70 84 -114c11 -39 19 -105 26 -199c6 -95 9 -199 9 -313c0 -91 -2 -183 -7 -274s-12 -173 -23 -245c-9 -77 -39 -138 -108 -174
c-53 -27 -134 -37 -215 -37c-87 0 -164 8 -230 24c-64 17 -86 76 -94 143c-5 45 -7 95 -7 152c0 150 15 332 14 328c1 3 -70 -153 -134 -271c-41 -75 -89 -102 -136 -102c-57 0 -110 40 -135 85c-24 43 -50 110 -70 172s-34 109 -34 109c-1 -27 -2 -53 -2 -78
c0 -57 2 -113 6 -170c5 -68 9 -156 10 -263c0 -54 -71 -126 -173 -126c-105 0 -162 64 -170 133c-3 29 -7 95 -12 198s-7 220 -7 349c0 155 6 304 19 445c12 141 35 234 70 277c27 27 82 39 138 39c52 0 101 -10 126 -33c17 -17 39 -48 64 -91c25 -44 49 -91 74 -141
s46 -93 63 -130s25 -56 25 -56z" />
    <glyph glyph-name="n" unicode="n" horiz-adv-x="1563" 
d="M351 1430c27 4 58 6 91 6c43 0 86 -2 129 -7s76 -10 99 -16c72 -21 137 -61 194 -121c57 -61 106 -126 147 -196c41 -71 72 -132 94 -185c21 -53 32 -79 32 -79s-3 24 -8 72s-8 104 -8 167c0 62 5 124 16 185c10 61 30 107 59 139c29 29 86 45 141 45
c56 0 107 -17 123 -54c12 -32 21 -83 27 -152c5 -70 8 -149 8 -237c0 -140 -6 -282 -19 -426s-30 -248 -51 -313c-17 -48 -43 -95 -78 -142s-73 -79 -116 -96c-43 -13 -104 -20 -181 -20c-45 0 -90 4 -134 11c-45 7 -81 18 -109 34c-47 30 -91 69 -132 118s-77 98 -108 149
c-31 50 -56 93 -73 128c-18 35 -27 53 -27 53s-1 -15 -3 -44c-2 -30 -5 -66 -10 -109c-9 -85 -24 -178 -45 -235c-28 -65 -94 -100 -161 -100c-65 0 -129 35 -149 107c-13 51 -22 118 -29 203c-7 84 -10 175 -10 272c0 131 7 260 20 386s32 224 59 293c32 81 99 144 212 164
z" />
    <glyph glyph-name="o" unicode="o" horiz-adv-x="1330" 
d="M652 1458h22c197 -6 347 -69 449 -188s157 -282 166 -488c1 -16 1 -32 1 -48c0 -154 -28 -287 -83 -399c-56 -112 -130 -198 -222 -259c-93 -61 -195 -92 -308 -93c-151 0 -303 48 -419 155c-117 107 -193 274 -193 510c0 19 1 39 2 60c3 80 15 163 35 249
c19 86 51 167 94 242s101 136 176 184c74 47 167 72 280 75zM833 1029v9c-2 85 -47 170 -147 170c-65 0 -95 -48 -106 -101c-5 -27 -8 -49 -8 -68v-15c4 -73 42 -158 137 -158h6c41 3 71 22 90 55s28 69 28 108z" />
    <glyph glyph-name="p" unicode="p" horiz-adv-x="1463" 
d="M561 1436h13c75 0 142 -3 202 -8l90 -9c363 0 508 -245 508 -495c0 -258 -157 -523 -393 -523l-174 -12v-44c0 -26 0 -58 -1 -95c-1 -38 -4 -71 -8 -99c-13 -64 -51 -107 -114 -130c-68 -23 -157 -33 -242 -33c-93 0 -167 11 -224 33c-69 32 -100 75 -124 147
c-8 27 -15 92 -20 195c-6 103 -9 217 -9 341c0 119 4 230 11 335s20 179 38 222c36 72 114 119 193 144c69 21 151 31 245 31h9zM839 1175c-14 0 -25 0 -34 -1l-13 -2v-307c-2 0 203 15 203 172c0 79 -42 115 -87 128c-23 7 -44 10 -64 10h-5z" />
    <glyph glyph-name="q" unicode="q" horiz-adv-x="1343" 
d="M653 1458h21c197 -6 347 -69 449 -188s157 -282 166 -488c1 -16 1 -32 1 -47c0 -329 -140 -571 -343 -682c29 -48 56 -99 56 -124c0 -2 0 -4 -1 -6c-7 -21 -48 -50 -91 -71c-21 -10 -37 -15 -48 -15c-3 0 -5 0 -7 1c-16 10 -34 30 -55 61s-40 60 -57 89
c-23 -3 -45 -4 -67 -4h-2c-151 0 -302 48 -418 155s-192 273 -192 509c0 19 1 39 2 60c3 80 15 163 35 249c19 86 51 167 94 242s101 136 176 184c74 47 168 72 281 75zM686 1209c-33 0 -57 -10 -73 -31c-17 -21 -28 -44 -33 -71s-8 -49 -8 -68v-15c4 -73 42 -158 137 -158
h6c41 3 71 22 90 55s28 69 28 108v9c-2 85 -47 171 -147 171z" />
    <glyph glyph-name="r" unicode="r" horiz-adv-x="1598" 
d="M866 1447c391 0 587 -222 587 -406c0 -105 -63 -195 -187 -230c87 -28 158 -79 198 -166c9 -20 16 -57 21 -111c5 -55 7 -113 7 -176c0 -77 -5 -147 -14 -210c-5 -27 -17 -52 -36 -77s-42 -42 -68 -49c-17 -4 -44 -7 -81 -9c-37 -3 -76 -4 -116 -4c-59 0 -106 3 -141 10
c-65 16 -119 58 -119 138v227c0 68 -41 109 -87 131c-23 11 -43 18 -60 22v-88c0 -46 0 -97 -1 -153s-4 -99 -8 -128c-13 -63 -51 -106 -113 -129c-75 -22 -150 -33 -227 -33c-83 0 -150 11 -203 33c-68 32 -100 74 -124 147c-8 27 -15 91 -20 194c-6 102 -9 214 -9 337
c0 117 4 228 11 332s20 177 38 220c36 72 115 119 194 144c67 23 161 31 254 31c80 1 144 1 192 2c43 1 81 1 112 1zM974 1045c0 108 -73 144 -142 144c-21 0 -40 -3 -59 -9v-307h4c13 0 61 3 109 24c47 21 88 65 88 148z" />
    <glyph glyph-name="s" unicode="s" horiz-adv-x="1272" 
d="M1227 1211c0 -114 -83 -138 -179 -138c-41 0 -82 3 -123 8c-37 5 -69 7 -96 7c-45 0 -75 -9 -75 -41c0 -51 36 -59 99 -70c59 -9 138 -28 229 -87c80 -56 121 -145 138 -244c8 -49 12 -97 12 -143c0 -455 -327 -499 -604 -499c-37 0 -72 0 -107 1c-15 1 -30 1 -45 1
c-80 1 -183 21 -274 61s-157 101 -157 182c0 86 70 107 156 107c45 0 93 -4 143 -11c45 -7 84 -10 118 -10c47 0 79 10 82 41v9c0 31 -11 50 -33 59c-23 8 -54 14 -95 18c-43 4 -95 13 -156 28c-177 48 -220 193 -220 369c0 117 9 213 27 289s52 136 101 179s119 74 210 92
c91 17 209 26 355 26c162 0 494 -50 494 -234z" />
    <glyph glyph-name="t" unicode="t" horiz-adv-x="1251" 
d="M198 1427c104 10 232 15 383 15c155 0 312 -5 471 -15c45 -5 83 -21 114 -50c30 -29 45 -65 45 -108c0 -44 -15 -81 -46 -112s-69 -47 -113 -47h-73c1 -89 2 -185 2 -286c0 -149 -1 -291 -4 -426c-3 -136 -7 -228 -12 -276c-14 -116 -131 -117 -368 -117
c-186 0 -310 22 -320 133c-5 99 -7 228 -7 385c0 198 3 394 8 587h-80c-44 0 -81 16 -112 47s-46 68 -46 112c0 43 15 79 46 108c30 28 67 45 112 50z" />
    <glyph glyph-name="u" unicode="u" horiz-adv-x="1553" 
d="M133 1327c21 68 98 101 192 113c47 5 92 8 136 8c31 0 59 -1 85 -2c19 -1 37 -1 56 -2c66 -1 127 -7 183 -16s96 -31 119 -66c35 -60 44 -142 44 -229c0 -37 -1 -73 -3 -109c-2 -33 -3 -64 -3 -93c0 -42 4 -77 12 -104s25 -41 51 -41c65 0 90 48 95 121c3 37 4 78 4 121
v30c0 54 1 114 4 180c7 119 30 173 80 191c25 9 57 13 97 13c79 0 131 -5 159 -56c13 -26 20 -68 20 -125v-13c-1 -35 -1 -75 -1 -118c-1 -128 -4 -269 -8 -422c-5 -153 -14 -289 -27 -408c-14 -119 -35 -190 -64 -214c-112 -72 -258 -82 -439 -82c-28 0 -57 0 -86 1h-63
c-71 0 -149 2 -233 5s-160 12 -227 25c-68 13 -113 33 -135 62c-27 45 -49 140 -67 287c-19 146 -28 301 -28 465c0 183 14 357 47 478z" />
    <glyph glyph-name="v" unicode="v" horiz-adv-x="1512" 
d="M175 1338c45 43 102 74 171 95c69 20 138 30 208 30c119 0 225 -27 278 -79c31 -34 54 -86 69 -157s28 -145 38 -223c9 -75 20 -140 33 -193s31 -81 55 -84c48 0 80 69 105 169c12 50 24 104 36 163c24 121 51 245 92 334c17 33 61 52 105 52c49 0 95 -23 99 -72v-20
c0 -105 -16 -246 -49 -422c-33 -177 -74 -343 -121 -500c-48 -157 -95 -268 -142 -331c-78 -94 -203 -97 -328 -97c-38 0 -81 1 -129 3s-93 8 -134 17c-42 9 -74 24 -96 44c-56 57 -109 151 -159 281c-51 130 -92 270 -124 420c-33 149 -49 278 -49 385c0 88 13 156 42 185z
" />
    <glyph glyph-name="w" unicode="w" horiz-adv-x="2075" 
d="M451 1448h10c31 0 59 -1 84 -2c17 -1 35 -1 53 -2c67 -1 128 -5 185 -14s97 -32 121 -67c35 -60 43 -143 43 -227c0 -37 -1 -74 -3 -111c-1 -34 -2 -65 -2 -94c0 -42 4 -76 12 -103s25 -41 51 -41c65 0 90 48 95 121c3 37 4 78 4 121v30c0 54 1 114 4 180c0 3 0 6 1 9v13
c0 113 27 159 76 172c24 7 54 10 87 10h10h10h10c66 0 117 -7 143 -58c13 -26 19 -67 19 -124v-4c1 -6 1 -12 1 -18c3 -56 4 -108 4 -155v-28c0 -167 1 -269 99 -269c71 0 83 116 83 247c0 38 -1 77 -2 116c-1 37 -2 72 -2 105c0 44 2 81 7 112c14 71 62 80 114 80
c9 0 17 0 25 -1h47c46 0 109 -8 137 -117c9 -38 16 -101 22 -190c5 -89 8 -189 8 -298c0 -141 -6 -280 -19 -417s-36 -236 -68 -299c-45 -77 -124 -107 -197 -114c-37 -3 -67 -5 -90 -5h-8c-86 0 -150 7 -193 21s-73 32 -92 54c-19 21 -35 45 -46 70l-3 6
c-72 -92 -174 -131 -290 -142c-59 -6 -119 -9 -180 -9h-45c-71 0 -149 2 -233 5s-160 11 -227 24c-68 13 -113 34 -135 63c-27 45 -49 142 -67 289c-19 147 -28 302 -28 465c0 181 14 354 46 475c21 67 94 100 185 112c45 6 90 9 134 9z" />
    <glyph glyph-name="x" unicode="x" horiz-adv-x="1485" 
d="M1298 1446h2c31 0 58 -12 79 -35c21 -24 32 -51 32 -80c0 -22 -7 -44 -22 -65c-95 -126 -213 -274 -355 -444c75 -143 143 -276 202 -399s88 -200 88 -231c0 -27 -18 -54 -54 -80c-37 -27 -82 -50 -137 -71s-113 -38 -172 -51c-60 -12 -113 -18 -160 -18
c-43 0 -76 6 -99 18c-21 13 -49 45 -86 96s-75 109 -116 175c-18 -21 -35 -40 -50 -58c-51 -60 -98 -113 -139 -159c-25 -25 -52 -37 -80 -37c-26 0 -49 9 -69 27c-21 17 -31 40 -31 68c0 23 9 48 28 75c19 25 37 50 54 73c49 67 104 141 166 221c-86 157 -164 312 -234 463
s-105 250 -105 297c0 69 59 123 145 160s193 57 290 57c92 0 172 -18 212 -57c23 -23 54 -65 94 -126s82 -131 127 -209c125 150 218 261 281 332c37 41 76 58 109 58z" />
    <glyph glyph-name="y" unicode="y" horiz-adv-x="1520" 
d="M145 1438c31 5 61 8 89 8c56 0 103 -14 135 -51c17 -21 43 -85 74 -161c35 -87 72 -178 108 -235c17 -29 33 -43 47 -43c48 0 93 92 140 195c23 51 49 100 76 147s56 81 88 103c35 19 80 30 135 34s99 6 134 6h10c112 0 299 -1 299 -114c0 -34 -16 -84 -47 -150
c-32 -66 -70 -137 -115 -214s-90 -152 -135 -223c-39 -63 -71 -117 -98 -163c0 -37 0 -78 1 -121c1 -46 2 -91 2 -135c0 -111 -5 -207 -28 -248c-18 -27 -55 -44 -110 -52c-56 -8 -112 -12 -168 -12h-21c-66 0 -134 5 -203 15c-70 9 -115 27 -134 53c-24 43 -30 135 -30 236
c0 56 1 111 3 166c2 45 3 83 3 114c-13 23 -29 50 -48 81c-38 63 -80 136 -126 218s-87 162 -122 241c-35 78 -56 143 -61 196v5c0 51 41 93 102 104z" />
    <glyph glyph-name="z" unicode="z" horiz-adv-x="1234" 
d="M498 1218c1 0 -166 -9 -246 -9c-89 0 -134 49 -134 102c0 29 14 56 41 82c27 25 69 40 124 44c133 9 267 13 404 13c111 0 225 -4 340 -13c41 -5 80 -24 115 -57c35 -34 52 -71 52 -110c0 -48 -24 -126 -72 -235s-103 -222 -165 -339s-117 -218 -165 -303
s-72 -128 -72 -128s40 -1 120 -2c37 0 79 1 126 2h3c31 0 54 -11 70 -33s24 -46 24 -73c0 -53 -32 -106 -97 -121c-45 -8 -106 -14 -183 -18c-77 -5 -157 -7 -240 -7c-77 0 -148 2 -215 6s-118 10 -153 19c-79 23 -120 76 -123 161v9c0 47 15 111 46 193
c30 82 67 170 111 263s88 182 132 266c44 83 81 152 112 207z" />
    <glyph glyph-name="braceleft" unicode="{" horiz-adv-x="857" 
d="M553 1617h12c85 0 167 -14 216 -42c24 -15 36 -33 36 -55c0 -68 -36 -70 -74 -70c-28 0 -55 -2 -71 -27c-8 -39 -12 -89 -12 -149c0 -27 0 -54 1 -83c1 -31 1 -61 1 -92c0 -111 -7 -220 -40 -298c-17 -39 -42 -68 -75 -85c67 -35 98 -116 108 -219c5 -52 7 -105 7 -160
c0 -31 0 -61 -1 -91c-1 -29 -1 -56 -1 -82c0 -60 4 -109 12 -148c16 -25 43 -27 71 -27c38 0 74 -2 74 -70c0 -45 -60 -74 -144 -87c-42 -7 -86 -10 -133 -10c-56 0 -109 5 -158 14c-50 10 -85 24 -105 43c-25 26 -40 62 -47 109c-7 48 -10 99 -10 156v116
c0 109 -6 218 -46 303c-15 25 -36 45 -63 58c-36 21 -68 46 -71 98c3 53 35 78 71 99c27 14 48 33 63 58c40 85 46 194 46 303v116c0 57 3 109 10 156s22 83 47 109c21 18 58 32 113 42c55 9 109 14 163 15z" />
    <glyph glyph-name="bar" unicode="|" horiz-adv-x="400" 
d="M191 1719h5c45 -1 82 -14 112 -39s46 -55 47 -92l4 -1746c0 -34 -14 -63 -43 -87c-29 -23 -65 -35 -107 -35h-5c-45 2 -82 15 -112 40s-46 55 -47 91l-4 1746c0 34 15 63 44 87c29 23 64 35 106 35z" />
    <glyph glyph-name="braceright" unicode="}" horiz-adv-x="857" 
d="M304 -178h-6c-87 0 -170 14 -220 42c-25 15 -38 33 -38 55c0 69 36 71 74 71c28 0 55 2 71 27c8 39 12 89 12 149c0 26 0 53 -1 82c-1 31 -1 62 -1 93c0 109 7 220 40 298c17 39 42 67 75 84c-67 35 -97 116 -107 220c-5 51 -8 104 -8 159c0 31 0 61 1 92c1 28 1 55 1 81
c0 60 -4 110 -12 149c-16 25 -43 27 -71 27c-38 0 -74 2 -74 70c0 44 60 73 145 87c42 7 86 10 133 10c56 0 109 -5 158 -14c49 -10 84 -24 104 -43c25 -27 41 -64 48 -111s10 -100 10 -157c0 -18 0 -36 -1 -55v-56c0 -111 6 -221 46 -306c15 -25 36 -44 62 -58
c37 -20 69 -46 72 -98c-3 -52 -35 -78 -72 -98c-26 -14 -47 -33 -62 -58c-40 -85 -46 -196 -46 -305v-57c1 -18 1 -36 1 -54c0 -57 -3 -110 -10 -157s-23 -84 -48 -111c-21 -18 -58 -32 -113 -42c-55 -9 -109 -15 -163 -16z" />
    <glyph glyph-name="asciitilde" unicode="~" horiz-adv-x="1113" 
d="M113 586c-11 19 -16 40 -16 63c0 43 16 89 47 136s69 88 114 121s90 49 133 49c76 0 149 -43 217 -87c56 -36 108 -66 156 -69h2c27 0 58 21 93 42c35 23 71 45 100 45c11 0 20 -3 29 -10c15 -13 23 -34 23 -61c0 -57 -32 -139 -82 -208s-114 -122 -178 -122
c-67 0 -145 41 -221 85c-69 39 -136 74 -188 74c-27 0 -57 -23 -86 -47c-31 -25 -62 -49 -90 -49c-19 0 -36 13 -53 38z" />
    <glyph glyph-name="exclamdown" unicode="&#xa1;" horiz-adv-x="900" 
d="M231 1217c-38 0 -71 11 -99 32s-43 48 -45 83c0 60 53 124 141 124c19 0 50 0 93 1h137c88 0 169 1 198 1c99 -1 159 -45 159 -124c0 -30 -13 -57 -39 -81c-27 -24 -64 -36 -113 -36h-5c-35 1 -80 1 -136 1c-69 0 -138 0 -207 -1h-84zM429 1c-107 2 -187 24 -240 65
c-54 41 -90 93 -108 155c-19 62 -28 125 -29 190c-1 9 -1 17 -1 25c0 72 11 149 33 230c21 81 50 156 87 227c36 71 78 129 125 174s96 67 147 67c6 0 12 0 18 -1c65 -11 126 -57 185 -140s107 -183 146 -299c39 -117 58 -227 58 -331v-9c1 -11 1 -23 1 -35
c0 -156 -69 -304 -390 -317c-11 -1 -22 -1 -32 -1z" />
    <glyph glyph-name="cent" unicode="&#xa2;" horiz-adv-x="1379" 
d="M1161 1486c33 -1 65 -14 96 -37c30 -23 45 -51 45 -82c0 -14 -4 -28 -13 -43c-20 -29 -51 -75 -76 -114c-3 -5 -6 -9 -9 -14c69 -105 104 -231 104 -379h-268c-1 28 -7 62 -17 103c-53 -80 -102 -155 -147 -224c-46 -69 -95 -144 -148 -224c27 -25 55 -37 83 -37h1
c57 0 109 38 149 86c40 47 67 95 76 119h262c-49 -413 -273 -640 -652 -640c-78 0 -147 11 -208 32c-7 -11 -20 -31 -28 -42c-10 -13 -24 -19 -42 -19c-40 0 -93 27 -127 67c-17 19 -26 40 -26 63c0 14 5 28 14 43c3 4 6 9 9 14c-144 150 -199 379 -199 592
c0 221 77 397 201 519s288 187 461 187c126 0 238 -31 335 -93c13 19 25 38 37 57c8 12 16 24 23 35c17 21 38 31 64 31zM810 1119c-64 0 -132 -66 -175 -169c-21 -52 -32 -109 -32 -171c0 -23 2 -45 6 -67c89 134 176 267 262 398c-19 6 -39 9 -61 9z" />
    <glyph glyph-name="sterling" unicode="&#xa3;" horiz-adv-x="1288" 
d="M697 1485h20c72 -2 144 -15 216 -39c71 -24 132 -53 181 -86s73 -64 73 -93c0 -27 -30 -72 -68 -103c-19 -16 -38 -24 -55 -24c-20 0 -39 11 -59 23c-23 15 -46 28 -77 28c-15 0 -27 -27 -36 -82s-14 -122 -17 -201h95c49 0 86 -12 113 -36c26 -24 39 -51 39 -81
c0 -79 -60 -122 -159 -123h-90c1 -64 3 -118 7 -163c5 0 11 0 17 -1c39 -1 82 -3 127 -6s85 -10 121 -20c36 -11 60 -26 73 -47c12 -23 19 -82 19 -150c0 -52 -4 -102 -13 -149c-9 -48 -22 -77 -40 -86c-55 -19 -133 -32 -232 -41c-100 -9 -204 -13 -312 -13
c-113 0 -216 4 -311 12s-161 19 -197 33c-27 14 -46 44 -57 91c-11 46 -16 94 -16 143c0 65 9 124 18 147c13 25 37 42 73 51s74 14 115 14c0 63 1 125 2 186h-55c-43 0 -77 13 -102 40s-38 55 -38 84c2 35 17 63 45 84s61 31 98 31h69c34 326 142 577 413 577z" />
    <glyph glyph-name="currency" unicode="&#xa4;" horiz-adv-x="1919" 
d="M280 1411h5c43 -2 83 -16 122 -43s75 -57 108 -88c3 -3 7 -6 10 -9c97 81 220 123 370 127h5c189 0 342 -60 454 -160c1 1 2 2 2 3c11 9 22 18 33 29c35 33 72 63 112 91c41 28 83 42 127 43h5c43 0 88 -23 134 -69c35 -39 52 -76 52 -113c0 -5 0 -11 -1 -16
c-6 -41 -24 -80 -55 -116c-30 -37 -62 -70 -95 -99l-10 -10c-4 -3 -8 -7 -11 -10c-28 -28 -60 -56 -97 -85c9 -49 14 -98 14 -148c0 -58 -4 -112 -13 -162c35 -29 67 -57 96 -85c6 -6 13 -12 20 -19c33 -30 65 -63 96 -99c30 -37 48 -76 54 -117c1 -6 2 -12 2 -18
c0 -35 -18 -72 -53 -110c-46 -47 -91 -70 -135 -70h-3c-45 1 -87 16 -128 44c-40 28 -77 58 -112 91c-8 8 -16 15 -24 22c-67 -61 -142 -105 -225 -132s-166 -41 -248 -41c-155 0 -288 46 -392 126c-29 -26 -60 -50 -93 -73c-40 -28 -82 -43 -127 -44h-3
c-44 0 -89 23 -136 70c-35 39 -52 76 -52 112c0 5 0 11 1 16c7 41 25 80 55 117c31 36 62 69 95 98c8 7 14 13 21 20c9 9 18 18 27 26c-13 57 -20 117 -20 180c0 81 13 164 39 247c-17 14 -32 28 -45 41c-7 7 -14 13 -21 20c-67 61 -151 143 -151 230c0 36 15 75 52 114
c48 49 94 69 139 69zM1000 1031c-55 0 -99 -23 -133 -70s-55 -106 -64 -178c-3 -23 -4 -46 -4 -69c0 -91 20 -181 60 -236c19 -27 44 -41 73 -41c45 0 85 22 119 65c33 43 56 96 67 161c5 33 8 65 8 98c0 93 -20 180 -58 232c-19 25 -42 38 -68 38z" />
    <glyph glyph-name="yen" unicode="&#xa5;" horiz-adv-x="1520" 
d="M229 1443h6c56 0 103 -13 135 -52c17 -21 44 -84 73 -160c35 -87 72 -176 108 -234c17 -29 33 -44 48 -44c49 0 91 91 139 193c23 52 49 102 76 149s56 81 89 102c35 19 79 30 134 34s100 6 135 6h10c112 0 298 -1 298 -114c0 -34 -16 -84 -47 -150
c-32 -67 -71 -139 -116 -216c-45 -78 -90 -153 -135 -224c-3 -7 -7 -13 -11 -19c77 -15 120 -49 120 -124c0 -42 -15 -73 -44 -93s-83 -33 -160 -40v-36c1 -13 1 -25 1 -38c65 -3 115 -13 150 -32s53 -52 53 -101c0 -43 -15 -74 -46 -94c-31 -21 -87 -34 -169 -41
c-4 -19 -9 -35 -15 -46c-19 -27 -56 -44 -111 -52c-56 -8 -112 -12 -168 -12h-21c-66 0 -134 5 -203 15c-70 9 -115 27 -134 53c-7 12 -12 28 -16 47c-116 15 -175 50 -175 129c0 73 51 108 162 123c1 31 2 61 3 90c-109 15 -165 50 -165 127c0 59 33 92 102 112
c-60 99 -121 208 -183 328s-98 219 -108 297v7c0 49 41 90 101 101c29 5 57 8 84 9z" />
    <glyph glyph-name="brokenbar" unicode="&#xa6;" horiz-adv-x="400" 
d="M191 1719h5c45 -1 82 -14 112 -39s46 -55 47 -92l4 -694v-2c0 -34 -14 -63 -43 -86c-29 -24 -65 -36 -107 -36h-5c-45 2 -82 15 -112 40s-46 55 -47 91l-4 694v2c0 34 15 63 44 87c29 23 64 35 106 35zM196 646c45 -2 82 -15 112 -40c29 -25 45 -55 47 -92l4 -694
c-1 -36 -15 -66 -44 -89s-66 -35 -111 -35c-45 2 -82 15 -112 40s-46 55 -47 91l-5 694c1 37 16 67 45 90s66 35 111 35z" />
    <glyph glyph-name="section" unicode="&#xa7;" horiz-adv-x="1357" 
d="M764 1459h8c172 -1 324 -22 415 -62c45 -20 68 -45 68 -74c0 -114 -94 -131 -196 -131c-24 0 -48 1 -73 2c-23 1 -45 2 -66 2c-35 0 -65 -4 -88 -12s-35 -25 -35 -52c0 -41 70 -49 154 -61c57 -5 112 -16 166 -32s92 -46 115 -89c13 -32 20 -63 20 -93
c0 -61 -23 -116 -43 -160c45 -57 68 -143 68 -236c0 -63 -10 -125 -30 -186c-21 -62 -51 -113 -91 -153c-57 -39 -130 -67 -219 -84c-89 -18 -183 -29 -282 -34c-34 -2 -67 -3 -100 -3c-147 0 -280 19 -357 70c-39 25 -58 60 -58 104c0 152 135 166 243 174
c73 6 133 11 133 57c0 23 -45 30 -109 38c-41 5 -85 13 -132 25c-47 11 -88 31 -125 59c-37 27 -61 68 -72 122c-3 16 -4 32 -4 49c0 84 35 167 99 207c-64 39 -98 123 -98 212c0 73 24 148 72 199c51 48 136 84 253 107s239 35 364 35zM904 931c-32 0 -62 -5 -89 -14
c-28 -9 -42 -25 -42 -46c0 -44 66 -47 114 -47h16c41 0 77 -9 108 -17c20 -7 36 -10 47 -10c13 0 20 7 21 21c0 74 -95 113 -175 113z" />
    <glyph glyph-name="dieresis" unicode="&#xa8;" horiz-adv-x="782" 
d="M202 1452c91 -4 133 -51 146 -105c7 -27 10 -50 10 -68v-15c-10 -123 -97 -163 -170 -163h-5c-85 4 -121 47 -133 95c-5 24 -8 47 -8 67v7v1c0 15 5 36 16 65c10 29 26 55 47 78s48 35 81 38c3 1 5 1 8 1s5 0 8 -1zM583 1452c91 -4 133 -51 147 -106c7 -27 10 -50 10 -68
v-14c-10 -123 -97 -163 -170 -163h-5c-85 4 -122 47 -133 95c-5 24 -8 46 -8 67v7v1c0 15 5 36 16 65c10 29 26 55 47 78s48 35 81 38c3 1 5 1 8 1c2 0 4 0 7 -1z" />
    <glyph glyph-name="copyright" unicode="&#xa9;" horiz-adv-x="1405" 
d="M661 1452h13c179 0 350 -51 480 -155s211 -260 211 -469c0 -106 -20 -203 -60 -290c-40 -88 -93 -164 -158 -227c-66 -63 -139 -112 -218 -146c-79 -35 -158 -52 -237 -52h-2c-107 1 -209 26 -306 76c-98 50 -179 125 -242 226c-63 100 -97 226 -100 377v4
c0 199 79 360 199 475c119 115 271 178 420 181zM786 1165h-12c-137 0 -263 -68 -337 -189c-37 -61 -56 -133 -56 -217c0 -77 13 -140 40 -187s60 -83 100 -108c39 -25 80 -42 122 -51c41 -9 77 -13 108 -13c156 0 271 75 331 200c30 62 45 133 45 213v5
c0 166 -97 347 -341 347zM805 1059h4c56 0 121 -19 162 -63c21 -22 31 -51 31 -87v-5c0 -63 -33 -91 -74 -91h-11c-39 0 -88 -2 -122 -19c-17 -9 -26 -23 -26 -42c0 -31 23 -40 54 -40c23 0 47 3 74 10c23 5 43 7 58 7c8 0 14 -1 19 -3c27 -15 29 -35 29 -59v-5
c0 -29 -14 -56 -41 -80c-28 -24 -61 -43 -100 -56c-39 -14 -76 -21 -110 -21c-115 0 -188 56 -223 133c-18 38 -27 78 -27 119v4c0 64 16 118 47 163s69 78 116 101c46 23 93 34 140 34z" />
    <glyph glyph-name="ordfeminine" unicode="&#xaa;" horiz-adv-x="1146" 
d="M542 1454h17c92 -1 169 -18 234 -81c31 53 86 79 141 79c61 0 119 -30 139 -86c7 -22 13 -61 17 -118c3 -57 5 -119 5 -186c0 -89 -4 -173 -11 -252s-19 -127 -34 -142c-33 -21 -73 -31 -119 -31c-37 0 -70 7 -101 21c-31 13 -48 34 -53 61c-39 -39 -90 -66 -154 -83
s-130 -26 -199 -26h-6c-156 0 -251 58 -305 142c-54 83 -72 188 -72 281v4c0 298 325 417 501 417zM636 1263h-2c-63 0 -140 -50 -140 -134c0 -5 0 -10 1 -15c4 -36 43 -61 87 -65h10c41 0 76 15 104 44c27 29 41 58 41 89v7c-5 39 -49 71 -101 74z" />
    <glyph glyph-name="guillemotleft" unicode="&#xab;" horiz-adv-x="1475" 
d="M512 1215c25 0 55 -7 91 -22c35 -15 67 -34 95 -57s42 -46 42 -70c0 -19 -14 -49 -42 -88c-28 -40 -63 -87 -105 -141c-55 -69 -111 -145 -168 -228c39 -77 87 -153 144 -227c39 -53 76 -107 110 -162c5 -9 7 -17 7 -26c0 -21 -9 -43 -27 -66c-19 -23 -37 -42 -55 -58
c-29 -28 -75 -52 -116 -52c-13 0 -26 3 -38 8c-26 13 -61 42 -105 86c-45 44 -90 97 -137 159c-47 61 -86 125 -119 191s-49 127 -49 182c0 33 17 81 52 144c34 62 77 126 128 191s103 121 156 167s98 69 136 69zM1089 1195c29 0 71 -18 125 -55s103 -77 148 -119
c44 -43 66 -72 66 -88v-1c-2 -21 -15 -48 -38 -80c-23 -33 -50 -67 -80 -102c-45 -51 -79 -98 -104 -140c12 -9 24 -19 36 -28c50 -38 93 -74 130 -107c36 -34 55 -65 58 -94v-10c0 -46 -13 -91 -40 -136s-57 -82 -90 -113c-45 -44 -109 -85 -169 -85c-14 0 -28 3 -42 8
c-53 23 -109 56 -168 99c-60 43 -116 91 -169 144s-97 107 -131 162c-35 54 -52 103 -52 147c0 45 20 102 60 169c39 67 88 133 145 198s115 120 173 165c58 44 105 66 142 66z" />
    <glyph glyph-name="logicalnot" unicode="&#xac;" horiz-adv-x="991" 
d="M960 504c5 -32 7 -70 7 -115v-20c0 -107 -6 -187 -45 -228c-19 -21 -50 -31 -92 -31c-41 0 -72 8 -92 24c-20 15 -33 48 -40 98c-6 42 -9 104 -10 186c-53 -2 -117 -3 -193 -3c-120 0 -213 2 -279 6s-112 16 -137 36c-26 19 -39 52 -39 99c0 46 13 79 39 98
c25 19 74 30 145 34c71 3 174 5 310 5h81c23 1 44 1 65 1c123 0 203 -7 242 -46c19 -19 32 -67 38 -144z" />
    <glyph glyph-name="registered" unicode="&#xae;" horiz-adv-x="1405" 
d="M661 1452h13c179 0 350 -51 480 -155s211 -260 211 -469c0 -106 -20 -203 -60 -290c-40 -88 -93 -164 -158 -227c-66 -63 -139 -112 -218 -146c-79 -35 -158 -52 -237 -52h-2c-107 1 -209 26 -306 76c-98 50 -179 125 -242 226c-63 100 -97 226 -100 377v4
c0 199 79 360 199 475c119 115 271 178 420 181zM786 1165h-12c-137 0 -263 -68 -337 -189c-37 -61 -56 -133 -56 -217c0 -77 13 -140 40 -187s60 -83 100 -108c39 -25 80 -42 122 -51c41 -9 77 -13 108 -13c72 0 135 15 189 46c-11 -3 -21 -4 -30 -4c-27 0 -46 15 -57 45
c-8 24 -28 68 -53 100c-13 16 -26 24 -40 24h-3c-3 -1 -5 -4 -5 -9s1 -11 3 -19c2 -11 3 -23 3 -36s-3 -25 -8 -37c-11 -16 -62 -23 -111 -23c-39 0 -73 3 -84 10c-16 13 -28 46 -37 100c-9 53 -13 111 -13 172c0 95 11 181 35 216c29 35 70 59 122 72c51 13 96 19 135 19h5
c71 0 124 -11 161 -33c37 -23 62 -50 75 -83s20 -67 20 -100v-4c0 -63 -39 -133 -94 -173c52 -35 84 -88 87 -136c51 73 76 162 76 265v6c0 166 -97 347 -341 347zM759 919c-7 0 -13 -2 -19 -5c-2 -39 -3 -72 -3 -99v-23c5 -3 11 -4 17 -4c17 0 35 8 52 24
c17 15 26 31 26 48v2c-4 31 -41 57 -73 57z" />
    <glyph glyph-name="macron" unicode="&#xaf;" horiz-adv-x="991" 
d="M40 1310c0 46 13 79 39 98c25 19 74 30 145 34c71 3 174 5 309 5c27 0 53 0 78 1h63c189 0 276 -11 276 -137c0 -61 -12 -98 -72 -117c-61 -20 -177 -25 -384 -25c-120 0 -213 2 -278 6c-66 4 -112 16 -137 36c-26 19 -39 52 -39 99z" />
    <glyph glyph-name="degree" unicode="&#xb0;" horiz-adv-x="819" 
d="M398 1452h2c161 0 276 -75 335 -188c29 -57 44 -119 44 -186c0 -289 -206 -393 -384 -393c-106 0 -192 34 -257 102s-98 156 -98 265c0 62 13 124 40 185c26 61 66 112 119 152s120 61 199 63zM458 1244c-63 0 -102 -59 -113 -140c-1 -13 -2 -25 -2 -38
c0 -39 6 -75 19 -108s32 -50 57 -50c52 0 93 55 106 128c3 19 4 37 4 55c0 40 -6 76 -19 107s-30 46 -52 46z" />
    <glyph glyph-name="plusminus" unicode="&#xb1;" horiz-adv-x="1206" 
d="M617 1439c49 0 95 -2 138 -5c40 -1 90 -12 133 -59s73 -135 73 -296c0 -19 0 -40 -1 -62c14 -3 30 -5 48 -6c49 -4 100 -12 127 -32c15 -13 21 -53 21 -96c0 -49 -9 -98 -22 -113c-24 -20 -77 -25 -138 -28l-39 -3v-10c0 -22 -2 -54 -7 -96c-5 -43 -13 -84 -22 -123
c-9 -40 -20 -69 -33 -88c-21 -27 -62 -47 -123 -61c-61 -15 -126 -22 -195 -22c-65 0 -123 7 -176 21s-87 36 -102 65c-28 66 -44 170 -47 313c-5 0 -11 0 -17 -1c-20 -1 -40 -1 -60 -1c-40 0 -76 3 -93 15c-23 17 -33 72 -33 121c0 39 6 72 17 87c14 15 38 25 71 31
c33 5 65 9 96 11c5 0 11 0 16 1v46c0 111 9 193 26 245s44 87 81 106c36 18 82 30 139 35c33 3 74 5 122 5zM750 283c185 0 272 -13 272 -137c0 -61 -13 -98 -73 -117c-60 -20 -176 -25 -383 -25c-120 0 -213 2 -278 6c-66 4 -112 16 -137 36c-26 19 -39 52 -39 99
c0 45 13 78 39 97c25 19 73 31 144 35c71 3 174 5 310 5h80c23 1 44 1 65 1z" />
    <glyph glyph-name="twosuperior" unicode="&#xb2;" horiz-adv-x="976" 
d="M346 1230c0 13 -5 19 -15 19h-2c-17 0 -45 -12 -76 -28c-43 -19 -89 -40 -126 -40c-28 0 -50 13 -61 49c-1 5 -2 10 -2 15c0 32 22 64 65 96s99 59 167 80s139 31 213 31c210 0 420 -62 420 -294c0 -179 -169 -351 -272 -454l-8 -8c23 0 48 1 74 2c25 1 50 2 74 2
c76 0 139 -10 139 -66c0 -47 -4 -81 -13 -100s-27 -32 -56 -39c-26 -7 -78 -12 -155 -17s-159 -7 -246 -7c-73 0 -140 2 -202 7c-63 5 -107 13 -133 25c-27 13 -45 32 -55 59s-15 67 -15 122c0 83 73 187 148 286c36 47 68 93 96 138c27 45 41 85 41 122z" />
    <glyph glyph-name="threesuperior" unicode="&#xb3;" horiz-adv-x="978" 
d="M297 1131c-7 -15 -20 -23 -41 -23c-51 0 -132 43 -132 109c0 13 4 28 12 44c32 54 91 99 178 136c86 37 168 55 245 55h3c65 0 150 -8 222 -38s126 -85 126 -181c0 -35 -11 -69 -33 -102s-55 -58 -98 -73c92 -51 151 -126 154 -211v-7c0 -133 -67 -222 -164 -275
s-217 -75 -328 -75h-5c-239 0 -373 128 -373 276c0 13 1 27 3 40c8 49 25 89 50 121c25 31 54 47 87 47c14 0 28 -3 43 -10c68 -32 133 -46 188 -46c75 0 127 27 128 72v1c0 28 -20 34 -47 34c-10 0 -20 -1 -31 -2c-12 -1 -23 -1 -34 -1c-39 0 -71 10 -74 61v2
c0 50 47 62 93 74c23 5 44 12 62 21s27 24 27 46c0 31 -20 44 -48 44c-36 0 -78 -15 -125 -45s-77 -61 -88 -94z" />
    <glyph glyph-name="acute" unicode="&#xb4;" horiz-adv-x="734" 
d="M589 1399c27 -30 40 -59 40 -88c0 -67 -65 -130 -117 -178c-5 -5 -11 -10 -16 -15c-60 -58 -156 -142 -243 -142c-35 0 -68 14 -97 47c-28 35 -42 68 -42 98c0 73 70 134 130 182c20 16 37 30 54 46c52 48 116 104 182 104c36 0 72 -15 109 -54z" />
    <glyph glyph-name="uni00B5" unicode="&#xb5;" horiz-adv-x="1613" 
d="M502 1448c30 0 58 -1 84 -2c17 -1 35 -1 53 -2c67 -1 128 -5 185 -14s97 -32 121 -67c35 -60 43 -142 43 -227c0 -37 -1 -75 -3 -112c-2 -34 -3 -66 -3 -95c0 -41 4 -75 12 -102s25 -40 51 -40c65 0 90 48 95 121c3 37 4 78 4 121v30c0 54 1 114 4 180
c7 119 31 173 80 191c25 9 57 13 97 13c79 0 132 -5 160 -56c13 -26 20 -68 20 -126v-12c-1 -41 -1 -87 -2 -138c-1 -129 -4 -268 -8 -418c-5 -151 -14 -284 -27 -399c-14 -115 -35 -185 -64 -208c-55 -35 -119 -57 -190 -66c-71 -10 -151 -15 -240 -15c-29 0 -58 0 -88 1
h-134c-2 -93 -5 -156 -8 -188c-14 -116 -113 -117 -350 -117c-186 0 -293 22 -301 133c-5 109 -8 267 -8 475c0 201 2 403 5 608s7 339 12 404c5 37 28 63 70 80c41 17 91 27 148 31c57 13 123 16 182 16z" />
    <glyph glyph-name="paragraph" unicode="&#xb6;" horiz-adv-x="1544" 
d="M622 1450c47 0 96 0 147 1c53 1 108 1 164 1c65 0 130 -1 196 -3h36c189 0 277 -10 277 -136c0 -85 -19 -119 -159 -133l4 -1340c0 -36 -15 -66 -45 -89c-29 -23 -66 -35 -110 -35c-45 2 -82 15 -112 40s-46 55 -47 91l-4 1324c-71 0 -131 0 -182 1l4 -1333
c0 -34 -15 -63 -44 -87s-65 -36 -107 -36h-5c-45 2 -82 15 -112 40s-46 55 -47 92l-1 537c-119 35 -214 101 -287 197c-73 95 -109 204 -109 325c0 100 25 191 74 274c49 82 114 147 196 196s173 73 273 73z" />
    <glyph glyph-name="periodcentered" unicode="&#xb7;" horiz-adv-x="434" 
d="M202 769h17c51 -3 89 -16 114 -39s41 -50 48 -80s11 -55 11 -75v-15c-10 -137 -109 -181 -189 -181h-5c-95 5 -135 53 -147 106c-6 27 -9 52 -9 75v7v1c0 16 6 40 18 72c11 31 29 60 53 86c23 26 53 40 89 43z" />
    <glyph glyph-name="periodcentered" unicode="&#x2219;" horiz-adv-x="434" 
d="M202 769h17c51 -3 89 -16 114 -39s41 -50 48 -80s11 -55 11 -75v-15c-10 -137 -109 -181 -189 -181h-5c-95 5 -135 53 -147 106c-6 27 -9 52 -9 75v7v1c0 16 6 40 18 72c11 31 29 60 53 86c23 26 53 40 89 43z" />
    <glyph glyph-name="cedilla" unicode="&#xb8;" horiz-adv-x="846" 
d="M378 1c-3 2 -4 5 -4 9c0 24 49 80 125 80c37 0 80 -14 128 -50c65 -55 113 -132 113 -224v-4c0 -195 -201 -257 -361 -257h-5c-176 0 -273 95 -273 203c0 9 1 19 2 28c12 72 53 124 101 124c10 0 20 -2 31 -7c52 -23 98 -34 138 -34c56 0 92 19 95 52c0 29 -28 46 -61 63
c-10 5 -20 11 -29 17z" />
    <glyph glyph-name="onesuperior" unicode="&#xb9;" horiz-adv-x="796" 
d="M707 544c-15 -21 -46 -36 -92 -45c-46 -10 -96 -15 -150 -15c-58 0 -112 5 -163 15c-51 9 -84 23 -99 40c-9 14 -15 51 -18 111c-3 59 -4 125 -4 198c0 23 0 45 1 68v65c0 71 -1 129 -4 176c-17 -3 -33 -4 -46 -4c-76 0 -89 43 -89 89c0 7 0 15 1 22c5 47 29 84 72 112
c43 27 94 47 153 59s112 18 160 18h9c64 -1 149 -10 213 -38c32 -14 53 -34 64 -61c9 -27 16 -76 21 -145c4 -69 6 -145 6 -226c0 -99 -3 -192 -9 -278c-6 -87 -15 -140 -26 -161z" />
    <glyph glyph-name="ordmasculine" unicode="&#xba;" horiz-adv-x="1021" 
d="M549 1452c201 -4 310 -50 362 -121c26 -36 42 -76 48 -121s9 -92 9 -139v-34c0 -230 -100 -325 -226 -361c-85 -24 -180 -26 -263 -26h-28c-192 0 -411 7 -411 438c0 198 103 359 466 364c7 1 15 1 22 1s14 0 21 -1zM630 1265c-43 0 -69 -50 -81 -110
c-7 -30 -10 -58 -10 -83c0 -35 2 -71 6 -107c3 -36 13 -66 29 -89c16 -24 42 -36 79 -36c39 0 67 54 81 121c7 33 10 65 10 95v11c-1 64 -11 128 -43 168c-16 20 -40 30 -71 30z" />
    <glyph glyph-name="guillemotright" unicode="&#xbb;" horiz-adv-x="1476" 
d="M964 39c-25 0 -55 7 -91 22s-68 34 -95 57c-28 23 -42 46 -42 69c0 40 62 121 146 228c55 69 111 146 169 230c-39 76 -87 151 -144 225c-39 53 -76 108 -111 164c-5 8 -7 17 -7 26c0 21 9 43 28 66c18 22 36 41 54 57c31 29 75 52 116 52c13 0 26 -3 38 -8
c26 -13 61 -42 106 -86s90 -97 137 -158c46 -61 86 -125 119 -191c33 -67 49 -128 49 -183c0 -33 -17 -80 -51 -143c-35 -63 -77 -126 -128 -191s-104 -121 -157 -167s-99 -69 -136 -69zM386 58c-29 0 -71 19 -125 56s-103 77 -147 120c-44 42 -66 71 -66 87v1
c2 21 15 48 38 81c23 32 49 66 79 101c45 51 79 98 104 140c-11 9 -22 17 -33 25c-50 38 -93 74 -130 109c-37 34 -58 65 -61 94v10c0 46 13 92 40 137s57 82 91 113c23 21 49 41 79 58s60 26 89 26c15 0 29 -3 42 -8c53 -22 109 -54 169 -97c59 -43 116 -92 169 -145
s96 -107 131 -161c34 -55 51 -104 51 -148c0 -45 -20 -102 -59 -169c-40 -67 -89 -134 -146 -199s-115 -120 -173 -164c-58 -45 -105 -67 -142 -67z" />
    <glyph glyph-name="onequarter" unicode="&#xbc;" horiz-adv-x="1783" 
d="M1219 1515c33 -1 65 -14 96 -37s46 -50 46 -81c0 -15 -5 -29 -14 -44c-89 -136 -198 -301 -326 -495c-128 -195 -249 -379 -362 -552c-77 -117 -140 -212 -189 -287c-10 -13 -24 -19 -43 -19c-40 0 -92 27 -127 67c-17 19 -26 40 -26 63c0 15 5 29 14 43
c241 356 489 730 745 1123c43 65 84 128 123 188c15 21 38 31 63 31zM581 748c-12 -16 -36 -28 -71 -35c-36 -7 -75 -11 -117 -11c-45 0 -87 4 -126 11s-65 18 -77 31c-7 11 -11 38 -13 81s-3 92 -3 147v118c0 53 -1 98 -3 134c-13 -2 -25 -3 -36 -3c-29 0 -48 7 -56 21
c-9 14 -13 30 -13 48c0 5 0 11 1 16c3 36 22 65 56 87c33 21 73 37 120 46c46 9 88 14 125 14h4c39 0 82 -5 127 -15c45 -11 74 -31 89 -62c7 -21 12 -58 15 -111s5 -112 5 -175c0 -77 -2 -149 -7 -216c-5 -68 -11 -110 -20 -126zM1210 810h4c37 0 69 -7 96 -21
c27 -15 41 -35 41 -62c0 -28 -25 -78 -56 -138c-20 -38 -38 -77 -55 -116c-17 -40 -26 -75 -26 -104v-9c3 -20 33 -28 73 -28c8 0 16 0 25 1c1 46 1 88 2 125c1 40 1 71 1 92c0 47 46 74 106 87c29 6 57 9 84 9c94 0 177 -20 177 -103c0 -104 -1 -204 -4 -300
c-1 -66 -2 -118 -2 -157c0 -72 -57 -87 -180 -87h-21c-100 0 -165 1 -165 85v122c-45 -6 -93 -9 -143 -9c-67 0 -129 8 -186 24s-93 45 -108 87c-4 15 -6 30 -6 47c0 42 10 88 29 138c19 49 40 95 64 137c24 41 45 73 62 94c48 57 120 85 188 86z" />
    <glyph glyph-name="onehalf" unicode="&#xbd;" horiz-adv-x="1783" 
d="M1246 1515c31 0 63 -12 95 -36c31 -24 47 -51 47 -82c0 -15 -5 -29 -14 -44c-125 -189 -277 -419 -455 -690s-319 -486 -422 -644c-10 -13 -24 -19 -42 -19c-41 0 -93 27 -128 67c-17 20 -26 41 -26 63c0 15 5 29 14 43c223 331 455 681 698 1052c59 91 116 177 170 259
c15 21 38 31 63 31zM617 747c-12 -16 -36 -28 -71 -35c-36 -7 -75 -11 -117 -11c-45 0 -87 4 -126 12c-39 7 -65 18 -77 31c-7 11 -11 38 -13 81s-3 92 -3 146v118c0 54 -1 99 -3 134c-13 -2 -25 -3 -36 -3c-29 0 -48 7 -56 21c-9 14 -13 30 -13 48c0 5 0 11 1 17
c3 36 22 65 55 86s72 37 117 46s87 14 124 14h9h7c37 0 78 -5 122 -15c43 -10 72 -30 86 -61c7 -21 13 -59 16 -113s5 -113 5 -177c0 -77 -2 -148 -7 -215s-11 -108 -20 -124zM1207 582c0 9 -4 14 -11 14h-2c-13 0 -33 -7 -59 -21c-32 -15 -69 -31 -97 -31
c-23 0 -40 10 -48 38c-1 4 -2 8 -2 12c0 37 36 73 108 108s151 52 238 52c109 0 214 -22 278 -89c31 -33 47 -80 47 -140c0 -46 -12 -91 -36 -134c-24 -44 -52 -84 -84 -121c-33 -37 -63 -70 -91 -97l-6 -6c19 0 38 1 58 2s39 1 58 1c59 0 106 -8 106 -51
c0 -37 -3 -62 -9 -77c-7 -15 -21 -26 -44 -31c-20 -5 -60 -10 -120 -14c-60 -3 -123 -5 -190 -5c-57 0 -109 2 -157 5c-49 4 -83 11 -103 20c-43 20 -55 56 -55 141c0 33 12 68 35 106s50 76 79 115c28 37 53 73 75 108c21 35 32 66 32 95z" />
    <glyph glyph-name="threequarters" unicode="&#xbe;" horiz-adv-x="1871" 
d="M1278 1514h4c32 0 64 -12 95 -36s46 -51 46 -82c0 -14 -4 -28 -13 -43c-125 -190 -277 -420 -455 -691c-179 -271 -320 -486 -423 -644c-10 -13 -24 -19 -42 -19c-40 0 -93 27 -128 67c-17 20 -26 41 -26 64c0 14 5 28 14 42c270 401 543 814 820 1237c16 25 32 50 48 74
c16 21 36 31 60 31zM279 1200c-5 -12 -16 -18 -32 -18c-40 0 -102 34 -102 84c0 11 3 22 9 34c25 43 72 78 139 107c67 28 131 42 192 42c100 0 269 -21 269 -170c0 -53 -34 -112 -101 -136c74 -41 114 -96 120 -164v-4c0 -208 -212 -272 -382 -272h-5
c-186 0 -289 99 -289 215c0 9 1 19 2 29c12 76 55 131 107 131c11 0 22 -3 33 -8c55 -24 103 -36 145 -36c60 0 100 21 101 56v1c0 21 -16 26 -37 26c-7 0 -15 0 -24 -1s-18 -1 -27 -1c-29 0 -54 8 -57 47v2c0 39 36 49 73 57c36 8 68 19 68 52c0 24 -16 34 -37 34
c-28 0 -60 -11 -97 -34s-59 -48 -68 -73zM1309 810h4c37 0 69 -7 96 -22s40 -35 40 -61c0 -28 -26 -78 -55 -138c-20 -38 -38 -77 -55 -116s-26 -74 -26 -104v-9c3 -21 36 -28 79 -28h19c0 21 0 42 1 62c1 73 1 124 1 155c0 47 46 75 106 88c29 6 58 9 85 9
c93 0 176 -20 176 -103c0 -104 -1 -204 -3 -300c-1 -66 -2 -118 -2 -157c0 -69 -55 -87 -172 -87h-30c-100 0 -165 2 -165 84c0 21 0 41 1 62v61c-45 -6 -93 -9 -143 -9c-67 0 -130 8 -187 24s-93 45 -108 86c-4 14 -6 29 -6 46c0 42 10 88 29 138s41 96 65 138s45 74 62 95
c48 57 120 85 188 86z" />
    <glyph glyph-name="questiondown" unicode="&#xbf;" horiz-adv-x="1378" 
d="M959 1216h-84c-69 1 -138 1 -207 1c-57 0 -102 0 -137 -1h-5c-48 0 -85 12 -112 36s-40 51 -40 81c0 79 60 123 159 124c28 0 109 -1 198 -1h138c43 -1 74 -1 93 -1c88 0 140 -64 140 -124c0 -34 -14 -62 -43 -83s-63 -32 -100 -32zM526 0h-21c-62 1 -128 19 -198 53
c-71 33 -131 86 -182 157s-79 164 -82 278v2c0 65 20 130 60 193c39 63 91 123 156 179c64 55 134 104 211 147c77 42 153 75 230 100c76 24 144 36 205 36c64 0 114 -15 151 -46c19 -19 29 -40 29 -63c0 -77 -102 -179 -202 -273c-95 -91 -188 -182 -188 -247
c0 -20 9 -38 27 -54c15 -12 29 -18 44 -18c41 0 80 40 121 87c23 26 46 50 71 71s51 32 79 32c8 0 16 -1 25 -4c65 -16 95 -59 95 -116c0 -61 -29 -132 -87 -212c-59 -80 -135 -149 -230 -207c-95 -59 -200 -90 -314 -95z" />
    <glyph glyph-name="Agrave" unicode="&#xc0;" 
d="M551 1938c37 39 74 54 109 54c68 0 131 -56 182 -103c17 -16 34 -30 54 -46c59 -47 130 -110 130 -182c0 -31 -14 -64 -42 -99c-29 -33 -62 -47 -97 -47c-86 0 -182 84 -243 143c-5 5 -11 10 -16 15c-52 48 -117 111 -117 178c0 28 13 57 40 87zM902 1426
c171 -13 316 -78 405 -197c37 -57 63 -155 77 -292c14 -138 21 -278 21 -420c0 -119 -3 -223 -9 -313c-6 -91 -13 -145 -20 -163c-10 -13 -56 -23 -137 -30s-166 -11 -255 -11c-66 0 -124 2 -174 7c-51 5 -81 12 -90 22c-13 21 -21 53 -24 98c-3 44 -4 80 -4 108v10
c-96 -2 -191 -5 -286 -8c0 -31 -1 -68 -4 -113s-9 -76 -18 -94c-7 -10 -27 -18 -58 -23s-66 -8 -103 -8c-39 0 -74 3 -107 9c-33 5 -52 13 -59 24c-5 20 -8 72 -8 157c0 86 2 188 7 307c4 118 9 222 15 313c32 443 215 626 588 626h27c13 -1 27 -1 41 -1
c55 -1 113 -4 175 -8zM408 941l282 1c-3 65 -18 118 -43 159s-57 61 -94 61h-5c-65 -4 -140 -77 -140 -221z" />
    <glyph glyph-name="Aacute" unicode="&#xc1;" 
d="M908 1938c27 -30 40 -59 40 -88c0 -66 -65 -129 -116 -176c-6 -5 -12 -11 -17 -16c-61 -59 -156 -143 -242 -143c-35 0 -68 14 -97 47c-29 35 -43 68 -43 99c0 72 71 134 130 181c20 16 37 30 54 46c52 48 116 104 182 104c36 0 72 -15 109 -54zM902 1426
c171 -13 316 -78 405 -197c37 -57 63 -155 77 -292c14 -138 21 -278 21 -420c0 -119 -3 -223 -9 -313c-6 -91 -13 -145 -20 -163c-10 -13 -56 -23 -137 -30s-166 -11 -255 -11c-66 0 -124 2 -174 7c-51 5 -81 12 -90 22c-13 21 -21 53 -24 98c-3 44 -4 80 -4 108v10
c-96 -2 -191 -5 -286 -8c0 -31 -1 -68 -4 -113s-9 -76 -18 -94c-7 -10 -27 -18 -58 -23s-66 -8 -103 -8c-39 0 -74 3 -107 9c-33 5 -52 13 -59 24c-5 20 -8 72 -8 157c0 86 2 188 7 307c4 118 9 222 15 313c32 443 215 626 588 626h27c13 -1 27 -1 41 -1
c55 -1 113 -4 175 -8zM408 941l282 1c-3 65 -18 118 -43 159s-57 61 -94 61h-5c-65 -4 -140 -77 -140 -221z" />
    <glyph glyph-name="Acircumflex" unicode="&#xc2;" 
d="M242 1584v2c0 35 19 85 57 149c37 63 84 121 139 172s109 80 164 86h15c103 0 202 -61 278 -142c38 -41 68 -82 91 -124c23 -43 34 -79 34 -110c0 -24 -8 -42 -24 -53c-26 -16 -61 -29 -105 -38c-45 -10 -89 -15 -133 -15c-52 0 -96 8 -131 24c-11 5 -20 24 -31 47
c-19 39 -40 79 -73 79h-1c-31 -3 -45 -34 -57 -67c-9 -25 -20 -49 -37 -60c-27 -13 -53 -20 -79 -20c-56 0 -104 27 -107 70zM902 1426c171 -13 316 -78 405 -197c37 -57 63 -155 77 -292c14 -138 21 -278 21 -420c0 -119 -3 -223 -9 -313c-6 -91 -13 -145 -20 -163
c-10 -13 -56 -23 -137 -30s-166 -11 -255 -11c-66 0 -124 2 -174 7c-51 5 -81 12 -90 22c-13 21 -21 53 -24 98c-3 44 -4 80 -4 108v10c-96 -2 -191 -5 -286 -8c0 -31 -1 -68 -4 -113s-9 -76 -18 -94c-7 -10 -27 -18 -58 -23s-66 -8 -103 -8c-39 0 -74 3 -107 9
c-33 5 -52 13 -59 24c-5 20 -8 72 -8 157c0 86 2 188 7 307c4 118 9 222 15 313c32 443 215 626 588 626h27c13 -1 27 -1 41 -1c55 -1 113 -4 175 -8zM408 941l282 1c-3 65 -18 118 -43 159s-57 61 -94 61h-5c-65 -4 -140 -77 -140 -221z" />
    <glyph glyph-name="Atilde" unicode="&#xc3;" 
d="M314 1626c-11 19 -16 41 -16 64c0 43 15 89 46 136s69 87 114 120s90 49 134 49c76 0 149 -43 217 -86c56 -36 108 -66 156 -69h2c27 0 60 19 93 42c36 23 71 44 100 44c11 0 20 -3 29 -10c15 -13 23 -33 23 -60c0 -57 -32 -139 -82 -208s-115 -122 -179 -122
c-67 0 -145 41 -221 85c-69 39 -135 74 -187 74c-27 0 -57 -23 -86 -48c-31 -25 -62 -49 -91 -49c-19 0 -36 13 -52 38zM902 1426c171 -13 316 -78 405 -197c37 -57 63 -155 77 -292c14 -138 21 -278 21 -420c0 -119 -3 -223 -9 -313c-6 -91 -13 -145 -20 -163
c-10 -13 -56 -23 -137 -30s-166 -11 -255 -11c-66 0 -124 2 -174 7c-51 5 -81 12 -90 22c-13 21 -21 53 -24 98c-3 44 -4 80 -4 108v10c-96 -2 -191 -5 -286 -8c0 -31 -1 -68 -4 -113s-9 -76 -18 -94c-7 -10 -27 -18 -58 -23s-66 -8 -103 -8c-39 0 -74 3 -107 9
c-33 5 -52 13 -59 24c-5 20 -8 72 -8 157c0 86 2 188 7 307c4 118 9 222 15 313c32 443 215 626 588 626h27c13 -1 27 -1 41 -1c55 -1 113 -4 175 -8zM408 941l282 1c-3 65 -18 118 -43 159s-57 61 -94 61h-5c-65 -4 -140 -77 -140 -221z" />
    <glyph glyph-name="Adieresis" unicode="&#xc4;" 
d="M441 1945h15c91 -4 133 -51 146 -105c7 -27 10 -50 10 -68v-15c-8 -123 -98 -163 -169 -163h-5c-85 4 -122 46 -133 97c-6 25 -9 49 -9 72v1c0 15 5 36 16 65s27 55 48 78s48 35 81 38zM823 1945h15c91 -4 133 -51 146 -105c7 -27 10 -50 10 -68v-15
c-10 -123 -96 -163 -169 -163h-5c-85 4 -122 47 -134 95c-5 24 -8 47 -8 67v7v1c0 15 5 36 16 65c10 29 26 55 48 78c21 23 48 35 81 38zM902 1426c171 -13 316 -78 405 -197c37 -57 63 -155 77 -292c14 -138 21 -278 21 -420c0 -119 -3 -223 -9 -313
c-6 -91 -13 -145 -20 -163c-10 -13 -56 -23 -137 -30s-166 -11 -255 -11c-66 0 -124 2 -174 7c-51 5 -81 12 -90 22c-13 21 -21 53 -24 98c-3 44 -4 80 -4 108v10c-96 -2 -191 -5 -286 -8c0 -31 -1 -68 -4 -113s-9 -76 -18 -94c-7 -10 -27 -18 -58 -23s-66 -8 -103 -8
c-39 0 -74 3 -107 9c-33 5 -52 13 -59 24c-5 20 -8 72 -8 157c0 86 2 188 7 307c4 118 9 222 15 313c32 443 215 626 588 626h27c13 -1 27 -1 41 -1c55 -1 113 -4 175 -8zM408 941l282 1c-3 65 -18 118 -43 159s-57 61 -94 61h-5c-65 -4 -140 -77 -140 -221z" />
    <glyph glyph-name="Aring" unicode="&#xc5;" 
d="M803 2101c132 0 206 -60 239 -146c17 -43 25 -88 25 -135c0 -9 0 -18 -1 -27c-3 -52 -28 -125 -76 -189c-48 -65 -117 -114 -208 -114c-208 0 -301 136 -301 304c0 11 0 23 1 35c9 81 44 146 105 197c61 50 133 75 216 75zM845 1975h-7c-25 0 -49 -9 -70 -28
c-22 -19 -35 -51 -38 -95v-8c0 -23 7 -44 22 -62s42 -27 81 -27h5c27 3 47 19 62 49c15 29 22 56 22 81v2c-2 27 -12 49 -29 65c-17 15 -33 23 -48 23zM902 1426c171 -13 316 -78 405 -197c37 -57 63 -155 77 -292c14 -138 21 -278 21 -420c0 -119 -3 -223 -9 -313
c-6 -91 -13 -145 -20 -163c-10 -13 -56 -23 -137 -30s-166 -11 -255 -11c-66 0 -124 2 -174 7c-51 5 -81 12 -90 22c-13 21 -21 53 -24 98c-3 44 -4 80 -4 108v10c-96 -2 -191 -5 -286 -8c0 -31 -1 -68 -4 -113s-9 -76 -18 -94c-7 -10 -27 -18 -58 -23s-66 -8 -103 -8
c-39 0 -74 3 -107 9c-33 5 -52 13 -59 24c-5 20 -8 72 -8 157c0 86 2 188 7 307c4 118 9 222 15 313c32 443 215 626 588 626h27c13 -1 27 -1 41 -1c55 -1 113 -4 175 -8zM408 941l282 1c-3 65 -18 118 -43 159s-57 61 -94 61h-5c-65 -4 -140 -77 -140 -221z" />
    <glyph glyph-name="AE" unicode="&#xc6;" horiz-adv-x="1996" 
d="M983 1443h41c15 -1 31 -1 48 -1h277c66 -1 128 -1 186 -1h121c87 0 152 -2 195 -7c42 -5 70 -13 84 -26c13 -13 20 -31 20 -54v-80c0 -94 -94 -92 -171 -92h-18h-61c-100 0 -209 0 -209 -59c0 -49 20 -55 84 -55h63c92 0 127 -7 138 -39c5 -16 8 -40 8 -73
c0 -59 -4 -92 -41 -106c-19 -7 -50 -11 -93 -11c-123 0 -147 -49 -147 -80c0 -56 62 -69 133 -69c26 0 52 1 79 3c23 1 44 2 63 3h8c95 0 137 -25 153 -106c8 -41 12 -99 12 -176c0 -164 -10 -263 -55 -322c-23 -29 -57 -50 -103 -63c-92 -25 -242 -27 -475 -27h-153
c-41 0 -79 0 -114 1c-26 -1 -51 -1 -76 -1c-65 0 -123 2 -172 7s-79 12 -88 22c-13 20 -21 52 -24 97s-4 81 -4 108v11c-47 -1 -94 -3 -141 -4c-49 -1 -97 -3 -145 -4c0 -31 -1 -68 -4 -113s-9 -76 -18 -95c-7 -10 -26 -17 -57 -22s-66 -8 -103 -8c-39 0 -75 3 -108 8
s-52 13 -59 24c-5 21 -8 73 -8 157c0 87 2 189 7 308c4 118 9 222 15 313c15 219 71 379 167 478c95 99 236 148 421 148h34c45 -1 94 -2 147 -5c37 7 84 11 143 11zM552 1164h-4c-65 -4 -140 -77 -140 -221h282c-3 66 -17 119 -42 159s-57 61 -96 62z" />
    <glyph glyph-name="Ccedilla" unicode="&#xc7;" horiz-adv-x="1349" 
d="M702 1457c111 -3 206 -24 283 -65s140 -91 188 -152c47 -61 82 -123 104 -187c21 -65 32 -121 32 -168c0 -23 -18 -41 -53 -54c-36 -13 -75 -20 -116 -20c-37 0 -71 6 -102 18s-46 31 -46 56c0 92 -47 235 -182 235c-31 0 -63 -15 -95 -46s-58 -73 -79 -124
s-32 -108 -32 -171c0 -132 43 -343 207 -343h2c57 0 102 20 136 61c33 40 50 88 50 144c0 26 14 45 42 57c27 12 59 18 94 18c40 0 77 -7 112 -20s52 -32 52 -55c0 -302 -161 -517 -405 -600c65 -56 113 -133 113 -225v-4c0 -195 -201 -257 -361 -257h-5
c-175 0 -272 94 -272 202c0 9 1 19 2 29c12 72 53 124 101 124c10 0 20 -2 31 -7c52 -23 98 -34 138 -34c55 0 93 20 94 53v1c0 28 -27 44 -59 60l-30 18c-143 3 -259 41 -348 113c-89 71 -155 164 -196 278s-62 234 -62 359c0 221 77 397 201 519s288 187 461 187z" />
    <glyph glyph-name="Egrave" unicode="&#xc8;" horiz-adv-x="1333" 
d="M333 2001c37 39 73 54 109 54c68 0 131 -56 183 -104c9 -8 17 -15 25 -22c9 -8 18 -16 29 -24c58 -47 129 -109 129 -181c0 -31 -14 -64 -43 -99c-29 -33 -62 -47 -97 -47c-86 0 -182 84 -243 143c-5 5 -11 10 -16 15c-51 47 -116 110 -116 177c0 29 13 58 40 88z
M1292 1352v-80c0 -94 -93 -92 -170 -92h-18h-61c-102 0 -210 0 -210 -59c0 -49 21 -55 84 -55h63c92 0 128 -7 139 -39c5 -16 8 -40 8 -73c0 -59 -5 -91 -42 -105c-19 -7 -50 -11 -93 -11c-122 0 -147 -49 -147 -81c0 -56 62 -69 133 -69c26 0 52 1 79 3c23 1 44 2 63 3h8
c95 0 137 -25 153 -106c8 -41 12 -99 12 -176c0 -164 -9 -263 -54 -322c-23 -29 -57 -50 -103 -63c-93 -25 -241 -27 -476 -27h-38c-335 0 -476 1 -534 72c-37 46 -42 124 -42 255c0 83 -1 171 -3 266c-2 84 -3 155 -3 214c0 363 6 518 68 584c40 43 106 49 210 49h368
c66 -1 128 -1 186 -1h122c87 0 152 -2 195 -7c42 -5 70 -13 83 -26s20 -31 20 -54z" />
    <glyph glyph-name="Eacute" unicode="&#xc9;" horiz-adv-x="1333" 
d="M834 1971c27 -30 40 -59 40 -88c0 -66 -65 -129 -116 -176c-6 -5 -12 -11 -17 -16c-61 -59 -156 -143 -243 -143c-33 0 -67 14 -96 47c-29 35 -43 68 -43 99c0 73 71 135 131 182c9 8 18 16 27 23c8 7 16 15 25 23c53 47 115 103 183 103c35 0 72 -15 109 -54zM1292 1352
v-80c0 -94 -93 -92 -170 -92h-18h-61c-102 0 -210 0 -210 -59c0 -49 21 -55 84 -55h63c92 0 128 -7 139 -39c5 -16 8 -40 8 -73c0 -59 -5 -91 -42 -105c-19 -7 -50 -11 -93 -11c-122 0 -147 -49 -147 -81c0 -56 62 -69 133 -69c26 0 52 1 79 3c23 1 44 2 63 3h8
c95 0 137 -25 153 -106c8 -41 12 -99 12 -176c0 -164 -9 -263 -54 -322c-23 -29 -57 -50 -103 -63c-93 -25 -241 -27 -476 -27h-38c-335 0 -476 1 -534 72c-37 46 -42 124 -42 255c0 83 -1 171 -3 266c-2 84 -3 155 -3 214c0 363 6 518 68 584c40 43 106 49 210 49h368
c66 -1 128 -1 186 -1h122c87 0 152 -2 195 -7c42 -5 70 -13 83 -26s20 -31 20 -54z" />
    <glyph glyph-name="Ecircumflex" unicode="&#xca;" horiz-adv-x="1333" 
d="M237 1692v2c0 35 19 85 57 149c37 63 84 121 139 172s109 80 164 86h15c103 0 202 -61 278 -142c38 -41 68 -82 91 -124c23 -43 34 -79 34 -110c0 -24 -8 -42 -24 -53c-26 -16 -61 -29 -105 -38c-45 -10 -89 -15 -133 -15c-52 0 -96 8 -131 24c-11 5 -20 24 -31 47
c-19 39 -40 79 -73 79h-1c-31 -3 -45 -32 -57 -67c-9 -25 -20 -49 -37 -60c-27 -13 -53 -20 -79 -20c-56 0 -104 27 -107 70zM1292 1352v-80c0 -94 -93 -92 -170 -92h-18h-61c-102 0 -210 0 -210 -59c0 -49 21 -55 84 -55h63c92 0 128 -7 139 -39c5 -16 8 -40 8 -73
c0 -59 -5 -91 -42 -105c-19 -7 -50 -11 -93 -11c-122 0 -147 -49 -147 -81c0 -56 62 -69 133 -69c26 0 52 1 79 3c23 1 44 2 63 3h8c95 0 137 -25 153 -106c8 -41 12 -99 12 -176c0 -164 -9 -263 -54 -322c-23 -29 -57 -50 -103 -63c-93 -25 -241 -27 -476 -27h-38
c-335 0 -476 1 -534 72c-37 46 -42 124 -42 255c0 83 -1 171 -3 266c-2 84 -3 155 -3 214c0 363 6 518 68 584c40 43 106 49 210 49h368c66 -1 128 -1 186 -1h122c87 0 152 -2 195 -7c42 -5 70 -13 83 -26s20 -31 20 -54z" />
    <glyph glyph-name="Edieresis" unicode="&#xcb;" horiz-adv-x="1333" 
d="M227 2140h15c47 -3 81 -15 104 -36c22 -21 36 -46 43 -73s10 -50 10 -68v-11c-10 -123 -97 -163 -170 -163h-5c-85 4 -122 46 -133 97c-6 25 -9 49 -9 72c0 14 5 35 16 64c10 29 26 55 48 79c21 23 48 36 81 39zM609 2140h15c91 -4 133 -51 146 -105c7 -27 10 -50 10 -68
v-15c-8 -123 -98 -163 -169 -163h-5c-85 4 -122 47 -134 95c-5 24 -8 47 -8 67v7v1c0 15 5 36 16 65c10 29 26 55 48 78c21 23 48 35 81 38zM1292 1352v-80c0 -94 -93 -92 -170 -92h-18h-61c-102 0 -210 0 -210 -59c0 -49 21 -55 84 -55h63c92 0 128 -7 139 -39
c5 -16 8 -40 8 -73c0 -59 -5 -91 -42 -105c-19 -7 -50 -11 -93 -11c-122 0 -147 -49 -147 -81c0 -56 62 -69 133 -69c26 0 52 1 79 3c23 1 44 2 63 3h8c95 0 137 -25 153 -106c8 -41 12 -99 12 -176c0 -164 -9 -263 -54 -322c-23 -29 -57 -50 -103 -63
c-93 -25 -241 -27 -476 -27h-38c-335 0 -476 1 -534 72c-37 46 -42 124 -42 255c0 83 -1 171 -3 266c-2 84 -3 155 -3 214c0 363 6 518 68 584c40 43 106 49 210 49h368c66 -1 128 -1 186 -1h122c87 0 152 -2 195 -7c42 -5 70 -13 83 -26s20 -31 20 -54z" />
    <glyph glyph-name="Igrave" unicode="&#xcc;" horiz-adv-x="837" 
d="M145 2052c37 39 74 54 109 54c68 0 131 -56 182 -103c17 -16 34 -30 54 -46c59 -47 130 -110 130 -182c0 -31 -14 -64 -42 -99c-29 -33 -62 -47 -97 -47c-86 0 -182 84 -243 143c-5 5 -11 10 -16 15c-52 48 -117 111 -117 178c0 28 13 57 40 87zM135 1321
c4 33 24 58 59 75s79 28 130 33s101 8 149 8c111 0 210 -8 267 -44c29 -19 44 -47 46 -84c4 -121 6 -274 6 -460c0 -154 -1 -303 -4 -446c-3 -144 -7 -241 -12 -290c-8 -76 -57 -105 -156 -112c-50 -3 -114 -5 -193 -5c-186 0 -293 22 -301 133c-5 101 -8 233 -8 396
c0 157 2 313 5 470c3 156 7 265 12 326z" />
    <glyph glyph-name="Iacute" unicode="&#xcd;" horiz-adv-x="774" 
d="M588 2052c27 -30 41 -59 41 -88c0 -66 -65 -129 -117 -177c-5 -5 -11 -10 -16 -15c-61 -59 -157 -143 -243 -143c-35 0 -68 14 -97 47c-28 35 -42 68 -42 99c0 72 71 135 130 182c10 8 19 16 28 23c8 7 16 14 24 22c52 48 115 104 183 104c36 0 72 -15 109 -54zM72 1321
c4 33 24 58 59 75s79 28 130 33s101 8 149 8c111 0 210 -8 267 -44c29 -19 44 -47 46 -84c4 -121 6 -274 6 -460c0 -154 -1 -303 -4 -446c-3 -144 -7 -241 -12 -290c-8 -76 -57 -105 -156 -112c-50 -3 -114 -5 -193 -5c-186 0 -293 22 -301 133c-5 101 -8 233 -8 396
c0 157 2 313 5 470c3 156 7 265 12 326z" />
    <glyph glyph-name="Icircumflex" unicode="&#xce;" horiz-adv-x="940" 
d="M43 1699v2c0 35 19 85 57 149c37 63 83 121 138 172s109 80 164 86c5 1 11 1 16 1c51 0 101 -14 149 -41s91 -61 129 -102c76 -81 124 -173 124 -234c0 -23 -8 -41 -24 -53c-26 -16 -61 -29 -105 -38c-45 -9 -89 -14 -133 -14c-52 0 -95 8 -130 23c-11 5 -20 24 -32 47
c-17 39 -40 79 -72 79h-1c-31 -3 -45 -32 -57 -67c-9 -25 -21 -49 -38 -60c-27 -13 -53 -20 -79 -20c-56 0 -103 27 -106 70zM74 1321c4 33 24 58 59 75s79 28 130 33s101 8 149 8c111 0 210 -8 267 -44c29 -19 44 -47 46 -84c4 -121 6 -274 6 -460c0 -154 -1 -303 -4 -446
c-3 -144 -7 -241 -12 -290c-8 -76 -57 -105 -156 -112c-50 -3 -114 -5 -193 -5c-186 0 -293 22 -301 133c-5 101 -8 233 -8 396c0 157 2 313 5 470c3 156 7 265 12 326z" />
    <glyph glyph-name="Idieresis" unicode="&#xcf;" horiz-adv-x="790" 
d="M210 2098c91 -4 133 -51 146 -105c7 -27 10 -50 10 -69v-15c-10 -123 -97 -163 -170 -163h-5c-85 4 -122 47 -133 95c-5 24 -8 46 -8 67v7v1c0 15 5 36 16 65c10 29 26 55 47 78s48 35 81 38c6 1 11 1 16 1zM591 2098c91 -4 133 -52 147 -106c7 -27 10 -50 10 -69v-14
c-10 -123 -97 -163 -170 -163h-5c-85 4 -122 47 -133 95c-5 24 -8 46 -8 67v7v1c0 15 5 36 16 65c10 29 26 55 47 78s48 35 81 38c5 1 10 1 15 1zM67 1321c4 33 24 58 59 75s79 28 130 33s101 8 149 8c111 0 210 -8 267 -44c29 -19 44 -47 46 -84c4 -121 6 -274 6 -460
c0 -154 -1 -303 -4 -446c-3 -144 -7 -241 -12 -290c-8 -76 -57 -105 -156 -112c-50 -3 -114 -5 -193 -5c-186 0 -293 22 -301 133c-5 101 -8 233 -8 396c0 157 2 313 5 470c3 156 7 265 12 326z" />
    <glyph glyph-name="Eth" unicode="&#xd0;" horiz-adv-x="1439" 
d="M739 1441h12c4 -1 8 -1 12 -1c125 0 227 -15 307 -44c79 -30 142 -69 187 -117s77 -101 98 -159c40 -117 44 -239 44 -338c0 -61 -6 -138 -17 -231c-12 -94 -31 -184 -56 -269c-26 -85 -60 -149 -102 -191c-41 -35 -111 -60 -210 -74s-202 -21 -310 -21
c-110 0 -209 5 -297 15c-89 9 -143 20 -162 32c-17 17 -30 77 -37 182c-7 104 -11 224 -11 361c-59 5 -100 18 -123 38c-23 19 -34 51 -34 96c0 43 11 75 34 94s65 31 127 36c4 136 10 254 18 353c7 99 16 157 26 175c13 14 68 28 165 42s206 21 329 21zM827 1134h-2
c-11 0 -21 -1 -30 -3v-277c105 -7 155 -38 155 -133c0 -82 -20 -119 -155 -133v-226s43 7 97 39c27 15 53 39 80 70c53 62 96 161 96 314v8c-4 173 -61 270 -135 311c-37 20 -73 30 -106 30z" />
    <glyph glyph-name="Ntilde" unicode="&#xd1;" horiz-adv-x="1563" 
d="M397 1732c-11 19 -16 41 -16 64c0 43 15 89 46 136s69 87 114 120s90 49 134 49c76 0 148 -42 215 -86c57 -36 110 -66 158 -69h2c27 0 58 20 93 41c35 23 69 45 100 45c11 0 20 -3 29 -10c15 -13 23 -33 23 -60c0 -57 -32 -139 -82 -208s-115 -122 -179 -122
c-67 0 -145 41 -221 85c-69 39 -135 74 -187 74c-27 0 -58 -23 -87 -48c-31 -25 -61 -49 -90 -49c-19 0 -36 13 -52 38zM351 1430c27 4 58 6 91 6c43 0 86 -2 129 -7s76 -10 99 -16c72 -21 137 -61 194 -121c57 -61 106 -126 147 -196c41 -71 72 -132 94 -185
c21 -53 32 -79 32 -79s-3 24 -8 72s-8 104 -8 167c0 62 5 124 16 185c10 61 30 107 59 139c29 29 86 45 141 45c56 0 107 -17 123 -54c12 -32 21 -83 27 -152c5 -70 8 -149 8 -237c0 -140 -6 -282 -19 -426s-30 -248 -51 -313c-17 -48 -43 -95 -78 -142s-73 -79 -116 -96
c-43 -13 -104 -20 -181 -20c-45 0 -90 4 -134 11c-45 7 -81 18 -109 34c-47 30 -91 69 -132 118s-77 98 -108 149c-31 50 -56 93 -73 128c-18 35 -27 53 -27 53s-1 -15 -3 -44c-2 -30 -5 -66 -10 -109c-9 -85 -24 -178 -45 -235c-28 -65 -94 -100 -161 -100
c-65 0 -129 35 -149 107c-13 51 -22 118 -29 203c-7 84 -10 175 -10 272c0 131 7 260 20 386s32 224 59 293c32 81 99 144 212 164z" />
    <glyph glyph-name="Ograve" unicode="&#xd2;" horiz-adv-x="1349" 
d="M405 2064c37 39 74 54 109 54c68 0 131 -56 182 -103c17 -16 34 -30 54 -46c59 -47 130 -110 130 -182c0 -31 -14 -64 -42 -99c-29 -33 -62 -47 -97 -47c-86 0 -182 84 -243 143c-5 5 -11 10 -16 15c-52 48 -117 111 -117 178c0 28 13 57 40 87zM652 1458h22
c197 -6 347 -69 449 -188s157 -282 166 -488c1 -16 1 -32 1 -48c0 -154 -28 -287 -83 -399c-56 -112 -130 -198 -222 -259c-93 -61 -195 -92 -308 -93c-151 0 -303 48 -419 155c-117 107 -193 274 -193 510c0 19 1 39 2 60c3 80 15 163 35 249c19 86 51 167 94 242
s101 136 176 184c74 47 167 72 280 75zM833 1029v9c-2 85 -47 170 -147 170c-65 0 -95 -48 -106 -101c-5 -27 -8 -49 -8 -68v-15c4 -73 42 -158 137 -158h6c41 3 71 22 90 55s28 69 28 108z" />
    <glyph glyph-name="Oacute" unicode="&#xd3;" horiz-adv-x="1349" 
d="M965 2049c27 -30 40 -59 40 -88c0 -67 -65 -130 -116 -177c-6 -5 -11 -10 -16 -15c-61 -59 -157 -143 -243 -143c-35 0 -68 14 -97 47c-29 35 -43 68 -43 99c0 73 72 134 131 181c10 9 19 17 28 24c8 7 16 14 24 22c52 48 115 104 183 104c36 0 72 -15 109 -54zM652 1458
h22c197 -6 347 -69 449 -188s157 -282 166 -488c1 -16 1 -32 1 -48c0 -154 -28 -287 -83 -399c-56 -112 -130 -198 -222 -259c-93 -61 -195 -92 -308 -93c-151 0 -303 48 -419 155c-117 107 -193 274 -193 510c0 19 1 39 2 60c3 80 15 163 35 249c19 86 51 167 94 242
s101 136 176 184c74 47 167 72 280 75zM833 1029v9c-2 85 -47 170 -147 170c-65 0 -95 -48 -106 -101c-5 -27 -8 -49 -8 -68v-15c4 -73 42 -158 137 -158h6c41 3 71 22 90 55s28 69 28 108z" />
    <glyph glyph-name="Ocircumflex" unicode="&#xd4;" horiz-adv-x="1349" 
d="M348 1696v2c0 36 19 86 57 149c37 63 84 121 139 172s109 80 164 87h15c103 0 202 -61 278 -142c38 -41 68 -82 91 -124c23 -43 34 -79 34 -110c0 -24 -8 -42 -24 -53c-26 -16 -61 -29 -106 -38c-45 -10 -89 -15 -133 -15c-52 0 -95 8 -130 23c-11 5 -20 24 -31 47
c-19 39 -40 79 -72 79h-2c-31 -3 -45 -32 -57 -67c-9 -25 -20 -48 -37 -59c-27 -13 -53 -20 -80 -20c-56 0 -103 26 -106 69zM652 1458h22c197 -6 347 -69 449 -188s157 -282 166 -488c1 -16 1 -32 1 -48c0 -154 -28 -287 -83 -399c-56 -112 -130 -198 -222 -259
c-93 -61 -195 -92 -308 -93c-151 0 -303 48 -419 155c-117 107 -193 274 -193 510c0 19 1 39 2 60c3 80 15 163 35 249c19 86 51 167 94 242s101 136 176 184c74 47 167 72 280 75zM833 1029v9c-2 85 -47 170 -147 170c-65 0 -95 -48 -106 -101c-5 -27 -8 -49 -8 -68v-15
c4 -73 42 -158 137 -158h6c41 3 71 22 90 55s28 69 28 108z" />
    <glyph glyph-name="Otilde" unicode="&#xd5;" horiz-adv-x="1349" 
d="M265 1654c-11 19 -16 40 -16 63c0 43 15 89 46 136s69 88 114 121s90 49 134 49c76 0 149 -43 217 -87c56 -36 108 -66 156 -69h2c25 0 59 19 92 42c36 23 71 44 100 44c11 0 21 -3 30 -10c15 -13 23 -33 23 -60c0 -57 -32 -139 -82 -208s-115 -122 -179 -122
c-67 0 -145 41 -221 85c-69 39 -135 74 -187 74c-27 0 -57 -23 -86 -47c-31 -27 -62 -50 -90 -50c-19 0 -36 13 -53 39zM652 1458h22c197 -6 347 -69 449 -188s157 -282 166 -488c1 -16 1 -32 1 -48c0 -154 -28 -287 -83 -399c-56 -112 -130 -198 -222 -259
c-93 -61 -195 -92 -308 -93c-151 0 -303 48 -419 155c-117 107 -193 274 -193 510c0 19 1 39 2 60c3 80 15 163 35 249c19 86 51 167 94 242s101 136 176 184c74 47 167 72 280 75zM833 1029v9c-2 85 -47 170 -147 170c-65 0 -95 -48 -106 -101c-5 -27 -8 -49 -8 -68v-15
c4 -73 42 -158 137 -158h6c41 3 71 22 90 55s28 69 28 108z" />
    <glyph glyph-name="Odieresis" unicode="&#xd6;" horiz-adv-x="1349" 
d="M425 2020h15c91 -4 133 -51 146 -105c7 -27 10 -50 10 -69v-15c-8 -123 -98 -163 -169 -163h-5c-85 4 -122 46 -133 97c-6 25 -9 49 -9 72c0 14 5 35 16 64c10 29 26 55 48 79c21 24 48 37 81 40zM807 2020h15c91 -4 133 -51 146 -105c7 -27 10 -50 10 -69v-15
c-10 -123 -96 -163 -169 -163h-5c-85 4 -122 47 -134 95c-5 24 -8 47 -8 67v7v1c0 15 5 36 16 65c10 29 26 55 48 78c21 23 48 36 81 39zM652 1458h22c197 -6 347 -69 449 -188s157 -282 166 -488c1 -16 1 -32 1 -48c0 -154 -28 -287 -83 -399c-56 -112 -130 -198 -222 -259
c-93 -61 -195 -92 -308 -93c-151 0 -303 48 -419 155c-117 107 -193 274 -193 510c0 19 1 39 2 60c3 80 15 163 35 249c19 86 51 167 94 242s101 136 176 184c74 47 167 72 280 75zM833 1029v9c-2 85 -47 170 -147 170c-65 0 -95 -48 -106 -101c-5 -27 -8 -49 -8 -68v-15
c4 -73 42 -158 137 -158h6c41 3 71 22 90 55s28 69 28 108z" />
    <glyph glyph-name="multiply" unicode="&#xd7;" horiz-adv-x="1238" 
d="M157 1022c33 35 72 53 115 53c75 0 161 -57 252 -185c106 114 256 223 377 223c40 0 77 -13 111 -38c72 -57 117 -120 117 -201c0 -93 -61 -214 -206 -383c100 -71 158 -159 158 -238c0 -34 -12 -65 -36 -92c-28 -31 -60 -46 -95 -46c-67 0 -149 53 -258 148
c-146 -138 -266 -207 -360 -207c-60 0 -114 25 -161 75c-57 54 -85 117 -85 188c0 101 65 221 217 350c-53 48 -111 113 -147 182c-19 34 -28 66 -28 97c0 27 10 52 29 74z" />
    <glyph glyph-name="Oslash" unicode="&#xd8;" horiz-adv-x="1353" 
d="M1135 1415c33 -1 65 -14 96 -37c30 -24 45 -51 45 -82c0 -14 -4 -28 -13 -43c-23 -34 -65 -97 -91 -137c62 -108 96 -241 102 -398c1 -17 1 -33 1 -50c0 -153 -28 -286 -83 -398c-56 -112 -130 -198 -223 -259s-196 -91 -307 -91c-83 0 -165 15 -246 46
c-8 -13 -23 -36 -31 -47c-10 -13 -24 -19 -42 -19c-40 0 -93 27 -127 66c-17 20 -26 41 -26 64c0 14 5 28 14 43c3 4 5 8 8 13c3 4 5 8 8 12c-103 107 -169 267 -169 487c0 19 1 39 2 59c3 80 15 163 35 249c19 86 51 167 94 242s101 136 176 184c74 47 167 72 280 75h22
c142 -3 259 -37 351 -102c13 19 25 38 37 57c8 12 16 24 23 35c17 21 38 31 64 31zM754 1112h-9c-59 -3 -104 -29 -136 -78c-33 -49 -56 -109 -69 -179c-13 -71 -21 -139 -23 -206v-29c0 -27 1 -52 2 -76c118 178 234 354 347 527c-31 25 -69 39 -112 41zM982 826
c-55 -83 -106 -160 -154 -233c-69 -105 -140 -214 -213 -325c40 -44 89 -65 137 -65h3c131 0 238 177 238 462v30c-1 47 -5 91 -11 131z" />
    <glyph glyph-name="Ugrave" unicode="&#xd9;" horiz-adv-x="1507" 
d="M520 2112c37 39 74 54 109 54c68 0 131 -56 182 -103c17 -16 34 -30 54 -46c59 -47 130 -110 130 -182c0 -31 -14 -64 -42 -99c-29 -33 -62 -47 -97 -47c-86 0 -182 84 -243 143c-5 5 -11 10 -16 15c-52 48 -117 111 -117 178c0 28 13 57 40 87zM133 1327
c21 68 98 101 192 113c47 5 92 8 136 8c31 0 59 -1 85 -2c19 -1 37 -1 56 -2c66 -1 127 -7 183 -16s96 -31 119 -66c35 -60 44 -142 44 -229c0 -37 -1 -73 -3 -109c-2 -33 -3 -64 -3 -93c0 -42 4 -77 12 -104s25 -41 51 -41c65 0 90 48 95 121c3 37 4 78 4 121v30
c0 54 1 114 4 180c7 119 30 173 80 191c25 9 57 13 97 13c79 0 131 -5 159 -56c13 -26 20 -68 20 -125v-13c-1 -35 -1 -75 -1 -118c-1 -128 -4 -269 -8 -422c-5 -153 -14 -289 -27 -408c-14 -119 -35 -190 -64 -214c-112 -72 -258 -82 -439 -82c-28 0 -57 0 -86 1h-63
c-71 0 -149 2 -233 5s-160 12 -227 25c-68 13 -113 33 -135 62c-27 45 -49 140 -67 287c-19 146 -28 301 -28 465c0 183 14 357 47 478z" />
    <glyph glyph-name="Uacute" unicode="&#xda;" horiz-adv-x="1507" 
d="M1063 2112c27 -30 40 -59 40 -88c0 -67 -65 -130 -116 -177c-6 -5 -11 -10 -16 -15c-61 -59 -157 -143 -243 -143c-35 0 -68 14 -97 47c-29 35 -43 68 -43 99c0 72 71 134 129 181c11 8 20 16 29 24c9 7 17 15 26 23c51 47 114 103 182 103c35 0 72 -15 109 -54z
M133 1327c21 68 98 101 192 113c47 5 92 8 136 8c31 0 59 -1 85 -2c19 -1 37 -1 56 -2c66 -1 127 -7 183 -16s96 -31 119 -66c35 -60 44 -142 44 -229c0 -37 -1 -73 -3 -109c-2 -33 -3 -64 -3 -93c0 -42 4 -77 12 -104s25 -41 51 -41c65 0 90 48 95 121c3 37 4 78 4 121v30
c0 54 1 114 4 180c7 119 30 173 80 191c25 9 57 13 97 13c79 0 131 -5 159 -56c13 -26 20 -68 20 -125v-13c-1 -35 -1 -75 -1 -118c-1 -128 -4 -269 -8 -422c-5 -153 -14 -289 -27 -408c-14 -119 -35 -190 -64 -214c-112 -72 -258 -82 -439 -82c-28 0 -57 0 -86 1h-63
c-71 0 -149 2 -233 5s-160 12 -227 25c-68 13 -113 33 -135 62c-27 45 -49 140 -67 287c-19 146 -28 301 -28 465c0 183 14 357 47 478z" />
    <glyph glyph-name="Ucircumflex" unicode="&#xdb;" horiz-adv-x="1507" 
d="M338 1759v2c0 35 19 85 57 149c37 63 84 121 139 172s109 80 164 86h15c103 0 202 -61 278 -142c38 -41 68 -82 91 -124c23 -43 34 -79 34 -110c0 -24 -8 -42 -24 -53c-26 -16 -61 -29 -106 -38c-45 -10 -89 -15 -133 -15c-52 0 -95 8 -130 23c-10 7 -20 23 -31 47
c-19 39 -40 80 -73 80h-1c-31 -3 -45 -34 -57 -67c-9 -27 -20 -49 -37 -60c-27 -13 -53 -20 -79 -20c-56 0 -104 27 -107 70zM133 1327c21 68 98 101 192 113c47 5 92 8 136 8c31 0 59 -1 85 -2c19 -1 37 -1 56 -2c66 -1 127 -7 183 -16s96 -31 119 -66
c35 -60 44 -142 44 -229c0 -37 -1 -73 -3 -109c-2 -33 -3 -64 -3 -93c0 -42 4 -77 12 -104s25 -41 51 -41c65 0 90 48 95 121c3 37 4 78 4 121v30c0 54 1 114 4 180c7 119 30 173 80 191c25 9 57 13 97 13c79 0 131 -5 159 -56c13 -26 20 -68 20 -125v-13
c-1 -35 -1 -75 -1 -118c-1 -128 -4 -269 -8 -422c-5 -153 -14 -289 -27 -408c-14 -119 -35 -190 -64 -214c-112 -72 -258 -82 -439 -82c-28 0 -57 0 -86 1h-63c-71 0 -149 2 -233 5s-160 12 -227 25c-68 13 -113 33 -135 62c-27 45 -49 140 -67 287c-19 146 -28 301 -28 465
c0 183 14 357 47 478z" />
    <glyph glyph-name="Udieresis" unicode="&#xdc;" horiz-adv-x="1507" 
d="M577 2070h15c93 -5 134 -54 147 -109c7 -28 10 -51 10 -69v-11c-10 -120 -95 -162 -168 -162h-7c-85 4 -122 46 -133 97c-6 25 -9 49 -9 72c0 14 5 35 16 64c10 29 26 55 48 79c21 23 48 36 81 39zM959 2070h15c91 -4 133 -51 146 -105c7 -27 10 -50 10 -69v-15
c-10 -120 -94 -162 -167 -162h-7c-85 4 -122 47 -134 95c-5 24 -8 47 -8 67v7v1c0 15 5 36 16 65c10 28 26 54 48 77c21 23 48 36 81 39zM133 1327c21 68 98 101 192 113c47 5 92 8 136 8c31 0 59 -1 85 -2c19 -1 37 -1 56 -2c66 -1 127 -7 183 -16s96 -31 119 -66
c35 -60 44 -142 44 -229c0 -37 -1 -73 -3 -109c-2 -33 -3 -64 -3 -93c0 -42 4 -77 12 -104s25 -41 51 -41c65 0 90 48 95 121c3 37 4 78 4 121v30c0 54 1 114 4 180c7 119 30 173 80 191c25 9 57 13 97 13c79 0 131 -5 159 -56c13 -26 20 -68 20 -125v-13
c-1 -35 -1 -75 -1 -118c-1 -128 -4 -269 -8 -422c-5 -153 -14 -289 -27 -408c-14 -119 -35 -190 -64 -214c-112 -72 -258 -82 -439 -82c-28 0 -57 0 -86 1h-63c-71 0 -149 2 -233 5s-160 12 -227 25c-68 13 -113 33 -135 62c-27 45 -49 140 -67 287c-19 146 -28 301 -28 465
c0 183 14 357 47 478z" />
    <glyph glyph-name="Yacute" unicode="&#xdd;" horiz-adv-x="1520" 
d="M1019 2112c27 -30 40 -59 40 -88c0 -67 -65 -130 -116 -177c-6 -5 -11 -10 -16 -15c-61 -59 -157 -143 -243 -143c-35 0 -68 14 -97 47c-29 35 -43 68 -43 99c0 72 71 134 129 181c11 8 20 16 29 24c9 7 17 15 26 23c51 47 114 103 182 103c35 0 72 -15 109 -54z
M145 1438c31 5 61 8 89 8c56 0 103 -14 135 -51c17 -21 43 -85 74 -161c35 -87 72 -178 108 -235c17 -29 33 -43 47 -43c48 0 93 92 140 195c23 51 49 100 76 147s56 81 88 103c35 19 80 30 135 34s99 6 134 6h10c112 0 299 -1 299 -114c0 -34 -16 -84 -47 -150
c-32 -66 -70 -137 -115 -214s-90 -152 -135 -223c-39 -63 -71 -117 -98 -163c0 -37 0 -78 1 -121c1 -46 2 -91 2 -135c0 -111 -5 -207 -28 -248c-18 -27 -55 -44 -110 -52c-56 -8 -112 -12 -168 -12h-21c-66 0 -134 5 -203 15c-70 9 -115 27 -134 53c-24 43 -30 135 -30 236
c0 56 1 111 3 166c2 45 3 83 3 114c-13 23 -29 50 -48 81c-38 63 -80 136 -126 218s-87 162 -122 241c-35 78 -56 143 -61 196v5c0 51 41 93 102 104z" />
    <glyph glyph-name="Thorn" unicode="&#xde;" horiz-adv-x="1735" 
d="M406 1438c111 0 210 -8 267 -44c29 -19 44 -47 46 -84c2 -31 3 -68 3 -111c127 15 256 22 389 22c89 0 173 -5 250 -16s139 -29 185 -56c25 -17 40 -54 47 -111s10 -121 10 -191c0 -24 0 -48 -1 -73v-35c0 -50 -1 -104 -3 -163c-3 -59 -8 -112 -17 -159s-24 -79 -44 -94
c-35 -21 -110 -40 -227 -57s-236 -26 -358 -26c-87 0 -166 6 -235 19c0 -6 0 -12 -1 -17c-2 -59 -5 -102 -8 -128c-8 -76 -57 -105 -156 -112c-50 -3 -114 -5 -193 -5c-186 0 -293 22 -301 133c-5 101 -8 233 -8 396c0 157 2 313 5 470c3 156 7 265 12 326c4 33 24 58 59 75
s79 28 130 33s101 8 149 8zM725 951v-119c23 0 50 -1 81 -3c35 -3 70 -4 105 -4c39 0 73 4 102 11s43 21 43 42c0 68 -78 69 -164 69h-25c-38 0 -80 1 -127 3c-5 1 -10 1 -15 1z" />
    <glyph glyph-name="germandbls" unicode="&#xdf;" horiz-adv-x="1623" 
d="M832 1456c247 0 412 -79 496 -193c42 -57 63 -118 63 -181c0 -108 -63 -217 -191 -294c197 -43 307 -164 307 -341c0 -25 -2 -51 -7 -78c-29 -160 -119 -267 -238 -319c-60 -27 -121 -40 -184 -40c-64 0 -126 14 -185 41c-24 12 -45 31 -64 58c-19 26 -28 55 -28 87
c0 13 2 27 6 41c24 71 71 108 119 139c25 16 47 34 65 53s27 46 27 80c0 9 -1 19 -2 30c-14 71 -88 82 -145 82c-13 0 -25 0 -35 -1c-7 -1 -13 -1 -18 -1h-3c-25 2 -46 13 -64 34c-18 20 -27 43 -27 70c0 28 12 57 41 81c2 1 4 3 6 5c32 24 65 55 99 94c34 38 53 82 57 131
v3c0 73 -47 112 -106 128c-29 7 -57 11 -82 11c-90 0 -115 -124 -115 -295c0 -205 36 -479 36 -683c0 -30 -1 -58 -3 -85c-5 -65 -52 -116 -109 -137c-67 -23 -130 -35 -191 -35c-65 0 -121 12 -166 35c-64 33 -94 79 -115 155c-5 22 -10 72 -13 151c-4 79 -6 169 -6 272
c0 141 4 281 13 422c9 140 24 238 45 293c35 76 111 124 186 151c66 22 144 33 234 33h8c75 1 136 1 182 2c41 1 77 1 107 1z" />
    <glyph glyph-name="agrave" unicode="&#xe0;" 
d="M377 2003c37 39 74 54 109 54c68 0 131 -56 182 -103c17 -16 34 -30 54 -46c59 -47 130 -110 130 -182c0 -31 -14 -64 -42 -99c-29 -33 -62 -47 -97 -47c-86 0 -182 84 -243 143c-5 5 -11 10 -16 15c-52 48 -117 111 -117 178c0 28 13 57 40 87zM902 1426
c171 -13 316 -78 405 -197c37 -57 63 -155 77 -292c14 -138 21 -278 21 -420c0 -119 -3 -223 -9 -313c-6 -91 -13 -145 -20 -163c-10 -13 -56 -23 -137 -30s-166 -11 -255 -11c-66 0 -124 2 -174 7c-51 5 -81 12 -90 22c-13 21 -21 53 -24 98c-3 44 -4 80 -4 108v10
c-96 -2 -191 -5 -286 -8c0 -31 -1 -68 -4 -113s-9 -76 -18 -94c-7 -10 -27 -18 -58 -23s-66 -8 -103 -8c-39 0 -74 3 -107 9c-33 5 -52 13 -59 24c-5 20 -8 72 -8 157c0 86 2 188 7 307c4 118 9 222 15 313c32 443 215 626 588 626h27c13 -1 27 -1 41 -1
c55 -1 113 -4 175 -8zM408 941l282 1c-3 65 -18 118 -43 159s-57 61 -94 61h-5c-65 -4 -140 -77 -140 -221z" />
    <glyph glyph-name="aacute" unicode="&#xe1;" 
d="M907 2019c27 -30 40 -59 40 -88c0 -67 -65 -130 -116 -177c-6 -5 -11 -10 -16 -15c-61 -59 -157 -143 -243 -143c-35 0 -68 14 -97 47c-29 35 -43 68 -43 99c0 73 72 134 131 181c10 9 19 17 28 24c8 7 16 14 24 22c52 48 115 104 183 104c36 0 72 -15 109 -54zM902 1426
c171 -13 316 -78 405 -197c37 -57 63 -155 77 -292c14 -138 21 -278 21 -420c0 -119 -3 -223 -9 -313c-6 -91 -13 -145 -20 -163c-10 -13 -56 -23 -137 -30s-166 -11 -255 -11c-66 0 -124 2 -174 7c-51 5 -81 12 -90 22c-13 21 -21 53 -24 98c-3 44 -4 80 -4 108v10
c-96 -2 -191 -5 -286 -8c0 -31 -1 -68 -4 -113s-9 -76 -18 -94c-7 -10 -27 -18 -58 -23s-66 -8 -103 -8c-39 0 -74 3 -107 9c-33 5 -52 13 -59 24c-5 20 -8 72 -8 157c0 86 2 188 7 307c4 118 9 222 15 313c32 443 215 626 588 626h27c13 -1 27 -1 41 -1
c55 -1 113 -4 175 -8zM408 941l282 1c-3 65 -18 118 -43 159s-57 61 -94 61h-5c-65 -4 -140 -77 -140 -221z" />
    <glyph glyph-name="acircumflex" unicode="&#xe2;" 
d="M358 1698v2c0 35 19 85 57 149c37 63 84 121 139 172s109 80 164 86h15c103 0 202 -61 278 -142c38 -41 68 -82 91 -124c23 -43 34 -79 34 -110c0 -24 -8 -42 -24 -53c-26 -16 -61 -29 -105 -38c-45 -10 -89 -15 -133 -15c-52 0 -96 8 -131 24c-11 5 -20 24 -32 47
c-17 39 -40 79 -72 79h-1c-31 -3 -45 -32 -57 -67c-9 -25 -21 -49 -38 -60c-26 -13 -52 -20 -78 -20c-56 0 -104 27 -107 70zM902 1426c171 -13 316 -78 405 -197c37 -57 63 -155 77 -292c14 -138 21 -278 21 -420c0 -119 -3 -223 -9 -313c-6 -91 -13 -145 -20 -163
c-10 -13 -56 -23 -137 -30s-166 -11 -255 -11c-66 0 -124 2 -174 7c-51 5 -81 12 -90 22c-13 21 -21 53 -24 98c-3 44 -4 80 -4 108v10c-96 -2 -191 -5 -286 -8c0 -31 -1 -68 -4 -113s-9 -76 -18 -94c-7 -10 -27 -18 -58 -23s-66 -8 -103 -8c-39 0 -74 3 -107 9
c-33 5 -52 13 -59 24c-5 20 -8 72 -8 157c0 86 2 188 7 307c4 118 9 222 15 313c32 443 215 626 588 626h27c13 -1 27 -1 41 -1c55 -1 113 -4 175 -8zM408 941l282 1c-3 65 -18 118 -43 159s-57 61 -94 61h-5c-65 -4 -140 -77 -140 -221z" />
    <glyph glyph-name="atilde" unicode="&#xe3;" 
d="M353 1732c-11 19 -16 41 -16 64c0 43 15 89 46 136s69 87 114 120s90 49 134 49c76 0 148 -42 215 -86c57 -36 110 -66 158 -69h2c27 0 58 20 93 41c35 23 69 45 100 45c11 0 20 -3 29 -10c15 -13 23 -33 23 -60c0 -57 -32 -139 -82 -208s-115 -122 -179 -122
c-67 0 -145 41 -221 85c-69 39 -135 74 -187 74c-27 0 -58 -23 -87 -48c-31 -25 -61 -49 -90 -49c-19 0 -36 13 -52 38zM902 1426c171 -13 316 -78 405 -197c37 -57 63 -155 77 -292c14 -138 21 -278 21 -420c0 -119 -3 -223 -9 -313c-6 -91 -13 -145 -20 -163
c-10 -13 -56 -23 -137 -30s-166 -11 -255 -11c-66 0 -124 2 -174 7c-51 5 -81 12 -90 22c-13 21 -21 53 -24 98c-3 44 -4 80 -4 108v10c-96 -2 -191 -5 -286 -8c0 -31 -1 -68 -4 -113s-9 -76 -18 -94c-7 -10 -27 -18 -58 -23s-66 -8 -103 -8c-39 0 -74 3 -107 9
c-33 5 -52 13 -59 24c-5 20 -8 72 -8 157c0 86 2 188 7 307c4 118 9 222 15 313c32 443 215 626 588 626h27c13 -1 27 -1 41 -1c55 -1 113 -4 175 -8zM408 941l282 1c-3 65 -18 118 -43 159s-57 61 -94 61h-5c-65 -4 -140 -77 -140 -221z" />
    <glyph glyph-name="adieresis" unicode="&#xe4;" 
d="M559 2010h15c91 -4 133 -51 146 -105c7 -27 10 -50 10 -68v-15c-10 -123 -96 -163 -169 -163h-5c-85 4 -122 47 -134 95c-5 24 -8 47 -8 67v7v1c0 15 5 36 16 65c10 29 26 55 48 78c21 23 48 35 81 38zM940 2010h15c91 -4 133 -52 147 -106c7 -27 10 -50 10 -68v-14
c-10 -123 -97 -163 -170 -163h-5c-85 4 -122 47 -133 95c-5 24 -8 46 -8 67v7v1c0 15 5 36 16 65c10 29 26 55 47 78s48 35 81 38zM902 1426c171 -13 316 -78 405 -197c37 -57 63 -155 77 -292c14 -138 21 -278 21 -420c0 -119 -3 -223 -9 -313c-6 -91 -13 -145 -20 -163
c-10 -13 -56 -23 -137 -30s-166 -11 -255 -11c-66 0 -124 2 -174 7c-51 5 -81 12 -90 22c-13 21 -21 53 -24 98c-3 44 -4 80 -4 108v10c-96 -2 -191 -5 -286 -8c0 -31 -1 -68 -4 -113s-9 -76 -18 -94c-7 -10 -27 -18 -58 -23s-66 -8 -103 -8c-39 0 -74 3 -107 9
c-33 5 -52 13 -59 24c-5 20 -8 72 -8 157c0 86 2 188 7 307c4 118 9 222 15 313c32 443 215 626 588 626h27c13 -1 27 -1 41 -1c55 -1 113 -4 175 -8zM408 941l282 1c-3 65 -18 118 -43 159s-57 61 -94 61h-5c-65 -4 -140 -77 -140 -221z" />
    <glyph glyph-name="aring" unicode="&#xe5;" 
d="M750 2188c132 0 206 -61 239 -148c17 -43 25 -88 25 -135c0 -9 0 -17 -1 -25c-3 -52 -28 -125 -76 -189c-48 -65 -117 -114 -208 -114c-206 0 -302 137 -302 302c0 12 1 24 2 37c9 81 43 146 104 197c61 50 133 75 217 75zM791 2062h-7c-25 0 -48 -9 -69 -28
c-22 -19 -35 -51 -39 -95v-8c0 -23 7 -44 22 -62s42 -27 82 -27h5c27 3 47 19 62 49c15 29 22 56 22 81v2c-2 27 -12 49 -29 65c-17 15 -34 23 -49 23zM902 1426c171 -13 316 -78 405 -197c37 -57 63 -155 77 -292c14 -138 21 -278 21 -420c0 -119 -3 -223 -9 -313
c-6 -91 -13 -145 -20 -163c-10 -13 -56 -23 -137 -30s-166 -11 -255 -11c-66 0 -124 2 -174 7c-51 5 -81 12 -90 22c-13 21 -21 53 -24 98c-3 44 -4 80 -4 108v10c-96 -2 -191 -5 -286 -8c0 -31 -1 -68 -4 -113s-9 -76 -18 -94c-7 -10 -27 -18 -58 -23s-66 -8 -103 -8
c-39 0 -74 3 -107 9c-33 5 -52 13 -59 24c-5 20 -8 72 -8 157c0 86 2 188 7 307c4 118 9 222 15 313c32 443 215 626 588 626h27c13 -1 27 -1 41 -1c55 -1 113 -4 175 -8zM408 941l282 1c-3 65 -18 118 -43 159s-57 61 -94 61h-5c-65 -4 -140 -77 -140 -221z" />
    <glyph glyph-name="ae" unicode="&#xe6;" horiz-adv-x="1996" 
d="M983 1443h41c15 -1 31 -1 48 -1h277c66 -1 128 -1 186 -1h121c87 0 152 -2 195 -7c42 -5 70 -13 84 -26c13 -13 20 -31 20 -54v-80c0 -94 -94 -92 -171 -92h-18h-61c-100 0 -209 0 -209 -59c0 -49 20 -55 84 -55h63c92 0 127 -7 138 -39c5 -16 8 -40 8 -73
c0 -59 -4 -92 -41 -106c-19 -7 -50 -11 -93 -11c-123 0 -147 -49 -147 -80c0 -56 62 -69 133 -69c26 0 52 1 79 3c23 1 44 2 63 3h8c95 0 137 -25 153 -106c8 -41 12 -99 12 -176c0 -164 -10 -263 -55 -322c-23 -29 -57 -50 -103 -63c-92 -25 -242 -27 -475 -27h-153
c-41 0 -79 0 -114 1c-26 -1 -51 -1 -76 -1c-65 0 -123 2 -172 7s-79 12 -88 22c-13 20 -21 52 -24 97s-4 81 -4 108v11c-47 -1 -94 -3 -141 -4c-49 -1 -97 -3 -145 -4c0 -31 -1 -68 -4 -113s-9 -76 -18 -95c-7 -10 -26 -17 -57 -22s-66 -8 -103 -8c-39 0 -75 3 -108 8
s-52 13 -59 24c-5 21 -8 73 -8 157c0 87 2 189 7 308c4 118 9 222 15 313c15 219 71 379 167 478c95 99 236 148 421 148h34c45 -1 94 -2 147 -5c37 7 84 11 143 11zM552 1164h-4c-65 -4 -140 -77 -140 -221h282c-3 66 -17 119 -42 159s-57 61 -96 62z" />
    <glyph glyph-name="ccedilla" unicode="&#xe7;" horiz-adv-x="1348" 
d="M701 1332c111 -3 206 -24 284 -65c77 -41 140 -91 188 -152c47 -61 82 -123 103 -187c21 -65 32 -121 32 -168c0 -36 -48 -59 -111 -70c-18 -3 -36 -4 -55 -4c-25 0 -74 0 -117 24c-22 12 -33 29 -33 50c0 91 -48 235 -182 235c-64 0 -132 -67 -175 -170
c-21 -51 -32 -108 -32 -171c0 -132 44 -343 207 -343c58 1 104 21 138 61c34 39 51 87 51 143c0 45 46 69 105 74c11 1 22 1 33 1c37 0 90 -6 131 -30c20 -12 30 -27 30 -45c0 -301 -159 -515 -404 -599c65 -56 113 -133 113 -225c-1 -66 -19 -118 -56 -156
s-84 -65 -139 -81s-111 -24 -166 -24c-97 1 -170 25 -218 70c-40 38 -60 82 -60 133c0 9 1 18 2 28c7 44 24 78 49 101c16 15 33 23 52 23c10 0 21 -2 32 -7c50 -23 95 -35 135 -35c9 0 26 2 53 5s41 20 44 49c-1 28 -27 45 -59 61c-10 5 -20 11 -31 18
c-142 3 -258 41 -347 112c-89 72 -155 165 -196 279s-62 234 -62 359c0 221 77 397 201 519s288 187 460 187z" />
    <glyph glyph-name="egrave" unicode="&#xe8;" horiz-adv-x="1333" 
d="M333 2001c37 39 73 54 109 54c68 0 131 -56 183 -104c9 -8 17 -15 25 -22c9 -8 18 -16 29 -24c58 -47 129 -109 129 -181c0 -31 -14 -64 -43 -99c-29 -33 -62 -47 -97 -47c-86 0 -182 84 -243 143c-5 5 -11 10 -16 15c-51 47 -116 110 -116 177c0 29 13 58 40 88z
M1292 1352v-80c0 -94 -93 -92 -170 -92h-18h-61c-102 0 -210 0 -210 -59c0 -49 21 -55 84 -55h63c92 0 128 -7 139 -39c5 -16 8 -40 8 -73c0 -59 -5 -91 -42 -105c-19 -7 -50 -11 -93 -11c-122 0 -147 -49 -147 -81c0 -56 62 -69 133 -69c26 0 52 1 79 3c23 1 44 2 63 3h8
c95 0 137 -25 153 -106c8 -41 12 -99 12 -176c0 -164 -9 -263 -54 -322c-23 -29 -57 -50 -103 -63c-93 -25 -241 -27 -476 -27h-38c-335 0 -476 1 -534 72c-37 46 -42 124 -42 255c0 83 -1 171 -3 266c-2 84 -3 155 -3 214c0 363 6 518 68 584c40 43 106 49 210 49h368
c66 -1 128 -1 186 -1h122c87 0 152 -2 195 -7c42 -5 70 -13 83 -26s20 -31 20 -54z" />
    <glyph glyph-name="eacute" unicode="&#xe9;" horiz-adv-x="1333" 
d="M834 1971c27 -30 40 -59 40 -88c0 -66 -65 -129 -116 -176c-6 -5 -12 -11 -17 -16c-61 -59 -156 -143 -243 -143c-33 0 -67 14 -96 47c-29 35 -43 68 -43 99c0 73 71 135 131 182c9 8 18 16 27 23c8 7 16 15 25 23c53 47 115 103 183 103c35 0 72 -15 109 -54zM1292 1352
v-80c0 -94 -93 -92 -170 -92h-18h-61c-102 0 -210 0 -210 -59c0 -49 21 -55 84 -55h63c92 0 128 -7 139 -39c5 -16 8 -40 8 -73c0 -59 -5 -91 -42 -105c-19 -7 -50 -11 -93 -11c-122 0 -147 -49 -147 -81c0 -56 62 -69 133 -69c26 0 52 1 79 3c23 1 44 2 63 3h8
c95 0 137 -25 153 -106c8 -41 12 -99 12 -176c0 -164 -9 -263 -54 -322c-23 -29 -57 -50 -103 -63c-93 -25 -241 -27 -476 -27h-38c-335 0 -476 1 -534 72c-37 46 -42 124 -42 255c0 83 -1 171 -3 266c-2 84 -3 155 -3 214c0 363 6 518 68 584c40 43 106 49 210 49h368
c66 -1 128 -1 186 -1h122c87 0 152 -2 195 -7c42 -5 70 -13 83 -26s20 -31 20 -54z" />
    <glyph glyph-name="ecircumflex" unicode="&#xea;" horiz-adv-x="1333" 
d="M237 1692v2c0 35 19 85 57 149c37 63 84 121 139 172s109 80 164 86h15c103 0 202 -61 278 -142c38 -41 68 -82 91 -124c23 -43 34 -79 34 -110c0 -24 -8 -42 -24 -53c-26 -16 -61 -29 -105 -38c-45 -10 -89 -15 -133 -15c-52 0 -96 8 -131 24c-11 5 -20 24 -31 47
c-19 39 -40 79 -73 79h-1c-31 -3 -45 -32 -57 -67c-9 -25 -20 -49 -37 -60c-27 -13 -53 -20 -79 -20c-56 0 -104 27 -107 70zM1292 1352v-80c0 -94 -93 -92 -170 -92h-18h-61c-102 0 -210 0 -210 -59c0 -49 21 -55 84 -55h63c92 0 128 -7 139 -39c5 -16 8 -40 8 -73
c0 -59 -5 -91 -42 -105c-19 -7 -50 -11 -93 -11c-122 0 -147 -49 -147 -81c0 -56 62 -69 133 -69c26 0 52 1 79 3c23 1 44 2 63 3h8c95 0 137 -25 153 -106c8 -41 12 -99 12 -176c0 -164 -9 -263 -54 -322c-23 -29 -57 -50 -103 -63c-93 -25 -241 -27 -476 -27h-38
c-335 0 -476 1 -534 72c-37 46 -42 124 -42 255c0 83 -1 171 -3 266c-2 84 -3 155 -3 214c0 363 6 518 68 584c40 43 106 49 210 49h368c66 -1 128 -1 186 -1h122c87 0 152 -2 195 -7c42 -5 70 -13 83 -26s20 -31 20 -54z" />
    <glyph glyph-name="edieresis" unicode="&#xeb;" horiz-adv-x="1333" 
d="M227 2140h15c47 -3 81 -15 104 -36c22 -21 36 -46 43 -73s10 -50 10 -68v-11c-10 -123 -97 -163 -170 -163h-5c-85 4 -122 46 -133 97c-6 25 -9 49 -9 72c0 14 5 35 16 64c10 29 26 55 48 79c21 23 48 36 81 39zM609 2140h15c91 -4 133 -51 146 -105c7 -27 10 -50 10 -68
v-15c-8 -123 -98 -163 -169 -163h-5c-85 4 -122 47 -134 95c-5 24 -8 47 -8 67v7v1c0 15 5 36 16 65c10 29 26 55 48 78c21 23 48 35 81 38zM1292 1352v-80c0 -94 -93 -92 -170 -92h-18h-61c-102 0 -210 0 -210 -59c0 -49 21 -55 84 -55h63c92 0 128 -7 139 -39
c5 -16 8 -40 8 -73c0 -59 -5 -91 -42 -105c-19 -7 -50 -11 -93 -11c-122 0 -147 -49 -147 -81c0 -56 62 -69 133 -69c26 0 52 1 79 3c23 1 44 2 63 3h8c95 0 137 -25 153 -106c8 -41 12 -99 12 -176c0 -164 -9 -263 -54 -322c-23 -29 -57 -50 -103 -63
c-93 -25 -241 -27 -476 -27h-38c-335 0 -476 1 -534 72c-37 46 -42 124 -42 255c0 83 -1 171 -3 266c-2 84 -3 155 -3 214c0 363 6 518 68 584c40 43 106 49 210 49h368c66 -1 128 -1 186 -1h122c87 0 152 -2 195 -7c42 -5 70 -13 83 -26s20 -31 20 -54z" />
    <glyph glyph-name="igrave" unicode="&#xec;" horiz-adv-x="837" 
d="M145 2052c37 39 74 54 109 54c68 0 131 -56 182 -103c17 -16 34 -30 54 -46c59 -47 130 -110 130 -182c0 -31 -14 -64 -42 -99c-29 -33 -62 -47 -97 -47c-86 0 -182 84 -243 143c-5 5 -11 10 -16 15c-52 48 -117 111 -117 178c0 28 13 57 40 87zM135 1321
c4 33 24 58 59 75s79 28 130 33s101 8 149 8c111 0 210 -8 267 -44c29 -19 44 -47 46 -84c4 -121 6 -274 6 -460c0 -154 -1 -303 -4 -446c-3 -144 -7 -241 -12 -290c-8 -76 -57 -105 -156 -112c-50 -3 -114 -5 -193 -5c-186 0 -293 22 -301 133c-5 101 -8 233 -8 396
c0 157 2 313 5 470c3 156 7 265 12 326z" />
    <glyph glyph-name="iacute" unicode="&#xed;" horiz-adv-x="774" 
d="M588 2052c27 -30 41 -59 41 -88c0 -66 -65 -129 -117 -177c-5 -5 -11 -10 -16 -15c-61 -59 -157 -143 -243 -143c-35 0 -68 14 -97 47c-28 35 -42 68 -42 99c0 72 71 135 130 182c10 8 19 16 28 23c8 7 16 14 24 22c52 48 115 104 183 104c36 0 72 -15 109 -54zM72 1321
c4 33 24 58 59 75s79 28 130 33s101 8 149 8c111 0 210 -8 267 -44c29 -19 44 -47 46 -84c4 -121 6 -274 6 -460c0 -154 -1 -303 -4 -446c-3 -144 -7 -241 -12 -290c-8 -76 -57 -105 -156 -112c-50 -3 -114 -5 -193 -5c-186 0 -293 22 -301 133c-5 101 -8 233 -8 396
c0 157 2 313 5 470c3 156 7 265 12 326z" />
    <glyph glyph-name="icircumflex" unicode="&#xee;" horiz-adv-x="940" 
d="M43 1699v2c0 35 19 85 57 149c37 63 83 121 138 172s109 80 164 86c5 1 11 1 16 1c51 0 101 -14 149 -41s91 -61 129 -102c76 -81 124 -173 124 -234c0 -23 -8 -41 -24 -53c-26 -16 -61 -29 -105 -38c-45 -9 -89 -14 -133 -14c-52 0 -95 8 -130 23c-11 5 -20 24 -32 47
c-17 39 -40 79 -72 79h-1c-31 -3 -45 -32 -57 -67c-9 -25 -21 -49 -38 -60c-27 -13 -53 -20 -79 -20c-56 0 -103 27 -106 70zM74 1321c4 33 24 58 59 75s79 28 130 33s101 8 149 8c111 0 210 -8 267 -44c29 -19 44 -47 46 -84c4 -121 6 -274 6 -460c0 -154 -1 -303 -4 -446
c-3 -144 -7 -241 -12 -290c-8 -76 -57 -105 -156 -112c-50 -3 -114 -5 -193 -5c-186 0 -293 22 -301 133c-5 101 -8 233 -8 396c0 157 2 313 5 470c3 156 7 265 12 326z" />
    <glyph glyph-name="idieresis" unicode="&#xef;" horiz-adv-x="790" 
d="M210 2098c91 -4 133 -51 146 -105c7 -27 10 -50 10 -69v-15c-10 -123 -97 -163 -170 -163h-5c-85 4 -122 47 -133 95c-5 24 -8 46 -8 67v7v1c0 15 5 36 16 65c10 29 26 55 47 78s48 35 81 38c6 1 11 1 16 1zM591 2098c91 -4 133 -52 147 -106c7 -27 10 -50 10 -69v-14
c-10 -123 -97 -163 -170 -163h-5c-85 4 -122 47 -133 95c-5 24 -8 46 -8 67v7v1c0 15 5 36 16 65c10 29 26 55 47 78s48 35 81 38c5 1 10 1 15 1zM67 1321c4 33 24 58 59 75s79 28 130 33s101 8 149 8c111 0 210 -8 267 -44c29 -19 44 -47 46 -84c4 -121 6 -274 6 -460
c0 -154 -1 -303 -4 -446c-3 -144 -7 -241 -12 -290c-8 -76 -57 -105 -156 -112c-50 -3 -114 -5 -193 -5c-186 0 -293 22 -301 133c-5 101 -8 233 -8 396c0 157 2 313 5 470c3 156 7 265 12 326z" />
    <glyph glyph-name="eth" unicode="&#xf0;" horiz-adv-x="1439" 
d="M739 1441h12c4 -1 8 -1 12 -1c125 0 227 -15 307 -44c79 -30 142 -69 187 -117s77 -101 98 -159c40 -117 44 -239 44 -338c0 -61 -6 -138 -17 -231c-12 -94 -31 -184 -56 -269c-26 -85 -60 -149 -102 -191c-41 -35 -111 -60 -210 -74s-202 -21 -310 -21
c-110 0 -209 5 -297 15c-89 9 -143 20 -162 32c-17 17 -30 77 -37 182c-7 104 -11 224 -11 361c-59 5 -100 18 -123 38c-23 19 -34 51 -34 96c0 43 11 75 34 94s65 31 127 36c4 136 10 254 18 353c7 99 16 157 26 175c13 14 68 28 165 42s206 21 329 21zM827 1134h-2
c-11 0 -21 -1 -30 -3v-277c105 -7 155 -38 155 -133c0 -82 -20 -119 -155 -133v-226s43 7 97 39c27 15 53 39 80 70c53 62 96 161 96 314v8c-4 173 -61 270 -135 311c-37 20 -73 30 -106 30z" />
    <glyph glyph-name="ntilde" unicode="&#xf1;" horiz-adv-x="1563" 
d="M397 1732c-11 19 -16 41 -16 64c0 43 15 89 46 136s69 87 114 120s90 49 134 49c76 0 148 -42 215 -86c57 -36 110 -66 158 -69h2c27 0 58 20 93 41c35 23 69 45 100 45c11 0 20 -3 29 -10c15 -13 23 -33 23 -60c0 -57 -32 -139 -82 -208s-115 -122 -179 -122
c-67 0 -145 41 -221 85c-69 39 -135 74 -187 74c-27 0 -58 -23 -87 -48c-31 -25 -61 -49 -90 -49c-19 0 -36 13 -52 38zM351 1430c27 4 58 6 91 6c43 0 86 -2 129 -7s76 -10 99 -16c72 -21 137 -61 194 -121c57 -61 106 -126 147 -196c41 -71 72 -132 94 -185
c21 -53 32 -79 32 -79s-3 24 -8 72s-8 104 -8 167c0 62 5 124 16 185c10 61 30 107 59 139c29 29 86 45 141 45c56 0 107 -17 123 -54c12 -32 21 -83 27 -152c5 -70 8 -149 8 -237c0 -140 -6 -282 -19 -426s-30 -248 -51 -313c-17 -48 -43 -95 -78 -142s-73 -79 -116 -96
c-43 -13 -104 -20 -181 -20c-45 0 -90 4 -134 11c-45 7 -81 18 -109 34c-47 30 -91 69 -132 118s-77 98 -108 149c-31 50 -56 93 -73 128c-18 35 -27 53 -27 53s-1 -15 -3 -44c-2 -30 -5 -66 -10 -109c-9 -85 -24 -178 -45 -235c-28 -65 -94 -100 -161 -100
c-65 0 -129 35 -149 107c-13 51 -22 118 -29 203c-7 84 -10 175 -10 272c0 131 7 260 20 386s32 224 59 293c32 81 99 144 212 164z" />
    <glyph glyph-name="ograve" unicode="&#xf2;" horiz-adv-x="1349" 
d="M435 2011c37 39 73 54 109 54c66 0 130 -56 182 -104c9 -8 17 -16 26 -23c9 -8 18 -16 29 -24c59 -49 129 -107 129 -181c0 -30 -14 -63 -43 -98c-29 -33 -62 -47 -97 -47c-87 0 -183 84 -243 142c-5 5 -11 11 -18 17c-50 48 -114 108 -114 176c0 29 13 58 40 88z
M652 1458h22c197 -6 347 -69 449 -188s157 -282 166 -488c1 -16 1 -32 1 -48c0 -154 -28 -287 -83 -399c-56 -112 -130 -198 -222 -259c-93 -61 -195 -92 -308 -93c-151 0 -303 48 -419 155c-117 107 -193 274 -193 510c0 19 1 39 2 60c3 80 15 163 35 249
c19 86 51 167 94 242s101 136 176 184c74 47 167 72 280 75zM833 1029v9c-2 85 -47 170 -147 170c-65 0 -95 -48 -106 -101c-5 -27 -8 -49 -8 -68v-15c4 -73 42 -158 137 -158h6c41 3 71 22 90 55s28 69 28 108z" />
    <glyph glyph-name="oacute" unicode="&#xf3;" horiz-adv-x="1349" 
d="M927 1976c27 -30 40 -59 40 -88c0 -66 -64 -129 -115 -176c-6 -6 -12 -12 -18 -17c-60 -58 -156 -142 -242 -142c-35 0 -68 14 -97 47c-29 35 -43 68 -43 99c0 72 71 134 130 181c20 16 37 30 54 46c52 48 116 104 182 104c36 0 72 -15 109 -54zM652 1458h22
c197 -6 347 -69 449 -188s157 -282 166 -488c1 -16 1 -32 1 -48c0 -154 -28 -287 -83 -399c-56 -112 -130 -198 -222 -259c-93 -61 -195 -92 -308 -93c-151 0 -303 48 -419 155c-117 107 -193 274 -193 510c0 19 1 39 2 60c3 80 15 163 35 249c19 86 51 167 94 242
s101 136 176 184c74 47 167 72 280 75zM833 1029v9c-2 85 -47 170 -147 170c-65 0 -95 -48 -106 -101c-5 -27 -8 -49 -8 -68v-15c4 -73 42 -158 137 -158h6c41 3 71 22 90 55s28 69 28 108z" />
    <glyph glyph-name="ocircumflex" unicode="&#xf4;" horiz-adv-x="1349" 
d="M354 1703v2c0 36 19 86 57 149c37 63 84 121 139 172s109 80 164 87h15c103 0 202 -61 278 -142c38 -41 68 -82 91 -124c23 -43 34 -79 34 -110c0 -24 -8 -42 -24 -53c-26 -16 -61 -29 -106 -38c-45 -10 -89 -15 -133 -15c-52 0 -95 8 -130 23c-11 5 -20 24 -31 47
c-19 39 -40 79 -72 79h-2c-31 -3 -45 -33 -57 -66c-9 -27 -20 -49 -37 -60c-27 -13 -53 -20 -80 -20c-56 0 -103 26 -106 69zM652 1458h22c197 -6 347 -69 449 -188s157 -282 166 -488c1 -16 1 -32 1 -48c0 -154 -28 -287 -83 -399c-56 -112 -130 -198 -222 -259
c-93 -61 -195 -92 -308 -93c-151 0 -303 48 -419 155c-117 107 -193 274 -193 510c0 19 1 39 2 60c3 80 15 163 35 249c19 86 51 167 94 242s101 136 176 184c74 47 167 72 280 75zM833 1029v9c-2 85 -47 170 -147 170c-65 0 -95 -48 -106 -101c-5 -27 -8 -49 -8 -68v-15
c4 -73 42 -158 137 -158h6c41 3 71 22 90 55s28 69 28 108z" />
    <glyph glyph-name="otilde" unicode="&#xf5;" horiz-adv-x="1349" 
d="M290 1738c-11 19 -16 40 -16 62c0 44 16 90 47 137s69 88 114 121s90 49 133 49c76 0 149 -43 217 -87c56 -36 108 -66 156 -69h2c27 0 58 21 93 42c35 23 71 45 100 45c11 0 20 -3 29 -10c15 -13 23 -34 23 -61c0 -57 -32 -139 -82 -208s-114 -122 -178 -122
c-67 0 -145 41 -220 84c-71 40 -136 75 -189 75c-27 0 -57 -23 -86 -47c-31 -27 -62 -50 -90 -50c-19 0 -36 13 -53 39zM652 1458h22c197 -6 347 -69 449 -188s157 -282 166 -488c1 -16 1 -32 1 -48c0 -154 -28 -287 -83 -399c-56 -112 -130 -198 -222 -259
c-93 -61 -195 -92 -308 -93c-151 0 -303 48 -419 155c-117 107 -193 274 -193 510c0 19 1 39 2 60c3 80 15 163 35 249c19 86 51 167 94 242s101 136 176 184c74 47 167 72 280 75zM833 1029v9c-2 85 -47 170 -147 170c-65 0 -95 -48 -106 -101c-5 -27 -8 -49 -8 -68v-15
c4 -73 42 -158 137 -158h6c41 3 71 22 90 55s28 69 28 108z" />
    <glyph glyph-name="odieresis" unicode="&#xf6;" horiz-adv-x="1349" 
d="M462 1889h15c93 -5 134 -54 147 -109c7 -28 10 -51 10 -69v-11c-10 -122 -97 -163 -170 -163h-5c-85 5 -122 47 -133 98c-6 25 -9 49 -9 72c0 14 5 35 16 64c10 28 26 54 48 78c21 24 48 37 81 40zM844 1889h15c91 -4 133 -51 146 -105c7 -27 10 -50 10 -69v-15
c-8 -122 -98 -163 -169 -163h-5c-85 5 -122 48 -134 96c-5 24 -8 47 -8 67v7v1c0 15 5 36 16 65c10 28 26 54 48 77c21 23 48 36 81 39zM652 1458h22c197 -6 347 -69 449 -188s157 -282 166 -488c1 -16 1 -32 1 -48c0 -154 -28 -287 -83 -399c-56 -112 -130 -198 -222 -259
c-93 -61 -195 -92 -308 -93c-151 0 -303 48 -419 155c-117 107 -193 274 -193 510c0 19 1 39 2 60c3 80 15 163 35 249c19 86 51 167 94 242s101 136 176 184c74 47 167 72 280 75zM833 1029v9c-2 85 -47 170 -147 170c-65 0 -95 -48 -106 -101c-5 -27 -8 -49 -8 -68v-15
c4 -73 42 -158 137 -158h6c41 3 71 22 90 55s28 69 28 108z" />
    <glyph glyph-name="divide" unicode="&#xf7;" horiz-adv-x="991" 
d="M457 1005h16c51 -3 89 -15 114 -38s42 -50 49 -80s11 -55 11 -76v-15c-10 -134 -107 -180 -186 -180h-8c-95 5 -135 53 -147 106c-6 27 -9 51 -9 74v7v1c0 17 6 41 18 73c11 31 29 60 53 86c23 25 53 39 89 42zM678 557h18c108 0 186 -7 226 -45c19 -19 29 -50 29 -92
c0 -61 -13 -98 -73 -117c-61 -20 -178 -25 -383 -25c-121 0 -214 2 -279 6c-66 4 -112 16 -137 36c-26 19 -39 52 -39 99c0 46 13 79 39 98c25 19 74 30 145 34c71 3 174 5 310 5h80c23 1 44 1 64 1zM468 224h16c101 -5 148 -58 163 -118c7 -31 11 -56 11 -76v-15
c-10 -134 -107 -180 -186 -180h-8c-47 2 -82 13 -104 34c-23 21 -37 44 -43 71s-9 52 -9 75v7v1c0 16 6 40 18 72c11 31 29 60 53 86c23 26 53 40 89 43z" />
    <glyph glyph-name="oslash" unicode="&#xf8;" horiz-adv-x="1353" 
d="M1135 1415c33 -1 65 -14 96 -37c30 -24 45 -51 45 -82c0 -14 -4 -28 -13 -43c-23 -34 -65 -97 -91 -137c62 -108 96 -241 102 -398c1 -17 1 -33 1 -50c0 -153 -28 -286 -83 -398c-56 -112 -130 -198 -223 -259s-196 -91 -307 -91c-83 0 -165 15 -246 46
c-8 -13 -23 -36 -31 -47c-10 -13 -24 -19 -42 -19c-40 0 -93 27 -127 66c-17 20 -26 41 -26 64c0 14 5 28 14 43c3 4 5 8 8 13c3 4 5 8 8 12c-103 107 -169 267 -169 487c0 19 1 39 2 59c3 80 15 163 35 249c19 86 51 167 94 242s101 136 176 184c74 47 167 72 280 75h22
c142 -3 259 -37 351 -102c13 19 25 38 37 57c8 12 16 24 23 35c17 21 38 31 64 31zM754 1112h-9c-59 -3 -104 -29 -136 -78c-33 -49 -56 -109 -69 -179c-13 -71 -21 -139 -23 -206v-29c0 -27 1 -52 2 -76c118 178 234 354 347 527c-31 25 -69 39 -112 41zM982 826
c-55 -83 -106 -160 -154 -233c-69 -105 -140 -214 -213 -325c40 -44 89 -65 137 -65h3c131 0 238 177 238 462v30c-1 47 -5 91 -11 131z" />
    <glyph glyph-name="ugrave" unicode="&#xf9;" horiz-adv-x="1507" 
d="M520 2112c37 39 74 54 109 54c68 0 131 -56 182 -103c17 -16 34 -30 54 -46c59 -47 130 -110 130 -182c0 -31 -14 -64 -42 -99c-29 -33 -62 -47 -97 -47c-86 0 -182 84 -243 143c-5 5 -11 10 -16 15c-52 48 -117 111 -117 178c0 28 13 57 40 87zM133 1327
c21 68 98 101 192 113c47 5 92 8 136 8c31 0 59 -1 85 -2c19 -1 37 -1 56 -2c66 -1 127 -7 183 -16s96 -31 119 -66c35 -60 44 -142 44 -229c0 -37 -1 -73 -3 -109c-2 -33 -3 -64 -3 -93c0 -42 4 -77 12 -104s25 -41 51 -41c65 0 90 48 95 121c3 37 4 78 4 121v30
c0 54 1 114 4 180c7 119 30 173 80 191c25 9 57 13 97 13c79 0 131 -5 159 -56c13 -26 20 -68 20 -125v-13c-1 -35 -1 -75 -1 -118c-1 -128 -4 -269 -8 -422c-5 -153 -14 -289 -27 -408c-14 -119 -35 -190 -64 -214c-112 -72 -258 -82 -439 -82c-28 0 -57 0 -86 1h-63
c-71 0 -149 2 -233 5s-160 12 -227 25c-68 13 -113 33 -135 62c-27 45 -49 140 -67 287c-19 146 -28 301 -28 465c0 183 14 357 47 478z" />
    <glyph glyph-name="uacute" unicode="&#xfa;" horiz-adv-x="1507" 
d="M1063 2112c27 -30 40 -59 40 -88c0 -67 -65 -130 -116 -177c-6 -5 -11 -10 -16 -15c-61 -59 -157 -143 -243 -143c-35 0 -68 14 -97 47c-29 35 -43 68 -43 99c0 72 71 134 129 181c11 8 20 16 29 24c9 7 17 15 26 23c51 47 114 103 182 103c35 0 72 -15 109 -54z
M133 1327c21 68 98 101 192 113c47 5 92 8 136 8c31 0 59 -1 85 -2c19 -1 37 -1 56 -2c66 -1 127 -7 183 -16s96 -31 119 -66c35 -60 44 -142 44 -229c0 -37 -1 -73 -3 -109c-2 -33 -3 -64 -3 -93c0 -42 4 -77 12 -104s25 -41 51 -41c65 0 90 48 95 121c3 37 4 78 4 121v30
c0 54 1 114 4 180c7 119 30 173 80 191c25 9 57 13 97 13c79 0 131 -5 159 -56c13 -26 20 -68 20 -125v-13c-1 -35 -1 -75 -1 -118c-1 -128 -4 -269 -8 -422c-5 -153 -14 -289 -27 -408c-14 -119 -35 -190 -64 -214c-112 -72 -258 -82 -439 -82c-28 0 -57 0 -86 1h-63
c-71 0 -149 2 -233 5s-160 12 -227 25c-68 13 -113 33 -135 62c-27 45 -49 140 -67 287c-19 146 -28 301 -28 465c0 183 14 357 47 478z" />
    <glyph glyph-name="ucircumflex" unicode="&#xfb;" horiz-adv-x="1507" 
d="M338 1759v2c0 35 19 85 57 149c37 63 84 121 139 172s109 80 164 86h15c103 0 202 -61 278 -142c38 -41 68 -82 91 -124c23 -43 34 -79 34 -110c0 -24 -8 -42 -24 -53c-26 -16 -61 -29 -106 -38c-45 -10 -89 -15 -133 -15c-52 0 -95 8 -130 23c-10 7 -20 23 -31 47
c-19 39 -40 80 -73 80h-1c-31 -3 -45 -34 -57 -67c-9 -27 -20 -49 -37 -60c-27 -13 -53 -20 -79 -20c-56 0 -104 27 -107 70zM133 1327c21 68 98 101 192 113c47 5 92 8 136 8c31 0 59 -1 85 -2c19 -1 37 -1 56 -2c66 -1 127 -7 183 -16s96 -31 119 -66
c35 -60 44 -142 44 -229c0 -37 -1 -73 -3 -109c-2 -33 -3 -64 -3 -93c0 -42 4 -77 12 -104s25 -41 51 -41c65 0 90 48 95 121c3 37 4 78 4 121v30c0 54 1 114 4 180c7 119 30 173 80 191c25 9 57 13 97 13c79 0 131 -5 159 -56c13 -26 20 -68 20 -125v-13
c-1 -35 -1 -75 -1 -118c-1 -128 -4 -269 -8 -422c-5 -153 -14 -289 -27 -408c-14 -119 -35 -190 -64 -214c-112 -72 -258 -82 -439 -82c-28 0 -57 0 -86 1h-63c-71 0 -149 2 -233 5s-160 12 -227 25c-68 13 -113 33 -135 62c-27 45 -49 140 -67 287c-19 146 -28 301 -28 465
c0 183 14 357 47 478z" />
    <glyph glyph-name="udieresis" unicode="&#xfc;" horiz-adv-x="1507" 
d="M577 2070h15c93 -5 134 -54 147 -109c7 -28 10 -51 10 -69v-11c-10 -120 -95 -162 -168 -162h-7c-85 4 -122 46 -133 97c-6 25 -9 49 -9 72c0 14 5 35 16 64c10 29 26 55 48 79c21 23 48 36 81 39zM959 2070h15c91 -4 133 -51 146 -105c7 -27 10 -50 10 -69v-15
c-10 -120 -94 -162 -167 -162h-7c-85 4 -122 47 -134 95c-5 24 -8 47 -8 67v7v1c0 15 5 36 16 65c10 28 26 54 48 77c21 23 48 36 81 39zM133 1327c21 68 98 101 192 113c47 5 92 8 136 8c31 0 59 -1 85 -2c19 -1 37 -1 56 -2c66 -1 127 -7 183 -16s96 -31 119 -66
c35 -60 44 -142 44 -229c0 -37 -1 -73 -3 -109c-2 -33 -3 -64 -3 -93c0 -42 4 -77 12 -104s25 -41 51 -41c65 0 90 48 95 121c3 37 4 78 4 121v30c0 54 1 114 4 180c7 119 30 173 80 191c25 9 57 13 97 13c79 0 131 -5 159 -56c13 -26 20 -68 20 -125v-13
c-1 -35 -1 -75 -1 -118c-1 -128 -4 -269 -8 -422c-5 -153 -14 -289 -27 -408c-14 -119 -35 -190 -64 -214c-112 -72 -258 -82 -439 -82c-28 0 -57 0 -86 1h-63c-71 0 -149 2 -233 5s-160 12 -227 25c-68 13 -113 33 -135 62c-27 45 -49 140 -67 287c-19 146 -28 301 -28 465
c0 183 14 357 47 478z" />
    <glyph glyph-name="yacute" unicode="&#xfd;" horiz-adv-x="1520" 
d="M1019 2112c27 -30 40 -59 40 -88c0 -67 -65 -130 -116 -177c-6 -5 -11 -10 -16 -15c-61 -59 -157 -143 -243 -143c-35 0 -68 14 -97 47c-29 35 -43 68 -43 99c0 72 71 134 129 181c11 8 20 16 29 24c9 7 17 15 26 23c51 47 114 103 182 103c35 0 72 -15 109 -54z
M145 1438c31 5 61 8 89 8c56 0 103 -14 135 -51c17 -21 43 -85 74 -161c35 -87 72 -178 108 -235c17 -29 33 -43 47 -43c48 0 93 92 140 195c23 51 49 100 76 147s56 81 88 103c35 19 80 30 135 34s99 6 134 6h10c112 0 299 -1 299 -114c0 -34 -16 -84 -47 -150
c-32 -66 -70 -137 -115 -214s-90 -152 -135 -223c-39 -63 -71 -117 -98 -163c0 -37 0 -78 1 -121c1 -46 2 -91 2 -135c0 -111 -5 -207 -28 -248c-18 -27 -55 -44 -110 -52c-56 -8 -112 -12 -168 -12h-21c-66 0 -134 5 -203 15c-70 9 -115 27 -134 53c-24 43 -30 135 -30 236
c0 56 1 111 3 166c2 45 3 83 3 114c-13 23 -29 50 -48 81c-38 63 -80 136 -126 218s-87 162 -122 241c-35 78 -56 143 -61 196v5c0 51 41 93 102 104z" />
    <glyph glyph-name="thorn" unicode="&#xfe;" horiz-adv-x="1735" 
d="M406 1438c111 0 210 -8 267 -44c29 -19 44 -47 46 -84c2 -31 3 -68 3 -111c127 15 256 22 389 22c89 0 173 -5 250 -16s139 -29 185 -56c25 -17 40 -54 47 -111s10 -121 10 -191c0 -24 0 -48 -1 -73v-35c0 -50 -1 -104 -3 -163c-3 -59 -8 -112 -17 -159s-24 -79 -44 -94
c-35 -21 -110 -40 -227 -57s-236 -26 -358 -26c-87 0 -166 6 -235 19c0 -6 0 -12 -1 -17c-2 -59 -5 -102 -8 -128c-8 -76 -57 -105 -156 -112c-50 -3 -114 -5 -193 -5c-186 0 -293 22 -301 133c-5 101 -8 233 -8 396c0 157 2 313 5 470c3 156 7 265 12 326c4 33 24 58 59 75
s79 28 130 33s101 8 149 8zM725 951v-119c23 0 50 -1 81 -3c35 -3 70 -4 105 -4c39 0 73 4 102 11s43 21 43 42c0 68 -78 69 -164 69h-25c-38 0 -80 1 -127 3c-5 1 -10 1 -15 1z" />
    <glyph glyph-name="ydieresis" unicode="&#xff;" horiz-adv-x="1520" 
d="M533 2070h15c93 -5 134 -54 147 -109c7 -28 10 -51 10 -69v-11c-10 -120 -95 -162 -168 -162h-7c-85 4 -122 46 -133 97c-6 25 -9 49 -9 72c0 14 5 35 16 64c10 29 26 55 48 79c21 23 48 36 81 39zM915 2070h15c91 -4 133 -51 146 -105c7 -27 10 -50 10 -69v-15
c-10 -120 -94 -162 -167 -162h-7c-85 4 -122 47 -134 95c-5 24 -8 47 -8 67v7v1c0 15 5 36 16 65c10 28 26 54 48 77c21 23 48 36 81 39zM145 1438c31 5 61 8 89 8c56 0 103 -14 135 -51c17 -21 43 -85 74 -161c35 -87 72 -178 108 -235c17 -29 33 -43 47 -43
c48 0 93 92 140 195c23 51 49 100 76 147s56 81 88 103c35 19 80 30 135 34s99 6 134 6h10c112 0 299 -1 299 -114c0 -34 -16 -84 -47 -150c-32 -66 -70 -137 -115 -214s-90 -152 -135 -223c-39 -63 -71 -117 -98 -163c0 -37 0 -78 1 -121c1 -46 2 -91 2 -135
c0 -111 -5 -207 -28 -248c-18 -27 -55 -44 -110 -52c-56 -8 -112 -12 -168 -12h-21c-66 0 -134 5 -203 15c-70 9 -115 27 -134 53c-24 43 -30 135 -30 236c0 56 1 111 3 166c2 45 3 83 3 114c-13 23 -29 50 -48 81c-38 63 -80 136 -126 218s-87 162 -122 241
c-35 78 -56 143 -61 196v5c0 51 41 93 102 104z" />
    <glyph glyph-name="dotlessi" unicode="&#x131;" horiz-adv-x="400" 
d="M191 1719h5c45 -1 82 -14 112 -39s46 -55 47 -92l4 -1746c0 -34 -14 -63 -43 -87c-29 -23 -65 -35 -107 -35h-5c-45 2 -82 15 -112 40s-46 55 -47 91l-4 1746c0 34 15 63 44 87c29 23 64 35 106 35z" />
    <glyph glyph-name="circumflex" unicode="&#x2c6;" horiz-adv-x="941" 
d="M43 1038v2c0 36 19 86 57 149c37 63 84 121 139 172s109 80 164 87h15c51 0 101 -14 149 -41s91 -61 129 -101c38 -41 68 -82 91 -124c23 -43 34 -79 34 -110c0 -24 -8 -42 -24 -53c-44 -28 -110 -56 -170 -56c-11 0 -22 1 -32 3c-18 10 -35 30 -50 60
c-15 27 -34 52 -57 76c-24 24 -58 37 -101 39h-4c-57 0 -89 -52 -113 -97c-13 -27 -27 -45 -42 -55c-27 -13 -53 -20 -79 -20c-56 0 -103 28 -106 69z" />
    <glyph glyph-name="caron" unicode="&#x2c7;" horiz-adv-x="941" 
d="M43 1371v2c3 43 50 70 106 70c26 0 52 -7 79 -21c15 -10 29 -28 42 -55c24 -45 56 -97 113 -97h4c43 2 77 15 101 39c23 24 42 49 57 76c15 30 32 50 50 60c10 2 21 3 32 3c60 0 126 -28 170 -56c16 -11 24 -29 24 -53c0 -30 -11 -66 -34 -109s-53 -84 -91 -124
c-38 -41 -81 -75 -129 -102s-98 -41 -149 -41h-15c-55 7 -109 36 -164 87s-102 109 -139 173c-38 63 -57 113 -57 148z" />
    <glyph glyph-name="breve" unicode="&#x2d8;" horiz-adv-x="941" 
d="M43 1371v2c3 43 50 70 106 70c26 0 52 -7 79 -21c15 -10 29 -28 42 -55c24 -45 56 -97 113 -97h4c43 2 77 15 101 39c23 24 42 49 57 76c15 30 32 50 50 60c10 2 21 3 32 3c60 0 126 -28 170 -56c16 -11 24 -29 24 -53c0 -30 -11 -66 -34 -109s-53 -84 -91 -124
c-38 -41 -81 -75 -129 -102s-98 -41 -149 -41h-15c-55 7 -109 36 -164 87s-102 109 -139 173c-38 63 -57 113 -57 148z" />
    <glyph glyph-name="dotaccent" unicode="&#x2d9;" horiz-adv-x="434" 
d="M201 1449h17c51 -3 89 -15 114 -38s41 -50 49 -80c7 -30 11 -55 11 -75l-1 -16c-7 -91 -50 -141 -106 -164c-28 -11 -55 -17 -82 -17h-6c-95 5 -135 52 -147 109c-6 28 -9 54 -9 79v2c0 16 6 40 18 71c11 31 29 60 53 86c23 26 53 40 89 43z" />
    <glyph glyph-name="ring" unicode="&#x2da;" horiz-adv-x="687" 
d="M375 1452c132 0 206 -60 239 -146c17 -43 25 -88 25 -135c0 -9 0 -18 -1 -27c-5 -103 -101 -303 -284 -303c-207 0 -301 137 -301 303c0 12 0 24 1 36c9 81 44 146 105 197c61 50 133 75 216 75zM417 1326h-7c-24 0 -47 -9 -69 -28s-35 -51 -39 -95v-9
c0 -23 7 -44 22 -61c15 -18 42 -27 81 -27h5c27 3 48 19 63 49c14 29 21 56 21 80v3c-1 27 -11 49 -28 65c-17 15 -34 23 -49 23z" />
    <glyph glyph-name="ogonek" unicode="&#x2db;" horiz-adv-x="846" 
d="M463 1c-9 -6 -19 -12 -29 -17c-33 -17 -61 -34 -61 -63c3 -33 39 -52 95 -52c40 0 86 11 138 34c11 5 21 7 31 7c48 0 89 -52 101 -124c1 -9 2 -19 2 -28c0 -108 -97 -203 -273 -203h-5c-160 0 -361 62 -361 257v4c0 92 48 169 113 224c48 36 91 50 128 50
c76 0 125 -56 125 -80c0 -4 -1 -7 -4 -9z" />
    <glyph glyph-name="tilde" unicode="&#x2dc;" horiz-adv-x="1114" 
d="M114 1065c-11 19 -16 41 -16 64c0 43 15 89 46 136s69 87 114 120s90 49 134 49c76 0 148 -42 215 -86c57 -36 110 -66 158 -69h2c27 0 58 20 93 41c35 23 69 45 100 45c11 0 20 -3 29 -10c15 -13 23 -33 23 -60c0 -57 -32 -139 -82 -208s-115 -122 -179 -122
c-67 0 -145 41 -221 85c-69 39 -135 74 -187 74c-27 0 -58 -23 -87 -48c-31 -25 -61 -49 -90 -49c-19 0 -36 13 -52 38z" />
    <glyph glyph-name="hungarumlaut" unicode="&#x2dd;" horiz-adv-x="1202" 
d="M589 1381c27 -30 40 -59 40 -88c0 -68 -65 -131 -116 -178c-6 -5 -11 -10 -16 -15c-61 -59 -157 -143 -243 -143c-35 0 -68 15 -97 48c-29 35 -43 68 -43 98c0 74 70 132 129 181c11 8 20 16 29 24c9 7 17 15 26 23c52 48 116 104 182 104c36 0 72 -15 109 -54z
M1057 1378c27 -30 40 -59 40 -88c0 -68 -64 -128 -114 -176c-7 -6 -13 -12 -18 -17c-60 -58 -156 -142 -243 -142c-35 0 -68 14 -97 47c-28 35 -42 68 -42 98c0 73 70 134 130 182c10 8 19 16 28 23c8 7 16 14 24 22c51 47 116 105 184 105c35 0 71 -15 108 -54z" />
    <glyph glyph-name="endash" unicode="&#x2013;" horiz-adv-x="991" 
d="M678 697h18c108 0 186 -7 226 -45c19 -19 29 -50 29 -92c0 -61 -13 -98 -73 -117c-61 -20 -178 -25 -383 -25c-121 0 -214 2 -279 6c-66 4 -112 16 -137 36c-26 19 -39 52 -39 99c0 46 13 79 39 98c25 19 74 30 145 34c71 3 174 5 310 5h80c23 1 44 1 64 1z" />
    <glyph glyph-name="emdash" unicode="&#x2014;" horiz-adv-x="1993" 
d="M1680 697h18c108 0 186 -7 226 -45c19 -19 29 -50 29 -92c0 -41 -7 -71 -64 -91c-29 -11 -74 -19 -135 -26c-188 -20 -551 -25 -1259 -25c-121 0 -214 2 -279 6c-66 4 -112 16 -137 36c-26 19 -39 52 -39 99c0 84 55 118 163 129c54 5 119 8 196 8h28h1189
c23 1 44 1 64 1z" />
    <glyph glyph-name="quoteleft" unicode="&#x2018;" horiz-adv-x="632" 
d="M308 792c-138 0 -223 104 -223 223c0 51 12 102 37 152c24 49 53 94 88 135c68 81 140 136 177 147c7 2 14 3 21 3c25 0 52 -8 81 -24c29 -17 53 -35 73 -54s30 -34 30 -43c0 -3 -1 -6 -4 -7c-17 -8 -38 -25 -63 -51s-44 -56 -55 -91c53 -55 77 -114 77 -170
c0 -59 -23 -110 -68 -154s-102 -66 -171 -66z" />
    <glyph glyph-name="quoteright" unicode="&#x2019;" horiz-adv-x="632" 
d="M368 1452c139 0 224 -103 224 -223c0 -51 -12 -102 -36 -151c-25 -50 -54 -95 -88 -136c-69 -81 -141 -136 -178 -147c-7 -1 -13 -2 -20 -2c-26 0 -53 8 -82 24s-53 34 -73 54c-20 19 -30 34 -30 43c0 3 1 6 4 7c17 8 39 25 64 51s42 56 53 90c-53 55 -77 114 -77 170
c0 59 23 111 68 155c45 43 102 65 171 65z" />
    <glyph glyph-name="quotesinglbase" unicode="&#x201a;" horiz-adv-x="632" 
d="M369 387c138 0 223 -103 223 -223c0 -51 -12 -102 -36 -151c-25 -50 -54 -95 -88 -136c-69 -81 -141 -136 -178 -147c-7 -2 -14 -3 -21 -3c-25 0 -52 8 -81 24c-29 17 -53 35 -73 54s-30 34 -30 43c0 3 1 6 4 7c17 8 39 25 64 51c25 27 43 57 54 91
c-53 55 -77 114 -77 170c0 59 23 111 68 155c45 43 102 65 171 65z" />
    <glyph glyph-name="quotedblleft" unicode="&#x201c;" horiz-adv-x="1130" 
d="M806 793c-138 0 -223 105 -223 223c0 51 12 102 37 152c24 49 53 95 88 136c68 82 140 135 177 146c7 2 14 3 21 3c25 0 52 -8 81 -24c29 -17 53 -35 73 -54s30 -34 30 -43c0 -3 -1 -6 -4 -7c-17 -8 -38 -25 -63 -51s-44 -56 -55 -91c53 -55 77 -114 77 -170
c0 -59 -23 -110 -68 -154s-102 -66 -171 -66zM309 793c-139 0 -224 105 -224 223c0 51 12 102 37 152c24 49 53 95 88 136c68 82 140 135 177 146c7 2 14 3 21 3c25 0 52 -8 81 -24c29 -17 53 -35 73 -54s30 -34 30 -43c0 -3 -1 -6 -4 -7c-17 -8 -38 -25 -63 -51
s-43 -56 -54 -91c53 -55 77 -114 77 -170c0 -59 -23 -110 -68 -154s-102 -66 -171 -66z" />
    <glyph glyph-name="quotedblright" unicode="&#x201d;" horiz-adv-x="1130" 
d="M369 1453c138 0 223 -103 223 -223c0 -51 -12 -102 -36 -151c-25 -50 -54 -95 -88 -136c-69 -81 -141 -136 -178 -147c-7 -2 -14 -3 -21 -3c-25 0 -52 8 -81 25c-29 16 -53 34 -73 53s-30 34 -30 43c0 3 1 6 4 7c17 8 39 25 64 51s42 56 53 91c-53 55 -77 114 -77 170
c0 59 23 110 68 154s103 66 172 66zM866 1453c139 0 224 -103 224 -223c0 -51 -12 -102 -36 -151c-25 -50 -54 -95 -88 -136c-69 -81 -141 -136 -178 -147c-7 -2 -14 -3 -21 -3c-25 0 -52 8 -81 25c-29 16 -53 34 -73 53s-30 34 -30 43c0 3 1 6 4 7c17 8 39 25 64 51
s42 56 53 91c-53 55 -77 114 -77 170c0 59 23 111 68 155c45 43 102 65 171 65z" />
    <glyph glyph-name="quotedblbase" unicode="&#x201e;" horiz-adv-x="1130" 
d="M368 390c139 0 224 -103 224 -223c0 -51 -12 -102 -36 -151c-25 -50 -54 -95 -88 -136c-69 -81 -141 -136 -178 -147c-7 -2 -14 -3 -21 -3c-25 0 -52 8 -81 24c-29 17 -53 35 -73 54s-30 34 -30 43c0 3 1 6 4 7c17 8 39 25 64 51c25 27 42 57 53 91
c-53 55 -77 114 -77 170c0 59 23 111 68 155c45 43 102 65 171 65zM866 390c139 0 224 -103 224 -223c0 -51 -12 -102 -36 -151c-25 -50 -54 -95 -88 -136c-69 -81 -141 -136 -178 -147c-7 -2 -14 -3 -21 -3c-26 0 -53 8 -81 24c-29 17 -53 35 -73 54s-30 34 -30 43
c0 3 1 6 4 7c17 8 38 25 63 51c25 27 43 57 54 91c-53 55 -77 114 -77 170c0 59 23 111 68 155c45 43 102 65 171 65z" />
    <glyph glyph-name="bullet" unicode="&#x2022;" horiz-adv-x="805" 
d="M407 256c-68 0 -126 24 -174 71s-72 104 -72 171s24 125 72 172s106 71 174 71s126 -24 174 -71s72 -105 72 -172s-24 -124 -72 -171s-106 -71 -174 -71z" />
    <glyph glyph-name="ellipsis" unicode="&#x2026;" horiz-adv-x="1618" 
d="M202 398h17c51 -3 89 -15 114 -38s41 -50 48 -80s11 -55 11 -76v-15c-7 -89 -49 -140 -104 -163c-28 -11 -55 -17 -81 -17h-8c-48 3 -83 14 -105 35c-23 21 -37 44 -43 71s-9 51 -9 74v7v1c0 17 6 41 18 73c11 31 29 60 53 86c23 25 53 39 89 42zM766 398h17
c55 -3 96 -17 121 -44s40 -57 46 -89c5 -24 7 -44 7 -61c0 -5 0 -10 -1 -15c-7 -69 -30 -116 -70 -143c-37 -25 -74 -37 -112 -37h-11c-96 4 -136 51 -148 107c-6 26 -9 50 -9 73v10c0 17 6 40 17 71c11 30 29 58 53 85c23 26 53 40 90 43zM1315 398h17
c55 -3 95 -18 120 -45s41 -57 47 -89c5 -24 7 -44 7 -60c0 -5 0 -10 -1 -15c-7 -69 -30 -117 -70 -144c-37 -25 -76 -37 -115 -37h-9c-95 5 -135 52 -147 108c-6 25 -9 50 -9 73v10c0 17 6 40 17 70s28 58 52 85c24 26 54 41 91 44z" />
    <glyph glyph-name="guilsinglleft" unicode="&#x2039;" horiz-adv-x="887" 
d="M560 1313c29 0 66 -18 111 -55s85 -77 120 -120s52 -72 52 -88v-1c-2 -20 -16 -44 -43 -73s-58 -60 -93 -93c-59 -55 -116 -111 -141 -156c16 -13 33 -26 51 -39c55 -40 105 -80 152 -121s72 -76 77 -105v-1c0 -24 -17 -60 -50 -108c-34 -48 -73 -92 -116 -131
c-43 -40 -80 -60 -109 -60c-4 0 -8 0 -11 1c-53 23 -109 56 -168 99c-60 43 -116 91 -169 144s-97 106 -131 161c-35 54 -52 103 -52 147c0 45 20 102 60 169c39 67 88 134 145 199s115 120 173 165c58 44 105 66 142 66z" />
    <glyph glyph-name="guilsinglright" unicode="&#x203a;" horiz-adv-x="887" 
d="M327 1313c37 0 84 -22 142 -66c58 -45 116 -100 173 -165s106 -131 146 -198c39 -67 59 -124 59 -169c0 -44 -17 -93 -51 -147c-35 -55 -78 -109 -131 -162s-110 -101 -169 -144c-60 -43 -116 -76 -169 -99c-3 -1 -7 -1 -11 -1c-29 0 -65 20 -108 59s-82 83 -115 131
c-34 48 -51 84 -51 109v1c4 29 29 63 75 104c45 40 95 80 149 120c19 15 38 29 55 42c-25 45 -81 99 -140 154c-36 33 -67 65 -94 94s-41 53 -43 73v1c0 16 18 45 53 88s74 83 119 120s82 55 111 55z" />
    <glyph glyph-name="fraction" unicode="&#x2044;" horiz-adv-x="1094" 
d="M947 1445c55 -13 85 -52 85 -97c0 -20 -6 -41 -18 -63l-656 -1181c-36 -60 -106 -99 -174 -99c-13 0 -25 1 -37 4c-55 15 -85 53 -85 98c0 20 6 41 18 62l656 1182c36 60 106 98 174 98c13 0 25 -1 37 -4z" />
    <glyph glyph-name="fraction" unicode="&#x2215;" horiz-adv-x="1094" 
d="M947 1445c55 -13 85 -52 85 -97c0 -20 -6 -41 -18 -63l-656 -1181c-36 -60 -106 -99 -174 -99c-13 0 -25 1 -37 4c-55 15 -85 53 -85 98c0 20 6 41 18 62l656 1182c36 60 106 98 174 98c13 0 25 -1 37 -4z" />
    <glyph glyph-name="franc" unicode="&#x20a3;" horiz-adv-x="1533" 
d="M293 561h15c-1 34 -1 68 -1 102c0 188 8 378 24 570c3 63 24 199 181 199c147 0 308 -1 485 -2c131 -1 232 -1 301 -1c37 0 66 -14 86 -41c19 -27 29 -58 29 -91c0 -63 -39 -129 -122 -129h-313c-51 0 -118 -5 -122 -64v-4c0 -66 70 -71 119 -71h20c80 0 141 1 184 2
c37 1 77 2 121 2c37 0 64 -10 82 -31c17 -21 26 -44 26 -69c0 -27 -10 -53 -29 -76c-19 -24 -47 -36 -84 -36c-29 0 -59 -3 -88 -9c-30 -6 -50 -20 -59 -43c-9 -33 -13 -85 -13 -155l1 -59c19 -3 36 -6 51 -9c76 -19 99 -53 99 -116c0 -49 -9 -83 -58 -103
c-20 -8 -48 -15 -83 -20c2 -59 3 -112 3 -159c0 -41 -9 -93 -49 -127c-21 -17 -53 -26 -96 -26h-537c-96 0 -129 72 -135 135c-5 54 -9 108 -13 162c-12 1 -23 1 -33 2c-66 4 -112 16 -137 36c-26 19 -39 52 -39 99c0 46 13 79 39 98c25 19 74 30 145 34z" />
    <glyph glyph-name="lira" unicode="&#x20a4;" horiz-adv-x="1288" 
d="M717 1492c72 -2 144 -15 216 -39c71 -24 132 -53 181 -86s73 -64 73 -92c0 -27 -29 -72 -67 -103c-19 -16 -38 -24 -56 -24c-20 0 -38 11 -58 23c-21 13 -47 28 -78 28c-15 0 -27 -27 -36 -82s-14 -123 -17 -202c25 0 47 0 65 1h31c48 0 85 -12 112 -36
c26 -24 39 -51 39 -81c0 -79 -60 -123 -159 -124h-90c1 -63 4 -117 7 -162h12c40 -1 83 -4 129 -7c45 -3 86 -10 123 -20c37 -11 61 -26 74 -47c12 -23 19 -83 19 -151c0 -51 -4 -101 -13 -149s-22 -77 -40 -86c-55 -19 -131 -32 -230 -41s-201 -13 -308 -13
c-114 0 -219 4 -315 13c-97 8 -163 19 -199 33c-27 14 -46 44 -57 91c-11 46 -16 94 -16 143c0 65 9 123 18 147c13 25 37 42 74 51c36 9 74 14 114 14c0 62 1 124 3 186h-55c-88 0 -141 65 -141 124c2 35 17 63 45 84s61 31 98 31h69c37 326 142 576 413 576c3 1 7 1 10 1
s7 0 10 -1z" />
    <glyph glyph-name="peseta" unicode="&#x20a7;" horiz-adv-x="2981" 
d="M1399 810h-35c-5 -26 -11 -51 -18 -76c-55 -185 -189 -333 -365 -333l-174 -12v-44c0 -26 0 -58 -1 -95c-1 -38 -4 -71 -8 -99c-13 -64 -51 -107 -114 -130c-68 -23 -157 -33 -242 -33c-93 0 -167 11 -224 33c-69 32 -100 75 -124 147c-8 27 -15 92 -20 195
c-6 103 -9 217 -9 341c0 119 4 230 11 335s20 179 38 222c36 72 114 119 193 144c69 21 151 31 245 31h22c75 0 142 -3 202 -8v-1h10c1 -1 3 -1 4 -1h4c1 0 2 0 3 -1h10l1 -1h8c1 0 2 0 3 -1h10v-1h10c13 -1 22 -2 25 -3h2c272 0 422 -137 480 -312c7 -21 12 -43 16 -64
c72 6 158 9 257 9c113 0 228 -4 344 -11c33 -3 60 -15 83 -36c18 -17 29 -38 32 -63c7 9 15 18 24 26c72 63 200 86 412 86c59 0 148 -10 225 -35c76 -25 135 -68 135 -136c0 -83 -60 -101 -130 -101c-29 0 -59 2 -90 7c-27 3 -50 5 -70 5c-32 0 -54 -7 -54 -30
c0 -37 27 -44 72 -51c43 -7 100 -21 167 -64c86 -60 109 -179 109 -282c0 -165 -58 -258 -144 -306s-195 -58 -296 -58c-27 0 -53 0 -78 1c-11 1 -22 1 -33 1c-114 3 -314 57 -314 177c0 31 11 52 33 63c22 10 49 15 81 15c33 0 67 -3 104 -8c33 -5 61 -7 86 -7
c33 0 58 7 59 30l1 6c0 44 -34 51 -94 56c-31 3 -69 10 -114 21c-127 34 -160 141 -160 269c0 81 6 148 18 202c-19 -13 -40 -19 -64 -19h-53c1 -65 1 -135 1 -208c0 -109 -1 -212 -3 -311s-5 -166 -9 -201c-10 -85 -95 -85 -268 -85c-134 0 -227 14 -233 97
c-4 72 -6 165 -6 280c0 145 2 287 7 428zM845 1175h-6c-14 0 -25 0 -34 -1c-3 -1 -6 -1 -8 -1l-3 -1h-2v-307h3c3 1 9 2 18 3c53 8 182 45 182 169c0 79 -41 114 -89 129c-22 6 -42 9 -61 9z" />
    <glyph glyph-name="Euro" unicode="&#x20ac;" horiz-adv-x="1141" 
d="M876 1438h5c56 0 99 -17 130 -51c4 -5 6 -10 6 -15c0 -15 -19 -28 -48 -45c-33 -17 -71 -47 -115 -89s-82 -107 -114 -195c169 0 249 -17 249 -136c0 -35 -6 -63 -19 -82c-13 -20 -40 -34 -82 -43c-43 -9 -107 -14 -193 -16v-21c-1 -8 -1 -16 -1 -23c0 -12 0 -24 1 -37
h26c182 0 268 -12 268 -136c0 -65 -14 -102 -84 -121c-35 -9 -88 -15 -159 -18c29 -71 62 -128 99 -171s70 -77 99 -101c33 -29 55 -49 55 -68c0 -15 -15 -30 -46 -45c-33 -17 -70 -25 -111 -25c-89 0 -183 36 -282 108c-99 71 -178 172 -236 301c-93 2 -158 12 -193 31
c-35 18 -53 54 -53 108c0 45 13 78 39 97s75 31 147 35v33c0 19 1 38 2 56c-71 4 -120 16 -147 35s-41 53 -41 101c0 106 53 132 262 136c66 126 150 223 253 292c102 68 196 103 283 105z" />
    <glyph glyph-name="uni2116" unicode="&#x2116;" horiz-adv-x="2789" 
d="M2102 1458h20c176 -5 310 -51 401 -140s140 -210 147 -363c1 -12 1 -24 1 -35c0 -115 -25 -214 -74 -297c-50 -83 -116 -148 -198 -193c-83 -45 -174 -68 -275 -69c-135 0 -269 36 -373 116c-105 79 -172 203 -172 379c0 14 0 29 1 44c4 80 22 163 53 248s83 157 158 216
c74 59 178 90 311 94zM351 1430c27 4 58 6 91 6c43 0 86 -2 129 -7s76 -10 99 -16c72 -21 137 -61 194 -121c57 -61 106 -126 147 -196c41 -71 72 -132 94 -185c21 -53 32 -79 32 -79s-3 24 -8 72s-8 104 -8 167c0 62 5 124 16 185c10 61 30 107 59 139c29 29 86 45 141 45
c56 0 107 -17 123 -54c12 -32 21 -83 27 -152c5 -70 8 -149 8 -237c0 -140 -6 -282 -19 -426s-30 -248 -51 -313c-17 -48 -43 -95 -78 -142s-73 -79 -116 -96c-43 -13 -104 -20 -181 -20c-45 0 -90 4 -134 11c-45 7 -81 18 -109 34c-47 30 -91 69 -132 118s-77 98 -108 149
c-31 50 -56 93 -73 128c-18 35 -27 53 -27 53s-1 -15 -3 -44c-2 -30 -5 -66 -10 -109c-9 -85 -24 -178 -45 -235c-28 -65 -94 -100 -161 -100c-65 0 -129 35 -149 107c-13 51 -22 118 -29 203c-7 84 -10 175 -10 272c0 131 7 260 20 386s32 224 59 293c32 81 99 144 212 164
zM2246 1115v7c-4 70 -45 136 -141 136c-63 0 -91 -38 -102 -80c-5 -21 -8 -40 -8 -55l1 -12c4 -57 39 -126 131 -126h6c39 3 67 17 86 44c18 26 27 55 27 86zM2321 283h18c108 0 186 -7 226 -45c19 -19 29 -50 29 -92c0 -61 -13 -98 -73 -117c-61 -20 -176 -25 -383 -25
c-121 0 -214 2 -279 6c-66 4 -112 16 -137 36c-26 19 -39 52 -39 99c0 46 13 79 39 98c25 19 74 30 145 34c71 3 174 5 310 5h80c23 1 44 1 64 1z" />
    <glyph glyph-name="trademark" unicode="&#x2122;" horiz-adv-x="1166" 
d="M744 1243c15 47 33 88 55 125c21 37 48 59 81 68c19 3 38 5 59 5c36 0 70 -4 85 -9c32 -11 69 -40 81 -80c5 -17 8 -47 11 -88c2 -42 3 -88 3 -139c0 -81 -4 -157 -11 -228c-3 -34 -18 -59 -43 -76c-25 -11 -53 -17 -86 -17c-35 0 -65 4 -90 11c-27 8 -35 34 -38 63
c-2 19 -3 41 -3 66c0 66 6 148 6 146c0 1 -28 -68 -53 -120c-16 -32 -35 -45 -54 -45c-23 0 -42 18 -53 38c-18 36 -42 125 -42 124c-1 -11 -1 -22 -1 -32c0 -26 1 -52 3 -77c2 -30 3 -69 4 -117c0 -24 -28 -55 -69 -55s-64 27 -67 58c-1 13 -3 42 -4 87c-2 45 -3 96 -3 153
c0 69 2 135 7 198s14 104 28 123c11 12 31 17 54 17c20 0 37 -5 50 -15c25 -27 91 -185 90 -184zM103 1429c42 5 93 7 154 7s122 -2 184 -7c36 -4 63 -31 63 -70s-28 -70 -63 -70h-29c1 -41 1 -84 1 -129c0 -65 0 -127 -1 -186s-3 -100 -5 -121c-5 -49 -53 -52 -146 -52
c-73 0 -123 11 -127 59c-2 41 -3 94 -3 159c0 91 1 181 4 270h-32c-35 0 -63 31 -63 70s27 66 63 70z" />
    </font>
</defs>
</svg>
