<svg width="1170" height="365" viewBox="0 0 1170 365" fill="none" xmlns="http://www.w3.org/2000/svg">
<path d="M176.384 107V28.04C176.384 23.28 175.917 19.1267 174.984 15.58C174.144 12.0333 172.417 8.67333 169.804 5.5H202.844V72.42C202.844 76.5267 202.984 80.2133 203.264 83.48C203.544 86.6533 204.01 89.5467 204.664 92.16H212.644C219.644 92.16 225.85 91.4133 231.264 89.92C236.77 88.3333 241.39 86.0933 245.124 83.2H245.684L242.744 107H176.384ZM253.329 107V28.04C253.329 23.28 252.862 19.1267 251.929 15.58C251.089 12.0333 249.362 8.67333 246.749 5.5H312.269L315.069 27.48H314.509C310.776 24.8667 306.809 23 302.609 21.88C298.502 20.6667 293.089 20.06 286.369 20.06H279.789V48.06H310.029V65C307.696 63.4133 304.756 62.2933 301.209 61.64C297.662 60.8933 292.949 60.52 287.069 60.52H279.789V72.42C279.789 76.7133 279.929 80.54 280.209 83.9C280.489 87.1667 281.002 90.1067 281.749 92.72H289.449C296.449 92.72 302.236 92.02 306.809 90.62C311.476 89.22 315.629 87.1667 319.269 84.46H319.829L317.029 107H253.329ZM317.613 30L321.533 5.5H405.813L409.593 30H409.033C404.646 26.4533 400.166 23.98 395.593 22.58C391.02 21.0867 385.046 20.34 377.673 20.34H376.833V84.46C376.833 89.22 377.3 93.42 378.233 97.06C379.166 100.7 380.846 104.013 383.273 107H350.373V20.34H349.533C342.253 20.34 336.28 21.0867 331.613 22.58C327.04 23.98 322.56 26.4533 318.173 30H317.613ZM420.628 40.64H412.508C414.654 37.7467 416.521 34.8067 418.108 31.82C419.788 28.74 420.954 25.6133 421.608 22.44C420.114 21.7867 418.574 20.4333 416.988 18.38C415.401 16.3267 414.608 14.18 414.608 11.94C414.608 9.32666 415.868 6.71333 418.388 4.1C420.908 1.39333 423.708 0.0399919 426.788 0.0399919C429.774 0.0399919 432.668 1.39333 435.468 4.1C438.361 6.71333 439.808 9.65333 439.808 12.92C439.808 14.04 439.668 15.2067 439.388 16.42C439.201 17.6333 438.874 18.8467 438.408 20.06C437.941 21.18 437.381 22.3467 436.728 23.56C436.168 24.68 435.468 25.8 434.628 26.92C433.881 28.04 433.041 29.1133 432.108 30.14C431.268 31.1667 430.381 32.1933 429.448 33.22C428.514 34.1533 427.534 35.0867 426.508 36.02C425.574 36.86 424.594 37.7 423.568 38.54C422.541 39.2867 421.561 39.9867 420.628 40.64ZM441.348 75.64H442.748C446.948 80.4 451.381 84.5067 456.048 87.96C460.808 91.32 466.128 93 472.008 93C476.301 93 479.614 92.0667 481.948 90.2C484.281 88.24 485.448 85.5333 485.448 82.08C485.448 78.6267 484.468 75.92 482.508 73.96C480.548 72 477.934 69.9933 474.668 67.94L459.828 58.98C454.508 55.8067 450.401 51.9333 447.508 47.36C444.708 42.7867 443.308 37.42 443.308 31.26C443.308 29.1133 443.541 27.1067 444.008 25.24C444.474 23.28 445.128 21.46 445.968 19.78C446.808 18.1 447.834 16.56 449.048 15.16C450.261 13.76 451.614 12.5 453.108 11.38C454.694 10.1667 456.374 9.13999 458.148 8.29999C460.014 7.36666 461.974 6.62 464.028 6.06C466.174 5.40666 468.368 4.94 470.608 4.66C472.941 4.38 475.321 4.24 477.748 4.24C482.788 4.24 487.548 4.79999 492.028 5.91999C496.601 6.94666 500.521 8.43999 503.788 10.4L507.148 31.82H505.748C502.201 28.0867 498.374 25.1 494.268 22.86C490.254 20.5267 486.008 19.36 481.528 19.36C478.354 19.36 475.741 20.06 473.688 21.46C471.728 22.86 470.748 25.1 470.748 28.18C470.748 30.7 471.588 33.0333 473.268 35.18C474.948 37.2333 477.701 39.4733 481.528 41.9L495.668 51C500.988 54.4533 505.281 58.28 508.548 62.48C511.814 66.68 513.448 72.0467 513.448 78.58C513.448 80.6333 513.214 82.64 512.748 84.6C512.374 86.4667 511.768 88.3333 510.928 90.2C510.181 91.9733 509.201 93.6533 507.988 95.24C506.774 96.7333 505.374 98.18 503.788 99.58C502.201 100.887 500.381 102.1 498.328 103.22C496.368 104.247 494.174 105.133 491.748 105.88C489.414 106.627 486.848 107.187 484.048 107.56C481.341 108.027 478.401 108.26 475.228 108.26C469.161 108.26 463.374 107.467 457.868 105.88C452.361 104.293 447.741 101.913 444.008 98.74L441.348 75.64ZM533.995 5.5H578.515C579.728 5.5 580.942 5.54666 582.155 5.63999C583.462 5.63999 584.815 5.68666 586.215 5.77999C587.615 5.87333 589.015 6.01333 590.415 6.2C591.908 6.38666 593.402 6.61999 594.895 6.9C596.388 7.18 597.835 7.55333 599.235 8.02C600.635 8.39333 601.988 8.86 603.295 9.42C604.695 9.97999 606.002 10.6333 607.215 11.38C608.428 12.1267 609.548 12.9667 610.575 13.9C611.695 14.8333 612.675 15.9067 613.515 17.12C614.448 18.24 615.195 19.5 615.755 20.9C616.408 22.3 616.875 23.84 617.155 25.52C617.528 27.2 617.715 29.02 617.715 30.98C617.715 37.42 615.615 42.9733 611.415 47.64C607.215 52.3067 600.915 55.6667 592.515 57.72C597.182 58.84 600.682 60.7067 603.015 63.32C605.442 65.84 607.542 68.8733 609.315 72.42L618.555 89.78C620.608 93.7933 622.428 96.9667 624.015 99.3C625.602 101.633 627.562 104.013 629.895 106.44V107H597.975L579.215 69.76C577.815 66.8667 576.322 64.8133 574.735 63.6C573.242 62.3867 570.815 61.78 567.455 61.78V84.46C567.455 89.22 567.875 93.42 568.715 97.06C569.648 100.7 571.328 104.013 573.755 107H540.575V28.04C540.575 23.28 540.108 19.1267 539.175 15.58C538.335 12.0333 536.608 8.67333 533.995 5.5ZM568.995 16.84H567.455V51.28H571.095C577.068 51.28 581.875 50.02 585.515 47.5C589.155 44.98 590.975 40.3133 590.975 33.5C590.975 32.0067 590.835 30.6533 590.555 29.44C590.368 28.1333 590.042 26.9667 589.575 25.94C589.202 24.9133 588.688 24.0267 588.035 23.28C587.475 22.44 586.822 21.6933 586.075 21.04C585.328 20.3867 584.488 19.8733 583.555 19.5C582.715 19.0333 581.828 18.66 580.895 18.38C579.962 18.0067 578.982 17.7267 577.955 17.54C577.022 17.3533 576.042 17.2133 575.015 17.12C573.988 17.0267 572.962 16.98 571.935 16.98C570.908 16.8867 569.928 16.84 568.995 16.84ZM623.987 107C625.293 104.667 626.413 102.473 627.347 100.42C628.28 98.2733 629.073 96.36 629.727 94.68L657.167 19.78C657.82 18.1933 658.333 16.56 658.707 14.88C659.08 13.2 659.267 11.5667 659.267 9.98C659.267 9.23333 659.22 8.48666 659.127 7.73999C659.033 6.89999 658.847 6.15333 658.567 5.5H687.967L711.767 79.84C713.26 84.5067 715.033 89.2667 717.087 94.12C719.14 98.9733 721.567 102.987 724.367 106.16V107H692.587C692.213 105.413 691.7 103.453 691.047 101.12C690.393 98.7867 689.74 96.5467 689.087 94.4L684.187 79.28H650.587L648.627 84.6C647.88 86.84 647.227 89.0333 646.667 91.18C646.107 93.3267 645.827 95.38 645.827 97.34C645.827 99.1133 646.107 100.84 646.667 102.52C647.227 104.2 647.973 105.693 648.907 107H623.987ZM655.067 66.82H680.267L668.507 30.14L655.067 66.82ZM721.518 5.5H754.558V84.46C754.558 89.22 754.978 93.42 755.818 97.06C756.752 100.7 758.478 104.013 760.998 107H728.098V28.04C728.098 23.28 727.632 19.1267 726.698 15.58C725.858 12.0333 724.132 8.67333 721.518 5.5ZM762.637 75.64H764.037C768.237 80.4 772.67 84.5067 777.337 87.96C782.097 91.32 787.417 93 793.297 93C797.59 93 800.904 92.0667 803.237 90.2C805.57 88.24 806.737 85.5333 806.737 82.08C806.737 78.6267 805.757 75.92 803.797 73.96C801.837 72 799.224 69.9933 795.957 67.94L781.117 58.98C775.797 55.8067 771.69 51.9333 768.797 47.36C765.997 42.7867 764.597 37.42 764.597 31.26C764.597 29.1133 764.83 27.1067 765.297 25.24C765.764 23.28 766.417 21.46 767.257 19.78C768.097 18.1 769.124 16.56 770.337 15.16C771.55 13.76 772.904 12.5 774.397 11.38C775.984 10.1667 777.664 9.13999 779.437 8.29999C781.304 7.36666 783.264 6.62 785.317 6.06C787.464 5.40666 789.657 4.94 791.897 4.66C794.23 4.38 796.61 4.24 799.037 4.24C804.077 4.24 808.837 4.79999 813.317 5.91999C817.89 6.94666 821.81 8.43999 825.077 10.4L828.437 31.82H827.037C823.49 28.0867 819.664 25.1 815.557 22.86C811.544 20.5267 807.297 19.36 802.817 19.36C799.644 19.36 797.03 20.06 794.977 21.46C793.017 22.86 792.037 25.1 792.037 28.18C792.037 30.7 792.877 33.0333 794.557 35.18C796.237 37.2333 798.99 39.4733 802.817 41.9L816.957 51C822.277 54.4533 826.57 58.28 829.837 62.48C833.104 66.68 834.737 72.0467 834.737 78.58C834.737 80.6333 834.504 82.64 834.037 84.6C833.664 86.4667 833.057 88.3333 832.217 90.2C831.47 91.9733 830.49 93.6533 829.277 95.24C828.064 96.7333 826.664 98.18 825.077 99.58C823.49 100.887 821.67 102.1 819.617 103.22C817.657 104.247 815.464 105.133 813.037 105.88C810.704 106.627 808.137 107.187 805.337 107.56C802.63 108.027 799.69 108.26 796.517 108.26C790.45 108.26 784.664 107.467 779.157 105.88C773.65 104.293 769.03 101.913 765.297 98.74L762.637 75.64ZM842.477 107V28.04C842.477 23.28 842.011 19.1267 841.077 15.58C840.237 12.0333 838.511 8.67333 835.897 5.5H901.417L904.217 27.48H903.657C899.924 24.8667 895.957 23 891.757 21.88C887.651 20.6667 882.237 20.06 875.517 20.06H868.937V48.06H899.177V65C896.844 63.4133 893.904 62.2933 890.357 61.64C886.811 60.8933 882.097 60.52 876.217 60.52H868.937V72.42C868.937 76.7133 869.077 80.54 869.357 83.9C869.637 87.1667 870.151 90.1067 870.897 92.72H878.597C885.597 92.72 891.384 92.02 895.957 90.62C900.624 89.22 904.777 87.1667 908.417 84.46H908.977L906.177 107H842.477ZM926.272 107C927.578 104.667 928.698 102.473 929.632 100.42C930.565 98.2733 931.358 96.36 932.012 94.68L959.452 19.78C960.105 18.1933 960.618 16.56 960.992 14.88C961.365 13.2 961.552 11.5667 961.552 9.98C961.552 9.23333 961.505 8.48666 961.412 7.73999C961.318 6.89999 961.132 6.15333 960.852 5.5H990.252L1014.05 79.84C1015.55 84.5067 1017.32 89.2667 1019.37 94.12C1021.43 98.9733 1023.85 102.987 1026.65 106.16V107H994.872C994.498 105.413 993.985 103.453 993.332 101.12C992.678 98.7867 992.025 96.5467 991.372 94.4L986.472 79.28H952.872L950.912 84.6C950.165 86.84 949.512 89.0333 948.952 91.18C948.392 93.3267 948.112 95.38 948.112 97.34C948.112 99.1133 948.392 100.84 948.952 102.52C949.512 104.2 950.258 105.693 951.192 107H926.272ZM957.352 66.82H982.552L970.792 30.14L957.352 66.82ZM61.6809 187.12H93.8809V217.92C93.2276 219.04 92.4343 220.207 91.5009 221.42C90.5676 222.54 89.4476 223.66 88.1409 224.78C86.9276 225.807 85.5276 226.833 83.9409 227.86C82.4476 228.793 80.8143 229.727 79.0409 230.66C77.2676 231.5 75.3543 232.293 73.3009 233.04C71.3409 233.693 69.2409 234.3 67.0009 234.86C64.8543 235.327 62.5676 235.7 60.1409 235.98C57.7143 236.26 55.1943 236.4 52.5809 236.4C36.5276 236.4 23.8809 231.967 14.6409 223.1C5.40094 214.14 0.734271 201.96 0.640938 186.56C0.640938 183.013 0.874271 179.7 1.34094 176.62C1.8076 173.447 2.46094 170.507 3.30094 167.8C4.14094 165 5.12094 162.387 6.24094 159.96C7.45427 157.533 8.8076 155.293 10.3009 153.24C11.8876 151.093 13.5676 149.18 15.3409 147.5C17.2076 145.727 19.1676 144.14 21.2209 142.74C23.2743 141.247 25.4209 139.94 27.6609 138.82C29.9009 137.607 32.2343 136.58 34.6609 135.74C37.0876 134.9 39.5609 134.247 42.0809 133.78C44.6009 133.22 47.1676 132.8 49.7809 132.52C52.4876 132.24 55.1476 132.1 57.7609 132.1C63.8276 132.1 69.4743 132.613 74.7009 133.64C80.0209 134.667 84.5476 136.02 88.2809 137.7L91.9209 163.18H90.5209C86.6009 158.607 81.9343 155.153 76.5209 152.82C71.1076 150.393 65.2276 149.18 58.8809 149.18C56.3609 149.18 53.9343 149.413 51.6009 149.88C49.3609 150.347 47.2143 151.047 45.1609 151.98C43.1076 152.82 41.1943 153.94 39.4209 155.34C37.6476 156.74 36.0609 158.373 34.6609 160.24C33.2609 162.013 32.0476 164.067 31.0209 166.4C30.0876 168.733 29.3409 171.3 28.7809 174.1C28.3143 176.807 28.0809 179.793 28.0809 183.06C28.0809 185.86 28.2209 188.567 28.5009 191.18C28.8743 193.7 29.3876 196.173 30.0409 198.6C30.7876 200.933 31.6743 203.127 32.7009 205.18C33.7276 207.233 34.9409 209.147 36.3409 210.92C37.8343 212.693 39.4676 214.28 41.2409 215.68C43.1076 217.08 45.1609 218.293 47.4009 219.32C49.7343 220.253 52.2543 221 54.9609 221.56C57.6676 222.027 60.6076 222.26 63.7809 222.26C64.4343 222.26 65.0876 222.26 65.7409 222.26C66.4876 222.26 67.1876 222.213 67.8409 222.12V209.94C67.8409 204.993 67.4209 200.7 66.5809 197.06C65.7409 193.42 64.1076 190.107 61.6809 187.12ZM104.524 235V156.04C104.524 151.28 104.058 147.127 103.124 143.58C102.284 140.033 100.558 136.673 97.9442 133.5H130.984V200.42C130.984 204.527 131.124 208.213 131.404 211.48C131.684 214.653 132.151 217.547 132.804 220.16H140.784C147.784 220.16 153.991 219.413 159.404 217.92C164.911 216.333 169.531 214.093 173.264 211.2H173.824L170.884 235H104.524ZM172.897 235C174.203 232.667 175.323 230.473 176.257 228.42C177.19 226.273 177.983 224.36 178.637 222.68L206.077 147.78C206.73 146.193 207.243 144.56 207.617 142.88C207.99 141.2 208.177 139.567 208.177 137.98C208.177 137.233 208.13 136.487 208.037 135.74C207.943 134.9 207.757 134.153 207.477 133.5H236.877L260.677 207.84C262.17 212.507 263.943 217.267 265.997 222.12C268.05 226.973 270.477 230.987 273.277 234.16V235H241.497C241.123 233.413 240.61 231.453 239.957 229.12C239.303 226.787 238.65 224.547 237.997 222.4L233.097 207.28H199.497L197.537 212.6C196.79 214.84 196.137 217.033 195.577 219.18C195.017 221.327 194.737 223.38 194.737 225.34C194.737 227.113 195.017 228.84 195.577 230.52C196.137 232.2 196.883 233.693 197.817 235H172.897ZM203.977 194.82H229.177L217.417 158.14L203.977 194.82ZM270.149 203.64H271.549C275.749 208.4 280.182 212.507 284.849 215.96C289.609 219.32 294.929 221 300.809 221C305.102 221 308.415 220.067 310.749 218.2C313.082 216.24 314.249 213.533 314.249 210.08C314.249 206.627 313.269 203.92 311.309 201.96C309.349 200 306.735 197.993 303.469 195.94L288.629 186.98C283.309 183.807 279.202 179.933 276.309 175.36C273.509 170.787 272.109 165.42 272.109 159.26C272.109 157.113 272.342 155.107 272.809 153.24C273.275 151.28 273.929 149.46 274.769 147.78C275.609 146.1 276.635 144.56 277.849 143.16C279.062 141.76 280.415 140.5 281.909 139.38C283.495 138.167 285.175 137.14 286.949 136.3C288.815 135.367 290.775 134.62 292.829 134.06C294.975 133.407 297.169 132.94 299.409 132.66C301.742 132.38 304.122 132.24 306.549 132.24C311.589 132.24 316.349 132.8 320.829 133.92C325.402 134.947 329.322 136.44 332.589 138.4L335.949 159.82H334.549C331.002 156.087 327.175 153.1 323.069 150.86C319.055 148.527 314.809 147.36 310.329 147.36C307.155 147.36 304.542 148.06 302.489 149.46C300.529 150.86 299.549 153.1 299.549 156.18C299.549 158.7 300.389 161.033 302.069 163.18C303.749 165.233 306.502 167.473 310.329 169.9L324.469 179C329.789 182.453 334.082 186.28 337.349 190.48C340.615 194.68 342.249 200.047 342.249 206.58C342.249 208.633 342.015 210.64 341.549 212.6C341.175 214.467 340.569 216.333 339.729 218.2C338.982 219.973 338.002 221.653 336.789 223.24C335.575 224.733 334.175 226.18 332.589 227.58C331.002 228.887 329.182 230.1 327.129 231.22C325.169 232.247 322.975 233.133 320.549 233.88C318.215 234.627 315.649 235.187 312.849 235.56C310.142 236.027 307.202 236.26 304.029 236.26C297.962 236.26 292.175 235.467 286.669 233.88C281.162 232.293 276.542 229.913 272.809 226.74L270.149 203.64ZM343.129 203.64H344.529C348.729 208.4 353.162 212.507 357.829 215.96C362.589 219.32 367.909 221 373.789 221C378.082 221 381.396 220.067 383.729 218.2C386.062 216.24 387.229 213.533 387.229 210.08C387.229 206.627 386.249 203.92 384.289 201.96C382.329 200 379.716 197.993 376.449 195.94L361.609 186.98C356.289 183.807 352.182 179.933 349.289 175.36C346.489 170.787 345.089 165.42 345.089 159.26C345.089 157.113 345.322 155.107 345.789 153.24C346.256 151.28 346.909 149.46 347.749 147.78C348.589 146.1 349.616 144.56 350.829 143.16C352.042 141.76 353.396 140.5 354.889 139.38C356.476 138.167 358.156 137.14 359.929 136.3C361.796 135.367 363.756 134.62 365.809 134.06C367.956 133.407 370.149 132.94 372.389 132.66C374.722 132.38 377.102 132.24 379.529 132.24C384.569 132.24 389.329 132.8 393.809 133.92C398.382 134.947 402.302 136.44 405.569 138.4L408.929 159.82H407.529C403.982 156.087 400.156 153.1 396.049 150.86C392.036 148.527 387.789 147.36 383.309 147.36C380.136 147.36 377.522 148.06 375.469 149.46C373.509 150.86 372.529 153.1 372.529 156.18C372.529 158.7 373.369 161.033 375.049 163.18C376.729 165.233 379.482 167.473 383.309 169.9L397.449 179C402.769 182.453 407.062 186.28 410.329 190.48C413.596 194.68 415.229 200.047 415.229 206.58C415.229 208.633 414.996 210.64 414.529 212.6C414.156 214.467 413.549 216.333 412.709 218.2C411.962 219.973 410.982 221.653 409.769 223.24C408.556 224.733 407.156 226.18 405.569 227.58C403.982 228.887 402.162 230.1 400.109 231.22C398.149 232.247 395.956 233.133 393.529 233.88C391.196 234.627 388.629 235.187 385.829 235.56C383.122 236.027 380.182 236.26 377.009 236.26C370.942 236.26 365.156 235.467 359.649 233.88C354.142 232.293 349.522 229.913 345.789 226.74L343.129 203.64ZM432.976 158L436.896 133.5H521.176L524.956 158H524.396C520.01 154.453 515.53 151.98 510.956 150.58C506.383 149.087 500.41 148.34 493.036 148.34H492.196V212.46C492.196 217.22 492.663 221.42 493.596 225.06C494.53 228.7 496.21 232.013 498.636 235H465.736V148.34H464.896C457.616 148.34 451.643 149.087 446.976 150.58C442.403 151.98 437.923 154.453 433.536 158H432.976ZM575.082 132.1C579.095 132.1 582.922 132.427 586.562 133.08C590.295 133.64 593.795 134.48 597.062 135.6C600.328 136.72 603.362 138.167 606.162 139.94C608.962 141.62 611.528 143.58 613.862 145.82C616.195 147.967 618.248 150.44 620.022 153.24C621.888 155.947 623.428 158.933 624.642 162.2C625.948 165.373 626.928 168.827 627.582 172.56C628.235 176.2 628.562 180.073 628.562 184.18C628.562 187.26 628.328 190.2 627.862 193C627.488 195.8 626.882 198.46 626.042 200.98C625.295 203.5 624.362 205.927 623.242 208.26C622.122 210.5 620.815 212.647 619.322 214.7C617.922 216.753 616.382 218.667 614.702 220.44C613.022 222.12 611.202 223.707 609.242 225.2C607.375 226.693 605.368 228.047 603.222 229.26C601.168 230.38 599.022 231.407 596.782 232.34C594.542 233.18 592.255 233.927 589.922 234.58C587.682 235.14 585.348 235.56 582.922 235.84C580.588 236.213 578.208 236.4 575.782 236.4C571.768 236.4 567.942 236.12 564.302 235.56C560.662 235 557.208 234.16 553.942 233.04C550.675 231.827 547.642 230.38 544.842 228.7C542.042 227.02 539.475 225.06 537.142 222.82C534.808 220.58 532.708 218.107 530.842 215.4C529.068 212.693 527.575 209.753 526.362 206.58C525.148 203.313 524.215 199.813 523.562 196.08C522.908 192.347 522.582 188.427 522.582 184.32C522.582 181.24 522.768 178.3 523.142 175.5C523.608 172.7 524.215 170.04 524.962 167.52C525.802 165 526.782 162.62 527.902 160.38C529.022 158.047 530.282 155.853 531.682 153.8C533.175 151.747 534.762 149.88 536.442 148.2C538.122 146.427 539.895 144.793 541.762 143.3C543.628 141.807 545.588 140.5 547.642 139.38C549.788 138.167 551.935 137.14 554.082 136.3C556.322 135.367 558.608 134.62 560.942 134.06C563.275 133.407 565.608 132.94 567.942 132.66C570.368 132.287 572.748 132.1 575.082 132.1ZM577.322 222.4C584.415 222.4 590.108 219.507 594.402 213.72C598.695 207.84 600.842 199.253 600.842 187.96C600.842 174.147 598.462 163.74 593.702 156.74C589.035 149.647 582.362 146.1 573.682 146.1C566.588 146.1 560.895 149.04 556.602 154.92C552.308 160.8 550.162 169.387 550.162 180.68C550.162 194.493 552.495 204.9 557.162 211.9C561.922 218.9 568.642 222.4 577.322 222.4ZM692.966 187.12H725.166V217.92C724.513 219.04 723.719 220.207 722.786 221.42C721.853 222.54 720.733 223.66 719.426 224.78C718.213 225.807 716.813 226.833 715.226 227.86C713.733 228.793 712.099 229.727 710.326 230.66C708.553 231.5 706.639 232.293 704.586 233.04C702.626 233.693 700.526 234.3 698.286 234.86C696.139 235.327 693.853 235.7 691.426 235.98C688.999 236.26 686.479 236.4 683.866 236.4C667.813 236.4 655.166 231.967 645.926 223.1C636.686 214.14 632.019 201.96 631.926 186.56C631.926 183.013 632.159 179.7 632.626 176.62C633.093 173.447 633.746 170.507 634.586 167.8C635.426 165 636.406 162.387 637.526 159.96C638.739 157.533 640.093 155.293 641.586 153.24C643.173 151.093 644.853 149.18 646.626 147.5C648.493 145.727 650.453 144.14 652.506 142.74C654.559 141.247 656.706 139.94 658.946 138.82C661.186 137.607 663.519 136.58 665.946 135.74C668.373 134.9 670.846 134.247 673.366 133.78C675.886 133.22 678.453 132.8 681.066 132.52C683.773 132.24 686.433 132.1 689.046 132.1C695.113 132.1 700.759 132.613 705.986 133.64C711.306 134.667 715.833 136.02 719.566 137.7L723.206 163.18H721.806C717.886 158.607 713.219 155.153 707.806 152.82C702.393 150.393 696.513 149.18 690.166 149.18C687.646 149.18 685.219 149.413 682.886 149.88C680.646 150.347 678.499 151.047 676.446 151.98C674.393 152.82 672.479 153.94 670.706 155.34C668.933 156.74 667.346 158.373 665.946 160.24C664.546 162.013 663.333 164.067 662.306 166.4C661.373 168.733 660.626 171.3 660.066 174.1C659.599 176.807 659.366 179.793 659.366 183.06C659.366 185.86 659.506 188.567 659.786 191.18C660.159 193.7 660.673 196.173 661.326 198.6C662.073 200.933 662.959 203.127 663.986 205.18C665.013 207.233 666.226 209.147 667.626 210.92C669.119 212.693 670.753 214.28 672.526 215.68C674.393 217.08 676.446 218.293 678.686 219.32C681.019 220.253 683.539 221 686.246 221.56C688.953 222.027 691.893 222.26 695.066 222.26C695.719 222.26 696.373 222.26 697.026 222.26C697.773 222.26 698.473 222.213 699.126 222.12V209.94C699.126 204.993 698.706 200.7 697.866 197.06C697.026 193.42 695.393 190.107 692.966 187.12ZM735.809 235V156.04C735.809 151.28 735.343 147.127 734.409 143.58C733.569 140.033 731.843 136.673 729.229 133.5H794.749L797.549 155.48H796.989C793.256 152.867 789.289 151 785.089 149.88C780.983 148.667 775.569 148.06 768.849 148.06H762.269V176.06H792.509V193C790.176 191.413 787.236 190.293 783.689 189.64C780.143 188.893 775.429 188.52 769.549 188.52H762.269V200.42C762.269 204.713 762.409 208.54 762.689 211.9C762.969 215.167 763.483 218.107 764.229 220.72H771.929C778.929 220.72 784.716 220.02 789.289 218.62C793.956 217.22 798.109 215.167 801.749 212.46H802.309L799.509 235H735.809ZM800.093 158L804.013 133.5H888.293L892.073 158H891.513C887.127 154.453 882.647 151.98 878.073 150.58C873.5 149.087 867.527 148.34 860.153 148.34H859.313V212.46C859.313 217.22 859.78 221.42 860.713 225.06C861.647 228.7 863.327 232.013 865.753 235H832.853V148.34H832.013C824.733 148.34 818.76 149.087 814.093 150.58C809.52 151.98 805.04 154.453 800.653 158H800.093ZM892.554 133.5H925.594V178.02H964.514V156.04C964.514 151.28 964.047 147.127 963.114 143.58C962.274 140.033 960.594 136.673 958.074 133.5H990.974V212.46C990.974 217.22 991.394 221.42 992.234 225.06C993.167 228.7 994.894 232.013 997.414 235H964.514V191.88H925.594V212.46C925.594 217.22 926.014 221.42 926.854 225.06C927.787 228.7 929.514 232.013 932.034 235H899.134V156.04C899.134 151.28 898.667 147.127 897.734 143.58C896.894 140.033 895.167 136.673 892.554 133.5ZM1006.02 235V156.04C1006.02 151.28 1005.55 147.127 1004.62 143.58C1003.78 140.033 1002.05 136.673 999.44 133.5H1064.96L1067.76 155.48H1067.2C1063.47 152.867 1059.5 151 1055.3 149.88C1051.19 148.667 1045.78 148.06 1039.06 148.06H1032.48V176.06H1062.72V193C1060.39 191.413 1057.45 190.293 1053.9 189.64C1050.35 188.893 1045.64 188.52 1039.76 188.52H1032.48V200.42C1032.48 204.713 1032.62 208.54 1032.9 211.9C1033.18 215.167 1033.69 218.107 1034.44 220.72H1042.14C1049.14 220.72 1054.93 220.02 1059.5 218.62C1064.17 217.22 1068.32 215.167 1071.96 212.46H1072.52L1069.72 235H1006.02ZM1073.79 133.5H1118.31C1119.52 133.5 1120.73 133.547 1121.95 133.64C1123.25 133.64 1124.61 133.687 1126.01 133.78C1127.41 133.873 1128.81 134.013 1130.21 134.2C1131.7 134.387 1133.19 134.62 1134.69 134.9C1136.18 135.18 1137.63 135.553 1139.03 136.02C1140.43 136.393 1141.78 136.86 1143.09 137.42C1144.49 137.98 1145.79 138.633 1147.01 139.38C1148.22 140.127 1149.34 140.967 1150.37 141.9C1151.49 142.833 1152.47 143.907 1153.31 145.12C1154.24 146.24 1154.99 147.5 1155.55 148.9C1156.2 150.3 1156.67 151.84 1156.95 153.52C1157.32 155.2 1157.51 157.02 1157.51 158.98C1157.51 165.42 1155.41 170.973 1151.21 175.64C1147.01 180.307 1140.71 183.667 1132.31 185.72C1136.97 186.84 1140.47 188.707 1142.81 191.32C1145.23 193.84 1147.33 196.873 1149.11 200.42L1158.35 217.78C1160.4 221.793 1162.22 224.967 1163.81 227.3C1165.39 229.633 1167.35 232.013 1169.69 234.44V235H1137.77L1119.01 197.76C1117.61 194.867 1116.11 192.813 1114.53 191.6C1113.03 190.387 1110.61 189.78 1107.25 189.78V212.46C1107.25 217.22 1107.67 221.42 1108.51 225.06C1109.44 228.7 1111.12 232.013 1113.55 235H1080.37V156.04C1080.37 151.28 1079.9 147.127 1078.97 143.58C1078.13 140.033 1076.4 136.673 1073.79 133.5ZM1108.79 144.84H1107.25V179.28H1110.89C1116.86 179.28 1121.67 178.02 1125.31 175.5C1128.95 172.98 1130.77 168.313 1130.77 161.5C1130.77 160.007 1130.63 158.653 1130.35 157.44C1130.16 156.133 1129.83 154.967 1129.37 153.94C1128.99 152.913 1128.48 152.027 1127.83 151.28C1127.27 150.44 1126.61 149.693 1125.87 149.04C1125.12 148.387 1124.28 147.873 1123.35 147.5C1122.51 147.033 1121.62 146.66 1120.69 146.38C1119.75 146.007 1118.77 145.727 1117.75 145.54C1116.81 145.353 1115.83 145.213 1114.81 145.12C1113.78 145.027 1112.75 144.98 1111.73 144.98C1110.7 144.887 1109.72 144.84 1108.79 144.84ZM122.037 260.1C126.05 260.1 129.877 260.427 133.517 261.08C137.25 261.64 140.75 262.48 144.017 263.6C147.283 264.72 150.317 266.167 153.117 267.94C155.917 269.62 158.483 271.58 160.817 273.82C163.15 275.967 165.203 278.44 166.977 281.24C168.843 283.947 170.383 286.933 171.597 290.2C172.903 293.373 173.883 296.827 174.537 300.56C175.19 304.2 175.517 308.073 175.517 312.18C175.517 315.26 175.283 318.2 174.817 321C174.443 323.8 173.837 326.46 172.997 328.98C172.25 331.5 171.317 333.927 170.197 336.26C169.077 338.5 167.77 340.647 166.277 342.7C164.877 344.753 163.337 346.667 161.657 348.44C159.977 350.12 158.157 351.707 156.197 353.2C154.33 354.693 152.323 356.047 150.177 357.26C148.123 358.38 145.977 359.407 143.737 360.34C141.497 361.18 139.21 361.927 136.877 362.58C134.637 363.14 132.303 363.56 129.877 363.84C127.543 364.213 125.163 364.4 122.737 364.4C118.723 364.4 114.897 364.12 111.257 363.56C107.617 363 104.163 362.16 100.897 361.04C97.6301 359.827 94.5968 358.38 91.7968 356.7C88.9968 355.02 86.4301 353.06 84.0968 350.82C81.7635 348.58 79.6635 346.107 77.7968 343.4C76.0235 340.693 74.5301 337.753 73.3168 334.58C72.1035 331.313 71.1701 327.813 70.5168 324.08C69.8635 320.347 69.5368 316.427 69.5368 312.32C69.5368 309.24 69.7235 306.3 70.0968 303.5C70.5635 300.7 71.1701 298.04 71.9168 295.52C72.7568 293 73.7368 290.62 74.8568 288.38C75.9768 286.047 77.2368 283.853 78.6368 281.8C80.1301 279.747 81.7168 277.88 83.3968 276.2C85.0768 274.427 86.8501 272.793 88.7168 271.3C90.5835 269.807 92.5435 268.5 94.5968 267.38C96.7435 266.167 98.8901 265.14 101.037 264.3C103.277 263.367 105.563 262.62 107.897 262.06C110.23 261.407 112.563 260.94 114.897 260.66C117.323 260.287 119.703 260.1 122.037 260.1ZM124.277 350.4C131.37 350.4 137.063 347.507 141.357 341.72C145.65 335.84 147.797 327.253 147.797 315.96C147.797 302.147 145.417 291.74 140.657 284.74C135.99 277.647 129.317 274.1 120.637 274.1C113.543 274.1 107.85 277.04 103.557 282.92C99.2635 288.8 97.1168 297.387 97.1168 308.68C97.1168 322.493 99.4501 332.9 104.117 339.9C108.877 346.9 115.597 350.4 124.277 350.4ZM204.501 363H183.781V272C182.568 270.507 181.261 269.013 179.861 267.52C178.555 266.027 177.201 264.533 175.801 263.04V261.5H208.141L255.321 319.46V286C255.321 280.307 254.808 275.547 253.781 271.72C252.755 267.8 251.028 264.393 248.601 261.5H270.161V363H258.121L198.621 290.06V338.5C198.621 344.193 199.088 349 200.021 352.92C200.955 356.747 202.448 360.107 204.501 363ZM283.995 363V284.04C283.995 279.28 283.528 275.127 282.595 271.58C281.755 268.033 280.028 264.673 277.415 261.5H310.455V328.42C310.455 332.527 310.595 336.213 310.875 339.48C311.155 342.653 311.622 345.547 312.275 348.16H320.255C327.255 348.16 333.462 347.413 338.875 345.92C344.382 344.333 349.002 342.093 352.735 339.2H353.295L350.355 363H283.995ZM354.36 261.5H387.4V340.46C387.4 345.22 387.82 349.42 388.66 353.06C389.594 356.7 391.32 360.013 393.84 363H360.94V284.04C360.94 279.28 360.474 275.127 359.54 271.58C358.7 268.033 356.974 264.673 354.36 261.5ZM421.939 363H401.219V272C400.005 270.507 398.699 269.013 397.299 267.52C395.992 266.027 394.639 264.533 393.239 263.04V261.5H425.579L472.759 319.46V286C472.759 280.307 472.245 275.547 471.219 271.72C470.192 267.8 468.465 264.393 466.039 261.5H487.599V363H475.559L416.059 290.06V338.5C416.059 344.193 416.525 349 417.459 352.92C418.392 356.747 419.885 360.107 421.939 363ZM501.432 363V284.04C501.432 279.28 500.966 275.127 500.032 271.58C499.192 268.033 497.466 264.673 494.852 261.5H560.372L563.172 283.48H562.612C558.879 280.867 554.912 279 550.712 277.88C546.606 276.667 541.192 276.06 534.472 276.06H527.892V304.06H558.132V321C555.799 319.413 552.859 318.293 549.312 317.64C545.766 316.893 541.052 316.52 535.172 316.52H527.892V328.42C527.892 332.713 528.032 336.54 528.312 339.9C528.592 343.167 529.106 346.107 529.852 348.72H537.552C544.552 348.72 550.339 348.02 554.912 346.62C559.579 345.22 563.732 343.167 567.372 340.46H567.932L565.132 363H501.432ZM585.227 363C586.533 360.667 587.653 358.473 588.587 356.42C589.52 354.273 590.313 352.36 590.967 350.68L618.407 275.78C619.06 274.193 619.573 272.56 619.947 270.88C620.32 269.2 620.507 267.567 620.507 265.98C620.507 265.233 620.46 264.487 620.367 263.74C620.273 262.9 620.087 262.153 619.807 261.5H649.207L673.007 335.84C674.5 340.507 676.273 345.267 678.327 350.12C680.38 354.973 682.807 358.987 685.607 362.16V363H653.827C653.453 361.413 652.94 359.453 652.287 357.12C651.633 354.787 650.98 352.547 650.327 350.4L645.427 335.28H611.827L609.867 340.6C609.12 342.84 608.467 345.033 607.907 347.18C607.347 349.327 607.067 351.38 607.067 353.34C607.067 355.113 607.347 356.84 607.907 358.52C608.467 360.2 609.213 361.693 610.147 363H585.227ZM616.307 322.82H641.507L629.747 286.14L616.307 322.82ZM708.939 363H688.219V272C687.005 270.507 685.699 269.013 684.299 267.52C682.992 266.027 681.639 264.533 680.239 263.04V261.5H712.579L759.759 319.46V286C759.759 280.307 759.245 275.547 758.219 271.72C757.192 267.8 755.465 264.393 753.039 261.5H774.599V363H762.559L703.059 290.06V338.5C703.059 344.193 703.525 349 704.459 352.92C705.392 356.747 706.885 360.107 708.939 363ZM781.432 261.5H825.812C830.199 261.5 834.399 261.733 838.412 262.2C842.426 262.667 846.206 263.367 849.752 264.3C853.299 265.233 856.566 266.447 859.552 267.94C862.632 269.34 865.432 271.02 867.952 272.98C870.566 274.94 872.806 277.18 874.672 279.7C876.632 282.127 878.266 284.833 879.572 287.82C880.972 290.807 881.999 294.073 882.652 297.62C883.399 301.167 883.772 304.993 883.772 309.1C883.772 312.927 883.446 316.613 882.792 320.16C882.232 323.613 881.346 326.88 880.132 329.96C878.919 333.04 877.426 335.933 875.652 338.64C873.972 341.253 872.012 343.68 869.772 345.92C867.626 348.16 865.246 350.213 862.632 352.08C860.019 353.853 857.172 355.44 854.092 356.84C851.106 358.147 847.886 359.267 844.432 360.2C841.072 361.133 837.526 361.833 833.792 362.3C830.152 362.767 826.326 363 822.312 363H787.872V284.04C787.872 279.28 787.406 275.127 786.472 271.58C785.632 268.033 783.952 264.673 781.432 261.5ZM814.472 328.42C814.472 332.993 814.612 337.053 814.892 340.6C815.266 344.053 815.966 347.227 816.992 350.12H821.752C824.926 350.12 827.819 349.887 830.432 349.42C833.046 348.953 835.472 348.253 837.712 347.32C839.952 346.387 841.912 345.267 843.592 343.96C845.366 342.653 846.952 341.207 848.352 339.62C849.752 337.94 850.919 336.12 851.852 334.16C852.879 332.2 853.719 330.1 854.372 327.86C855.026 325.62 855.492 323.287 855.772 320.86C856.052 318.433 856.192 315.913 856.192 313.3C856.192 299.767 853.206 289.92 847.232 283.76C841.352 277.6 832.906 274.52 821.892 274.52H814.472V328.42ZM906.075 261.5H939.115V340.46C939.115 345.22 939.535 349.42 940.375 353.06C941.308 356.7 943.035 360.013 945.555 363H912.655V284.04C912.655 279.28 912.188 275.127 911.255 271.58C910.415 268.033 908.688 264.673 906.075 261.5ZM947.474 261.5H991.994C993.207 261.5 994.42 261.547 995.634 261.64C996.94 261.64 998.294 261.687 999.694 261.78C1001.09 261.873 1002.49 262.013 1003.89 262.2C1005.39 262.387 1006.88 262.62 1008.37 262.9C1009.87 263.18 1011.31 263.553 1012.71 264.02C1014.11 264.393 1015.47 264.86 1016.77 265.42C1018.17 265.98 1019.48 266.633 1020.69 267.38C1021.91 268.127 1023.03 268.967 1024.05 269.9C1025.17 270.833 1026.15 271.907 1026.99 273.12C1027.93 274.24 1028.67 275.5 1029.23 276.9C1029.89 278.3 1030.35 279.84 1030.63 281.52C1031.01 283.2 1031.19 285.02 1031.19 286.98C1031.19 293.42 1029.09 298.973 1024.89 303.64C1020.69 308.307 1014.39 311.667 1005.99 313.72C1010.66 314.84 1014.16 316.707 1016.49 319.32C1018.92 321.84 1021.02 324.873 1022.79 328.42L1032.03 345.78C1034.09 349.793 1035.91 352.967 1037.49 355.3C1039.08 357.633 1041.04 360.013 1043.37 362.44V363H1011.45L992.694 325.76C991.294 322.867 989.8 320.813 988.214 319.6C986.72 318.387 984.294 317.78 980.934 317.78V340.46C980.934 345.22 981.354 349.42 982.194 353.06C983.127 356.7 984.807 360.013 987.234 363H954.054V284.04C954.054 279.28 953.587 275.127 952.654 271.58C951.814 268.033 950.087 264.673 947.474 261.5ZM982.474 272.84H980.934V307.28H984.574C990.547 307.28 995.354 306.02 998.994 303.5C1002.63 300.98 1004.45 296.313 1004.45 289.5C1004.45 288.007 1004.31 286.653 1004.03 285.44C1003.85 284.133 1003.52 282.967 1003.05 281.94C1002.68 280.913 1002.17 280.027 1001.51 279.28C1000.95 278.44 1000.3 277.693 999.554 277.04C998.807 276.387 997.967 275.873 997.034 275.5C996.194 275.033 995.307 274.66 994.374 274.38C993.44 274.007 992.46 273.727 991.434 273.54C990.5 273.353 989.52 273.213 988.494 273.12C987.467 273.027 986.44 272.98 985.414 272.98C984.387 272.887 983.407 272.84 982.474 272.84ZM1046.04 363V284.04C1046.04 279.28 1045.57 275.127 1044.64 271.58C1043.8 268.033 1042.07 264.673 1039.46 261.5H1072.5V328.42C1072.5 332.527 1072.64 336.213 1072.92 339.48C1073.2 342.653 1073.66 345.547 1074.32 348.16H1082.3C1089.3 348.16 1095.5 347.413 1100.92 345.92C1106.42 344.333 1111.04 342.093 1114.78 339.2H1115.34L1112.4 363H1046.04Z" fill="#BCBA70"/>
</svg>
