<svg width="265" height="239" viewBox="0 0 265 239" fill="none" xmlns="http://www.w3.org/2000/svg">
<path d="M2.56641 39V10.8C2.56641 9.1 2.39974 7.61667 2.06641 6.35C1.76641 5.08333 1.14974 3.88333 0.216406 2.75H12.0164V26.65C12.0164 28.1167 12.0664 29.4333 12.1664 30.6C12.2664 31.7333 12.4331 32.7667 12.6664 33.7H15.5164C18.0164 33.7 20.2331 33.4333 22.1664 32.9C24.1331 32.3333 25.7831 31.5333 27.1164 30.5H27.3164L26.2664 39H2.56641ZM30.0469 39V10.8C30.0469 9.1 29.8802 7.61667 29.5469 6.35C29.2469 5.08333 28.6302 3.88333 27.6969 2.75H51.0969L52.0969 10.6H51.8969C50.5635 9.66667 49.1469 9 47.6469 8.6C46.1802 8.16666 44.2469 7.95 41.8469 7.95H39.4969V17.95H50.2969V24C49.4635 23.4333 48.4135 23.0333 47.1469 22.8C45.8802 22.5333 44.1969 22.4 42.0969 22.4H39.4969V26.65C39.4969 28.1833 39.5469 29.55 39.6469 30.75C39.7469 31.9167 39.9302 32.9667 40.1969 33.9H42.9469C45.4469 33.9 47.5135 33.65 49.1469 33.15C50.8135 32.65 52.2969 31.9167 53.5969 30.95H53.7969L52.7969 39H30.0469ZM53.0055 11.5L54.4055 2.75H84.5055L85.8555 11.5H85.6555C84.0888 10.2333 82.4888 9.35 80.8555 8.85C79.2221 8.31667 77.0888 8.05 74.4555 8.05H74.1555V30.95C74.1555 32.65 74.3221 34.15 74.6555 35.45C74.9888 36.75 75.5888 37.9333 76.4555 39H64.7055V8.05H64.4055C61.8055 8.05 59.6721 8.31667 58.0055 8.85C56.3721 9.35 54.7721 10.2333 53.2055 11.5H53.0055ZM89.7965 15.3H86.8965C87.6632 14.2667 88.3298 13.2167 88.8965 12.15C89.4965 11.05 89.9132 9.93333 90.1465 8.8C89.6132 8.56667 89.0632 8.08333 88.4965 7.35C87.9298 6.61667 87.6465 5.85 87.6465 5.05C87.6465 4.11667 88.0965 3.18333 88.9965 2.25C89.8965 1.28333 90.8965 0.799997 91.9965 0.799997C93.0632 0.799997 94.0965 1.28333 95.0965 2.25C96.1298 3.18333 96.6465 4.23333 96.6465 5.4C96.6465 5.8 96.5965 6.21667 96.4965 6.65C96.4298 7.08333 96.3132 7.51667 96.1465 7.95C95.9798 8.35 95.7798 8.76667 95.5465 9.2C95.3465 9.6 95.0965 10 94.7965 10.4C94.5298 10.8 94.2298 11.1833 93.8965 11.55C93.5965 11.9167 93.2798 12.2833 92.9465 12.65C92.6132 12.9833 92.2632 13.3167 91.8965 13.65C91.5632 13.95 91.2132 14.25 90.8465 14.55C90.4798 14.8167 90.1298 15.0667 89.7965 15.3ZM97.1965 27.8H97.6965C99.1965 29.5 100.78 30.9667 102.446 32.2C104.146 33.4 106.046 34 108.146 34C109.68 34 110.863 33.6667 111.696 33C112.53 32.3 112.946 31.3333 112.946 30.1C112.946 28.8667 112.596 27.9 111.896 27.2C111.196 26.5 110.263 25.7833 109.096 25.05L103.796 21.85C101.896 20.7167 100.43 19.3333 99.3965 17.7C98.3965 16.0667 97.8965 14.15 97.8965 11.95C97.8965 11.1833 97.9798 10.4667 98.1465 9.8C98.3132 9.1 98.5465 8.45 98.8465 7.85C99.1465 7.25 99.5132 6.7 99.9465 6.2C100.38 5.7 100.863 5.25 101.396 4.85C101.963 4.41666 102.563 4.05 103.196 3.75C103.863 3.41666 104.563 3.15 105.296 2.95C106.063 2.71666 106.846 2.55 107.646 2.45C108.48 2.35 109.33 2.3 110.196 2.3C111.996 2.3 113.696 2.5 115.296 2.9C116.93 3.26666 118.33 3.8 119.496 4.5L120.696 12.15H120.196C118.93 10.8167 117.563 9.75 116.096 8.95C114.663 8.11666 113.146 7.7 111.546 7.7C110.413 7.7 109.48 7.95 108.746 8.45C108.046 8.95 107.696 9.75 107.696 10.85C107.696 11.75 107.996 12.5833 108.596 13.35C109.196 14.0833 110.18 14.8833 111.546 15.75L116.596 19C118.496 20.2333 120.03 21.6 121.196 23.1C122.363 24.6 122.946 26.5167 122.946 28.85C122.946 29.5833 122.863 30.3 122.696 31C122.563 31.6667 122.346 32.3333 122.046 33C121.78 33.6333 121.43 34.2333 120.996 34.8C120.563 35.3333 120.063 35.85 119.496 36.35C118.93 36.8167 118.28 37.25 117.546 37.65C116.846 38.0167 116.063 38.3333 115.196 38.6C114.363 38.8667 113.446 39.0667 112.446 39.2C111.48 39.3667 110.43 39.45 109.296 39.45C107.13 39.45 105.063 39.1667 103.096 38.6C101.13 38.0333 99.4798 37.1833 98.1465 36.05L97.1965 27.8ZM130.285 2.75H146.185C146.618 2.75 147.051 2.76667 147.485 2.8C147.951 2.8 148.435 2.81666 148.935 2.85C149.435 2.88333 149.935 2.93333 150.435 3C150.968 3.06666 151.501 3.15 152.035 3.25C152.568 3.35 153.085 3.48333 153.585 3.65C154.085 3.78333 154.568 3.95 155.035 4.15C155.535 4.35 156.001 4.58333 156.435 4.85C156.868 5.11667 157.268 5.41667 157.635 5.75C158.035 6.08333 158.385 6.46667 158.685 6.9C159.018 7.3 159.285 7.75 159.485 8.25C159.718 8.75 159.885 9.3 159.985 9.9C160.118 10.5 160.185 11.15 160.185 11.85C160.185 14.15 159.435 16.1333 157.935 17.8C156.435 19.4667 154.185 20.6667 151.185 21.4C152.851 21.8 154.101 22.4667 154.935 23.4C155.801 24.3 156.551 25.3833 157.185 26.65L160.485 32.85C161.218 34.2833 161.868 35.4167 162.435 36.25C163.001 37.0833 163.701 37.9333 164.535 38.8V39H153.135L146.435 25.7C145.935 24.6667 145.401 23.9333 144.835 23.5C144.301 23.0667 143.435 22.85 142.235 22.85V30.95C142.235 32.65 142.385 34.15 142.685 35.45C143.018 36.75 143.618 37.9333 144.485 39H132.635V10.8C132.635 9.1 132.468 7.61667 132.135 6.35C131.835 5.08333 131.218 3.88333 130.285 2.75ZM142.785 6.8H142.235V19.1H143.535C145.668 19.1 147.385 18.65 148.685 17.75C149.985 16.85 150.635 15.1833 150.635 12.75C150.635 12.2167 150.585 11.7333 150.485 11.3C150.418 10.8333 150.301 10.4167 150.135 10.05C150.001 9.68333 149.818 9.36666 149.585 9.1C149.385 8.8 149.151 8.53333 148.885 8.3C148.618 8.06666 148.318 7.88333 147.985 7.75C147.685 7.58333 147.368 7.45 147.035 7.35C146.701 7.21667 146.351 7.11666 145.985 7.05C145.651 6.98333 145.301 6.93333 144.935 6.9C144.568 6.86667 144.201 6.85 143.835 6.85C143.468 6.81666 143.118 6.8 142.785 6.8ZM162.425 39C162.891 38.1667 163.291 37.3833 163.625 36.65C163.958 35.8833 164.241 35.2 164.475 34.6L174.275 7.85C174.508 7.28333 174.691 6.7 174.825 6.1C174.958 5.5 175.025 4.91666 175.025 4.35C175.025 4.08333 175.008 3.81666 174.975 3.55C174.941 3.25 174.875 2.98333 174.775 2.75H185.275L193.775 29.3C194.308 30.9667 194.941 32.6667 195.675 34.4C196.408 36.1333 197.275 37.5667 198.275 38.7V39H186.925C186.791 38.4333 186.608 37.7333 186.375 36.9C186.141 36.0667 185.908 35.2667 185.675 34.5L183.925 29.1H171.925L171.225 31C170.958 31.8 170.725 32.5833 170.525 33.35C170.325 34.1167 170.225 34.85 170.225 35.55C170.225 36.1833 170.325 36.8 170.525 37.4C170.725 38 170.991 38.5333 171.325 39H162.425ZM173.525 24.65H182.525L178.325 11.55L173.525 24.65ZM197.257 2.75H209.057V30.95C209.057 32.65 209.207 34.15 209.507 35.45C209.841 36.75 210.457 37.9333 211.357 39H199.607V10.8C199.607 9.1 199.441 7.61667 199.107 6.35C198.807 5.08333 198.191 3.88333 197.257 2.75ZM211.943 27.8H212.443C213.943 29.5 215.526 30.9667 217.193 32.2C218.893 33.4 220.793 34 222.893 34C224.426 34 225.609 33.6667 226.443 33C227.276 32.3 227.693 31.3333 227.693 30.1C227.693 28.8667 227.343 27.9 226.643 27.2C225.943 26.5 225.009 25.7833 223.843 25.05L218.543 21.85C216.643 20.7167 215.176 19.3333 214.143 17.7C213.143 16.0667 212.643 14.15 212.643 11.95C212.643 11.1833 212.726 10.4667 212.893 9.8C213.059 9.1 213.293 8.45 213.593 7.85C213.893 7.25 214.259 6.7 214.693 6.2C215.126 5.7 215.609 5.25 216.143 4.85C216.709 4.41666 217.309 4.05 217.943 3.75C218.609 3.41666 219.309 3.15 220.043 2.95C220.809 2.71666 221.593 2.55 222.393 2.45C223.226 2.35 224.076 2.3 224.943 2.3C226.743 2.3 228.443 2.5 230.043 2.9C231.676 3.26666 233.076 3.8 234.243 4.5L235.443 12.15H234.943C233.676 10.8167 232.309 9.75 230.843 8.95C229.409 8.11666 227.893 7.7 226.293 7.7C225.159 7.7 224.226 7.95 223.493 8.45C222.793 8.95 222.443 9.75 222.443 10.85C222.443 11.75 222.743 12.5833 223.343 13.35C223.943 14.0833 224.926 14.8833 226.293 15.75L231.343 19C233.243 20.2333 234.776 21.6 235.943 23.1C237.109 24.6 237.693 26.5167 237.693 28.85C237.693 29.5833 237.609 30.3 237.443 31C237.309 31.6667 237.093 32.3333 236.793 33C236.526 33.6333 236.176 34.2333 235.743 34.8C235.309 35.3333 234.809 35.85 234.243 36.35C233.676 36.8167 233.026 37.25 232.293 37.65C231.593 38.0167 230.809 38.3333 229.943 38.6C229.109 38.8667 228.193 39.0667 227.193 39.2C226.226 39.3667 225.176 39.45 224.043 39.45C221.876 39.45 219.809 39.1667 217.843 38.6C215.876 38.0333 214.226 37.1833 212.893 36.05L211.943 27.8ZM240.457 39V10.8C240.457 9.1 240.29 7.61667 239.957 6.35C239.657 5.08333 239.04 3.88333 238.107 2.75H261.507L262.507 10.6H262.307C260.974 9.66667 259.557 9 258.057 8.6C256.59 8.16666 254.657 7.95 252.257 7.95H249.907V17.95H260.707V24C259.874 23.4333 258.824 23.0333 257.557 22.8C256.29 22.5333 254.607 22.4 252.507 22.4H249.907V26.65C249.907 28.1833 249.957 29.55 250.057 30.75C250.157 31.9167 250.34 32.9667 250.607 33.9H253.357C255.857 33.9 257.924 33.65 259.557 33.15C261.224 32.65 262.707 31.9167 264.007 30.95H264.207L263.207 39H240.457ZM41.575 89C42.0417 88.1667 42.4417 87.3833 42.775 86.65C43.1083 85.8833 43.3917 85.2 43.625 84.6L53.425 57.85C53.6583 57.2833 53.8417 56.7 53.975 56.1C54.1083 55.5 54.175 54.9167 54.175 54.35C54.175 54.0833 54.1583 53.8167 54.125 53.55C54.0917 53.25 54.025 52.9833 53.925 52.75H64.425L72.925 79.3C73.4583 80.9667 74.0917 82.6667 74.825 84.4C75.5583 86.1333 76.425 87.5667 77.425 88.7V89H66.075C65.9417 88.4333 65.7583 87.7333 65.525 86.9C65.2917 86.0667 65.0583 85.2667 64.825 84.5L63.075 79.1H51.075L50.375 81C50.1083 81.8 49.875 82.5833 49.675 83.35C49.475 84.1167 49.375 84.85 49.375 85.55C49.375 86.1833 49.475 86.8 49.675 87.4C49.875 88 50.1417 88.5333 50.475 89H41.575ZM52.675 74.65H61.675L57.475 61.55L52.675 74.65ZM104.843 71.9H116.343V82.9C116.11 83.3 115.827 83.7167 115.493 84.15C115.16 84.55 114.76 84.95 114.293 85.35C113.86 85.7167 113.36 86.0833 112.793 86.45C112.26 86.7833 111.677 87.1167 111.043 87.45C110.41 87.75 109.727 88.0333 108.993 88.3C108.293 88.5333 107.543 88.75 106.743 88.95C105.977 89.1167 105.16 89.25 104.293 89.35C103.427 89.45 102.527 89.5 101.593 89.5C95.86 89.5 91.3434 87.9167 88.0434 84.75C84.7434 81.55 83.0767 77.2 83.0434 71.7C83.0434 70.4333 83.1267 69.25 83.2934 68.15C83.46 67.0167 83.6934 65.9667 83.9934 65C84.2934 64 84.6434 63.0667 85.0434 62.2C85.4767 61.3333 85.96 60.5333 86.4934 59.8C87.06 59.0333 87.66 58.35 88.2934 57.75C88.96 57.1167 89.66 56.55 90.3934 56.05C91.1267 55.5167 91.8934 55.05 92.6934 54.65C93.4934 54.2167 94.3267 53.85 95.1934 53.55C96.06 53.25 96.9434 53.0167 97.8434 52.85C98.7434 52.65 99.66 52.5 100.593 52.4C101.56 52.3 102.51 52.25 103.443 52.25C105.61 52.25 107.627 52.4333 109.493 52.8C111.393 53.1667 113.01 53.65 114.343 54.25L115.643 63.35H115.143C113.743 61.7167 112.077 60.4833 110.143 59.65C108.21 58.7833 106.11 58.35 103.843 58.35C102.943 58.35 102.077 58.4333 101.243 58.6C100.443 58.7667 99.6767 59.0167 98.9434 59.35C98.21 59.65 97.5267 60.05 96.8934 60.55C96.26 61.05 95.6934 61.6333 95.1934 62.3C94.6934 62.9333 94.26 63.6667 93.8934 64.5C93.56 65.3333 93.2934 66.25 93.0934 67.25C92.9267 68.2167 92.8434 69.2833 92.8434 70.45C92.8434 71.45 92.8934 72.4167 92.9934 73.35C93.1267 74.25 93.31 75.1333 93.5434 76C93.81 76.8333 94.1267 77.6167 94.4934 78.35C94.86 79.0833 95.2934 79.7667 95.7934 80.4C96.3267 81.0333 96.91 81.6 97.5434 82.1C98.21 82.6 98.9434 83.0333 99.7434 83.4C100.577 83.7333 101.477 84 102.443 84.2C103.41 84.3667 104.46 84.45 105.593 84.45C105.827 84.45 106.06 84.45 106.293 84.45C106.56 84.45 106.81 84.4333 107.043 84.4V80.05C107.043 78.2833 106.893 76.75 106.593 75.45C106.293 74.15 105.71 72.9667 104.843 71.9ZM120.145 89V60.8C120.145 59.1 119.978 57.6167 119.645 56.35C119.345 55.0833 118.728 53.8833 117.795 52.75H129.595V76.65C129.595 78.1167 129.645 79.4333 129.745 80.6C129.845 81.7333 130.011 82.7667 130.245 83.7H133.095C135.595 83.7 137.811 83.4333 139.745 82.9C141.711 82.3333 143.361 81.5333 144.695 80.5H144.895L143.845 89H120.145ZM144.563 89C145.03 88.1667 145.43 87.3833 145.763 86.65C146.097 85.8833 146.38 85.2 146.613 84.6L156.413 57.85C156.647 57.2833 156.83 56.7 156.963 56.1C157.097 55.5 157.163 54.9167 157.163 54.35C157.163 54.0833 157.147 53.8167 157.113 53.55C157.08 53.25 157.013 52.9833 156.913 52.75H167.413L175.913 79.3C176.447 80.9667 177.08 82.6667 177.813 84.4C178.547 86.1333 179.413 87.5667 180.413 88.7V89H169.063C168.93 88.4333 168.747 87.7333 168.513 86.9C168.28 86.0667 168.047 85.2667 167.813 84.5L166.063 79.1H154.063L153.363 81C153.097 81.8 152.863 82.5833 152.663 83.35C152.463 84.1167 152.363 84.85 152.363 85.55C152.363 86.1833 152.463 86.8 152.663 87.4C152.863 88 153.13 88.5333 153.463 89H144.563ZM155.663 74.65H164.663L160.463 61.55L155.663 74.65ZM179.296 77.8H179.796C181.296 79.5 182.879 80.9667 184.546 82.2C186.246 83.4 188.146 84 190.246 84C191.779 84 192.963 83.6667 193.796 83C194.629 82.3 195.046 81.3333 195.046 80.1C195.046 78.8667 194.696 77.9 193.996 77.2C193.296 76.5 192.363 75.7833 191.196 75.05L185.896 71.85C183.996 70.7167 182.529 69.3333 181.496 67.7C180.496 66.0667 179.996 64.15 179.996 61.95C179.996 61.1833 180.079 60.4667 180.246 59.8C180.413 59.1 180.646 58.45 180.946 57.85C181.246 57.25 181.613 56.7 182.046 56.2C182.479 55.7 182.963 55.25 183.496 54.85C184.063 54.4167 184.663 54.05 185.296 53.75C185.963 53.4167 186.663 53.15 187.396 52.95C188.163 52.7167 188.946 52.55 189.746 52.45C190.579 52.35 191.429 52.3 192.296 52.3C194.096 52.3 195.796 52.5 197.396 52.9C199.029 53.2667 200.429 53.8 201.596 54.5L202.796 62.15H202.296C201.029 60.8167 199.663 59.75 198.196 58.95C196.763 58.1167 195.246 57.7 193.646 57.7C192.513 57.7 191.579 57.95 190.846 58.45C190.146 58.95 189.796 59.75 189.796 60.85C189.796 61.75 190.096 62.5833 190.696 63.35C191.296 64.0833 192.279 64.8833 193.646 65.75L198.696 69C200.596 70.2333 202.129 71.6 203.296 73.1C204.463 74.6 205.046 76.5167 205.046 78.85C205.046 79.5833 204.963 80.3 204.796 81C204.663 81.6667 204.446 82.3333 204.146 83C203.879 83.6333 203.529 84.2333 203.096 84.8C202.663 85.3333 202.163 85.85 201.596 86.35C201.029 86.8167 200.379 87.25 199.646 87.65C198.946 88.0167 198.163 88.3333 197.296 88.6C196.463 88.8667 195.546 89.0667 194.546 89.2C193.579 89.3667 192.529 89.45 191.396 89.45C189.229 89.45 187.163 89.1667 185.196 88.6C183.229 88.0333 181.579 87.1833 180.246 86.05L179.296 77.8ZM205.361 77.8H205.861C207.361 79.5 208.944 80.9667 210.611 82.2C212.311 83.4 214.211 84 216.311 84C217.844 84 219.027 83.6667 219.861 83C220.694 82.3 221.111 81.3333 221.111 80.1C221.111 78.8667 220.761 77.9 220.061 77.2C219.361 76.5 218.427 75.7833 217.261 75.05L211.961 71.85C210.061 70.7167 208.594 69.3333 207.561 67.7C206.561 66.0667 206.061 64.15 206.061 61.95C206.061 61.1833 206.144 60.4667 206.311 59.8C206.477 59.1 206.711 58.45 207.011 57.85C207.311 57.25 207.677 56.7 208.111 56.2C208.544 55.7 209.027 55.25 209.561 54.85C210.127 54.4167 210.727 54.05 211.361 53.75C212.027 53.4167 212.727 53.15 213.461 52.95C214.227 52.7167 215.011 52.55 215.811 52.45C216.644 52.35 217.494 52.3 218.361 52.3C220.161 52.3 221.861 52.5 223.461 52.9C225.094 53.2667 226.494 53.8 227.661 54.5L228.861 62.15H228.361C227.094 60.8167 225.727 59.75 224.261 58.95C222.827 58.1167 221.311 57.7 219.711 57.7C218.577 57.7 217.644 57.95 216.911 58.45C216.211 58.95 215.861 59.75 215.861 60.85C215.861 61.75 216.161 62.5833 216.761 63.35C217.361 64.0833 218.344 64.8833 219.711 65.75L224.761 69C226.661 70.2333 228.194 71.6 229.361 73.1C230.527 74.6 231.111 76.5167 231.111 78.85C231.111 79.5833 231.027 80.3 230.861 81C230.727 81.6667 230.511 82.3333 230.211 83C229.944 83.6333 229.594 84.2333 229.161 84.8C228.727 85.3333 228.227 85.85 227.661 86.35C227.094 86.8167 226.444 87.25 225.711 87.65C225.011 88.0167 224.227 88.3333 223.361 88.6C222.527 88.8667 221.611 89.0667 220.611 89.2C219.644 89.3667 218.594 89.45 217.461 89.45C215.294 89.45 213.227 89.1667 211.261 88.6C209.294 88.0333 207.644 87.1833 206.311 86.05L205.361 77.8ZM1.08164 111.5L2.48164 102.75H32.5816L33.9316 111.5H33.7316C32.165 110.233 30.565 109.35 28.9316 108.85C27.2983 108.317 25.165 108.05 22.5316 108.05H22.2316V130.95C22.2316 132.65 22.3983 134.15 22.7316 135.45C23.065 136.75 23.665 137.933 24.5316 139H12.7816V108.05H12.4816C9.88164 108.05 7.74831 108.317 6.08164 108.85C4.44831 109.35 2.84831 110.233 1.28164 111.5H1.08164ZM51.8336 102.25C53.2669 102.25 54.6336 102.367 55.9336 102.6C57.2669 102.8 58.5169 103.1 59.6836 103.5C60.8503 103.9 61.9336 104.417 62.9336 105.05C63.9336 105.65 64.8503 106.35 65.6836 107.15C66.5169 107.917 67.2503 108.8 67.8836 109.8C68.5503 110.767 69.1003 111.833 69.5336 113C70.0003 114.133 70.3503 115.367 70.5836 116.7C70.8169 118 70.9336 119.383 70.9336 120.85C70.9336 121.95 70.8503 123 70.6836 124C70.5503 125 70.3336 125.95 70.0336 126.85C69.7669 127.75 69.4336 128.617 69.0336 129.45C68.6336 130.25 68.1669 131.017 67.6336 131.75C67.1336 132.483 66.5836 133.167 65.9836 133.8C65.3836 134.4 64.7336 134.967 64.0336 135.5C63.3669 136.033 62.6503 136.517 61.8836 136.95C61.1503 137.35 60.3836 137.717 59.5836 138.05C58.7836 138.35 57.9669 138.617 57.1336 138.85C56.3336 139.05 55.5003 139.2 54.6336 139.3C53.8003 139.433 52.9503 139.5 52.0836 139.5C50.6503 139.5 49.2836 139.4 47.9836 139.2C46.6836 139 45.4503 138.7 44.2836 138.3C43.1169 137.867 42.0336 137.35 41.0336 136.75C40.0336 136.15 39.1169 135.45 38.2836 134.65C37.4503 133.85 36.7003 132.967 36.0336 132C35.4003 131.033 34.8669 129.983 34.4336 128.85C34.0003 127.683 33.6669 126.433 33.4336 125.1C33.2003 123.767 33.0836 122.367 33.0836 120.9C33.0836 119.8 33.1503 118.75 33.2836 117.75C33.4503 116.75 33.6669 115.8 33.9336 114.9C34.2336 114 34.5836 113.15 34.9836 112.35C35.3836 111.517 35.8336 110.733 36.3336 110C36.8669 109.267 37.4336 108.6 38.0336 108C38.6336 107.367 39.2669 106.783 39.9336 106.25C40.6003 105.717 41.3003 105.25 42.0336 104.85C42.8003 104.417 43.5669 104.05 44.3336 103.75C45.1336 103.417 45.9503 103.15 46.7836 102.95C47.6169 102.717 48.4503 102.55 49.2836 102.45C50.1503 102.317 51.0003 102.25 51.8336 102.25ZM52.6336 134.5C55.1669 134.5 57.2003 133.467 58.7336 131.4C60.2669 129.3 61.0336 126.233 61.0336 122.2C61.0336 117.267 60.1836 113.55 58.4836 111.05C56.8169 108.517 54.4336 107.25 51.3336 107.25C48.8003 107.25 46.7669 108.3 45.2336 110.4C43.7003 112.5 42.9336 115.567 42.9336 119.6C42.9336 124.533 43.7669 128.25 45.4336 130.75C47.1336 133.25 49.5336 134.5 52.6336 134.5ZM93.9352 121.9H105.435V132.9C105.202 133.3 104.918 133.717 104.585 134.15C104.252 134.55 103.852 134.95 103.385 135.35C102.952 135.717 102.452 136.083 101.885 136.45C101.352 136.783 100.768 137.117 100.135 137.45C99.5018 137.75 98.8185 138.033 98.0852 138.3C97.3852 138.533 96.6352 138.75 95.8352 138.95C95.0685 139.117 94.2518 139.25 93.3852 139.35C92.5185 139.45 91.6185 139.5 90.6852 139.5C84.9518 139.5 80.4352 137.917 77.1352 134.75C73.8352 131.55 72.1685 127.2 72.1352 121.7C72.1352 120.433 72.2185 119.25 72.3852 118.15C72.5518 117.017 72.7852 115.967 73.0852 115C73.3852 114 73.7352 113.067 74.1352 112.2C74.5685 111.333 75.0518 110.533 75.5852 109.8C76.1518 109.033 76.7518 108.35 77.3852 107.75C78.0518 107.117 78.7518 106.55 79.4852 106.05C80.2185 105.517 80.9852 105.05 81.7852 104.65C82.5852 104.217 83.4185 103.85 84.2852 103.55C85.1518 103.25 86.0352 103.017 86.9352 102.85C87.8352 102.65 88.7518 102.5 89.6852 102.4C90.6518 102.3 91.6018 102.25 92.5352 102.25C94.7018 102.25 96.7185 102.433 98.5852 102.8C100.485 103.167 102.102 103.65 103.435 104.25L104.735 113.35H104.235C102.835 111.717 101.168 110.483 99.2352 109.65C97.3018 108.783 95.2018 108.35 92.9352 108.35C92.0352 108.35 91.1685 108.433 90.3352 108.6C89.5352 108.767 88.7685 109.017 88.0352 109.35C87.3018 109.65 86.6185 110.05 85.9852 110.55C85.3518 111.05 84.7852 111.633 84.2852 112.3C83.7852 112.933 83.3518 113.667 82.9852 114.5C82.6518 115.333 82.3852 116.25 82.1852 117.25C82.0185 118.217 81.9352 119.283 81.9352 120.45C81.9352 121.45 81.9852 122.417 82.0852 123.35C82.2185 124.25 82.4018 125.133 82.6352 126C82.9018 126.833 83.2185 127.617 83.5852 128.35C83.9518 129.083 84.3852 129.767 84.8852 130.4C85.4185 131.033 86.0018 131.6 86.6352 132.1C87.3018 132.6 88.0352 133.033 88.8352 133.4C89.6685 133.733 90.5685 134 91.5352 134.2C92.5018 134.367 93.5518 134.45 94.6852 134.45C94.9185 134.45 95.1518 134.45 95.3852 134.45C95.6518 134.45 95.9018 134.433 96.1352 134.4V130.05C96.1352 128.283 95.9852 126.75 95.6852 125.45C95.3852 124.15 94.8018 122.967 93.9352 121.9ZM109.236 139V110.8C109.236 109.1 109.07 107.617 108.736 106.35C108.436 105.083 107.82 103.883 106.886 102.75H130.286L131.286 110.6H131.086C129.753 109.667 128.336 109 126.836 108.6C125.37 108.167 123.436 107.95 121.036 107.95H118.686V117.95H129.486V124C128.653 123.433 127.603 123.033 126.336 122.8C125.07 122.533 123.386 122.4 121.286 122.4H118.686V126.65C118.686 128.183 118.736 129.55 118.836 130.75C118.936 131.917 119.12 132.967 119.386 133.9H122.136C124.636 133.9 126.703 133.65 128.336 133.15C130.003 132.65 131.486 131.917 132.786 130.95H132.986L131.986 139H109.236ZM132.195 111.5L133.595 102.75H163.695L165.045 111.5H164.845C163.278 110.233 161.678 109.35 160.045 108.85C158.412 108.317 156.278 108.05 153.645 108.05H153.345V130.95C153.345 132.65 153.512 134.15 153.845 135.45C154.178 136.75 154.778 137.933 155.645 139H143.895V108.05H143.595C140.995 108.05 138.862 108.317 137.195 108.85C135.562 109.35 133.962 110.233 132.395 111.5H132.195ZM165.216 102.75H177.016V118.65H190.916V110.8C190.916 109.1 190.75 107.617 190.416 106.35C190.116 105.083 189.516 103.883 188.616 102.75H200.366V130.95C200.366 132.65 200.516 134.15 200.816 135.45C201.15 136.75 201.766 137.933 202.666 139H190.916V123.6H177.016V130.95C177.016 132.65 177.166 134.15 177.466 135.45C177.8 136.75 178.416 137.933 179.316 139H167.566V110.8C167.566 109.1 167.4 107.617 167.066 106.35C166.766 105.083 166.15 103.883 165.216 102.75ZM205.74 139V110.8C205.74 109.1 205.574 107.617 205.24 106.35C204.94 105.083 204.324 103.883 203.39 102.75H226.79L227.79 110.6H227.59C226.257 109.667 224.84 109 223.34 108.6C221.874 108.167 219.94 107.95 217.54 107.95H215.19V117.95H225.99V124C225.157 123.433 224.107 123.033 222.84 122.8C221.574 122.533 219.89 122.4 217.79 122.4H215.19V126.65C215.19 128.183 215.24 129.55 215.34 130.75C215.44 131.917 215.624 132.967 215.89 133.9H218.64C221.14 133.9 223.207 133.65 224.84 133.15C226.507 132.65 227.99 131.917 229.29 130.95H229.49L228.49 139H205.74ZM229.943 102.75H245.843C246.276 102.75 246.71 102.767 247.143 102.8C247.61 102.8 248.093 102.817 248.593 102.85C249.093 102.883 249.593 102.933 250.093 103C250.626 103.067 251.16 103.15 251.693 103.25C252.226 103.35 252.743 103.483 253.243 103.65C253.743 103.783 254.226 103.95 254.693 104.15C255.193 104.35 255.66 104.583 256.093 104.85C256.526 105.117 256.926 105.417 257.293 105.75C257.693 106.083 258.043 106.467 258.343 106.9C258.676 107.3 258.943 107.75 259.143 108.25C259.376 108.75 259.543 109.3 259.643 109.9C259.776 110.5 259.843 111.15 259.843 111.85C259.843 114.15 259.093 116.133 257.593 117.8C256.093 119.467 253.843 120.667 250.843 121.4C252.51 121.8 253.76 122.467 254.593 123.4C255.46 124.3 256.21 125.383 256.843 126.65L260.143 132.85C260.876 134.283 261.526 135.417 262.093 136.25C262.66 137.083 263.36 137.933 264.193 138.8V139H252.793L246.093 125.7C245.593 124.667 245.06 123.933 244.493 123.5C243.96 123.067 243.093 122.85 241.893 122.85V130.95C241.893 132.65 242.043 134.15 242.343 135.45C242.676 136.75 243.276 137.933 244.143 139H232.293V110.8C232.293 109.1 232.126 107.617 231.793 106.35C231.493 105.083 230.876 103.883 229.943 102.75ZM242.443 106.8H241.893V119.1H243.193C245.326 119.1 247.043 118.65 248.343 117.75C249.643 116.85 250.293 115.183 250.293 112.75C250.293 112.217 250.243 111.733 250.143 111.3C250.076 110.833 249.96 110.417 249.793 110.05C249.66 109.683 249.476 109.367 249.243 109.1C249.043 108.8 248.81 108.533 248.543 108.3C248.276 108.067 247.976 107.883 247.643 107.75C247.343 107.583 247.026 107.45 246.693 107.35C246.36 107.217 246.01 107.117 245.643 107.05C245.31 106.983 244.96 106.933 244.593 106.9C244.226 106.867 243.86 106.85 243.493 106.85C243.126 106.817 242.776 106.8 242.443 106.8ZM65.5494 152.25C66.9827 152.25 68.3494 152.367 69.6494 152.6C70.9827 152.8 72.2327 153.1 73.3994 153.5C74.5661 153.9 75.6494 154.417 76.6494 155.05C77.6494 155.65 78.5661 156.35 79.3994 157.15C80.2327 157.917 80.9661 158.8 81.5994 159.8C82.2661 160.767 82.8161 161.833 83.2494 163C83.7161 164.133 84.0661 165.367 84.2994 166.7C84.5327 168 84.6494 169.383 84.6494 170.85C84.6494 171.95 84.5661 173 84.3994 174C84.2661 175 84.0494 175.95 83.7494 176.85C83.4827 177.75 83.1494 178.617 82.7494 179.45C82.3494 180.25 81.8828 181.017 81.3494 181.75C80.8494 182.483 80.2994 183.167 79.6994 183.8C79.0994 184.4 78.4494 184.967 77.7494 185.5C77.0827 186.033 76.3661 186.517 75.5994 186.95C74.8661 187.35 74.0994 187.717 73.2994 188.05C72.4994 188.35 71.6827 188.617 70.8494 188.85C70.0494 189.05 69.2161 189.2 68.3494 189.3C67.5161 189.433 66.6661 189.5 65.7994 189.5C64.3661 189.5 62.9994 189.4 61.6994 189.2C60.3994 189 59.1661 188.7 57.9994 188.3C56.8327 187.867 55.7494 187.35 54.7494 186.75C53.7494 186.15 52.8327 185.45 51.9994 184.65C51.1661 183.85 50.4161 182.967 49.7494 182C49.1161 181.033 48.5827 179.983 48.1494 178.85C47.7161 177.683 47.3827 176.433 47.1494 175.1C46.9161 173.767 46.7994 172.367 46.7994 170.9C46.7994 169.8 46.8661 168.75 46.9994 167.75C47.1661 166.75 47.3827 165.8 47.6494 164.9C47.9494 164 48.2994 163.15 48.6994 162.35C49.0994 161.517 49.5494 160.733 50.0494 160C50.5827 159.267 51.1494 158.6 51.7494 158C52.3494 157.367 52.9827 156.783 53.6494 156.25C54.3161 155.717 55.0161 155.25 55.7494 154.85C56.5161 154.417 57.2827 154.05 58.0494 153.75C58.8494 153.417 59.6661 153.15 60.4994 152.95C61.3327 152.717 62.1661 152.55 62.9994 152.45C63.8661 152.317 64.7161 152.25 65.5494 152.25ZM66.3494 184.5C68.8827 184.5 70.9161 183.467 72.4494 181.4C73.9827 179.3 74.7494 176.233 74.7494 172.2C74.7494 167.267 73.8994 163.55 72.1994 161.05C70.5327 158.517 68.1494 157.25 65.0494 157.25C62.5161 157.25 60.4827 158.3 58.9494 160.4C57.4161 162.5 56.6494 165.567 56.6494 169.6C56.6494 174.533 57.4827 178.25 59.1494 180.75C60.8494 183.25 63.2494 184.5 66.3494 184.5ZM95.001 189H87.601V156.5C87.1676 155.967 86.701 155.433 86.201 154.9C85.7343 154.367 85.251 153.833 84.751 153.3V152.75H96.301L113.151 173.45V161.5C113.151 159.467 112.968 157.767 112.601 156.4C112.234 155 111.618 153.783 110.751 152.75H118.451V189H114.151L92.901 162.95V180.25C92.901 182.283 93.0676 184 93.401 185.4C93.7343 186.767 94.2676 187.967 95.001 189ZM123.392 189V160.8C123.392 159.1 123.225 157.617 122.892 156.35C122.592 155.083 121.975 153.883 121.042 152.75H132.842V176.65C132.842 178.117 132.892 179.433 132.992 180.6C133.092 181.733 133.258 182.767 133.492 183.7H136.342C138.842 183.7 141.058 183.433 142.992 182.9C144.958 182.333 146.608 181.533 147.942 180.5H148.142L147.092 189H123.392ZM148.522 152.75H160.322V180.95C160.322 182.65 160.472 184.15 160.772 185.45C161.105 186.75 161.722 187.933 162.622 189H150.872V160.8C150.872 159.1 150.705 157.617 150.372 156.35C150.072 155.083 149.455 153.883 148.522 152.75ZM172.657 189H165.257V156.5C164.824 155.967 164.357 155.433 163.857 154.9C163.391 154.367 162.907 153.833 162.407 153.3V152.75H173.957L190.807 173.45V161.5C190.807 159.467 190.624 157.767 190.257 156.4C189.891 155 189.274 153.783 188.407 152.75H196.107V189H191.807L170.557 162.95V180.25C170.557 182.283 170.724 184 171.057 185.4C171.391 186.767 171.924 187.967 172.657 189ZM201.048 189V160.8C201.048 159.1 200.881 157.617 200.548 156.35C200.248 155.083 199.631 153.883 198.698 152.75H222.098L223.098 160.6H222.898C221.565 159.667 220.148 159 218.648 158.6C217.181 158.167 215.248 157.95 212.848 157.95H210.498V167.95H221.298V174C220.465 173.433 219.415 173.033 218.148 172.8C216.881 172.533 215.198 172.4 213.098 172.4H210.498V176.65C210.498 178.183 210.548 179.55 210.648 180.75C210.748 181.917 210.931 182.967 211.198 183.9H213.948C216.448 183.9 218.515 183.65 220.148 183.15C221.815 182.65 223.298 181.917 224.598 180.95H224.798L223.798 189H201.048ZM36.9852 239C37.4518 238.167 37.8518 237.383 38.1852 236.65C38.5185 235.883 38.8018 235.2 39.0352 234.6L48.8352 207.85C49.0685 207.283 49.2518 206.7 49.3852 206.1C49.5185 205.5 49.5852 204.917 49.5852 204.35C49.5852 204.083 49.5685 203.817 49.5352 203.55C49.5018 203.25 49.4352 202.983 49.3352 202.75H59.8352L68.3352 229.3C68.8685 230.967 69.5018 232.667 70.2352 234.4C70.9685 236.133 71.8352 237.567 72.8352 238.7V239H61.4852C61.3518 238.433 61.1685 237.733 60.9352 236.9C60.7018 236.067 60.4685 235.267 60.2352 234.5L58.4852 229.1H46.4852L45.7852 231C45.5185 231.8 45.2852 232.583 45.0852 233.35C44.8852 234.117 44.7852 234.85 44.7852 235.55C44.7852 236.183 44.8852 236.8 45.0852 237.4C45.2852 238 45.5518 238.533 45.8852 239H36.9852ZM48.0852 224.65H57.0852L52.8852 211.55L48.0852 224.65ZM81.168 239H73.768V206.5C73.3346 205.967 72.868 205.433 72.368 204.9C71.9013 204.367 71.418 203.833 70.918 203.3V202.75H82.468L99.318 223.45V211.5C99.318 209.467 99.1346 207.767 98.768 206.4C98.4013 205 97.7846 203.783 96.918 202.75H104.618V239H100.318L79.068 212.95V230.25C79.068 232.283 79.2346 234 79.568 235.4C79.9013 236.767 80.4346 237.967 81.168 239ZM107.059 202.75H122.909C124.475 202.75 125.975 202.833 127.409 203C128.842 203.167 130.192 203.417 131.459 203.75C132.725 204.083 133.892 204.517 134.959 205.05C136.059 205.55 137.059 206.15 137.959 206.85C138.892 207.55 139.692 208.35 140.359 209.25C141.059 210.117 141.642 211.083 142.109 212.15C142.609 213.217 142.975 214.383 143.209 215.65C143.475 216.917 143.609 218.283 143.609 219.75C143.609 221.117 143.492 222.433 143.259 223.7C143.059 224.933 142.742 226.1 142.309 227.2C141.875 228.3 141.342 229.333 140.709 230.3C140.109 231.233 139.409 232.1 138.609 232.9C137.842 233.7 136.992 234.433 136.059 235.1C135.125 235.733 134.109 236.3 133.009 236.8C131.942 237.267 130.792 237.667 129.559 238C128.359 238.333 127.092 238.583 125.759 238.75C124.459 238.917 123.092 239 121.659 239H109.359V210.8C109.359 209.1 109.192 207.617 108.859 206.35C108.559 205.083 107.959 203.883 107.059 202.75ZM118.859 226.65C118.859 228.283 118.909 229.733 119.009 231C119.142 232.233 119.392 233.367 119.759 234.4H121.459C122.592 234.4 123.625 234.317 124.559 234.15C125.492 233.983 126.359 233.733 127.159 233.4C127.959 233.067 128.659 232.667 129.259 232.2C129.892 231.733 130.459 231.217 130.959 230.65C131.459 230.05 131.875 229.4 132.209 228.7C132.575 228 132.875 227.25 133.109 226.45C133.342 225.65 133.509 224.817 133.609 223.95C133.709 223.083 133.759 222.183 133.759 221.25C133.759 216.417 132.692 212.9 130.559 210.7C128.459 208.5 125.442 207.4 121.509 207.4H118.859V226.65ZM151.574 202.75H163.374V230.95C163.374 232.65 163.524 234.15 163.824 235.45C164.157 236.75 164.774 237.933 165.674 239H153.924V210.8C153.924 209.1 153.757 207.617 153.424 206.35C153.124 205.083 152.507 203.883 151.574 202.75ZM166.359 202.75H182.259C182.692 202.75 183.126 202.767 183.559 202.8C184.026 202.8 184.509 202.817 185.009 202.85C185.509 202.883 186.009 202.933 186.509 203C187.042 203.067 187.576 203.15 188.109 203.25C188.642 203.35 189.159 203.483 189.659 203.65C190.159 203.783 190.642 203.95 191.109 204.15C191.609 204.35 192.076 204.583 192.509 204.85C192.942 205.117 193.342 205.417 193.709 205.75C194.109 206.083 194.459 206.467 194.759 206.9C195.092 207.3 195.359 207.75 195.559 208.25C195.792 208.75 195.959 209.3 196.059 209.9C196.192 210.5 196.259 211.15 196.259 211.85C196.259 214.15 195.509 216.133 194.009 217.8C192.509 219.467 190.259 220.667 187.259 221.4C188.926 221.8 190.176 222.467 191.009 223.4C191.876 224.3 192.626 225.383 193.259 226.65L196.559 232.85C197.292 234.283 197.942 235.417 198.509 236.25C199.076 237.083 199.776 237.933 200.609 238.8V239H189.209L182.509 225.7C182.009 224.667 181.476 223.933 180.909 223.5C180.376 223.067 179.509 222.85 178.309 222.85V230.95C178.309 232.65 178.459 234.15 178.759 235.45C179.092 236.75 179.692 237.933 180.559 239H168.709V210.8C168.709 209.1 168.542 207.617 168.209 206.35C167.909 205.083 167.292 203.883 166.359 202.75ZM178.859 206.8H178.309V219.1H179.609C181.742 219.1 183.459 218.65 184.759 217.75C186.059 216.85 186.709 215.183 186.709 212.75C186.709 212.217 186.659 211.733 186.559 211.3C186.492 210.833 186.376 210.417 186.209 210.05C186.076 209.683 185.892 209.367 185.659 209.1C185.459 208.8 185.226 208.533 184.959 208.3C184.692 208.067 184.392 207.883 184.059 207.75C183.759 207.583 183.442 207.45 183.109 207.35C182.776 207.217 182.426 207.117 182.059 207.05C181.726 206.983 181.376 206.933 181.009 206.9C180.642 206.867 180.276 206.85 179.909 206.85C179.542 206.817 179.192 206.8 178.859 206.8ZM201.561 239V210.8C201.561 209.1 201.394 207.617 201.061 206.35C200.761 205.083 200.144 203.883 199.211 202.75H211.011V226.65C211.011 228.117 211.061 229.433 211.161 230.6C211.261 231.733 211.427 232.767 211.661 233.7H214.511C217.011 233.7 219.227 233.433 221.161 232.9C223.127 232.333 224.777 231.533 226.111 230.5H226.311L225.261 239H201.561Z" fill="#BCBA70"/>
</svg>
