<svg width="453" height="237" viewBox="0 0 453 237" fill="none" xmlns="http://www.w3.org/2000/svg">
<path d="M3.02 0.499999H27.56L28.28 6.26H28.1C26.74 5.18 25.24 4.5 23.6 4.22C21.96 3.94 19.64 3.8 16.64 3.8H9.62V19.76H24.8V24.68C23.88 24.04 22.76 23.58 21.44 23.3C20.16 23.02 18.34 22.88 15.98 22.88H9.62V34.1C9.62 36.14 9.74 38 9.98 39.68C10.22 41.32 10.84 42.76 11.84 44H4.82V10.4C4.82 8.32 4.72 6.46 4.52 4.82C4.32 3.18 3.82 1.74 3.02 0.499999ZM34.4263 0.499999H44.8663C45.3463 0.499999 45.8463 0.519998 46.3663 0.559998C46.8863 0.559998 47.4063 0.579998 47.9263 0.619997C48.4863 0.659997 49.0463 0.719997 49.6063 0.799998C50.2063 0.839998 50.7863 0.919998 51.3463 1.04C51.9463 1.16 52.5263 1.3 53.0863 1.46C53.6463 1.62 54.1863 1.82 54.7063 2.06C55.2663 2.3 55.7863 2.58 56.2663 2.9C56.7463 3.18 57.1863 3.52 57.5863 3.92C58.0263 4.28 58.4063 4.7 58.7263 5.18C59.0863 5.66 59.3863 6.2 59.6263 6.8C59.8663 7.4 60.0463 8.04 60.1663 8.72C60.3263 9.4 60.4062 10.16 60.4062 11C60.4062 13.76 59.5863 16.12 57.9463 18.08C56.3463 20.04 53.9863 21.4 50.8663 22.16C52.2263 22.64 53.2263 23.34 53.8663 24.26C54.5063 25.14 55.1263 26.14 55.7263 27.26L60.7062 36.38C61.5863 38.02 62.4463 39.42 63.2863 40.58C64.1263 41.7 65.0463 42.78 66.0463 43.82V44H59.3263L49.8463 26.54C49.1663 25.26 48.4263 24.34 47.6263 23.78C46.8663 23.22 45.5663 22.94 43.7263 22.94H41.1463V34.1C41.1463 36.18 41.2463 38.06 41.4463 39.74C41.6863 41.38 42.1863 42.8 42.9463 44H36.2263V10.4C36.2263 8.32 36.1263 6.46 35.9263 4.82C35.7263 3.18 35.2263 1.74 34.4263 0.499999ZM43.8463 3.68H41.1463V19.88H44.6263C47.8663 19.88 50.4663 19.28 52.4263 18.08C54.4263 16.84 55.4263 14.66 55.4263 11.54C55.4263 10.82 55.3663 10.18 55.2463 9.62C55.1263 9.02 54.9463 8.48 54.7063 8C54.4663 7.52 54.1863 7.1 53.8663 6.74C53.5463 6.34 53.1863 6 52.7863 5.72C52.4263 5.4 52.0063 5.14 51.5263 4.94C51.0863 4.74 50.6063 4.56 50.0863 4.4C49.6063 4.24 49.1063 4.12 48.5863 4.04C48.0663 3.92 47.5263 3.84 46.9663 3.8C46.4463 3.76 45.9263 3.74 45.4062 3.74C44.8863 3.7 44.3663 3.68 43.8463 3.68ZM88.145 0.0199976C89.465 0.0199976 90.725 0.119998 91.925 0.319997C93.165 0.519997 94.345 0.819997 95.465 1.22C96.625 1.62 97.705 2.12 98.705 2.72C99.745 3.28 100.725 3.96 101.645 4.76C102.565 5.52 103.385 6.38 104.105 7.34C104.865 8.26 105.545 9.28 106.145 10.4C106.745 11.52 107.245 12.72 107.645 14C108.085 15.24 108.405 16.58 108.605 18.02C108.845 19.46 108.965 20.96 108.965 22.52C108.965 23.96 108.865 25.34 108.665 26.66C108.465 27.94 108.185 29.16 107.825 30.32C107.465 31.48 107.025 32.58 106.505 33.62C105.985 34.62 105.405 35.56 104.765 36.44C104.125 37.32 103.425 38.14 102.665 38.9C101.905 39.62 101.085 40.28 100.205 40.88C99.365 41.48 98.485 42 97.565 42.44C96.645 42.88 95.705 43.26 94.745 43.58C93.785 43.86 92.785 44.08 91.745 44.24C90.745 44.4 89.745 44.48 88.745 44.48C87.465 44.48 86.205 44.38 84.965 44.18C83.725 43.98 82.525 43.68 81.365 43.28C80.245 42.88 79.165 42.4 78.125 41.84C77.085 41.24 76.105 40.56 75.185 39.8C74.305 39.04 73.485 38.2 72.725 37.28C71.965 36.32 71.285 35.28 70.685 34.16C70.085 33.04 69.565 31.86 69.125 30.62C68.725 29.34 68.405 27.98 68.165 26.54C67.965 25.1 67.865 23.6 67.865 22.04C67.865 20.6 67.965 19.24 68.165 17.96C68.365 16.64 68.645 15.4 69.005 14.24C69.365 13.08 69.805 11.98 70.325 10.94C70.845 9.9 71.425 8.94 72.065 8.06C72.705 7.18 73.405 6.38 74.165 5.66C74.925 4.9 75.725 4.22 76.565 3.62C77.445 3.02 78.345 2.5 79.265 2.06C80.185 1.62 81.125 1.26 82.085 0.98C83.085 0.659999 84.085 0.419998 85.085 0.259998C86.125 0.0999978 87.145 0.0199976 88.145 0.0199976ZM89.225 41.06C90.305 41.06 91.345 40.96 92.345 40.76C93.345 40.56 94.285 40.26 95.165 39.86C96.085 39.42 96.925 38.92 97.685 38.36C98.485 37.76 99.205 37.1 99.845 36.38C100.525 35.62 101.105 34.78 101.585 33.86C102.105 32.94 102.545 31.96 102.905 30.92C103.265 29.88 103.525 28.78 103.685 27.62C103.885 26.42 103.985 25.18 103.985 23.9C103.985 22.1 103.865 20.42 103.625 18.86C103.385 17.26 103.025 15.78 102.545 14.42C102.065 13.02 101.465 11.76 100.745 10.64C100.065 9.48 99.265 8.46 98.345 7.58C97.465 6.7 96.465 5.96 95.345 5.36C94.265 4.72 93.065 4.24 91.745 3.92C90.465 3.6 89.085 3.44 87.605 3.44C86.525 3.44 85.485 3.56 84.485 3.8C83.485 4 82.525 4.3 81.605 4.7C80.725 5.1 79.885 5.6 79.085 6.2C78.325 6.76 77.605 7.42 76.925 8.18C76.285 8.94 75.705 9.78 75.185 10.7C74.705 11.58 74.285 12.56 73.925 13.64C73.565 14.68 73.285 15.8 73.085 17C72.925 18.16 72.845 19.38 72.845 20.66C72.845 22.46 72.965 24.16 73.205 25.76C73.445 27.32 73.805 28.8 74.285 30.2C74.765 31.56 75.345 32.82 76.025 33.98C76.745 35.1 77.545 36.1 78.425 36.98C79.345 37.86 80.365 38.6 81.485 39.2C82.605 39.8 83.805 40.26 85.085 40.58C86.365 40.9 87.745 41.06 89.225 41.06ZM121.156 44H115.696L118.516 5.84C118.596 4.52 118.576 3.46 118.456 2.66C118.376 1.86 118.256 1.14 118.096 0.499999H122.536L136.876 35.12L149.776 5.66C150.056 4.98 150.336 4.16 150.616 3.2C150.896 2.24 151.036 1.34 151.036 0.499999H155.176L157.456 34.82C157.576 36.78 157.736 38.5 157.936 39.98C158.136 41.42 158.576 42.76 159.256 44H153.256L151.096 11L136.516 44H135.496L121.696 10.7L119.836 34.82C119.716 36.66 119.716 38.34 119.836 39.86C119.996 41.34 120.436 42.72 121.156 44ZM180.133 44V10.4C180.133 8.32 180.033 6.46 179.833 4.82C179.633 3.18 179.133 1.74 178.333 0.499999H184.933V32.9C184.933 34.54 184.993 36 185.113 37.28C185.233 38.56 185.493 39.7 185.893 40.7H192.433C195.433 40.7 197.933 40.48 199.933 40.04C201.973 39.56 203.673 38.76 205.033 37.64H205.273L204.493 44H180.133ZM211.497 0.499999H218.097V34.1C218.097 36.18 218.197 38.06 218.397 39.74C218.637 41.38 219.137 42.8 219.897 44H213.297V10.4C213.297 8.32 213.197 6.46 212.997 4.82C212.797 3.18 212.297 1.74 211.497 0.499999ZM267.441 43.76L268.161 50.18H267.921C266.561 49.42 265.001 48.78 263.241 48.26C261.521 47.74 259.601 47.28 257.481 46.88L245.241 44.3C245.001 44.26 244.761 44.22 244.521 44.18C244.281 44.14 244.041 44.1 243.801 44.06C242.601 43.82 241.441 43.5 240.321 43.1C239.201 42.7 238.141 42.2 237.141 41.6C236.141 41 235.201 40.32 234.321 39.56C233.441 38.8 232.621 37.96 231.861 37.04C231.141 36.08 230.481 35.06 229.881 33.98C229.321 32.86 228.841 31.68 228.441 30.44C228.041 29.2 227.721 27.88 227.481 26.48C227.281 25.08 227.181 23.6 227.181 22.04C227.181 20.6 227.281 19.24 227.481 17.96C227.681 16.64 227.961 15.4 228.321 14.24C228.681 13.08 229.121 11.98 229.641 10.94C230.161 9.9 230.741 8.94 231.381 8.06C232.021 7.18 232.721 6.38 233.481 5.66C234.241 4.9 235.041 4.22 235.881 3.62C236.761 3.02 237.661 2.5 238.581 2.06C239.501 1.62 240.441 1.26 241.401 0.98C242.401 0.659999 243.401 0.419998 244.401 0.259998C245.441 0.0999978 246.461 0.0199976 247.461 0.0199976C248.781 0.0199976 250.041 0.119998 251.241 0.319997C252.481 0.519997 253.661 0.819997 254.781 1.22C255.941 1.62 257.021 2.12 258.021 2.72C259.061 3.28 260.041 3.96 260.961 4.76C261.881 5.52 262.701 6.38 263.421 7.34C264.181 8.26 264.861 9.28 265.461 10.4C266.061 11.52 266.561 12.72 266.961 14C267.401 15.24 267.721 16.58 267.921 18.02C268.161 19.46 268.281 20.96 268.281 22.52C268.281 24 268.181 25.42 267.981 26.78C267.781 28.1 267.481 29.36 267.081 30.56C266.681 31.72 266.201 32.82 265.641 33.86C265.121 34.9 264.501 35.88 263.781 36.8C263.101 37.68 262.361 38.5 261.561 39.26C260.761 39.98 259.921 40.64 259.041 41.24C258.161 41.8 257.221 42.3 256.221 42.74C255.261 43.14 254.281 43.48 253.281 43.76H267.441ZM248.541 41.06C249.621 41.06 250.661 40.96 251.661 40.76C252.661 40.52 253.601 40.2 254.481 39.8C255.401 39.4 256.241 38.92 257.001 38.36C257.801 37.76 258.521 37.08 259.161 36.32C259.841 35.56 260.421 34.74 260.901 33.86C261.421 32.94 261.861 31.96 262.221 30.92C262.581 29.88 262.841 28.78 263.001 27.62C263.201 26.42 263.301 25.18 263.301 23.9C263.301 22.1 263.181 20.42 262.941 18.86C262.701 17.26 262.341 15.78 261.861 14.42C261.381 13.02 260.781 11.76 260.061 10.64C259.381 9.48 258.581 8.46 257.661 7.58C256.781 6.7 255.781 5.96 254.661 5.36C253.581 4.72 252.381 4.24 251.061 3.92C249.781 3.6 248.401 3.44 246.921 3.44C245.841 3.44 244.801 3.56 243.801 3.8C242.801 4 241.841 4.3 240.921 4.7C240.041 5.1 239.201 5.6 238.401 6.2C237.641 6.76 236.941 7.42 236.301 8.18C235.661 8.94 235.081 9.78 234.561 10.7C234.041 11.58 233.601 12.56 233.241 13.64C232.881 14.68 232.601 15.8 232.401 17C232.241 18.16 232.161 19.38 232.161 20.66C232.161 22.46 232.281 24.16 232.521 25.76C232.761 27.32 233.121 28.8 233.601 30.2C234.081 31.56 234.661 32.82 235.341 33.98C236.061 35.1 236.861 36.1 237.741 36.98C238.661 37.86 239.681 38.6 240.801 39.2C241.921 39.8 243.121 40.26 244.401 40.58C245.681 40.9 247.061 41.06 248.541 41.06ZM275.3 0.499999H281.9V25.76C281.9 30.8 282.92 34.62 284.96 37.22C287.04 39.78 290.28 41.06 294.68 41.06C298.44 41.02 301.34 39.82 303.38 37.46C305.42 35.06 306.44 31.9 306.44 27.98V10.76C306.44 8.48 306.32 6.5 306.08 4.82C305.84 3.14 305.34 1.7 304.58 0.499999H310.34C310.22 2.1 310.14 3.52 310.1 4.76C310.1 6 310.1 7.4 310.1 8.96V26.66C310.1 28.42 309.96 30.06 309.68 31.58C309.44 33.06 309.06 34.4 308.54 35.6C308.06 36.8 307.46 37.88 306.74 38.84C306.02 39.8 305.2 40.64 304.28 41.36C303.4 42.08 302.4 42.68 301.28 43.16C300.2 43.6 299.04 43.92 297.8 44.12C296.56 44.36 295.24 44.48 293.84 44.48C288.44 44.48 284.3 42.98 281.42 39.98C278.54 36.98 277.1 32.56 277.1 26.72V10.4C277.1 8.32 276.98 6.46 276.74 4.82C276.54 3.18 276.06 1.74 275.3 0.499999ZM337.754 0.0199976C339.074 0.0199976 340.334 0.119998 341.534 0.319997C342.774 0.519997 343.954 0.819997 345.074 1.22C346.234 1.62 347.314 2.12 348.314 2.72C349.354 3.28 350.334 3.96 351.254 4.76C352.174 5.52 352.994 6.38 353.714 7.34C354.474 8.26 355.154 9.28 355.754 10.4C356.354 11.52 356.854 12.72 357.254 14C357.694 15.24 358.014 16.58 358.214 18.02C358.454 19.46 358.574 20.96 358.574 22.52C358.574 23.96 358.474 25.34 358.274 26.66C358.074 27.94 357.794 29.16 357.434 30.32C357.074 31.48 356.634 32.58 356.114 33.62C355.594 34.62 355.014 35.56 354.374 36.44C353.734 37.32 353.034 38.14 352.274 38.9C351.514 39.62 350.694 40.28 349.814 40.88C348.974 41.48 348.094 42 347.174 42.44C346.254 42.88 345.314 43.26 344.354 43.58C343.394 43.86 342.394 44.08 341.354 44.24C340.354 44.4 339.354 44.48 338.354 44.48C337.074 44.48 335.814 44.38 334.574 44.18C333.334 43.98 332.134 43.68 330.974 43.28C329.854 42.88 328.774 42.4 327.734 41.84C326.694 41.24 325.714 40.56 324.794 39.8C323.914 39.04 323.094 38.2 322.334 37.28C321.574 36.32 320.894 35.28 320.294 34.16C319.694 33.04 319.174 31.86 318.734 30.62C318.334 29.34 318.014 27.98 317.774 26.54C317.574 25.1 317.474 23.6 317.474 22.04C317.474 20.6 317.574 19.24 317.774 17.96C317.974 16.64 318.254 15.4 318.614 14.24C318.974 13.08 319.414 11.98 319.934 10.94C320.454 9.9 321.034 8.94 321.674 8.06C322.314 7.18 323.014 6.38 323.774 5.66C324.534 4.9 325.334 4.22 326.174 3.62C327.054 3.02 327.954 2.5 328.874 2.06C329.794 1.62 330.734 1.26 331.694 0.98C332.694 0.659999 333.694 0.419998 334.694 0.259998C335.734 0.0999978 336.754 0.0199976 337.754 0.0199976ZM338.834 41.06C339.914 41.06 340.954 40.96 341.954 40.76C342.954 40.56 343.894 40.26 344.774 39.86C345.694 39.42 346.534 38.92 347.294 38.36C348.094 37.76 348.814 37.1 349.454 36.38C350.134 35.62 350.714 34.78 351.194 33.86C351.714 32.94 352.154 31.96 352.514 30.92C352.874 29.88 353.134 28.78 353.294 27.62C353.494 26.42 353.594 25.18 353.594 23.9C353.594 22.1 353.474 20.42 353.234 18.86C352.994 17.26 352.634 15.78 352.154 14.42C351.674 13.02 351.074 11.76 350.354 10.64C349.674 9.48 348.874 8.46 347.954 7.58C347.074 6.7 346.074 5.96 344.954 5.36C343.874 4.72 342.674 4.24 341.354 3.92C340.074 3.6 338.694 3.44 337.214 3.44C336.134 3.44 335.094 3.56 334.094 3.8C333.094 4 332.134 4.3 331.214 4.7C330.334 5.1 329.494 5.6 328.694 6.2C327.934 6.76 327.214 7.42 326.534 8.18C325.894 8.94 325.314 9.78 324.794 10.7C324.314 11.58 323.894 12.56 323.534 13.64C323.174 14.68 322.894 15.8 322.694 17C322.534 18.16 322.454 19.38 322.454 20.66C322.454 22.46 322.574 24.16 322.814 25.76C323.054 27.32 323.414 28.8 323.894 30.2C324.374 31.56 324.954 32.82 325.634 33.98C326.354 35.1 327.154 36.1 328.034 36.98C328.954 37.86 329.974 38.6 331.094 39.2C332.214 39.8 333.414 40.26 334.694 40.58C335.974 40.9 337.354 41.06 338.834 41.06ZM365.891 0.499999H376.331C376.811 0.499999 377.311 0.519998 377.831 0.559998C378.351 0.559998 378.871 0.579998 379.391 0.619997C379.951 0.659997 380.511 0.719997 381.071 0.799998C381.671 0.839998 382.251 0.919998 382.811 1.04C383.411 1.16 383.991 1.3 384.551 1.46C385.111 1.62 385.651 1.82 386.171 2.06C386.731 2.3 387.251 2.58 387.731 2.9C388.211 3.18 388.651 3.52 389.051 3.92C389.491 4.28 389.871 4.7 390.191 5.18C390.551 5.66 390.851 6.2 391.091 6.8C391.331 7.4 391.511 8.04 391.631 8.72C391.791 9.4 391.871 10.16 391.871 11C391.871 13.76 391.051 16.12 389.411 18.08C387.811 20.04 385.451 21.4 382.331 22.16C383.691 22.64 384.691 23.34 385.331 24.26C385.971 25.14 386.591 26.14 387.191 27.26L392.171 36.38C393.051 38.02 393.911 39.42 394.751 40.58C395.591 41.7 396.511 42.78 397.511 43.82V44H390.791L381.311 26.54C380.631 25.26 379.891 24.34 379.091 23.78C378.331 23.22 377.031 22.94 375.191 22.94H372.611V34.1C372.611 36.18 372.711 38.06 372.911 39.74C373.151 41.38 373.651 42.8 374.411 44H367.691V10.4C367.691 8.32 367.591 6.46 367.391 4.82C367.191 3.18 366.691 1.74 365.891 0.499999ZM375.311 3.68H372.611V19.88H376.091C379.331 19.88 381.931 19.28 383.891 18.08C385.891 16.84 386.891 14.66 386.891 11.54C386.891 10.82 386.831 10.18 386.711 9.62C386.591 9.02 386.411 8.48 386.171 8C385.931 7.52 385.651 7.1 385.331 6.74C385.011 6.34 384.651 6 384.251 5.72C383.891 5.4 383.471 5.14 382.991 4.94C382.551 4.74 382.071 4.56 381.551 4.4C381.071 4.24 380.571 4.12 380.051 4.04C379.531 3.92 378.991 3.84 378.431 3.8C377.911 3.76 377.391 3.74 376.871 3.74C376.351 3.7 375.831 3.68 375.311 3.68ZM0.62 70.86L1.4 64.5H33.62L34.46 70.86H34.28C32.68 69.54 30.98 68.7 29.18 68.34C27.42 67.98 25.04 67.8 22.04 67.8H19.88V98.1C19.88 100.18 19.98 102.06 20.18 103.74C20.42 105.38 20.92 106.8 21.68 108H15.14V67.8H13.04C10.04 67.8 7.64 67.98 5.84 68.34C4.08 68.7 2.4 69.54 0.8 70.86H0.62ZM56.8559 64.02C58.1759 64.02 59.4359 64.12 60.6359 64.32C61.8759 64.52 63.0559 64.82 64.1759 65.22C65.3359 65.62 66.4159 66.12 67.4159 66.72C68.4559 67.28 69.4359 67.96 70.3559 68.76C71.2759 69.52 72.0959 70.38 72.8159 71.34C73.5759 72.26 74.2559 73.28 74.8559 74.4C75.4559 75.52 75.9559 76.72 76.3559 78C76.7959 79.24 77.1159 80.58 77.3159 82.02C77.5559 83.46 77.6759 84.96 77.6759 86.52C77.6759 87.96 77.5759 89.34 77.3759 90.66C77.1759 91.94 76.8959 93.16 76.5359 94.32C76.1759 95.48 75.7359 96.58 75.2159 97.62C74.6959 98.62 74.1159 99.56 73.4759 100.44C72.8359 101.32 72.1359 102.14 71.3759 102.9C70.6159 103.62 69.7959 104.28 68.9159 104.88C68.0759 105.48 67.1959 106 66.2759 106.44C65.3559 106.88 64.4159 107.26 63.4559 107.58C62.4959 107.86 61.4959 108.08 60.4559 108.24C59.4559 108.4 58.4559 108.48 57.4559 108.48C56.1759 108.48 54.9159 108.38 53.6759 108.18C52.4359 107.98 51.2359 107.68 50.0759 107.28C48.9559 106.88 47.8759 106.4 46.8359 105.84C45.7959 105.24 44.8159 104.56 43.8959 103.8C43.0159 103.04 42.1959 102.2 41.4359 101.28C40.6759 100.32 39.9959 99.28 39.3959 98.16C38.7959 97.04 38.2759 95.86 37.8359 94.62C37.4359 93.34 37.1159 91.98 36.8759 90.54C36.6759 89.1 36.5759 87.6 36.5759 86.04C36.5759 84.6 36.6759 83.24 36.8759 81.96C37.0759 80.64 37.3559 79.4 37.7159 78.24C38.0759 77.08 38.5159 75.98 39.0359 74.94C39.5559 73.9 40.1359 72.94 40.7759 72.06C41.4159 71.18 42.1159 70.38 42.8759 69.66C43.6359 68.9 44.4359 68.22 45.2759 67.62C46.1559 67.02 47.0559 66.5 47.9759 66.06C48.8959 65.62 49.8359 65.26 50.7959 64.98C51.7959 64.66 52.7959 64.42 53.7959 64.26C54.8359 64.1 55.8559 64.02 56.8559 64.02ZM57.9359 105.06C59.0159 105.06 60.0559 104.96 61.0559 104.76C62.0559 104.56 62.9959 104.26 63.8759 103.86C64.7959 103.42 65.6359 102.92 66.3959 102.36C67.1959 101.76 67.9159 101.1 68.5559 100.38C69.2359 99.62 69.8159 98.78 70.2959 97.86C70.8159 96.94 71.2559 95.96 71.6159 94.92C71.9759 93.88 72.2359 92.78 72.3959 91.62C72.5959 90.42 72.6959 89.18 72.6959 87.9C72.6959 86.1 72.5759 84.42 72.3359 82.86C72.0959 81.26 71.7359 79.78 71.2559 78.42C70.7759 77.02 70.1759 75.76 69.4559 74.64C68.7759 73.48 67.9759 72.46 67.0559 71.58C66.1759 70.7 65.1759 69.96 64.0559 69.36C62.9759 68.72 61.7759 68.24 60.4559 67.92C59.1759 67.6 57.7959 67.44 56.3159 67.44C55.2359 67.44 54.1959 67.56 53.1959 67.8C52.1959 68 51.2359 68.3 50.3159 68.7C49.4359 69.1 48.5959 69.6 47.7959 70.2C47.0359 70.76 46.3159 71.42 45.6359 72.18C44.9959 72.94 44.4159 73.78 43.8959 74.7C43.4159 75.58 42.9959 76.56 42.6359 77.64C42.2759 78.68 41.9959 79.8 41.7959 81C41.6359 82.16 41.5559 83.38 41.5559 84.66C41.5559 86.46 41.6759 88.16 41.9159 89.76C42.1559 91.32 42.5159 92.8 42.9959 94.2C43.4759 95.56 44.0559 96.82 44.7359 97.98C45.4559 99.1 46.2559 100.1 47.1359 100.98C48.0559 101.86 49.0759 102.6 50.1959 103.2C51.3159 103.8 52.5159 104.26 53.7959 104.58C55.0759 104.9 56.4559 105.06 57.9359 105.06ZM97.0044 64.5H121.544L122.264 70.26H122.084C120.724 69.18 119.224 68.5 117.584 68.22C115.944 67.94 113.624 67.8 110.624 67.8H103.604V83.76H118.784V88.68C117.864 88.04 116.744 87.58 115.424 87.3C114.144 87.02 112.324 86.88 109.964 86.88H103.604V98.1C103.604 100.14 103.724 102 103.964 103.68C104.204 105.32 104.824 106.76 105.824 108H98.8044V74.4C98.8044 72.32 98.7044 70.46 98.5044 68.82C98.3044 67.18 97.8044 65.74 97.0044 64.5ZM128.464 64.5H135.064V89.76C135.064 94.8 136.084 98.62 138.124 101.22C140.204 103.78 143.444 105.06 147.844 105.06C151.604 105.02 154.504 103.82 156.544 101.46C158.584 99.06 159.604 95.9 159.604 91.98V74.76C159.604 72.48 159.484 70.5 159.244 68.82C159.004 67.14 158.504 65.7 157.744 64.5H163.504C163.384 66.1 163.304 67.52 163.264 68.76C163.264 70 163.264 71.4 163.264 72.96V90.66C163.264 92.42 163.124 94.06 162.844 95.58C162.604 97.06 162.224 98.4 161.704 99.6C161.224 100.8 160.624 101.88 159.904 102.84C159.184 103.8 158.364 104.64 157.444 105.36C156.564 106.08 155.564 106.68 154.444 107.16C153.364 107.6 152.204 107.92 150.964 108.12C149.724 108.36 148.404 108.48 147.004 108.48C141.604 108.48 137.464 106.98 134.584 103.98C131.704 100.98 130.264 96.56 130.264 90.72V74.4C130.264 72.32 130.144 70.46 129.904 68.82C129.704 67.18 129.224 65.74 128.464 64.5ZM170.797 97.26H171.217C172.817 99.66 174.537 101.6 176.377 103.08C178.217 104.56 180.537 105.3 183.337 105.3C185.777 105.3 187.717 104.66 189.157 103.38C190.597 102.1 191.317 100.32 191.317 98.04C191.317 95.76 190.697 93.92 189.457 92.52C188.257 91.12 186.637 89.74 184.597 88.38L179.377 84.96C176.977 83.36 175.237 81.64 174.157 79.8C173.077 77.92 172.537 75.96 172.537 73.92C172.537 70.72 173.597 68.28 175.717 66.6C177.837 64.88 180.577 64.02 183.937 64.02C185.537 64.02 187.097 64.22 188.617 64.62C190.137 65.02 191.437 65.54 192.517 66.18L193.357 72.66H192.937C191.457 70.7 189.957 69.3 188.437 68.46C186.957 67.62 185.317 67.2 183.517 67.2C181.717 67.2 180.197 67.68 178.957 68.64C177.757 69.56 177.157 71.04 177.157 73.08C177.157 74.52 177.577 75.92 178.417 77.28C179.257 78.64 180.757 80.08 182.917 81.6L187.717 84.9C189.917 86.38 191.857 88.02 193.537 89.82C195.257 91.62 196.117 94.02 196.117 97.02C196.117 97.94 196.017 98.82 195.817 99.66C195.657 100.5 195.397 101.3 195.037 102.06C194.677 102.82 194.217 103.54 193.657 104.22C193.137 104.86 192.517 105.44 191.797 105.96C191.077 106.48 190.257 106.94 189.337 107.34C188.457 107.7 187.477 107.98 186.397 108.18C185.317 108.38 184.157 108.48 182.917 108.48C180.517 108.48 178.377 108.14 176.497 107.46C174.657 106.74 173.037 105.76 171.637 104.52L170.797 97.26ZM202.766 64.5H209.366V98.1C209.366 100.18 209.466 102.06 209.666 103.74C209.906 105.38 210.406 106.8 211.166 108H204.566V74.4C204.566 72.32 204.466 70.46 204.266 68.82C204.066 67.18 203.566 65.74 202.766 64.5ZM238.731 64.02C240.051 64.02 241.311 64.12 242.511 64.32C243.751 64.52 244.931 64.82 246.051 65.22C247.211 65.62 248.291 66.12 249.291 66.72C250.331 67.28 251.311 67.96 252.231 68.76C253.151 69.52 253.971 70.38 254.691 71.34C255.451 72.26 256.131 73.28 256.731 74.4C257.331 75.52 257.831 76.72 258.231 78C258.671 79.24 258.991 80.58 259.191 82.02C259.431 83.46 259.551 84.96 259.551 86.52C259.551 87.96 259.451 89.34 259.251 90.66C259.051 91.94 258.771 93.16 258.411 94.32C258.051 95.48 257.611 96.58 257.091 97.62C256.571 98.62 255.991 99.56 255.351 100.44C254.711 101.32 254.011 102.14 253.251 102.9C252.491 103.62 251.671 104.28 250.791 104.88C249.951 105.48 249.071 106 248.151 106.44C247.231 106.88 246.291 107.26 245.331 107.58C244.371 107.86 243.371 108.08 242.331 108.24C241.331 108.4 240.331 108.48 239.331 108.48C238.051 108.48 236.791 108.38 235.551 108.18C234.311 107.98 233.111 107.68 231.951 107.28C230.831 106.88 229.751 106.4 228.711 105.84C227.671 105.24 226.691 104.56 225.771 103.8C224.891 103.04 224.071 102.2 223.311 101.28C222.551 100.32 221.871 99.28 221.271 98.16C220.671 97.04 220.151 95.86 219.711 94.62C219.311 93.34 218.991 91.98 218.751 90.54C218.551 89.1 218.451 87.6 218.451 86.04C218.451 84.6 218.551 83.24 218.751 81.96C218.951 80.64 219.231 79.4 219.591 78.24C219.951 77.08 220.391 75.98 220.911 74.94C221.431 73.9 222.011 72.94 222.651 72.06C223.291 71.18 223.991 70.38 224.751 69.66C225.511 68.9 226.311 68.22 227.151 67.62C228.031 67.02 228.931 66.5 229.851 66.06C230.771 65.62 231.711 65.26 232.671 64.98C233.671 64.66 234.671 64.42 235.671 64.26C236.711 64.1 237.731 64.02 238.731 64.02ZM239.811 105.06C240.891 105.06 241.931 104.96 242.931 104.76C243.931 104.56 244.871 104.26 245.751 103.86C246.671 103.42 247.511 102.92 248.271 102.36C249.071 101.76 249.791 101.1 250.431 100.38C251.111 99.62 251.691 98.78 252.171 97.86C252.691 96.94 253.131 95.96 253.491 94.92C253.851 93.88 254.111 92.78 254.271 91.62C254.471 90.42 254.571 89.18 254.571 87.9C254.571 86.1 254.451 84.42 254.211 82.86C253.971 81.26 253.611 79.78 253.131 78.42C252.651 77.02 252.051 75.76 251.331 74.64C250.651 73.48 249.851 72.46 248.931 71.58C248.051 70.7 247.051 69.96 245.931 69.36C244.851 68.72 243.651 68.24 242.331 67.92C241.051 67.6 239.671 67.44 238.191 67.44C237.111 67.44 236.071 67.56 235.071 67.8C234.071 68 233.111 68.3 232.191 68.7C231.311 69.1 230.471 69.6 229.671 70.2C228.911 70.76 228.191 71.42 227.511 72.18C226.871 72.94 226.291 73.78 225.771 74.7C225.291 75.58 224.871 76.56 224.511 77.64C224.151 78.68 223.871 79.8 223.671 81C223.511 82.16 223.431 83.38 223.431 84.66C223.431 86.46 223.551 88.16 223.791 89.76C224.031 91.32 224.391 92.8 224.871 94.2C225.351 95.56 225.931 96.82 226.611 97.98C227.331 99.1 228.131 100.1 229.011 100.98C229.931 101.86 230.951 102.6 232.071 103.2C233.191 103.8 234.391 104.26 235.671 104.58C236.951 104.9 238.331 105.06 239.811 105.06ZM273.588 108H268.248V67.98C267.848 67.46 267.428 66.94 266.988 66.42C266.588 65.9 266.148 65.38 265.668 64.86V64.5H271.428L298.068 98.22V73.68C298.068 71.72 297.948 70.04 297.708 68.64C297.508 67.24 296.908 65.86 295.908 64.5H301.608V108H299.808L271.728 72.48L271.848 98.82C271.848 100.78 271.948 102.46 272.148 103.86C272.348 105.26 272.828 106.64 273.588 108ZM309.313 97.26H309.733C311.333 99.66 313.053 101.6 314.893 103.08C316.733 104.56 319.053 105.3 321.853 105.3C324.293 105.3 326.233 104.66 327.673 103.38C329.113 102.1 329.833 100.32 329.833 98.04C329.833 95.76 329.213 93.92 327.973 92.52C326.773 91.12 325.153 89.74 323.113 88.38L317.893 84.96C315.493 83.36 313.753 81.64 312.673 79.8C311.593 77.92 311.053 75.96 311.053 73.92C311.053 70.72 312.113 68.28 314.233 66.6C316.353 64.88 319.093 64.02 322.453 64.02C324.053 64.02 325.613 64.22 327.133 64.62C328.653 65.02 329.953 65.54 331.033 66.18L331.873 72.66H331.453C329.973 70.7 328.473 69.3 326.953 68.46C325.473 67.62 323.833 67.2 322.033 67.2C320.233 67.2 318.713 67.68 317.473 68.64C316.273 69.56 315.673 71.04 315.673 73.08C315.673 74.52 316.093 75.92 316.933 77.28C317.773 78.64 319.273 80.08 321.433 81.6L326.233 84.9C328.433 86.38 330.373 88.02 332.053 89.82C333.773 91.62 334.633 94.02 334.633 97.02C334.633 97.94 334.533 98.82 334.333 99.66C334.173 100.5 333.913 101.3 333.553 102.06C333.193 102.82 332.733 103.54 332.173 104.22C331.653 104.86 331.033 105.44 330.313 105.96C329.593 106.48 328.773 106.94 327.853 107.34C326.973 107.7 325.993 107.98 324.913 108.18C323.833 108.38 322.673 108.48 321.433 108.48C319.033 108.48 316.893 108.14 315.013 107.46C313.173 106.74 311.553 105.76 310.153 104.52L309.313 97.26ZM379.033 87.6C379.833 87.6 380.673 87.6 381.553 87.6C382.433 87.56 383.233 87.44 383.953 87.24V90.84H356.113C355.473 90.84 354.793 90.86 354.073 90.9C353.393 90.9 352.733 91 352.093 91.2V87.6H379.033ZM0.0800001 172C0.6 170.88 1.02 169.9 1.34 169.06C1.7 168.22 2.02 167.44 2.3 166.72L14.72 133.24C14.96 132.6 15.14 132.02 15.26 131.5C15.42 130.94 15.5 130.38 15.5 129.82C15.5 129.62 15.48 129.4 15.44 129.16C15.4 128.92 15.36 128.7 15.32 128.5H20.48L31.34 160.54C31.5 160.98 31.66 161.44 31.82 161.92C31.98 162.36 32.14 162.84 32.3 163.36C32.5 163.88 32.7 164.4 32.9 164.92C33.14 165.44 33.36 165.96 33.56 166.48C33.8 166.96 34.04 167.46 34.28 167.98C34.52 168.46 34.76 168.94 35 169.42C35.28 169.86 35.56 170.28 35.84 170.68C36.12 171.08 36.4 171.44 36.68 171.76V172H29.9C29.74 171.32 29.5 170.48 29.18 169.48C28.9 168.48 28.62 167.52 28.34 166.6L25.16 157.12H9.38L7.28 162.82C6.88 163.82 6.54 164.8 6.26 165.76C6.02 166.72 5.9 167.62 5.9 168.46C5.9 169.1 5.98 169.72 6.14 170.32C6.3 170.92 6.52 171.48 6.8 172H0.0800001ZM10.58 153.94H24.14L17.72 134.74L10.58 153.94ZM59.4861 172H54.1461V131.98C53.7461 131.46 53.3261 130.94 52.8861 130.42C52.4861 129.9 52.0461 129.38 51.5661 128.86V128.5H57.3261L83.9661 162.22V137.68C83.9661 135.72 83.8461 134.04 83.6061 132.64C83.4061 131.24 82.8061 129.86 81.8061 128.5H87.5061V172H85.7061L57.6261 136.48L57.7461 162.82C57.7461 164.78 57.8461 166.46 58.0461 167.86C58.2461 169.26 58.7261 170.64 59.4861 172ZM98.5114 172V138.4C98.5114 136.32 98.4114 134.46 98.2114 132.82C98.0114 131.18 97.5114 129.74 96.7114 128.5H119.391L120.171 134.14H119.991C118.631 133.14 117.151 132.5 115.551 132.22C113.991 131.94 111.751 131.8 108.831 131.8H103.311V147.58H117.711V152.5C116.751 151.86 115.611 151.4 114.291 151.12C113.011 150.84 111.171 150.7 108.771 150.7H103.311V160.9C103.311 162.54 103.371 164 103.491 165.28C103.611 166.56 103.871 167.7 104.271 168.7H110.391C113.391 168.7 115.731 168.54 117.411 168.22C119.131 167.9 120.651 167.2 121.971 166.12H122.211L121.431 172H98.5114ZM145.561 128.68V128.5H151.081C151.361 129.54 151.581 130.32 151.741 130.84C151.901 131.36 152.141 132.16 152.461 133.24L161.521 161.5L169.501 137.8C169.821 136.84 170.081 135.82 170.281 134.74C170.521 133.62 170.641 132.68 170.641 131.92C170.641 131.28 170.561 130.66 170.401 130.06C170.281 129.42 170.121 128.9 169.921 128.5H176.101C175.581 129.98 175.161 131.26 174.841 132.34C174.521 133.38 174.221 134.34 173.941 135.22L161.521 172H160.021L150.961 143.74L141.001 172H139.381L128.641 138.1C128.001 136.06 127.401 134.3 126.841 132.82C126.281 131.34 125.561 129.98 124.681 128.74V128.5H130.681C130.881 129.38 131.061 130.12 131.221 130.72C131.421 131.28 131.721 132.22 132.121 133.54L141.061 161.74L147.301 144.16C147.741 142.8 148.081 141.68 148.321 140.8C148.601 139.92 148.741 139 148.741 138.04C148.741 137.2 148.641 136.38 148.441 135.58C148.241 134.74 147.981 133.9 147.661 133.06C147.461 132.54 147.121 131.78 146.641 130.78C146.161 129.78 145.801 129.08 145.561 128.68ZM226.705 137.5H226.345C224.745 135.5 222.725 134.02 220.285 133.06C217.885 132.06 215.325 131.56 212.605 131.56C211.525 131.56 210.465 131.66 209.425 131.86C208.425 132.06 207.445 132.36 206.485 132.76C205.565 133.12 204.685 133.58 203.845 134.14C203.005 134.7 202.225 135.36 201.505 136.12C200.785 136.88 200.145 137.72 199.585 138.64C199.025 139.56 198.545 140.58 198.145 141.7C197.745 142.78 197.425 143.96 197.185 145.24C196.985 146.48 196.885 147.82 196.885 149.26C196.885 150.46 196.945 151.64 197.065 152.8C197.225 153.96 197.445 155.08 197.725 156.16C198.045 157.2 198.425 158.2 198.865 159.16C199.305 160.12 199.805 161.02 200.365 161.86C200.965 162.7 201.625 163.48 202.345 164.2C203.065 164.92 203.845 165.56 204.685 166.12C205.565 166.68 206.485 167.16 207.445 167.56C208.445 167.92 209.505 168.2 210.625 168.4C211.745 168.6 212.925 168.7 214.165 168.7C216.405 168.7 218.625 168.36 220.825 167.68C223.065 167 225.105 165.98 226.945 164.62V167.08C225.665 168.44 223.805 169.68 221.365 170.8C218.965 171.92 215.945 172.48 212.305 172.48C210.945 172.48 209.625 172.36 208.345 172.12C207.105 171.92 205.905 171.62 204.745 171.22C203.625 170.82 202.565 170.32 201.565 169.72C200.565 169.12 199.625 168.44 198.745 167.68C197.905 166.92 197.125 166.08 196.405 165.16C195.685 164.24 195.045 163.26 194.485 162.22C193.965 161.14 193.525 160 193.165 158.8C192.805 157.6 192.525 156.36 192.325 155.08C192.125 153.76 192.025 152.4 192.025 151C192.025 149.44 192.125 147.96 192.325 146.56C192.525 145.16 192.805 143.86 193.165 142.66C193.565 141.42 194.045 140.26 194.605 139.18C195.165 138.1 195.785 137.1 196.465 136.18C197.145 135.26 197.885 134.44 198.685 133.72C199.525 132.96 200.385 132.28 201.265 131.68C202.185 131.08 203.125 130.56 204.085 130.12C205.085 129.64 206.105 129.26 207.145 128.98C208.185 128.66 209.245 128.44 210.325 128.32C211.445 128.16 212.545 128.08 213.625 128.08C215.985 128.08 218.265 128.38 220.465 128.98C222.665 129.54 224.465 130.26 225.865 131.14L226.705 137.5ZM234.583 128.5H241.183V148.54H265.363V138.4C265.363 136.32 265.263 134.46 265.063 132.82C264.863 131.18 264.363 129.74 263.563 128.5H270.163V162.1C270.163 164.18 270.263 166.06 270.463 167.74C270.703 169.38 271.203 170.8 271.963 172H265.363V151.84H241.183V162.1C241.183 164.18 241.283 166.06 241.483 167.74C241.723 169.38 242.223 170.8 242.983 172H236.383V138.4C236.383 136.32 236.283 134.46 236.083 132.82C235.883 131.18 235.383 129.74 234.583 128.5ZM277.053 172C277.573 170.88 277.993 169.9 278.313 169.06C278.673 168.22 278.993 167.44 279.273 166.72L291.693 133.24C291.933 132.6 292.113 132.02 292.233 131.5C292.393 130.94 292.473 130.38 292.473 129.82C292.473 129.62 292.453 129.4 292.413 129.16C292.373 128.92 292.333 128.7 292.293 128.5H297.453L308.313 160.54C308.473 160.98 308.633 161.44 308.793 161.92C308.953 162.36 309.113 162.84 309.273 163.36C309.473 163.88 309.673 164.4 309.873 164.92C310.113 165.44 310.333 165.96 310.533 166.48C310.773 166.96 311.013 167.46 311.253 167.98C311.493 168.46 311.733 168.94 311.973 169.42C312.253 169.86 312.533 170.28 312.813 170.68C313.093 171.08 313.373 171.44 313.653 171.76V172H306.873C306.713 171.32 306.473 170.48 306.153 169.48C305.873 168.48 305.593 167.52 305.313 166.6L302.133 157.12H286.353L284.253 162.82C283.853 163.82 283.513 164.8 283.233 165.76C282.993 166.72 282.873 167.62 282.873 168.46C282.873 169.1 282.953 169.72 283.113 170.32C283.273 170.92 283.493 171.48 283.773 172H277.053ZM287.553 153.94H301.113L294.693 134.74L287.553 153.94ZM318.02 128.5H329.96C330.56 128.5 331.18 128.52 331.82 128.56C332.46 128.6 333.1 128.66 333.74 128.74C334.42 128.82 335.08 128.92 335.72 129.04C336.36 129.16 336.98 129.32 337.58 129.52C338.22 129.72 338.82 129.96 339.38 130.24C339.98 130.48 340.54 130.78 341.06 131.14C341.62 131.5 342.12 131.9 342.56 132.34C343.04 132.78 343.46 133.26 343.82 133.78C344.18 134.3 344.48 134.9 344.72 135.58C345 136.22 345.2 136.92 345.32 137.68C345.48 138.44 345.56 139.26 345.56 140.14C345.56 141.22 345.46 142.22 345.26 143.14C345.1 144.06 344.84 144.92 344.48 145.72C344.12 146.52 343.68 147.26 343.16 147.94C342.68 148.58 342.12 149.18 341.48 149.74C340.84 150.26 340.14 150.72 339.38 151.12C338.62 151.52 337.8 151.88 336.92 152.2C336.04 152.52 335.12 152.78 334.16 152.98C333.2 153.14 332.2 153.28 331.16 153.4C330.12 153.48 329.04 153.52 327.92 153.52H324.62V162.1C324.62 164.18 324.72 166.06 324.92 167.74C325.16 169.38 325.66 170.8 326.42 172H319.82V138.4C319.82 136.32 319.72 134.46 319.52 132.82C319.32 131.18 318.82 129.74 318.02 128.5ZM328.34 131.8H324.62V150.22H329.06C332.78 150.22 335.62 149.46 337.58 147.94C339.58 146.42 340.58 144.04 340.58 140.8C340.58 137.32 339.44 134.96 337.16 133.72C334.88 132.44 331.94 131.8 328.34 131.8ZM349.604 134.86L350.384 128.5H382.604L383.444 134.86H383.264C381.664 133.54 379.964 132.7 378.164 132.34C376.404 131.98 374.024 131.8 371.024 131.8H368.864V162.1C368.864 164.18 368.964 166.06 369.164 167.74C369.404 169.38 369.904 170.8 370.664 172H364.124V131.8H362.024C359.024 131.8 356.624 131.98 354.824 132.34C353.064 132.7 351.384 133.54 349.784 134.86H349.604ZM390.836 172V138.4C390.836 136.32 390.736 134.46 390.536 132.82C390.336 131.18 389.836 129.74 389.036 128.5H411.716L412.496 134.14H412.316C410.956 133.14 409.476 132.5 407.876 132.22C406.316 131.94 404.076 131.8 401.156 131.8H395.636V147.58H410.036V152.5C409.076 151.86 407.936 151.4 406.616 151.12C405.336 150.84 403.496 150.7 401.096 150.7H395.636V160.9C395.636 162.54 395.696 164 395.816 165.28C395.936 166.56 396.196 167.7 396.596 168.7H402.716C405.716 168.7 408.056 168.54 409.736 168.22C411.456 167.9 412.976 167.2 414.296 166.12H414.536L413.756 172H390.836ZM420.852 128.5H431.292C431.772 128.5 432.272 128.52 432.792 128.56C433.312 128.56 433.832 128.58 434.352 128.62C434.912 128.66 435.472 128.72 436.032 128.8C436.632 128.84 437.212 128.92 437.772 129.04C438.372 129.16 438.952 129.3 439.512 129.46C440.072 129.62 440.612 129.82 441.132 130.06C441.692 130.3 442.212 130.58 442.692 130.9C443.172 131.18 443.612 131.52 444.012 131.92C444.452 132.28 444.832 132.7 445.152 133.18C445.512 133.66 445.812 134.2 446.052 134.8C446.292 135.4 446.472 136.04 446.592 136.72C446.752 137.4 446.832 138.16 446.832 139C446.832 141.76 446.012 144.12 444.372 146.08C442.772 148.04 440.412 149.4 437.292 150.16C438.652 150.64 439.652 151.34 440.292 152.26C440.932 153.14 441.552 154.14 442.152 155.26L447.132 164.38C448.012 166.02 448.872 167.42 449.712 168.58C450.552 169.7 451.472 170.78 452.472 171.82V172H445.752L436.272 154.54C435.592 153.26 434.852 152.34 434.052 151.78C433.292 151.22 431.992 150.94 430.152 150.94H427.572V162.1C427.572 164.18 427.672 166.06 427.872 167.74C428.112 169.38 428.612 170.8 429.372 172H422.652V138.4C422.652 136.32 422.552 134.46 422.352 132.82C422.152 131.18 421.652 129.74 420.852 128.5ZM430.272 131.68H427.572V147.88H431.052C434.292 147.88 436.892 147.28 438.852 146.08C440.852 144.84 441.852 142.66 441.852 139.54C441.852 138.82 441.792 138.18 441.672 137.62C441.552 137.02 441.372 136.48 441.132 136C440.892 135.52 440.612 135.1 440.292 134.74C439.972 134.34 439.612 134 439.212 133.72C438.852 133.4 438.432 133.14 437.952 132.94C437.512 132.74 437.032 132.56 436.512 132.4C436.032 132.24 435.532 132.12 435.012 132.04C434.492 131.92 433.952 131.84 433.392 131.8C432.872 131.76 432.352 131.74 431.832 131.74C431.312 131.7 430.792 131.68 430.272 131.68ZM3.02 192.5H9.62V226.1C9.62 228.18 9.72 230.06 9.92 231.74C10.16 233.38 10.66 234.8 11.42 236H4.82V202.4C4.82 200.32 4.72 198.46 4.52 196.82C4.32 195.18 3.82 193.74 3.02 192.5ZM26.2048 236H20.8648V195.98C20.4648 195.46 20.0448 194.94 19.6048 194.42C19.2048 193.9 18.7648 193.38 18.2848 192.86V192.5H24.0448L50.6848 226.22V201.68C50.6848 199.72 50.5648 198.04 50.3248 196.64C50.1248 195.24 49.5248 193.86 48.5248 192.5H54.2248V236H52.4248L24.3448 200.48L24.4648 226.82C24.4648 228.78 24.5648 230.46 24.7648 231.86C24.9648 233.26 25.4448 234.64 26.2048 236ZM73.9419 225.26H74.3619C75.9619 227.66 77.6819 229.6 79.5219 231.08C81.3619 232.56 83.6819 233.3 86.4819 233.3C88.9219 233.3 90.8619 232.66 92.3019 231.38C93.7419 230.1 94.4619 228.32 94.4619 226.04C94.4619 223.76 93.8419 221.92 92.6019 220.52C91.4019 219.12 89.7819 217.74 87.7419 216.38L82.5219 212.96C80.1219 211.36 78.3819 209.64 77.3019 207.8C76.2219 205.92 75.6819 203.96 75.6819 201.92C75.6819 198.72 76.7419 196.28 78.8619 194.6C80.9819 192.88 83.7219 192.02 87.0819 192.02C88.6819 192.02 90.2419 192.22 91.7619 192.62C93.2819 193.02 94.5819 193.54 95.6619 194.18L96.5019 200.66H96.0819C94.6019 198.7 93.1019 197.3 91.5819 196.46C90.1019 195.62 88.4619 195.2 86.6619 195.2C84.8619 195.2 83.3419 195.68 82.1019 196.64C80.9019 197.56 80.3019 199.04 80.3019 201.08C80.3019 202.52 80.7219 203.92 81.5619 205.28C82.4019 206.64 83.9019 208.08 86.0619 209.6L90.8619 212.9C93.0619 214.38 95.0019 216.02 96.6819 217.82C98.4019 219.62 99.2619 222.02 99.2619 225.02C99.2619 225.94 99.1619 226.82 98.9619 227.66C98.8019 228.5 98.5419 229.3 98.1819 230.06C97.8219 230.82 97.3619 231.54 96.8019 232.22C96.2819 232.86 95.6619 233.44 94.9419 233.96C94.2219 234.48 93.4019 234.94 92.4819 235.34C91.6019 235.7 90.6219 235.98 89.5419 236.18C88.4619 236.38 87.3019 236.48 86.0619 236.48C83.6619 236.48 81.5219 236.14 79.6419 235.46C77.8019 234.74 76.1819 233.76 74.7819 232.52L73.9419 225.26ZM105.911 192.5H117.851C118.451 192.5 119.071 192.52 119.711 192.56C120.351 192.6 120.991 192.66 121.631 192.74C122.311 192.82 122.971 192.92 123.611 193.04C124.251 193.16 124.871 193.32 125.471 193.52C126.111 193.72 126.711 193.96 127.271 194.24C127.871 194.48 128.431 194.78 128.951 195.14C129.511 195.5 130.011 195.9 130.451 196.34C130.931 196.78 131.351 197.26 131.711 197.78C132.071 198.3 132.371 198.9 132.611 199.58C132.891 200.22 133.091 200.92 133.211 201.68C133.371 202.44 133.451 203.26 133.451 204.14C133.451 205.22 133.351 206.22 133.151 207.14C132.991 208.06 132.731 208.92 132.371 209.72C132.011 210.52 131.571 211.26 131.051 211.94C130.571 212.58 130.011 213.18 129.371 213.74C128.731 214.26 128.031 214.72 127.271 215.12C126.511 215.52 125.691 215.88 124.811 216.2C123.931 216.52 123.011 216.78 122.051 216.98C121.091 217.14 120.091 217.28 119.051 217.4C118.011 217.48 116.931 217.52 115.811 217.52H112.511V226.1C112.511 228.18 112.611 230.06 112.811 231.74C113.051 233.38 113.551 234.8 114.311 236H107.711V202.4C107.711 200.32 107.611 198.46 107.411 196.82C107.211 195.18 106.711 193.74 105.911 192.5ZM116.231 195.8H112.511V214.22H116.951C120.671 214.22 123.511 213.46 125.471 211.94C127.471 210.42 128.471 208.04 128.471 204.8C128.471 201.32 127.331 198.96 125.051 197.72C122.771 196.44 119.831 195.8 116.231 195.8ZM140.188 192.5H146.788V226.1C146.788 228.18 146.888 230.06 147.088 231.74C147.328 233.38 147.828 234.8 148.588 236H141.988V202.4C141.988 200.32 141.888 198.46 141.688 196.82C141.488 195.18 140.988 193.74 140.188 192.5ZM156.653 192.5H167.093C167.573 192.5 168.073 192.52 168.593 192.56C169.113 192.56 169.633 192.58 170.153 192.62C170.713 192.66 171.273 192.72 171.833 192.8C172.433 192.84 173.013 192.92 173.573 193.04C174.173 193.16 174.753 193.3 175.313 193.46C175.873 193.62 176.413 193.82 176.933 194.06C177.493 194.3 178.013 194.58 178.493 194.9C178.973 195.18 179.413 195.52 179.813 195.92C180.253 196.28 180.633 196.7 180.953 197.18C181.313 197.66 181.613 198.2 181.853 198.8C182.093 199.4 182.273 200.04 182.393 200.72C182.553 201.4 182.633 202.16 182.633 203C182.633 205.76 181.813 208.12 180.173 210.08C178.573 212.04 176.213 213.4 173.093 214.16C174.453 214.64 175.453 215.34 176.093 216.26C176.733 217.14 177.353 218.14 177.953 219.26L182.933 228.38C183.813 230.02 184.673 231.42 185.513 232.58C186.353 233.7 187.273 234.78 188.273 235.82V236H181.553L172.073 218.54C171.393 217.26 170.653 216.34 169.853 215.78C169.093 215.22 167.793 214.94 165.953 214.94H163.373V226.1C163.373 228.18 163.473 230.06 163.673 231.74C163.913 233.38 164.413 234.8 165.173 236H158.453V202.4C158.453 200.32 158.353 198.46 158.153 196.82C157.953 195.18 157.453 193.74 156.653 192.5ZM166.073 195.68H163.373V211.88H166.853C170.093 211.88 172.693 211.28 174.653 210.08C176.653 208.84 177.653 206.66 177.653 203.54C177.653 202.82 177.593 202.18 177.473 201.62C177.353 201.02 177.173 200.48 176.933 200C176.693 199.52 176.413 199.1 176.093 198.74C175.773 198.34 175.413 198 175.013 197.72C174.653 197.4 174.233 197.14 173.753 196.94C173.313 196.74 172.833 196.56 172.313 196.4C171.833 196.24 171.333 196.12 170.813 196.04C170.293 195.92 169.753 195.84 169.193 195.8C168.673 195.76 168.153 195.74 167.633 195.74C167.113 195.7 166.593 195.68 166.073 195.68ZM192.395 192.5H198.995V226.1C198.995 228.18 199.095 230.06 199.295 231.74C199.535 233.38 200.035 234.8 200.795 236H194.195V202.4C194.195 200.32 194.095 198.46 193.895 196.82C193.695 195.18 193.195 193.74 192.395 192.5ZM206.167 198.86L206.947 192.5H239.167L240.007 198.86H239.827C238.227 197.54 236.527 196.7 234.727 196.34C232.967 195.98 230.587 195.8 227.587 195.8H225.427V226.1C225.427 228.18 225.527 230.06 225.727 231.74C225.967 233.38 226.467 234.8 227.227 236H220.687V195.8H218.587C215.587 195.8 213.187 195.98 211.387 196.34C209.627 196.7 207.947 197.54 206.347 198.86H206.167ZM243.512 225.26H243.932C245.532 227.66 247.252 229.6 249.092 231.08C250.932 232.56 253.252 233.3 256.052 233.3C258.492 233.3 260.432 232.66 261.872 231.38C263.312 230.1 264.032 228.32 264.032 226.04C264.032 223.76 263.412 221.92 262.172 220.52C260.972 219.12 259.352 217.74 257.312 216.38L252.092 212.96C249.692 211.36 247.952 209.64 246.872 207.8C245.792 205.92 245.252 203.96 245.252 201.92C245.252 198.72 246.312 196.28 248.432 194.6C250.552 192.88 253.292 192.02 256.652 192.02C258.252 192.02 259.812 192.22 261.332 192.62C262.852 193.02 264.152 193.54 265.232 194.18L266.072 200.66H265.652C264.172 198.7 262.672 197.3 261.152 196.46C259.672 195.62 258.032 195.2 256.232 195.2C254.432 195.2 252.912 195.68 251.672 196.64C250.472 197.56 249.872 199.04 249.872 201.08C249.872 202.52 250.292 203.92 251.132 205.28C251.972 206.64 253.472 208.08 255.632 209.6L260.432 212.9C262.632 214.38 264.572 216.02 266.252 217.82C267.972 219.62 268.832 222.02 268.832 225.02C268.832 225.94 268.732 226.82 268.532 227.66C268.372 228.5 268.112 229.3 267.752 230.06C267.392 230.82 266.932 231.54 266.372 232.22C265.852 232.86 265.232 233.44 264.512 233.96C263.792 234.48 262.972 234.94 262.052 235.34C261.172 235.7 260.192 235.98 259.112 236.18C258.032 236.38 256.872 236.48 255.632 236.48C253.232 236.48 251.092 236.14 249.212 235.46C247.372 234.74 245.752 233.76 244.352 232.52L243.512 225.26Z" fill="white"/>
</svg>
