<svg width="806" height="475" viewBox="0 0 806 475" fill="none" xmlns="http://www.w3.org/2000/svg">
<path d="M74.8141 2H109.614C111.214 2 112.881 2.06666 114.614 2.19999C116.347 2.19999 118.081 2.26666 119.814 2.39999C121.681 2.53332 123.547 2.73332 125.414 2.99999C127.414 3.13333 129.347 3.39999 131.214 3.8C133.214 4.19999 135.147 4.66666 137.014 5.19999C138.881 5.73332 140.681 6.39999 142.414 7.19999C144.281 7.99999 146.014 8.93333 147.614 9.99999C149.214 10.9333 150.681 12.0667 152.014 13.4C153.481 14.6 154.747 16 155.814 17.6C157.014 19.2 158.014 21 158.814 23C159.614 25 160.214 27.1333 160.614 29.4C161.147 31.6667 161.414 34.2 161.414 37C161.414 46.2 158.681 54.0667 153.214 60.6C147.881 67.1333 140.014 71.6667 129.614 74.2C134.147 75.8 137.481 78.1333 139.614 81.2C141.747 84.1333 143.814 87.4667 145.814 91.2L162.414 121.6C165.347 127.067 168.214 131.733 171.014 135.6C173.814 139.333 176.881 142.933 180.214 146.4V147H157.814L126.214 88.8C123.947 84.5333 121.481 81.4667 118.814 79.6C116.281 77.7333 111.947 76.8 105.814 76.8H97.2141V114C97.2141 120.933 97.5474 127.2 98.2141 132.8C99.0141 138.267 100.681 143 103.214 147H80.8141V35C80.8141 28.0667 80.4807 21.8667 79.8141 16.4C79.1474 10.9333 77.4807 6.13333 74.8141 2ZM106.214 12.6H97.2141V66.6H108.814C119.614 66.6 128.281 64.6 134.814 60.6C141.481 56.4667 144.814 49.2 144.814 38.8C144.814 36.4 144.614 34.2667 144.214 32.4C143.814 30.4 143.214 28.6 142.414 27C141.614 25.4 140.681 24 139.614 22.8C138.547 21.4667 137.347 20.3333 136.014 19.4C134.814 18.3333 133.414 17.4667 131.814 16.8C130.347 16.1333 128.747 15.5333 127.014 15C125.414 14.4667 123.747 14.0667 122.014 13.8C120.281 13.4 118.481 13.1333 116.614 13C114.881 12.8667 113.147 12.8 111.414 12.8C109.681 12.6667 107.947 12.6 106.214 12.6ZM175.131 147C176.865 143.267 178.265 140 179.331 137.2C180.531 134.4 181.598 131.8 182.531 129.4L223.931 17.8C224.731 15.6667 225.331 13.7333 225.731 12C226.265 10.1333 226.531 8.26666 226.531 6.4C226.531 5.73333 226.465 5 226.331 4.19999C226.198 3.39999 226.065 2.66666 225.931 2H243.131L279.331 108.8C279.865 110.267 280.398 111.8 280.931 113.4C281.465 114.867 281.998 116.467 282.531 118.2C283.198 119.933 283.865 121.667 284.531 123.4C285.331 125.133 286.065 126.867 286.731 128.6C287.531 130.2 288.331 131.867 289.131 133.6C289.931 135.2 290.731 136.8 291.531 138.4C292.465 139.867 293.398 141.267 294.331 142.6C295.265 143.933 296.198 145.133 297.131 146.2V147H274.531C273.998 144.733 273.198 141.933 272.131 138.6C271.198 135.267 270.265 132.067 269.331 129L258.731 97.4H206.131L199.131 116.4C197.798 119.733 196.665 123 195.731 126.2C194.931 129.4 194.531 132.4 194.531 135.2C194.531 137.333 194.798 139.4 195.331 141.4C195.865 143.4 196.598 145.267 197.531 147H175.131ZM210.131 86.8H255.331L233.931 22.8L210.131 86.8ZM301.689 2H323.689V114C323.689 120.933 324.022 127.2 324.689 132.8C325.489 138.267 327.156 143 329.689 147H307.689V35C307.689 28.0667 307.356 21.8667 306.689 16.4C306.022 10.9333 304.356 6.13333 301.689 2ZM341.572 111.2H342.972C348.305 119.2 354.039 125.667 360.172 130.6C366.305 135.533 374.039 138 383.372 138C391.505 138 397.972 135.867 402.772 131.6C407.572 127.333 409.972 121.4 409.972 113.8C409.972 106.2 407.905 100.067 403.772 95.4C399.772 90.7333 394.372 86.1333 387.572 81.6L370.172 70.2C362.172 64.8667 356.372 59.1333 352.772 53C349.172 46.7333 347.372 40.2 347.372 33.4C347.372 22.7333 350.905 14.6 357.972 8.99999C365.039 3.26666 374.172 0.399992 385.372 0.399992C390.705 0.399992 395.905 1.06666 400.972 2.39999C406.039 3.73332 410.372 5.46666 413.972 7.59999L416.772 29.2H415.372C410.439 22.6667 405.439 18 400.372 15.2C395.439 12.4 389.972 11 383.972 11C377.972 11 372.905 12.6 368.772 15.8C364.772 18.8667 362.772 23.8 362.772 30.6C362.772 35.4 364.172 40.0667 366.972 44.6C369.772 49.1333 374.772 53.9333 381.972 59L397.972 70C405.305 74.9333 411.772 80.4 417.372 86.4C423.105 92.4 425.972 100.4 425.972 110.4C425.972 113.467 425.639 116.4 424.972 119.2C424.439 122 423.572 124.667 422.372 127.2C421.172 129.733 419.639 132.133 417.772 134.4C416.039 136.533 413.972 138.467 411.572 140.2C409.172 141.933 406.439 143.467 403.372 144.8C400.439 146 397.172 146.933 393.572 147.6C389.972 148.267 386.105 148.6 381.972 148.6C373.972 148.6 366.839 147.467 360.572 145.2C354.439 142.8 349.039 139.533 344.372 135.4L341.572 111.2ZM438.134 2H460.134V114C460.134 120.933 460.468 127.2 461.134 132.8C461.934 138.267 463.601 143 466.134 147H444.134V35C444.134 28.0667 443.801 21.8667 443.134 16.4C442.468 10.9333 440.801 6.13333 438.134 2ZM505.417 147H487.617V13.6C486.284 11.8667 484.884 10.1333 483.417 8.4C482.084 6.66666 480.617 4.93333 479.017 3.19999V2H498.217L587.017 114.4V32.6C587.017 26.0667 586.617 20.4667 585.817 15.8C585.151 11.1333 583.151 6.53333 579.817 2H598.817V147H592.817L499.217 28.6L499.617 116.4C499.617 122.933 499.951 128.533 500.617 133.2C501.284 137.867 502.884 142.467 505.417 147ZM716.502 81.4H738.902V127.8C735.168 132.733 728.768 137.467 719.702 142C710.768 146.4 699.702 148.6 686.502 148.6C681.168 148.6 676.102 148.133 671.302 147.2C666.502 146.4 661.968 145.133 657.702 143.4C653.435 141.667 649.435 139.6 645.702 137.2C642.102 134.667 638.768 131.867 635.702 128.8C632.635 125.6 629.902 122.133 627.502 118.4C625.235 114.533 623.302 110.4 621.702 106C620.102 101.6 618.902 96.9333 618.102 92C617.302 87.0667 616.902 81.9333 616.902 76.6C616.902 71.4 617.235 66.4667 617.902 61.8C618.702 57.1333 619.702 52.7333 620.902 48.6C622.235 44.4667 623.835 40.6667 625.702 37.2C627.702 33.6 629.835 30.3333 632.102 27.4C634.502 24.3333 637.102 21.5333 639.902 19C642.702 16.4667 645.635 14.2667 648.702 12.4C651.768 10.4 654.968 8.66666 658.302 7.19999C661.768 5.73332 665.302 4.53333 668.902 3.6C672.502 2.53333 676.102 1.79999 679.702 1.39999C683.435 0.866657 687.168 0.599989 690.902 0.599989C699.702 0.599989 707.835 1.59999 715.302 3.6C722.902 5.6 729.168 8.06666 734.102 11L736.902 32.2H735.502C729.902 25.2667 722.968 20.2 714.702 17C706.568 13.8 697.635 12.2 687.902 12.2C684.702 12.2 681.568 12.4667 678.502 13C675.435 13.4 672.435 14.1333 669.502 15.2C666.568 16.1333 663.768 17.3333 661.102 18.8C658.435 20.1333 655.835 21.8 653.302 23.8C650.902 25.6667 648.635 27.8 646.502 30.2C644.502 32.6 642.635 35.2667 640.902 38.2C639.302 41.1333 637.902 44.2667 636.702 47.6C635.502 50.9333 634.568 54.5333 633.902 58.4C633.368 62.2667 633.102 66.4 633.102 70.8C633.102 75.4667 633.435 80 634.102 84.4C634.768 88.6667 635.702 92.8 636.902 96.8C638.235 100.8 639.835 104.533 641.702 108C643.568 111.467 645.768 114.667 648.302 117.6C650.835 120.533 653.635 123.2 656.702 125.6C659.902 127.867 663.368 129.8 667.102 131.4C670.835 133 674.835 134.267 679.102 135.2C683.368 136 687.968 136.4 692.902 136.4C698.102 136.4 703.235 135.933 708.302 135C713.502 133.933 718.435 132.467 723.102 130.6V114.8C723.102 107.6 722.702 101.267 721.902 95.8C721.235 90.3333 719.435 85.5333 716.502 81.4ZM27.2141 310H9.41406V176.6C8.08073 174.867 6.68073 173.133 5.21406 171.4C3.88073 169.667 2.41406 167.933 0.814063 166.2V165H20.0141L108.814 277.4V195.6C108.814 189.067 108.414 183.467 107.614 178.8C106.947 174.133 104.947 169.533 101.614 165H120.614V310H114.614L21.0141 191.6L21.4141 279.4C21.4141 285.933 21.7474 291.533 22.4141 296.2C23.0807 300.867 24.6807 305.467 27.2141 310ZM141.298 165H163.298V277C163.298 283.933 163.632 290.2 164.298 295.8C165.098 301.267 166.765 306 169.298 310H147.298V198C147.298 191.067 146.965 184.867 146.298 179.4C145.632 173.933 143.965 169.133 141.298 165ZM283.181 244.4H305.581V290.8C301.848 295.733 295.448 300.467 286.381 305C277.448 309.4 266.381 311.6 253.181 311.6C247.848 311.6 242.781 311.133 237.981 310.2C233.181 309.4 228.648 308.133 224.381 306.4C220.115 304.667 216.115 302.6 212.381 300.2C208.781 297.667 205.448 294.867 202.381 291.8C199.315 288.6 196.581 285.133 194.181 281.4C191.915 277.533 189.981 273.4 188.381 269C186.781 264.6 185.581 259.933 184.781 255C183.981 250.067 183.581 244.933 183.581 239.6C183.581 234.4 183.915 229.467 184.581 224.8C185.381 220.133 186.381 215.733 187.581 211.6C188.915 207.467 190.515 203.667 192.381 200.2C194.381 196.6 196.515 193.333 198.781 190.4C201.181 187.333 203.781 184.533 206.581 182C209.381 179.467 212.315 177.267 215.381 175.4C218.448 173.4 221.648 171.667 224.981 170.2C228.448 168.733 231.981 167.533 235.581 166.6C239.181 165.533 242.781 164.8 246.381 164.4C250.115 163.867 253.848 163.6 257.581 163.6C266.381 163.6 274.515 164.6 281.981 166.6C289.581 168.6 295.848 171.067 300.781 174L303.581 195.2H302.181C296.581 188.267 289.648 183.2 281.381 180C273.248 176.8 264.315 175.2 254.581 175.2C251.381 175.2 248.248 175.467 245.181 176C242.115 176.4 239.115 177.133 236.181 178.2C233.248 179.133 230.448 180.333 227.781 181.8C225.115 183.133 222.515 184.8 219.981 186.8C217.581 188.667 215.315 190.8 213.181 193.2C211.181 195.6 209.315 198.267 207.581 201.2C205.981 204.133 204.581 207.267 203.381 210.6C202.181 213.933 201.248 217.533 200.581 221.4C200.048 225.267 199.781 229.4 199.781 233.8C199.781 238.467 200.115 243 200.781 247.4C201.448 251.667 202.381 255.8 203.581 259.8C204.915 263.8 206.515 267.533 208.381 271C210.248 274.467 212.448 277.667 214.981 280.6C217.515 283.533 220.315 286.2 223.381 288.6C226.581 290.867 230.048 292.8 233.781 294.4C237.515 296 241.515 297.267 245.781 298.2C250.048 299 254.648 299.4 259.581 299.4C264.781 299.4 269.915 298.933 274.981 298C280.181 296.933 285.115 295.467 289.781 293.6V277.8C289.781 270.6 289.381 264.267 288.581 258.8C287.915 253.333 286.115 248.533 283.181 244.4ZM328.666 310V198C328.666 191.067 328.332 184.867 327.666 179.4C326.999 173.933 325.332 169.133 322.666 165H398.266L400.866 183.8H400.266C395.732 180.467 390.799 178.333 385.466 177.4C380.266 176.467 372.799 176 363.066 176H344.666V228.6H392.666V245C389.466 242.867 385.666 241.333 381.266 240.4C376.999 239.467 370.866 239 362.866 239H344.666V273C344.666 278.467 344.866 283.333 345.266 287.6C345.666 291.867 346.532 295.667 347.866 299H368.266C378.266 299 386.066 298.467 391.666 297.4C397.399 296.333 402.466 294 406.866 290.4H407.666L405.066 310H328.666ZM418.72 165H453.52C455.12 165 456.787 165.067 458.52 165.2C460.254 165.2 461.987 165.267 463.72 165.4C465.587 165.533 467.454 165.733 469.32 166C471.32 166.133 473.254 166.4 475.12 166.8C477.12 167.2 479.054 167.667 480.92 168.2C482.787 168.733 484.587 169.4 486.32 170.2C488.187 171 489.92 171.933 491.52 173C493.12 173.933 494.587 175.067 495.92 176.4C497.387 177.6 498.654 179 499.72 180.6C500.92 182.2 501.92 184 502.72 186C503.52 188 504.12 190.133 504.52 192.4C505.054 194.667 505.32 197.2 505.32 200C505.32 209.2 502.587 217.067 497.12 223.6C491.787 230.133 483.92 234.667 473.52 237.2C478.054 238.8 481.387 241.133 483.52 244.2C485.654 247.133 487.72 250.467 489.72 254.2L506.32 284.6C509.254 290.067 512.12 294.733 514.92 298.6C517.72 302.333 520.787 305.933 524.12 309.4V310H501.72L470.12 251.8C467.854 247.533 465.387 244.467 462.72 242.6C460.187 240.733 455.854 239.8 449.72 239.8H441.12V277C441.12 283.933 441.454 290.2 442.12 295.8C442.92 301.267 444.587 306 447.12 310H424.72V198C424.72 191.067 424.387 184.867 423.72 179.4C423.054 173.933 421.387 169.133 418.72 165ZM450.12 175.6H441.12V229.6H452.72C463.52 229.6 472.187 227.6 478.72 223.6C485.387 219.467 488.72 212.2 488.72 201.8C488.72 199.4 488.52 197.267 488.12 195.4C487.72 193.4 487.12 191.6 486.32 190C485.52 188.4 484.587 187 483.52 185.8C482.454 184.467 481.254 183.333 479.92 182.4C478.72 181.333 477.32 180.467 475.72 179.8C474.254 179.133 472.654 178.533 470.92 178C469.32 177.467 467.654 177.067 465.92 176.8C464.187 176.4 462.387 176.133 460.52 176C458.787 175.867 457.054 175.8 455.32 175.8C453.587 175.667 451.854 175.6 450.12 175.6ZM527.861 165H549.861V277C549.861 283.933 550.194 290.2 550.861 295.8C551.661 301.267 553.328 306 555.861 310H533.861V198C533.861 191.067 533.528 184.867 532.861 179.4C532.194 173.933 530.528 169.133 527.861 165ZM562.944 310C564.677 306.267 566.077 303 567.144 300.2C568.344 297.4 569.41 294.8 570.344 292.4L611.744 180.8C612.544 178.667 613.144 176.733 613.544 175C614.077 173.133 614.344 171.267 614.344 169.4C614.344 168.733 614.277 168 614.144 167.2C614.01 166.4 613.877 165.667 613.744 165H630.944L667.144 271.8C667.677 273.267 668.21 274.8 668.744 276.4C669.277 277.867 669.81 279.467 670.344 281.2C671.01 282.933 671.677 284.667 672.344 286.4C673.144 288.133 673.877 289.867 674.544 291.6C675.344 293.2 676.144 294.867 676.944 296.6C677.744 298.2 678.544 299.8 679.344 301.4C680.277 302.867 681.21 304.267 682.144 305.6C683.077 306.933 684.01 308.133 684.944 309.2V310H662.344C661.81 307.733 661.01 304.933 659.944 301.6C659.01 298.267 658.077 295.067 657.144 292L646.544 260.4H593.944L586.944 279.4C585.61 282.733 584.477 286 583.544 289.2C582.744 292.4 582.344 295.4 582.344 298.2C582.344 300.333 582.61 302.4 583.144 304.4C583.677 306.4 584.41 308.267 585.344 310H562.944ZM597.944 249.8H643.144L621.744 185.8L597.944 249.8ZM711.902 310H694.102V176.6C692.768 174.867 691.368 173.133 689.902 171.4C688.568 169.667 687.102 167.933 685.502 166.2V165H704.702L793.502 277.4V195.6C793.502 189.067 793.102 183.467 792.302 178.8C791.635 174.133 789.635 169.533 786.302 165H805.302V310H799.302L705.702 191.6L706.102 279.4C706.102 285.933 706.435 291.533 707.102 296.2C707.768 300.867 709.368 305.467 711.902 310ZM107.002 437.2H108.402C113.735 445.2 119.468 451.667 125.602 456.6C131.735 461.533 139.468 464 148.802 464C156.935 464 163.402 461.867 168.202 457.6C173.002 453.333 175.402 447.4 175.402 439.8C175.402 432.2 173.335 426.067 169.202 421.4C165.202 416.733 159.802 412.133 153.002 407.6L135.602 396.2C127.602 390.867 121.802 385.133 118.202 379C114.602 372.733 112.802 366.2 112.802 359.4C112.802 348.733 116.335 340.6 123.402 335C130.468 329.267 139.602 326.4 150.802 326.4C156.135 326.4 161.335 327.067 166.402 328.4C171.468 329.733 175.802 331.467 179.402 333.6L182.202 355.2H180.802C175.868 348.667 170.868 344 165.802 341.2C160.868 338.4 155.402 337 149.402 337C143.402 337 138.335 338.6 134.202 341.8C130.202 344.867 128.202 349.8 128.202 356.6C128.202 361.4 129.602 366.067 132.402 370.6C135.202 375.133 140.202 379.933 147.402 385L163.402 396C170.735 400.933 177.202 406.4 182.802 412.4C188.535 418.4 191.402 426.4 191.402 436.4C191.402 439.467 191.068 442.4 190.402 445.2C189.868 448 189.002 450.667 187.802 453.2C186.602 455.733 185.068 458.133 183.202 460.4C181.468 462.533 179.402 464.467 177.002 466.2C174.602 467.933 171.868 469.467 168.802 470.8C165.868 472 162.602 472.933 159.002 473.6C155.402 474.267 151.535 474.6 147.402 474.6C139.402 474.6 132.268 473.467 126.002 471.2C119.868 468.8 114.468 465.533 109.802 461.4L107.002 437.2ZM203.564 328H243.364C245.364 328 247.431 328.067 249.564 328.2C251.697 328.333 253.831 328.533 255.964 328.8C258.231 329.067 260.431 329.4 262.564 329.8C264.697 330.2 266.764 330.733 268.764 331.4C270.897 332.067 272.897 332.867 274.764 333.8C276.764 334.6 278.631 335.6 280.364 336.8C282.231 338 283.897 339.333 285.364 340.8C286.964 342.267 288.364 343.867 289.564 345.6C290.764 347.333 291.764 349.333 292.564 351.6C293.497 353.733 294.164 356.067 294.564 358.6C295.097 361.133 295.364 363.867 295.364 366.8C295.364 370.4 295.031 373.733 294.364 376.8C293.831 379.867 292.964 382.733 291.764 385.4C290.564 388.067 289.097 390.533 287.364 392.8C285.764 394.933 283.897 396.933 281.764 398.8C279.631 400.533 277.297 402.067 274.764 403.4C272.231 404.733 269.497 405.933 266.564 407C263.631 408.067 260.564 408.933 257.364 409.6C254.164 410.133 250.831 410.6 247.364 411C243.897 411.267 240.297 411.4 236.564 411.4H225.564V440C225.564 446.933 225.897 453.2 226.564 458.8C227.364 464.267 229.031 469 231.564 473H209.564V361C209.564 354.067 209.231 347.867 208.564 342.4C207.897 336.933 206.231 332.133 203.564 328ZM237.964 339H225.564V400.4H240.364C252.764 400.4 262.231 397.867 268.764 392.8C275.431 387.733 278.764 379.8 278.764 369C278.764 357.4 274.964 349.533 267.364 345.4C259.764 341.133 249.964 339 237.964 339ZM307.822 328H329.822V440C329.822 446.933 330.155 453.2 330.822 458.8C331.622 464.267 333.289 469 335.822 473H313.822V361C313.822 354.067 313.489 347.867 312.822 342.4C312.155 336.933 310.489 332.133 307.822 328ZM352.705 328H387.505C389.105 328 390.771 328.067 392.505 328.2C394.238 328.2 395.971 328.267 397.705 328.4C399.571 328.533 401.438 328.733 403.305 329C405.305 329.133 407.238 329.4 409.105 329.8C411.105 330.2 413.038 330.667 414.905 331.2C416.771 331.733 418.571 332.4 420.305 333.2C422.171 334 423.905 334.933 425.505 336C427.105 336.933 428.571 338.067 429.905 339.4C431.371 340.6 432.638 342 433.705 343.6C434.905 345.2 435.905 347 436.705 349C437.505 351 438.105 353.133 438.505 355.4C439.038 357.667 439.305 360.2 439.305 363C439.305 372.2 436.571 380.067 431.105 386.6C425.771 393.133 417.905 397.667 407.505 400.2C412.038 401.8 415.371 404.133 417.505 407.2C419.638 410.133 421.705 413.467 423.705 417.2L440.305 447.6C443.238 453.067 446.105 457.733 448.905 461.6C451.705 465.333 454.771 468.933 458.105 472.4V473H435.705L404.105 414.8C401.838 410.533 399.371 407.467 396.705 405.6C394.171 403.733 389.838 402.8 383.705 402.8H375.105V440C375.105 446.933 375.438 453.2 376.105 458.8C376.905 464.267 378.571 469 381.105 473H358.705V361C358.705 354.067 358.371 347.867 357.705 342.4C357.038 336.933 355.371 332.133 352.705 328ZM384.105 338.6H375.105V392.6H386.705C397.505 392.6 406.171 390.6 412.705 386.6C419.371 382.467 422.705 375.2 422.705 364.8C422.705 362.4 422.505 360.267 422.105 358.4C421.705 356.4 421.105 354.6 420.305 353C419.505 351.4 418.571 350 417.505 348.8C416.438 347.467 415.238 346.333 413.905 345.4C412.705 344.333 411.305 343.467 409.705 342.8C408.238 342.133 406.638 341.533 404.905 341C403.305 340.467 401.638 340.067 399.905 339.8C398.171 339.4 396.371 339.133 394.505 339C392.771 338.867 391.038 338.8 389.305 338.8C387.571 338.667 385.838 338.6 384.105 338.6ZM461.845 328H483.845V440C483.845 446.933 484.179 453.2 484.845 458.8C485.645 464.267 487.312 469 489.845 473H467.845V361C467.845 354.067 467.512 347.867 466.845 342.4C466.179 336.933 464.512 332.133 461.845 328ZM497.752 349.2L500.352 328H607.752L610.552 349.2H609.952C604.618 344.8 598.952 342 592.952 340.8C587.085 339.6 579.152 339 569.152 339H561.952V440C561.952 446.933 562.285 453.2 562.952 458.8C563.752 464.267 565.418 469 567.952 473H546.152V339H539.152C529.152 339 521.152 339.6 515.152 340.8C509.285 342 503.685 344.8 498.352 349.2H497.752ZM612.236 437.2H613.636C618.969 445.2 624.703 451.667 630.836 456.6C636.969 461.533 644.703 464 654.036 464C662.169 464 668.636 461.867 673.436 457.6C678.236 453.333 680.636 447.4 680.636 439.8C680.636 432.2 678.569 426.067 674.436 421.4C670.436 416.733 665.036 412.133 658.236 407.6L640.836 396.2C632.836 390.867 627.036 385.133 623.436 379C619.836 372.733 618.036 366.2 618.036 359.4C618.036 348.733 621.569 340.6 628.636 335C635.703 329.267 644.836 326.4 656.036 326.4C661.369 326.4 666.569 327.067 671.636 328.4C676.703 329.733 681.036 331.467 684.636 333.6L687.436 355.2H686.036C681.103 348.667 676.103 344 671.036 341.2C666.103 338.4 660.636 337 654.636 337C648.636 337 643.569 338.6 639.436 341.8C635.436 344.867 633.436 349.8 633.436 356.6C633.436 361.4 634.836 366.067 637.636 370.6C640.436 375.133 645.436 379.933 652.636 385L668.636 396C675.969 400.933 682.436 406.4 688.036 412.4C693.769 418.4 696.636 426.4 696.636 436.4C696.636 439.467 696.303 442.4 695.636 445.2C695.103 448 694.236 450.667 693.036 453.2C691.836 455.733 690.303 458.133 688.436 460.4C686.703 462.533 684.636 464.467 682.236 466.2C679.836 467.933 677.103 469.467 674.036 470.8C671.103 472 667.836 472.933 664.236 473.6C660.636 474.267 656.769 474.6 652.636 474.6C644.636 474.6 637.503 473.467 631.236 471.2C625.103 468.8 619.703 465.533 615.036 461.4L612.236 437.2Z" fill="white"/>
</svg>
