<svg width="48" height="36" viewBox="0 0 48 36" fill="none" xmlns="http://www.w3.org/2000/svg">
<g clip-path="url(#clip0_219_88)">
<path d="M47.9843 13.4177C46.7671 14.1396 45.7913 14.8058 44.569 15.3615C46.3923 13.8859 47.3694 10.7824 45.5197 9.0479C43.9013 13.2223 40.4055 15.6242 36.4785 16.3537C33.1801 16.9666 29.575 16.4007 26.5193 14.7106C27.255 15.713 28.9274 16.171 28.5439 17.8547C25.6291 16.6164 24.701 20.0599 22.2276 19.3088C22.3282 19.0944 22.4011 18.9383 22.503 18.7213C21.6215 18.8964 20.7664 19.2593 19.9843 18.5653C20.2408 18.3204 20.4634 18.1098 20.7778 17.809C20.0509 17.875 19.4851 17.8255 19.1154 17.2571C19.382 17.0186 19.6372 16.7915 20.012 16.459C19.3166 16.5567 18.7645 16.6557 18.4288 15.9896C19.3493 15.666 20.1377 15.2486 20.5552 14.217C18.2502 14.4251 16.061 13.8922 14.0641 12.8594C9.23924 10.3637 5.54354 4.94583 4.08866 0C0.551403 1.96158 2.52437 5.05495 4.08111 7.68012C2.93053 6.54199 1.77869 5.40133 0.634396 4.26701C-1.17887 7.68773 1.21283 9.0682 3.80824 10.8724C2.53694 10.4918 1.42534 10.1606 0.249611 9.80919C0.496074 12.4572 2.37473 13.4367 4.4659 14.2779C3.93524 14.3249 3.40334 14.3706 2.76203 14.4251C3.0764 15.1547 3.46747 15.7434 3.94405 16.2015C4.78026 17.0072 5.87677 17.4081 7.27256 17.4525C6.80604 17.6707 6.4791 17.823 6.13455 17.9841C6.79724 19.9876 10.342 19.0576 11.9151 18.9586C11.2939 19.1464 10.7922 19.3012 10.0402 19.5321C11.5567 20.7616 13.3864 21.1549 15.2248 20.6537C16.8431 21.8489 15.3455 21.9593 17.922 22.6343C17.624 21.0115 16.8243 20.8339 15.3794 20.6093C16.8721 19.8442 21.5247 20.0612 19.6699 22.628C19.3254 21.3858 18.3634 21.3833 17.3637 21.0724C17.9132 21.5178 18.0138 22.2816 18.3898 22.7993C20.9374 23.7281 23.4071 24.8751 25.8265 26.1033C25.8391 26.1591 25.8529 26.2149 25.8642 26.2733C25.1349 25.9066 24.3993 25.5539 23.6548 25.2202C21.9233 24.4221 20.144 23.7281 18.3584 23.0746C18.4829 23.8638 18.4816 24.6581 18.3898 25.4549C20.9563 26.4966 23.5127 27.5764 26.0164 28.7652C26.1358 28.0293 26.3936 27.0194 26.039 26.3634C26.1195 26.253 26.1886 26.1426 26.249 26.0348C26.3131 26.5562 26.9142 26.6133 27.2826 26.8671C27.2877 26.862 27.2927 26.8569 27.2977 26.8531C27.1104 26.3697 26.8538 25.9104 26.4477 25.5793C27.0513 24.0364 25.0619 23.2967 23.719 23.1952C26.4263 22.1738 27.2109 25.3965 31.3392 23.9767C31.0714 23.5441 31.0336 23.4718 30.7545 22.9718C33.0016 24.62 35.2638 25.2506 37.8252 24.3168C37.4719 23.9222 37.1651 23.5771 36.8557 23.2319C38.7759 24.2533 41.4077 23.7623 42.2264 22.208C41.746 21.9593 41.2644 21.7106 40.784 21.462C41.8328 21.4125 42.7306 21.2945 43.4775 21.108C45.1248 20.6969 46.034 19.9457 46.2062 18.8444C45.1349 18.7632 44.0623 18.682 42.9909 18.6008C45.9283 18.1275 48.2119 16.8206 47.9843 13.4151V13.4177ZM4.23201 7.87678C4.23201 7.87678 4.22572 7.86663 4.22321 7.86283L4.25967 7.86029C4.25967 7.86029 4.23201 7.87678 4.23201 7.87805V7.87678Z" fill="white"/>
<path d="M24.5982 15.8576C24.9741 15.9261 25.3552 15.713 25.4998 15.3463C24.9767 15.2334 24.4536 15.1204 23.9304 15.0062C23.9128 15.4211 24.2033 15.7853 24.5982 15.8576Z" fill="white"/>
<path d="M25.3087 31.1772C23.2578 30.4045 21.2043 29.6306 19.1484 28.8566C18.6492 28.6688 18.1487 28.481 17.6507 28.2932C17.476 28.7132 17.2924 29.1218 17.0874 29.5176C16.9315 29.8234 16.7617 30.1216 16.5781 30.4109C19.1471 31.4551 21.7375 32.3852 24.3556 33.2302C24.5417 33.0043 25.2823 31.4158 25.31 31.1772H25.3087Z" fill="white"/>
<path d="M25.3904 30.9983C25.4696 30.7788 25.5501 30.5606 25.623 30.3411C25.6984 30.1089 25.7676 29.8742 25.833 29.6382C25.8946 29.4225 25.9474 29.203 26.0015 28.986C26.0103 28.9581 26.004 28.9251 26.0053 28.8997C24.8911 28.3935 23.7707 27.9024 22.6441 27.4317C21.2269 26.8392 19.7959 26.2784 18.3448 25.7569C18.2228 26.5397 18.0028 27.2972 17.75 28.0534C18.2744 28.2602 18.8 28.4683 19.3231 28.6751C21.3388 29.472 23.3533 30.2688 25.3677 31.0656C25.3778 31.0389 25.3853 31.0199 25.3929 30.9996L25.3904 30.9983Z" fill="white"/>
<path d="M15.241 32.5945C16.1439 32.9346 17.0442 33.2822 17.9509 33.6134C18.6047 33.8532 19.2637 34.0765 19.9238 34.2973C20.418 34.4622 20.9185 34.6119 21.4164 34.7642C21.8302 34.8911 22.2476 35.0103 22.6601 35.1398C22.7657 35.1727 22.8487 35.1562 22.9216 35.0801C23.1379 34.853 23.3655 34.6348 23.5667 34.395C23.7578 34.1666 23.9226 33.9153 24.0961 33.673C24.1678 33.5715 24.2319 33.4636 24.3023 33.3507C24.2747 33.3393 24.2545 33.3317 24.2344 33.3253C24.1275 33.2911 24.0207 33.2581 23.915 33.2238C23.4183 33.064 22.9216 32.9054 22.4262 32.7455C21.9207 32.5831 21.4139 32.422 20.9097 32.2545C20.4909 32.1162 20.0735 31.9715 19.6585 31.8256C19.0386 31.6074 18.4212 31.3853 17.8037 31.1608C17.3749 31.0047 16.9487 30.8397 16.5199 30.6786C16.4884 30.6672 16.4532 30.6621 16.4142 30.652C15.9565 31.3168 15.4296 31.9081 14.8047 32.4232C14.8298 32.4384 14.8399 32.4461 14.85 32.4499C14.9807 32.4981 15.1115 32.5438 15.2423 32.5932L15.241 32.5945Z" fill="white"/>
<path d="M22.6672 35.3098C22.6672 35.3009 22.6672 35.292 22.6672 35.2831C22.5239 35.2412 22.3818 35.1968 22.2384 35.1562C21.9014 35.0611 21.5619 34.9697 21.2249 34.872C20.9709 34.7984 20.7182 34.721 20.4642 34.6449C19.9725 34.4965 19.4796 34.3518 18.9904 34.1983C18.5264 34.0524 18.0649 33.9001 17.6047 33.7428C16.9596 33.522 16.3145 33.2987 15.6732 33.0652C15.345 32.946 15.0244 32.8089 14.705 32.6668C14.5817 32.6123 14.4887 32.6275 14.378 32.696C13.8763 33.0056 13.3394 33.2111 12.7383 33.2188C12.7886 33.253 12.8389 33.2873 12.893 33.3127C13.0765 33.4002 13.2614 33.4877 13.4475 33.5702C13.8147 33.7339 14.1806 33.9027 14.5528 34.0536C14.9854 34.2287 15.4242 34.3873 15.8618 34.5497C16.5396 34.7997 17.2325 35.0002 17.9291 35.188C18.2736 35.2806 18.6195 35.363 18.9678 35.4417C19.3173 35.5204 19.6682 35.5927 20.019 35.66C20.3711 35.7272 20.7244 35.783 21.0765 35.8427C21.2526 35.8718 21.4274 35.8757 21.5984 35.8173C21.743 35.7678 21.8914 35.7247 22.0284 35.6587C22.2447 35.5521 22.4535 35.4278 22.666 35.3123L22.6672 35.3098Z" fill="white"/>
<path d="M11.9697 31.5198C12.3796 31.3409 12.7078 31.0428 13.0159 30.7217C13.0285 30.7091 13.0373 30.6913 13.0473 30.6761C13.0184 30.6786 12.997 30.6913 12.9769 30.704C12.7418 30.8562 12.5054 31.0072 12.2426 31.11C11.9684 31.2166 11.688 31.3092 11.3862 31.2851C11.1046 31.2635 10.8518 31.1709 10.6556 30.9539C10.5437 30.8296 10.457 30.69 10.3865 30.5378C10.2268 30.1952 10.1577 29.831 10.1275 29.4567C10.0772 28.8541 10.13 28.2564 10.2231 27.6601C10.291 27.2236 10.3853 26.7948 10.5135 26.3748C10.6267 26.0018 10.7613 25.6338 10.8983 25.2697C10.9423 25.1529 10.9901 25.0362 11.0404 24.9207C11.1637 24.6365 11.3032 24.3587 11.4504 24.0859C11.6138 23.7851 11.7936 23.4946 11.9886 23.2129C12.0917 23.0645 12.1973 22.9186 12.3092 22.7764C12.5003 22.5303 12.7078 22.2968 12.9367 22.0824C13.246 21.7931 13.5855 21.5571 13.998 21.4391C14.3601 21.3338 14.6997 21.3795 15.0115 21.5964C15.0907 21.6523 15.1611 21.7157 15.224 21.7855C15.3095 21.8819 15.3837 21.9885 15.4504 22.0989C15.6352 22.4021 15.771 22.727 15.8515 23.0733C15.8603 23.1063 15.8729 23.1393 15.8829 23.1723C15.8867 23.1723 15.8905 23.1723 15.893 23.1698C15.893 23.1178 15.893 23.0657 15.8905 23.0137C15.8628 22.5531 15.8113 22.0989 15.5849 21.6815C15.5673 21.6497 15.5497 21.6193 15.5296 21.5876C15.3913 21.3604 15.2114 21.1727 14.9738 21.0432C14.6758 20.8796 14.3538 20.8415 14.0219 20.8859C13.5906 20.9443 13.2033 21.1232 12.8399 21.3554C12.4941 21.5761 12.1822 21.8451 11.8968 22.1408C11.6692 22.3768 11.4566 22.6242 11.2655 22.8894C11.1875 22.9947 11.1146 23.1025 11.0455 23.2142C10.8669 23.5035 10.682 23.7915 10.5286 24.0935C10.4494 24.247 10.3777 24.4056 10.3073 24.5642C10.2193 24.7583 10.1376 24.9537 10.0571 25.1504C9.85338 25.644 9.70122 26.1553 9.58805 26.6768C9.47991 27.1691 9.40949 27.669 9.3944 28.1752C9.37931 28.7031 9.40698 29.2271 9.52266 29.7435C9.62074 30.1825 9.77667 30.5987 10.0407 30.9666C10.2243 31.2229 10.4482 31.4374 10.7424 31.5617C11.1574 31.7343 11.5723 31.6924 11.9697 31.5173V31.5198Z" fill="white"/>
<path d="M14.5778 29.878C14.0987 30.5644 13.5416 31.1671 12.8438 31.6556C12.879 31.6695 12.8966 31.6759 12.9142 31.6822C13.0261 31.7254 13.138 31.7672 13.2487 31.8104C13.6146 31.9563 13.9818 32.1009 14.3464 32.2481C14.4055 32.2722 14.4571 32.2684 14.5036 32.224C14.5363 32.1936 14.5677 32.1606 14.5992 32.1289C14.8016 31.9271 15.0129 31.733 15.2053 31.5211C15.4731 31.2255 15.7095 30.9044 15.9283 30.5695C15.9484 30.539 15.9635 30.5073 15.9849 30.4718C15.9509 30.4553 15.9296 30.4426 15.9057 30.4325C15.4945 30.2561 15.0846 30.0797 14.6734 29.9046C14.6432 29.8919 14.6117 29.8856 14.5765 29.8754L14.5778 29.878Z" fill="white"/>
<path d="M18.0128 23.1469C18.009 23.1038 18.004 23.0632 17.9989 23.0201C17.9901 22.9579 17.9725 22.9122 17.9084 22.8906C17.8367 22.864 17.7676 22.831 17.6959 22.8044C17.6154 22.7739 17.5349 22.7422 17.4544 22.713C17.1539 22.5988 16.8521 22.4872 16.5516 22.3742C16.5013 22.3552 16.4497 22.3425 16.3906 22.3247C16.4422 22.5354 16.4812 22.7447 16.5076 22.9566C16.5893 23.5682 16.5767 24.1797 16.5101 24.7989C16.9867 24.9677 17.4607 25.139 17.9423 25.309C17.9499 25.2722 17.9587 25.2367 17.965 25.2011C18.0291 24.7989 18.0492 24.3929 18.053 23.9882C18.053 23.8892 18.053 23.7928 18.0492 23.6951C18.0442 23.5111 18.0341 23.3284 18.0128 23.1469Z" fill="white"/>
<path d="M16.2472 27.4774C16.4811 27.5675 16.7125 27.6576 16.9426 27.7464C17.052 27.7895 17.1614 27.8301 17.2695 27.8733C17.5587 27.1247 17.7574 26.3621 17.9046 25.5856C17.4229 25.4003 16.9577 25.2202 16.4786 25.0349C16.3453 25.8267 16.1592 26.5905 15.875 27.334C16.0007 27.3822 16.124 27.4304 16.2472 27.4774Z" fill="white"/>
<path d="M16.7744 29.052C16.9216 28.7462 17.0549 28.4341 17.1768 28.1131C17.0737 28.0725 16.9719 28.0331 16.87 27.9951C16.5431 27.8695 16.2224 27.7451 15.898 27.6195C15.8615 27.6055 15.8251 27.5916 15.7886 27.5764C15.776 27.6081 15.7634 27.6385 15.7496 27.6702C15.4654 28.3681 15.1209 29.0342 14.7109 29.6839C15.1837 29.8729 15.6503 30.0607 16.1268 30.2523C16.3632 29.8615 16.5783 29.4631 16.7744 29.0533V29.052Z" fill="white"/>
<path d="M24.7227 33.352C25.1012 33.4751 25.4696 33.5956 25.8405 33.7161C25.8732 33.673 25.9022 33.6425 25.9223 33.607C26.0392 33.3977 26.1574 33.1883 26.2693 32.9764C26.4642 32.6097 26.6353 32.2316 26.7824 31.8421C26.7937 31.8104 26.795 31.7761 26.8038 31.7343C26.4253 31.6226 26.0807 31.445 25.7035 31.3308C25.4256 32.0312 25.1188 32.7049 24.7239 33.3533L24.7227 33.352Z" fill="white"/>
<path d="M27.3543 29.5151C27.0889 29.392 26.8249 29.2677 26.5583 29.1459C26.4954 29.1167 26.4288 29.0951 26.3558 29.0672C26.2075 29.8018 26.005 30.5162 25.7422 31.2217C26.1182 31.3752 26.4753 31.5363 26.8462 31.6619C26.8563 31.6391 26.8613 31.6289 26.8664 31.6188C27.1065 30.9793 27.2926 30.3233 27.4234 29.6521C27.4385 29.5747 27.4259 29.5481 27.3555 29.5164L27.3543 29.5151Z" fill="white"/>
<path d="M24.7587 33.47C24.6984 33.451 24.6493 33.4687 24.6141 33.5195C24.5424 33.6248 24.4733 33.7326 24.4029 33.8392C24.1501 34.2237 23.8609 34.5764 23.5289 34.8923C23.4044 35.0116 23.2724 35.122 23.1328 35.2463C23.1642 35.2603 23.1831 35.2717 23.2032 35.2768C23.4786 35.3554 23.7527 35.4328 24.0281 35.5102C24.1023 35.5318 24.1715 35.5166 24.2331 35.4696C24.3563 35.377 24.4833 35.2869 24.6015 35.188C24.9096 34.9329 25.1787 34.6398 25.4227 34.3226C25.522 34.1932 25.6163 34.0613 25.7119 33.9293C25.7446 33.8836 25.771 33.8341 25.8024 33.7821C25.7219 33.7593 25.6515 33.739 25.5798 33.7174C25.3057 33.6349 25.0316 33.5525 24.7587 33.4687V33.47Z" fill="white"/>
<path d="M27.3814 27.1373C27.3638 27.0536 27.3122 26.9851 27.2229 26.9534C27.1751 26.9369 27.1299 26.9128 27.0846 26.8887C26.896 26.7935 26.7074 26.6971 26.5188 26.6006C26.4974 26.5892 26.4722 26.5829 26.437 26.5689C26.4597 26.8417 26.4911 27.1018 26.4986 27.3632C26.5049 27.6246 26.4961 27.8872 26.4773 28.1486C26.4584 28.4112 26.4194 28.6726 26.3867 28.9543C26.7287 29.1192 27.0808 29.2892 27.4392 29.4618C27.4468 29.4301 27.4531 29.4123 27.4543 29.3958C27.4707 29.2766 27.4883 29.1586 27.5008 29.0393C27.5436 28.6307 27.5461 28.2196 27.5008 27.8111C27.4757 27.584 27.4266 27.3607 27.3801 27.1361L27.3814 27.1373Z" fill="white"/>
<path d="M14.0358 32.5615C14.0836 32.5298 14.1276 32.4917 14.1829 32.4499C14.1377 32.4283 14.1062 32.4131 14.0748 32.3991C14.0044 32.3687 13.9327 32.3407 13.8635 32.3103C13.4838 32.1415 13.104 31.9715 12.7255 31.8002C12.6639 31.7723 12.6098 31.7774 12.552 31.8078C12.3357 31.922 12.1094 32.007 11.873 32.0692C11.5913 32.1441 11.3046 32.1555 11.0179 32.1174C10.916 32.1035 10.8167 32.0756 10.7148 32.054C10.7224 32.073 10.7337 32.0857 10.7488 32.0933C10.8117 32.1301 10.8745 32.1656 10.9374 32.2024C11.3499 32.4473 11.7661 32.6884 12.1748 32.9409C12.3596 33.0551 12.5445 33.0906 12.7607 33.0576C13.2247 32.9866 13.646 32.8153 14.0371 32.559L14.0358 32.5615Z" fill="white"/>
<path d="M13.9795 26.338C13.8211 26.4332 13.7318 26.5892 13.6626 26.7567C13.6023 26.9166 13.6136 27.0752 13.6589 27.2338C13.7381 27.5104 13.982 27.636 14.2511 27.5434C14.3643 27.504 14.4498 27.4317 14.5227 27.3378C14.6938 27.1196 14.7566 26.8772 14.6824 26.6057C14.5781 26.2276 14.275 26.1578 13.9795 26.3355V26.338Z" fill="white"/>
<path d="M23.587 35.5077C23.426 35.4646 23.2676 35.4138 23.1066 35.3707C23.0211 35.3478 22.9419 35.3567 22.8614 35.41C22.5773 35.5978 22.2692 35.7386 21.9435 35.8389C21.8592 35.8655 21.7725 35.8845 21.6719 35.9099C22.4829 36.0711 23.2538 36.0419 23.9856 35.6054C23.9479 35.594 23.9215 35.5826 23.8938 35.5762C23.7907 35.5534 23.6876 35.5343 23.5857 35.5077H23.587Z" fill="white"/>
</g>
<defs>
<clipPath id="clip0_219_88">
<rect width="48" height="36" fill="white"/>
</clipPath>
</defs>
</svg>
