<svg width="204" height="68" viewBox="0 0 204 68" fill="none" xmlns="http://www.w3.org/2000/svg">
<path d="M13.68 0.679998C14.56 0.679998 15.4 0.746665 16.2 0.879998C17.0267 1.01333 17.8133 1.21333 18.56 1.48C19.3333 1.74667 20.0533 2.08 20.72 2.48C21.4133 2.85333 22.0667 3.30667 22.68 3.84C23.2933 4.34666 23.84 4.92 24.32 5.56C24.8267 6.17333 25.28 6.85333 25.68 7.6C26.08 8.34667 26.4133 9.14667 26.68 10C26.9733 10.8267 27.1867 11.72 27.32 12.68C27.48 13.64 27.56 14.64 27.56 15.68C27.56 16.64 27.4933 17.56 27.36 18.44C27.2267 19.2933 27.04 20.1067 26.8 20.88C26.56 21.6533 26.2667 22.3867 25.92 23.08C25.5733 23.7467 25.1867 24.3733 24.76 24.96C24.3333 25.5467 23.8667 26.0933 23.36 26.6C22.8533 27.08 22.3067 27.52 21.72 27.92C21.16 28.32 20.5733 28.6667 19.96 28.96C19.3467 29.2533 18.72 29.5067 18.08 29.72C17.44 29.9067 16.7733 30.0533 16.08 30.16C15.4133 30.2667 14.7467 30.32 14.08 30.32C13.2267 30.32 12.3867 30.2533 11.56 30.12C10.7333 29.9867 9.93333 29.7867 9.16 29.52C8.41333 29.2533 7.69333 28.9333 7 28.56C6.30667 28.16 5.65333 27.7067 5.04 27.2C4.45333 26.6933 3.90667 26.1333 3.4 25.52C2.89333 24.88 2.44 24.1867 2.04 23.44C1.64 22.6933 1.29333 21.9067 1 21.08C0.733334 20.2267 0.52 19.32 0.36 18.36C0.226667 17.4 0.16 16.4 0.16 15.36C0.16 14.4 0.226667 13.4933 0.36 12.64C0.493333 11.76 0.68 10.9333 0.92 10.16C1.16 9.38667 1.45333 8.65333 1.8 7.96C2.14667 7.26667 2.53333 6.62667 2.96 6.04C3.38667 5.45333 3.85333 4.92 4.36 4.44C4.86667 3.93333 5.4 3.48 5.96 3.08C6.54667 2.68 7.14667 2.33333 7.76 2.04C8.37333 1.74666 9 1.50667 9.64 1.32C10.3067 1.10667 10.9733 0.946666 11.64 0.839999C12.3333 0.733332 13.0133 0.679998 13.68 0.679998ZM14.4 28.04C15.12 28.04 15.8133 27.9733 16.48 27.84C17.1467 27.7067 17.7733 27.5067 18.36 27.24C18.9733 26.9467 19.5333 26.6133 20.04 26.24C20.5733 25.84 21.0533 25.4 21.48 24.92C21.9333 24.4133 22.32 23.8533 22.64 23.24C22.9867 22.6267 23.28 21.9733 23.52 21.28C23.76 20.5867 23.9333 19.8533 24.04 19.08C24.1733 18.28 24.24 17.4533 24.24 16.6C24.24 15.4 24.16 14.28 24 13.24C23.84 12.1733 23.6 11.1867 23.28 10.28C22.96 9.34667 22.56 8.50667 22.08 7.76C21.6267 6.98666 21.0933 6.30666 20.48 5.72C19.8933 5.13333 19.2267 4.64 18.48 4.24C17.76 3.81333 16.96 3.49333 16.08 3.28C15.2267 3.06666 14.3067 2.96 13.32 2.96C12.6 2.96 11.9067 3.04 11.24 3.2C10.5733 3.33333 9.93333 3.53333 9.32 3.8C8.73333 4.06667 8.17333 4.4 7.64 4.8C7.13333 5.17333 6.65333 5.61333 6.2 6.12C5.77333 6.62667 5.38667 7.18667 5.04 7.8C4.72 8.38667 4.44 9.04 4.2 9.76C3.96 10.4533 3.77333 11.2 3.64 12C3.53333 12.7733 3.48 13.5867 3.48 14.44C3.48 15.64 3.56 16.7733 3.72 17.84C3.88 18.88 4.12 19.8667 4.44 20.8C4.76 21.7067 5.14667 22.5467 5.6 23.32C6.08 24.0667 6.61333 24.7333 7.2 25.32C7.81333 25.9067 8.49333 26.4 9.24 26.8C9.98667 27.2 10.7867 27.5067 11.64 27.72C12.4933 27.9333 13.4133 28.04 14.4 28.04ZM31.6919 0.999999H36.0919V17.84C36.0919 21.2 36.7719 23.7467 38.1319 25.48C39.5185 27.1867 41.6785 28.04 44.6119 28.04C47.1185 28.0133 49.0519 27.2133 50.4119 25.64C51.7719 24.04 52.4519 21.9333 52.4519 19.32V7.84C52.4519 6.32 52.3719 5 52.2119 3.88C52.0519 2.76 51.7185 1.8 51.2119 0.999999H55.0519C54.9719 2.06666 54.9185 3.01333 54.8919 3.84C54.8919 4.66667 54.8919 5.6 54.8919 6.64V18.44C54.8919 19.6133 54.7985 20.7067 54.6119 21.72C54.4519 22.7067 54.1985 23.6 53.8519 24.4C53.5319 25.2 53.1319 25.92 52.6519 26.56C52.1719 27.2 51.6252 27.76 51.0119 28.24C50.4252 28.72 49.7585 29.12 49.0119 29.44C48.2919 29.7333 47.5185 29.9467 46.6919 30.08C45.8652 30.24 44.9852 30.32 44.0519 30.32C40.4519 30.32 37.6919 29.32 35.7719 27.32C33.8519 25.32 32.8919 22.3733 32.8919 18.48V7.6C32.8919 6.21333 32.8119 4.97333 32.6519 3.88C32.5185 2.78667 32.1985 1.82667 31.6919 0.999999ZM60.9144 0.999999H67.8744C68.1944 0.999999 68.5277 1.01333 68.8744 1.04C69.221 1.04 69.5677 1.05333 69.9144 1.08C70.2877 1.10666 70.661 1.14666 71.0344 1.2C71.4344 1.22667 71.821 1.28 72.1944 1.36C72.5944 1.44 72.981 1.53333 73.3544 1.64C73.7277 1.74666 74.0877 1.88 74.4344 2.04C74.8077 2.2 75.1544 2.38667 75.4744 2.6C75.7944 2.78666 76.0877 3.01333 76.3544 3.28C76.6477 3.52 76.901 3.8 77.1144 4.12C77.3544 4.44 77.5544 4.8 77.7144 5.2C77.8744 5.6 77.9944 6.02667 78.0744 6.48C78.181 6.93333 78.2344 7.44 78.2344 8C78.2344 9.84 77.6877 11.4133 76.5944 12.72C75.5277 14.0267 73.9544 14.9333 71.8744 15.44C72.781 15.76 73.4477 16.2267 73.8744 16.84C74.301 17.4267 74.7144 18.0933 75.1144 18.84L78.4344 24.92C79.021 26.0133 79.5944 26.9467 80.1544 27.72C80.7144 28.4667 81.3277 29.1867 81.9944 29.88V30H77.5144L71.1944 18.36C70.741 17.5067 70.2477 16.8933 69.7144 16.52C69.2077 16.1467 68.341 15.96 67.1144 15.96H65.3944V23.4C65.3944 24.7867 65.461 26.04 65.5944 27.16C65.7544 28.2533 66.0877 29.2 66.5944 30H62.1144V7.6C62.1144 6.21333 62.0477 4.97333 61.9144 3.88C61.781 2.78667 61.4477 1.82667 60.9144 0.999999ZM67.1944 3.12H65.3944V13.92H67.7144C69.8744 13.92 71.6077 13.52 72.9144 12.72C74.2477 11.8933 74.9144 10.44 74.9144 8.36C74.9144 7.88 74.8744 7.45333 74.7944 7.08C74.7144 6.68 74.5944 6.32 74.4344 6C74.2744 5.68 74.0877 5.4 73.8744 5.16C73.661 4.89333 73.421 4.66667 73.1544 4.48C72.9144 4.26667 72.6344 4.09333 72.3144 3.96C72.021 3.82667 71.701 3.70667 71.3544 3.6C71.0344 3.49333 70.701 3.41333 70.3544 3.36C70.0077 3.28 69.6477 3.22667 69.2744 3.2C68.9277 3.17333 68.581 3.16 68.2344 3.16C67.8877 3.13333 67.541 3.12 67.1944 3.12ZM0.68 38H8.64C9.04 38 9.45333 38.0133 9.88 38.04C10.3067 38.0667 10.7333 38.1067 11.16 38.16C11.6133 38.2133 12.0533 38.28 12.48 38.36C12.9067 38.44 13.32 38.5467 13.72 38.68C14.1467 38.8133 14.5467 38.9733 14.92 39.16C15.32 39.32 15.6933 39.52 16.04 39.76C16.4133 40 16.7467 40.2667 17.04 40.56C17.36 40.8533 17.64 41.1733 17.88 41.52C18.12 41.8667 18.32 42.2667 18.48 42.72C18.6667 43.1467 18.8 43.6133 18.88 44.12C18.9867 44.6267 19.04 45.1733 19.04 45.76C19.04 46.48 18.9733 47.1467 18.84 47.76C18.7333 48.3733 18.56 48.9467 18.32 49.48C18.08 50.0133 17.7867 50.5067 17.44 50.96C17.12 51.3867 16.7467 51.7867 16.32 52.16C15.8933 52.5067 15.4267 52.8133 14.92 53.08C14.4133 53.3467 13.8667 53.5867 13.28 53.8C12.6933 54.0133 12.08 54.1867 11.44 54.32C10.8 54.4267 10.1333 54.52 9.44 54.6C8.74667 54.6533 8.02667 54.68 7.28 54.68H5.08V60.4C5.08 61.7867 5.14667 63.04 5.28 64.16C5.44 65.2533 5.77333 66.2 6.28 67H1.88V44.6C1.88 43.2133 1.81333 41.9733 1.68 40.88C1.54667 39.7867 1.21333 38.8267 0.68 38ZM7.56 40.2H5.08V52.48H8.04C10.52 52.48 12.4133 51.9733 13.72 50.96C15.0533 49.9467 15.72 48.36 15.72 46.2C15.72 43.88 14.96 42.3067 13.44 41.48C11.92 40.6267 9.96 40.2 7.56 40.2ZM23.5316 38H30.4916C30.8116 38 31.1449 38.0133 31.4916 38.04C31.8382 38.04 32.1849 38.0533 32.5316 38.08C32.9049 38.1067 33.2782 38.1467 33.6516 38.2C34.0516 38.2267 34.4382 38.28 34.8116 38.36C35.2116 38.44 35.5982 38.5333 35.9716 38.64C36.3449 38.7467 36.7049 38.88 37.0516 39.04C37.4249 39.2 37.7716 39.3867 38.0916 39.6C38.4116 39.7867 38.7049 40.0133 38.9716 40.28C39.2649 40.52 39.5182 40.8 39.7316 41.12C39.9716 41.44 40.1716 41.8 40.3316 42.2C40.4916 42.6 40.6116 43.0267 40.6916 43.48C40.7982 43.9333 40.8516 44.44 40.8516 45C40.8516 46.84 40.3049 48.4133 39.2116 49.72C38.1449 51.0267 36.5716 51.9333 34.4916 52.44C35.3982 52.76 36.0649 53.2267 36.4916 53.84C36.9182 54.4267 37.3316 55.0933 37.7316 55.84L41.0516 61.92C41.6382 63.0133 42.2116 63.9467 42.7716 64.72C43.3316 65.4667 43.9449 66.1867 44.6116 66.88V67H40.1316L33.8116 55.36C33.3582 54.5067 32.8649 53.8933 32.3316 53.52C31.8249 53.1467 30.9582 52.96 29.7316 52.96H28.0116V60.4C28.0116 61.7867 28.0782 63.04 28.2116 64.16C28.3716 65.2533 28.7049 66.2 29.2116 67H24.7316V44.6C24.7316 43.2133 24.6649 41.9733 24.5316 40.88C24.3982 39.7867 24.0649 38.8267 23.5316 38ZM29.8116 40.12H28.0116V50.92H30.3316C32.4916 50.92 34.2249 50.52 35.5316 49.72C36.8649 48.8933 37.5316 47.44 37.5316 45.36C37.5316 44.88 37.4916 44.4533 37.4116 44.08C37.3316 43.68 37.2116 43.32 37.0516 43C36.8916 42.68 36.7049 42.4 36.4916 42.16C36.2782 41.8933 36.0382 41.6667 35.7716 41.48C35.5316 41.2667 35.2516 41.0933 34.9316 40.96C34.6382 40.8267 34.3182 40.7067 33.9716 40.6C33.6516 40.4933 33.3182 40.4133 32.9716 40.36C32.6249 40.28 32.2649 40.2267 31.8916 40.2C31.5449 40.1733 31.1982 40.16 30.8516 40.16C30.5049 40.1333 30.1582 40.12 29.8116 40.12ZM59.3441 37.68C60.2241 37.68 61.0641 37.7467 61.8641 37.88C62.6907 38.0133 63.4774 38.2133 64.2241 38.48C64.9974 38.7467 65.7174 39.08 66.3841 39.48C67.0774 39.8533 67.7307 40.3067 68.3441 40.84C68.9574 41.3467 69.5041 41.92 69.9841 42.56C70.4907 43.1733 70.9441 43.8533 71.3441 44.6C71.7441 45.3467 72.0774 46.1467 72.3441 47C72.6374 47.8267 72.8507 48.72 72.9841 49.68C73.1441 50.64 73.2241 51.64 73.2241 52.68C73.2241 53.64 73.1574 54.56 73.0241 55.44C72.8907 56.2933 72.7041 57.1067 72.4641 57.88C72.2241 58.6533 71.9307 59.3867 71.5841 60.08C71.2374 60.7467 70.8507 61.3733 70.4241 61.96C69.9974 62.5467 69.5307 63.0933 69.0241 63.6C68.5174 64.08 67.9707 64.52 67.3841 64.92C66.8241 65.32 66.2374 65.6667 65.6241 65.96C65.0107 66.2533 64.3841 66.5067 63.7441 66.72C63.1041 66.9067 62.4374 67.0533 61.7441 67.16C61.0774 67.2667 60.4107 67.32 59.7441 67.32C58.8907 67.32 58.0507 67.2533 57.2241 67.12C56.3974 66.9867 55.5974 66.7867 54.8241 66.52C54.0774 66.2533 53.3574 65.9333 52.6641 65.56C51.9707 65.16 51.3174 64.7067 50.7041 64.2C50.1174 63.6933 49.5707 63.1333 49.0641 62.52C48.5574 61.88 48.1041 61.1867 47.7041 60.44C47.3041 59.6933 46.9574 58.9067 46.6641 58.08C46.3974 57.2267 46.1841 56.32 46.0241 55.36C45.8907 54.4 45.8241 53.4 45.8241 52.36C45.8241 51.4 45.8907 50.4933 46.0241 49.64C46.1574 48.76 46.3441 47.9333 46.5841 47.16C46.8241 46.3867 47.1174 45.6533 47.4641 44.96C47.8107 44.2667 48.1974 43.6267 48.6241 43.04C49.0507 42.4533 49.5174 41.92 50.0241 41.44C50.5307 40.9333 51.0641 40.48 51.6241 40.08C52.2107 39.68 52.8107 39.3333 53.4241 39.04C54.0374 38.7467 54.6641 38.5067 55.3041 38.32C55.9707 38.1067 56.6374 37.9467 57.3041 37.84C57.9974 37.7333 58.6774 37.68 59.3441 37.68ZM60.0641 65.04C60.7841 65.04 61.4774 64.9733 62.1441 64.84C62.8107 64.7067 63.4374 64.5067 64.0241 64.24C64.6374 63.9467 65.1974 63.6133 65.7041 63.24C66.2374 62.84 66.7174 62.4 67.1441 61.92C67.5974 61.4133 67.9841 60.8533 68.3041 60.24C68.6507 59.6267 68.9441 58.9733 69.1841 58.28C69.4241 57.5867 69.5974 56.8533 69.7041 56.08C69.8374 55.28 69.9041 54.4533 69.9041 53.6C69.9041 52.4 69.8241 51.28 69.6641 50.24C69.5041 49.1733 69.2641 48.1867 68.9441 47.28C68.6241 46.3467 68.2241 45.5067 67.7441 44.76C67.2907 43.9867 66.7574 43.3067 66.1441 42.72C65.5574 42.1333 64.8907 41.64 64.1441 41.24C63.4241 40.8133 62.6241 40.4933 61.7441 40.28C60.8907 40.0667 59.9707 39.96 58.9841 39.96C58.2641 39.96 57.5707 40.04 56.9041 40.2C56.2374 40.3333 55.5974 40.5333 54.9841 40.8C54.3974 41.0667 53.8374 41.4 53.3041 41.8C52.7974 42.1733 52.3174 42.6133 51.8641 43.12C51.4374 43.6267 51.0507 44.1867 50.7041 44.8C50.3841 45.3867 50.1041 46.04 49.8641 46.76C49.6241 47.4533 49.4374 48.2 49.3041 49C49.1974 49.7733 49.1441 50.5867 49.1441 51.44C49.1441 52.64 49.2241 53.7733 49.3841 54.84C49.5441 55.88 49.7841 56.8667 50.1041 57.8C50.4241 58.7067 50.8107 59.5467 51.2641 60.32C51.7441 61.0667 52.2774 61.7333 52.8641 62.32C53.4774 62.9067 54.1574 63.4 54.9041 63.8C55.6507 64.2 56.4507 64.5067 57.3041 64.72C58.1574 64.9333 59.0774 65.04 60.0641 65.04ZM78.1019 38H87.4619C88.6352 38 89.7552 38.0667 90.8219 38.2C91.8885 38.3333 92.9019 38.5467 93.8619 38.84C94.8219 39.1067 95.7152 39.4533 96.5419 39.88C97.3685 40.3067 98.1285 40.8 98.8219 41.36C99.5152 41.92 100.129 42.56 100.662 43.28C101.222 43.9733 101.675 44.7467 102.022 45.6C102.395 46.4533 102.675 47.3867 102.862 48.4C103.075 49.3867 103.182 50.4533 103.182 51.6C103.182 52.96 103.062 54.24 102.822 55.44C102.582 56.64 102.222 57.76 101.742 58.8C101.289 59.8133 100.715 60.76 100.022 61.64C99.3285 62.4933 98.5285 63.2533 97.6219 63.92C96.7152 64.5867 95.6885 65.1467 94.5419 65.6C93.4219 66.0533 92.1819 66.4 90.8219 66.64C89.4885 66.88 88.0352 67 86.4619 67H79.3019V44.6C79.3019 43.2133 79.2352 41.9733 79.1019 40.88C78.9685 39.7867 78.6352 38.8267 78.1019 38ZM82.5019 59.6C82.5019 60.6933 82.5419 61.6667 82.6219 62.52C82.7019 63.3733 82.8752 64.1333 83.1419 64.8H86.7819C87.8485 64.8 88.8485 64.7333 89.7819 64.6C90.7152 64.4667 91.5685 64.28 92.3419 64.04C93.1152 63.8 93.8219 63.5067 94.4619 63.16C95.1285 62.7867 95.7152 62.3867 96.2219 61.96C96.7552 61.5067 97.2219 61.0133 97.6219 60.48C98.0219 59.9467 98.3685 59.3733 98.6619 58.76C98.9552 58.1467 99.1819 57.5067 99.3419 56.84C99.5285 56.1733 99.6619 55.48 99.7419 54.76C99.8485 54.04 99.9019 53.3067 99.9019 52.56C99.9019 48.5333 98.7952 45.4667 96.5819 43.36C94.3952 41.2533 91.0352 40.2 86.5019 40.2H82.5019V59.6ZM107.317 38H111.717V54.84C111.717 58.2 112.397 60.7467 113.757 62.48C115.144 64.1867 117.304 65.04 120.237 65.04C122.744 65.0133 124.677 64.2133 126.037 62.64C127.397 61.04 128.077 58.9333 128.077 56.32V44.84C128.077 43.32 127.997 42 127.837 40.88C127.677 39.76 127.344 38.8 126.837 38H130.677C130.597 39.0667 130.544 40.0133 130.517 40.84C130.517 41.6667 130.517 42.6 130.517 43.64V55.44C130.517 56.6133 130.424 57.7067 130.237 58.72C130.077 59.7067 129.824 60.6 129.477 61.4C129.157 62.2 128.757 62.92 128.277 63.56C127.797 64.2 127.25 64.76 126.637 65.24C126.05 65.72 125.384 66.12 124.637 66.44C123.917 66.7333 123.144 66.9467 122.317 67.08C121.49 67.24 120.61 67.32 119.677 67.32C116.077 67.32 113.317 66.32 111.397 64.32C109.477 62.32 108.517 59.3733 108.517 55.48V44.6C108.517 43.2133 108.437 41.9733 108.277 40.88C108.144 39.7867 107.824 38.8267 107.317 38ZM158.553 44H158.313C157.247 42.6667 155.9 41.68 154.273 41.04C152.673 40.3733 150.967 40.04 149.153 40.04C148.433 40.04 147.727 40.1067 147.033 40.24C146.367 40.3733 145.713 40.5733 145.073 40.84C144.46 41.08 143.873 41.3867 143.313 41.76C142.753 42.1333 142.233 42.5733 141.753 43.08C141.273 43.5867 140.847 44.1467 140.473 44.76C140.1 45.3733 139.78 46.0533 139.513 46.8C139.247 47.52 139.033 48.3067 138.873 49.16C138.74 49.9867 138.673 50.88 138.673 51.84C138.673 52.64 138.713 53.4267 138.793 54.2C138.9 54.9733 139.047 55.72 139.233 56.44C139.447 57.1333 139.7 57.8 139.993 58.44C140.287 59.08 140.62 59.68 140.993 60.24C141.393 60.8 141.833 61.32 142.313 61.8C142.793 62.28 143.313 62.7067 143.873 63.08C144.46 63.4533 145.073 63.7733 145.713 64.04C146.38 64.28 147.087 64.4667 147.833 64.6C148.58 64.7333 149.367 64.8 150.193 64.8C151.687 64.8 153.167 64.5733 154.633 64.12C156.127 63.6667 157.487 62.9867 158.713 62.08V63.72C157.86 64.6267 156.62 65.4533 154.993 66.2C153.393 66.9467 151.38 67.32 148.953 67.32C148.047 67.32 147.167 67.24 146.313 67.08C145.487 66.9467 144.687 66.7467 143.913 66.48C143.167 66.2133 142.46 65.88 141.793 65.48C141.127 65.08 140.5 64.6267 139.913 64.12C139.353 63.6133 138.833 63.0533 138.353 62.44C137.873 61.8267 137.447 61.1733 137.073 60.48C136.727 59.76 136.433 59 136.193 58.2C135.953 57.4 135.767 56.5733 135.633 55.72C135.5 54.84 135.433 53.9333 135.433 53C135.433 51.96 135.5 50.9733 135.633 50.04C135.767 49.1067 135.953 48.24 136.193 47.44C136.46 46.6133 136.78 45.84 137.153 45.12C137.527 44.4 137.94 43.7333 138.393 43.12C138.847 42.5067 139.34 41.96 139.873 41.48C140.433 40.9733 141.007 40.52 141.593 40.12C142.207 39.72 142.833 39.3733 143.473 39.08C144.14 38.76 144.82 38.5067 145.513 38.32C146.207 38.1067 146.913 37.96 147.633 37.88C148.38 37.7733 149.113 37.72 149.833 37.72C151.407 37.72 152.927 37.92 154.393 38.32C155.86 38.6933 157.06 39.1733 157.993 39.76L158.553 44ZM162.205 42.24L162.725 38H184.205L184.765 42.24H184.645C183.578 41.36 182.445 40.8 181.245 40.56C180.072 40.32 178.485 40.2 176.485 40.2H175.045V60.4C175.045 61.7867 175.112 63.04 175.245 64.16C175.405 65.2533 175.738 66.2 176.245 67H171.885V40.2H170.485C168.485 40.2 166.885 40.32 165.685 40.56C164.512 40.8 163.392 41.36 162.325 42.24H162.205ZM187.102 59.84H187.382C188.449 61.44 189.595 62.7333 190.822 63.72C192.049 64.7067 193.595 65.2 195.462 65.2C197.089 65.2 198.382 64.7733 199.342 63.92C200.302 63.0667 200.782 61.88 200.782 60.36C200.782 58.84 200.369 57.6133 199.542 56.68C198.742 55.7467 197.662 54.8267 196.302 53.92L192.822 51.64C191.222 50.5733 190.062 49.4267 189.342 48.2C188.622 46.9467 188.262 45.64 188.262 44.28C188.262 42.1467 188.969 40.52 190.382 39.4C191.795 38.2533 193.622 37.68 195.862 37.68C196.929 37.68 197.969 37.8133 198.982 38.08C199.995 38.3467 200.862 38.6933 201.582 39.12L202.142 43.44H201.862C200.875 42.1333 199.875 41.2 198.862 40.64C197.875 40.08 196.782 39.8 195.582 39.8C194.382 39.8 193.369 40.12 192.542 40.76C191.742 41.3733 191.342 42.36 191.342 43.72C191.342 44.68 191.622 45.6133 192.182 46.52C192.742 47.4267 193.742 48.3867 195.182 49.4L198.382 51.6C199.849 52.5867 201.142 53.68 202.262 54.88C203.409 56.08 203.982 57.68 203.982 59.68C203.982 60.2933 203.915 60.88 203.782 61.44C203.675 62 203.502 62.5333 203.262 63.04C203.022 63.5467 202.715 64.0267 202.342 64.48C201.995 64.9067 201.582 65.2933 201.102 65.64C200.622 65.9867 200.075 66.2933 199.462 66.56C198.875 66.8 198.222 66.9867 197.502 67.12C196.782 67.2533 196.009 67.32 195.182 67.32C193.582 67.32 192.155 67.0933 190.902 66.64C189.675 66.16 188.595 65.5067 187.662 64.68L187.102 59.84Z" fill="#FFEEAF"/>
</svg>
