<svg width="75" height="11" viewBox="0 0 75 11" fill="none" xmlns="http://www.w3.org/2000/svg">
<path d="M5.404 10.168C4.47067 10.168 3.64933 9.958 2.94 9.538C2.23067 9.10867 1.67533 8.516 1.274 7.76C0.882 6.99467 0.686 6.108 0.686 5.1C0.686 4.10133 0.882 3.224 1.274 2.468C1.67533 1.70267 2.23067 1.10533 2.94 0.676C3.64933 0.246667 4.47067 0.0319998 5.404 0.0319998C6.36533 0.0319998 7.20067 0.246667 7.91 0.676C8.61933 1.10533 9.17 1.70267 9.562 2.468C9.954 3.224 10.15 4.10133 10.15 5.1C10.15 6.108 9.954 6.99467 9.562 7.76C9.17 8.516 8.61933 9.10867 7.91 9.538C7.20067 9.958 6.36533 10.168 5.404 10.168ZM5.418 9.314C6.15533 9.314 6.804 9.146 7.364 8.81C7.924 8.474 8.358 7.99333 8.666 7.368C8.98333 6.73333 9.142 5.97733 9.142 5.1C9.142 4.22267 8.98333 3.47133 8.666 2.846C8.358 2.22067 7.924 1.74 7.364 1.404C6.804 1.068 6.15533 0.899999 5.418 0.899999C4.68067 0.899999 4.032 1.068 3.472 1.404C2.912 1.74 2.47333 2.22067 2.156 2.846C1.848 3.47133 1.694 4.22267 1.694 5.1C1.694 5.97733 1.848 6.73333 2.156 7.368C2.47333 7.99333 2.912 8.474 3.472 8.81C4.032 9.146 4.68067 9.314 5.418 9.314ZM15.3778 10.168C14.7151 10.168 14.1131 10.0373 13.5718 9.776C13.0398 9.51467 12.6151 9.10867 12.2978 8.558C11.9805 7.998 11.8218 7.28867 11.8218 6.43V0.199999H12.8018V6.444C12.8018 7.10667 12.9091 7.65267 13.1238 8.082C13.3478 8.502 13.6558 8.81 14.0478 9.006C14.4398 9.202 14.8878 9.3 15.3918 9.3C15.9051 9.3 16.3531 9.202 16.7358 9.006C17.1185 8.81 17.4171 8.502 17.6318 8.082C17.8465 7.65267 17.9538 7.10667 17.9538 6.444V0.199999H18.9338V6.43C18.9338 7.28867 18.7751 7.998 18.4578 8.558C18.1405 9.10867 17.7111 9.51467 17.1698 9.776C16.6378 10.0373 16.0405 10.168 15.3778 10.168ZM21.0119 10V0.199999H24.0359C24.7919 0.199999 25.4079 0.325999 25.8839 0.577999C26.3693 0.83 26.7239 1.17067 26.9479 1.6C27.1719 2.02 27.2839 2.50067 27.2839 3.042C27.2839 3.56467 27.1673 4.04533 26.9339 4.484C26.7006 4.91333 26.3413 5.25867 25.8559 5.52C25.3706 5.772 24.7406 5.898 23.9659 5.898H21.9919V10H21.0119ZM26.2199 10L24.0219 5.59H25.1419L27.3959 10H26.2199ZM21.9919 5.1H23.9659C24.7593 5.1 25.3426 4.90867 25.7159 4.526C26.0893 4.14333 26.2759 3.64867 26.2759 3.042C26.2759 2.41667 26.0939 1.92667 25.7299 1.572C25.3659 1.208 24.7733 1.026 23.9519 1.026H21.9919V5.1ZM37.2842 10.168C36.3415 10.168 35.5249 9.958 34.8342 9.538C34.1435 9.10867 33.6115 8.516 33.2382 7.76C32.8649 6.99467 32.6782 6.108 32.6782 5.1C32.6782 4.092 32.8649 3.21 33.2382 2.454C33.6115 1.68867 34.1435 1.096 34.8342 0.676C35.5342 0.246667 36.3509 0.0319998 37.2842 0.0319998C38.3855 0.0319998 39.2769 0.293333 39.9582 0.816C40.6489 1.32933 41.0922 2.05733 41.2882 3H40.2102C40.0609 2.36533 39.7435 1.85667 39.2582 1.474C38.7729 1.082 38.1149 0.886 37.2842 0.886C36.5655 0.886 35.9355 1.054 35.3942 1.39C34.8529 1.726 34.4329 2.21133 34.1342 2.846C33.8355 3.47133 33.6862 4.22267 33.6862 5.1C33.6862 5.97733 33.8355 6.73333 34.1342 7.368C34.4329 7.99333 34.8529 8.474 35.3942 8.81C35.9355 9.146 36.5655 9.314 37.2842 9.314C38.1149 9.314 38.7729 9.12267 39.2582 8.74C39.7435 8.35733 40.0609 7.85333 40.2102 7.228H41.2882C41.0829 8.152 40.6395 8.87533 39.9582 9.398C39.2862 9.91133 38.3949 10.168 37.2842 10.168ZM43.0647 10V0.199999H46.0887C46.8447 0.199999 47.4607 0.325999 47.9367 0.577999C48.422 0.83 48.7767 1.17067 49.0007 1.6C49.2247 2.02 49.3367 2.50067 49.3367 3.042C49.3367 3.56467 49.22 4.04533 48.9867 4.484C48.7533 4.91333 48.394 5.25867 47.9087 5.52C47.4233 5.772 46.7933 5.898 46.0187 5.898H44.0447V10H43.0647ZM48.2727 10L46.0747 5.59H47.1947L49.4487 10H48.2727ZM44.0447 5.1H46.0187C46.812 5.1 47.3953 4.90867 47.7687 4.526C48.142 4.14333 48.3287 3.64867 48.3287 3.042C48.3287 2.41667 48.1467 1.92667 47.7827 1.572C47.4187 1.208 46.826 1.026 46.0047 1.026H44.0447V5.1ZM50.6515 10L54.2635 0.199999H55.2715L58.8835 10H57.8475L54.7675 1.488L51.6875 10H50.6515ZM52.3035 7.354L52.5975 6.542H56.9235L57.2175 7.354H52.3035ZM60.4416 10V0.199999H66.2936V1.012H61.4216V4.68H65.6216V5.492H61.4216V10H60.4416ZM70.1748 10V1.012H67.2348V0.199999H74.0948V1.012H71.1548V10H70.1748Z" fill="white"/>
</svg>
