<?xml version="1.0" encoding="UTF-8"?>
<svg version="1.1" xmlns="http://www.w3.org/2000/svg" width="185" height="140">
<path d="M0 0 C3.07810593 -0.00217278 6.15584451 -0.02034287 9.23388672 -0.03930664 C24.3606352 -0.08194584 39.15211828 0.97621905 54.11279297 3.18530273 C54.11279297 6.18530273 54.11279297 6.18530273 52.48779297 8.06030273 C52.03404297 8.76155273 51.58029297 9.46280273 51.11279297 10.18530273 C52.61500907 15.65299612 56.45830471 19.29890971 60.11669922 23.46655273 C62.15014625 26.23617922 62.92203199 27.78526882 63.11279297 31.18530273 C56.79441199 46.01976242 38.05227352 53.87244129 24.11279297 60.18530273 C19.59367752 61.86351794 16.79104428 62.77789892 12.11279297 61.18530273 C10.14125774 59.31726017 8.71794007 57.40418255 7.11279297 55.18530273 C6.51466797 55.96905273 5.91654297 56.75280273 5.30029297 57.56030273 C3.00531132 60.31428071 1.37168536 61.94581647 -2.20751953 62.62670898 C-19.03921046 63.35342544 -36.42135964 52.53890437 -48.49658203 41.63061523 C-50.41566226 39.63606556 -50.86057169 38.36786581 -51.26220703 35.61499023 C-50.72883875 30.7368928 -48.46118415 27.41475274 -45.88720703 23.31030273 C-45.41025391 22.52655273 -44.93330078 21.74280273 -44.44189453 20.93530273 C-43.26859267 19.01108768 -42.08366177 17.09517544 -40.88720703 15.18530273 C-41.29712891 14.72639648 -41.70705078 14.26749023 -42.12939453 13.79467773 C-42.66822266 13.18108398 -43.20705078 12.56749023 -43.76220703 11.93530273 C-44.29587891 11.33202148 -44.82955078 10.72874023 -45.37939453 10.10717773 C-46.86695573 8.21111527 -47.89043139 6.37240269 -48.88720703 4.18530273 C-46.30506675 3.69885688 -43.72176003 3.22112377 -41.13720703 2.74780273 C-40.42693359 2.6130957 -39.71666016 2.47838867 -38.98486328 2.33959961 C-26.05377921 -0.00630502 -13.09891034 -0.00103092 0 0 Z M42.80029297 16.81030273 C32.5240991 25.0370718 21.74456282 28.46017472 9.11279297 31.18530273 C11.09279297 34.48530273 13.07279297 37.78530273 15.11279297 41.18530273 C17.75279297 39.86530273 20.39279297 38.54530273 23.11279297 37.18530273 C20.14190679 41.18457259 16.98330572 44.10648577 13.11279297 47.18530273 C15.38586961 50.86371163 15.38586961 50.86371163 18.11279297 54.18530273 C32.44306686 55.0455388 42.07032431 48.59861219 53.11279297 40.18530273 C52.45279297 39.85530273 51.79279297 39.52530273 51.11279297 39.18530273 C50.75789757 37.18901609 50.42700368 35.18839603 50.11279297 33.18530273 C49.45279297 31.86530273 48.79279297 30.54530273 48.11279297 29.18530273 C51.74279297 29.18530273 55.37279297 29.18530273 59.11279297 29.18530273 C57.23717136 25.43405952 55.06485416 22.25627139 52.55029297 18.93530273 C52.1384375 18.38100586 51.72658203 17.82670898 51.30224609 17.25561523 C50.26586048 15.87829098 49.19240718 14.52901044 48.11279297 13.18530273 C46.10726549 13.18530273 44.22425978 15.59754631 42.80029297 16.81030273 Z M-38.88720703 17.18530273 C-40.59801944 19.64071743 -42.10148164 22.03114786 -43.57470703 24.62280273 C-43.99042969 25.32985352 -44.40615234 26.0369043 -44.83447266 26.76538086 C-46.94233059 29.79401859 -46.94233059 29.79401859 -47.88720703 33.18530273 C-44.58720703 33.18530273 -41.28720703 33.18530273 -37.88720703 33.18530273 C-39.37220703 38.63030273 -39.37220703 38.63030273 -40.88720703 44.18530273 C-38.84749592 45.45936561 -36.80555439 46.72959475 -34.76220703 47.99780273 C-34.19244141 48.35422852 -33.62267578 48.7106543 -33.03564453 49.07788086 C-26.57921916 53.07646248 -21.67672723 55.61286261 -14.01220703 55.87280273 C-13.32384766 55.90696289 -12.63548828 55.94112305 -11.92626953 55.97631836 C-10.2471209 56.05794364 -8.56719535 56.12331843 -6.88720703 56.18530273 C-3.8887009 52.47850209 -3.8887009 52.47850209 -2.85595703 48.00561523 C-4.26868517 45.51193601 -5.94601353 44.53583425 -8.38720703 43.06030273 C-12.79609086 40.36753508 -12.79609086 40.36753508 -13.88720703 38.18530273 C-12.52595703 38.95874023 -12.52595703 38.95874023 -11.13720703 39.74780273 C-8.10930792 41.42406621 -8.10930792 41.42406621 -5.51220703 40.87280273 C-3.71846704 40.33931136 -3.71846704 40.33931136 -3.19970703 38.49780273 C-2.6758618 36.09644619 -2.6758618 36.09644619 -3.93798828 33.68920898 C-6.54049322 30.34611146 -8.7079452 29.93133563 -12.76220703 28.81030273 C-20.86047045 26.40527989 -29.81937389 23.25313588 -35.88720703 17.18530273 C-36.87720703 17.18530273 -37.86720703 17.18530273 -38.88720703 17.18530273 Z M59.11279297 29.18530273 C60.11279297 31.18530273 60.11279297 31.18530273 60.11279297 31.18530273 Z M-1.88720703 32.18530273 C-0.88720703 34.18530273 -0.88720703 34.18530273 -0.88720703 34.18530273 Z M-48.88720703 34.18530273 C-47.88720703 36.18530273 -47.88720703 36.18530273 -47.88720703 36.18530273 Z M1.11279297 37.18530273 C2.11279297 39.18530273 2.11279297 39.18530273 2.11279297 39.18530273 Z M2.11279297 39.18530273 C3.11279297 41.18530273 3.11279297 41.18530273 3.11279297 41.18530273 Z M4.11279297 42.18530273 C5.11279297 44.18530273 5.11279297 44.18530273 5.11279297 44.18530273 Z M5.11279297 44.18530273 C5.44279297 45.17530273 5.77279297 46.16530273 6.11279297 47.18530273 C6.44279297 46.19530273 6.77279297 45.20530273 7.11279297 44.18530273 C6.45279297 44.18530273 5.79279297 44.18530273 5.11279297 44.18530273 Z M7.11279297 47.18530273 C8.11279297 49.18530273 8.11279297 49.18530273 8.11279297 49.18530273 Z M3.11279297 48.18530273 C1.13279297 51.81530273 -0.84720703 55.44530273 -2.88720703 59.18530273 C1.28155072 58.62767833 1.28155072 58.62767833 2.92529297 55.37280273 C4.49019334 52.09134722 4.49019334 52.09134722 3.11279297 48.18530273 Z M8.11279297 49.18530273 C9.11279297 51.18530273 9.11279297 51.18530273 9.11279297 51.18530273 Z M9.11279297 51.18530273 C9.44279297 52.17530273 9.77279297 53.16530273 10.11279297 54.18530273 C10.11279297 53.19530273 10.11279297 52.20530273 10.11279297 51.18530273 C9.78279297 51.18530273 9.45279297 51.18530273 9.11279297 51.18530273 Z M11.11279297 54.18530273 C11.75259146 56.21772 11.75259146 56.21772 13.11279297 58.18530273 C15.66799218 58.99701502 15.66799218 58.99701502 18.11279297 59.18530273 C14.79192526 56.41529449 14.79192526 56.41529449 11.11279297 54.18530273 Z " fill="#218852" transform="translate(94.88720703125,71.814697265625)"/>
<path d="M0 0 C-0.66 0 -1.32 0 -2 0 C-1.23419309 1.89786929 -0.46212423 3.79321244 0.3125 5.6875 C0.74175781 6.74324219 1.17101562 7.79898438 1.61328125 8.88671875 C2.92036617 11.9995808 2.92036617 11.9995808 4.65625 14.71875 C6.21468076 17.36445803 6.25875746 18.98116302 6 22 C5.34 22.33 4.68 22.66 4 23 C1.7578125 21.85546875 1.7578125 21.85546875 -0.875 20.1875 C-3.86591716 18.30813265 -6.8098292 16.52089538 -10 15 C-10.26554687 15.71542969 -10.53109375 16.43085937 -10.8046875 17.16796875 C-12.02914099 20.06904319 -13.47983063 22.63015864 -15.125 25.3125 C-15.66382813 26.19550781 -16.20265625 27.07851562 -16.7578125 27.98828125 C-17.37269531 28.98408203 -17.37269531 28.98408203 -18 30 C-15.03 30.33 -12.06 30.66 -9 31 C-9.66 34.63 -10.32 38.26 -11 42 C-8.46446145 43.49060758 -5.92243874 44.96748062 -3.375 46.4375 C-2.66214844 46.85837891 -1.94929688 47.27925781 -1.21484375 47.71289062 C2.88662329 50.06464925 6.21127679 51.57901334 11 52 C11.98742187 52.10441406 12.97484375 52.20882812 13.9921875 52.31640625 C14.94351563 52.39761719 15.89484375 52.47882813 16.875 52.5625 C17.84179688 52.64628906 18.80859375 52.73007813 19.8046875 52.81640625 C20.89136719 52.90728516 20.89136719 52.90728516 22 53 C24.45579697 49.31435916 24.45579697 49.31435916 25 45 C22.77074597 43.15022733 22.77074597 43.15022733 20 41.4375 C18.30097767 40.34021475 16.6249782 39.20422492 15 38 C15 37.34 15 36.68 15 36 C17.97 36.66 20.94 37.32 24 38 C25.33738206 34.27401448 25.33738206 34.27401448 24.1875 31.875 C23.00933402 29.86330846 23.00933402 29.86330846 21 28 C21.763125 28.185625 22.52625 28.37125 23.3125 28.5625 C28.353834 29.16062437 32.95438592 28.55378691 38 28 C39.98 31.3 41.96 34.6 44 38 C45.11375 37.319375 46.2275 36.63875 47.375 35.9375 C49.2734375 34.77734375 49.2734375 34.77734375 51 34 C51.66 34.33 52.32 34.66 53 35 C49.83451967 38.88901869 46.59634744 42.50640535 43 46 C44.57674855 48.61110494 44.57674855 48.61110494 47 51 C56.42741771 52.75364894 64.15858178 48.91780711 71.94140625 44.203125 C75.01355186 41.99023851 77.41899012 39.74923212 80 37 C79.01 33.7 78.02 30.4 77 27 C80.63 27 84.26 27 88 27 C86.56547553 25.06023421 85.12753183 23.12317069 83.6875 21.1875 C83.28337891 20.64029297 82.87925781 20.09308594 82.46289062 19.52929688 C80.45715653 16.83867796 78.4708702 14.27895795 76 12 C75.33613281 12.54269531 74.67226562 13.08539063 73.98828125 13.64453125 C73.10527344 14.35996094 72.22226563 15.07539062 71.3125 15.8125 C70.44238281 16.52019531 69.57226562 17.22789063 68.67578125 17.95703125 C62.0707457 23 62.0707457 23 59 23 C59.92666162 20.43386013 60.7497952 18.30993539 62.47265625 16.17578125 C64.25718966 13.63361985 64.88053803 11.44398103 65.625 8.4375 C66.34630076 5.57944269 67.06739857 2.7978043 68 0 C67.01 -0.495 67.01 -0.495 66 -1 C71.61 -0.34 77.22 0.32 83 1 C83 4 83 4 81.375 5.875 C80.92125 6.57625 80.4675 7.2775 80 8 C81.5022161 13.46769338 85.34551174 17.11360698 89.00390625 21.28125 C91.03735328 24.05087648 91.80923902 25.59996609 92 29 C85.68161902 43.83445969 66.93948055 51.68713855 53 58 C48.48088455 59.6782152 45.67825131 60.59259619 41 59 C39.02846478 57.13195744 37.6051471 55.21887981 36 53 C35.401875 53.78375 34.80375 54.5675 34.1875 55.375 C31.89251835 58.12897797 30.25889239 59.76051374 26.6796875 60.44140625 C9.84799657 61.16812271 -7.53415261 50.35360164 -19.609375 39.4453125 C-21.52845523 37.45076282 -21.97336466 36.18256308 -22.375 33.4296875 C-21.84163172 28.55159007 -19.57397712 25.22945 -17 21.125 C-16.52304687 20.34125 -16.04609375 19.5575 -15.5546875 18.75 C-14.38138564 16.82578495 -13.19645474 14.90987271 -12 13 C-12.40992188 12.54109375 -12.81984375 12.0821875 -13.2421875 11.609375 C-13.78101563 10.99578125 -14.31984375 10.3821875 -14.875 9.75 C-15.40867187 9.14671875 -15.94234375 8.5434375 -16.4921875 7.921875 C-17.9797487 6.02581254 -19.00322436 4.18709995 -20 2 C-17.23062417 1.47007619 -14.45996921 0.9507542 -11.6875 0.4375 C-10.90181641 0.28603516 -10.11613281 0.13457031 -9.30664062 -0.02148438 C-8.54931641 -0.16005859 -7.79199219 -0.29863281 -7.01171875 -0.44140625 C-6.31522217 -0.57232666 -5.61872559 -0.70324707 -4.90112305 -0.83813477 C-3 -1 -3 -1 0 0 Z M88 27 C89 29 89 29 89 29 Z M27 30 C28 32 28 32 28 32 Z M-20 32 C-19 34 -19 34 -19 34 Z M30 35 C31 37 31 37 31 37 Z M31 37 C32 39 32 39 32 39 Z M33 40 C34 42 34 42 34 42 Z M34 42 C34.33 42.99 34.66 43.98 35 45 C35.33 44.01 35.66 43.02 36 42 C35.34 42 34.68 42 34 42 Z M36 45 C37 47 37 47 37 47 Z M32 46 C30.02 49.63 28.04 53.26 26 57 C30.16875775 56.4423756 30.16875775 56.4423756 31.8125 53.1875 C33.37740037 49.90604448 33.37740037 49.90604448 32 46 Z M37 47 C38 49 38 49 38 49 Z M38 49 C38.33 49.99 38.66 50.98 39 52 C39 51.01 39 50.02 39 49 C38.67 49 38.34 49 38 49 Z M40 52 C40.63979849 54.03241727 40.63979849 54.03241727 42 56 C44.55519921 56.81171228 44.55519921 56.81171228 47 57 C43.67913229 54.22999175 43.67913229 54.22999175 40 52 Z " fill="#09643E" transform="translate(66,74)"/>
<path d="M0 0 C0.79148438 0.09796875 1.58296875 0.1959375 2.3984375 0.296875 C3.94646871 0.50728701 5.4934897 0.72535638 7.0390625 0.953125 C11.9935646 1.66877286 11.9935646 1.66877286 16.8125 0.625 C15.8125 8.05357143 15.8125 8.05357143 14.8125 11.625 C15.4725 11.295 16.1325 10.965 16.8125 10.625 C23.28308824 10.27205882 23.28308824 10.27205882 26.8125 12.625 C27.42238102 19.0287507 26.32475167 24.1467748 24.37109375 30.2421875 C23.56321779 32.7511653 23.56321779 32.7511653 24.8125 35.625 C21.5201434 35.1715399 18.22876521 34.71130941 14.9375 34.25 C14.0196875 34.12367187 13.101875 33.99734375 12.15625 33.8671875 C5.99122855 32.99887462 -0.09673856 31.91467197 -6.1875 30.625 C-6.1875 29.965 -6.1875 29.305 -6.1875 28.625 C-4.8675 28.625 -3.5475 28.625 -2.1875 28.625 C-1.919375 27.34625 -1.65125 26.0675 -1.375 24.75 C-0.60721373 21.24248716 0.34284177 17.85636148 1.4375 14.4375 C2.5926947 10.71649597 3.12276519 7.55502579 2.8125 3.625 C1.53375 3.563125 0.255 3.50125 -1.0625 3.4375 C-1.78179687 3.40269531 -2.50109375 3.36789063 -3.2421875 3.33203125 C-3.88414062 3.42871094 -4.52609375 3.52539062 -5.1875 3.625 C-6.1775 5.11 -6.1775 5.11 -7.1875 6.625 C-6.40375 6.83125 -5.62 7.0375 -4.8125 7.25 C-2.1875 8.625 -2.1875 8.625 -0.875 11.75 C-0.5346875 13.173125 -0.5346875 13.173125 -0.1875 14.625 C-1.8125 16.6875 -1.8125 16.6875 -4.1875 18.625 C-7.1875 18.75 -7.1875 18.75 -10.1875 17.625 C-12.5625 14.5625 -12.5625 14.5625 -14.1875 11.625 C-15.32016151 16.19739006 -15.32016151 16.19739006 -14.1875 20.5625 C-11.15277049 22.17470005 -8.5625357 21.86607398 -5.1875 21.625 C-4.1975 21.295 -3.2075 20.965 -2.1875 20.625 C-3.11124478 24.31997913 -4.12552894 25.57723064 -7.1875 27.9375 C-11.72249331 30.2570686 -16.21027582 30.43677133 -21.1875 29.625 C-24.77672575 27.89448044 -26.56970858 26.64569886 -28.625 23.25 C-29.35467212 19.84486346 -29.25693358 17.96697994 -28.1875 14.625 C-25.31425327 10.2787597 -22.37969513 6.92304878 -17.1875 5.625 C-16.176875 5.50125 -15.16625 5.3775 -14.125 5.25 C-10.6123711 4.50263215 -9.55339019 3.23563746 -7.1875 0.625 C-4.19802396 -0.37149201 -3.01871859 -0.39537199 0 0 Z M13.8125 15.625 C10.42878331 20.0385435 9.25745946 25.34731121 7.8125 30.625 C8.8025 30.955 9.7925 31.285 10.8125 31.625 C14.13765701 26.48612099 16.17711493 21.82345389 15.8125 15.625 C15.1525 15.625 14.4925 15.625 13.8125 15.625 Z " fill="#029250" transform="translate(152.1875,34.375)"/>
<path d="M0 0 C0.33 0 0.66 0 1 0 C1.07441989 4.18087152 1.12872818 8.3613873 1.16479492 12.54272461 C1.1798376 13.96369141 1.20027704 15.38461213 1.22631836 16.80541992 C1.26290347 18.85346886 1.27977097 20.9009015 1.29296875 22.94921875 C1.3086792 24.17987061 1.32438965 25.41052246 1.34057617 26.6784668 C0.97137159 30.27920391 0.16918163 32.13533543 -2 35 C-2.99 35.495 -2.99 35.495 -4 36 C-3.34 36.33 -2.68 36.66 -2 37 C-1.67 36.34 -1.34 35.68 -1 35 C6.41545799 32.89613977 14.02895716 32.82307319 21.67578125 33.02734375 C25.02421046 33.07982925 25.02421046 33.07982925 28.390625 32.4765625 C32.51996966 31.931346 36.30295467 32.10840078 40.4375 32.4375 C41.16904297 32.48970703 41.90058594 32.54191406 42.65429688 32.59570312 C44.43668622 32.72384876 46.2184257 32.8609816 48 33 C48 34.98 48 36.96 48 39 C47.14245117 38.99476318 46.28490234 38.98952637 45.40136719 38.98413086 C42.21077727 38.96705848 39.02021069 38.95453495 35.82958984 38.94506836 C34.45035027 38.94004882 33.07111598 38.93323181 31.69189453 38.92456055 C29.70607817 38.9123908 27.72022251 38.90728367 25.734375 38.90234375 C24.54038086 38.89710693 23.34638672 38.89187012 22.11621094 38.88647461 C19.11357662 38.87275814 19.11357662 38.87275814 16.76660156 39.63110352 C16.18362305 39.75283936 15.60064453 39.8745752 15 40 C14.01 39.34 13.02 38.68 12 38 C12 38.66 12 39.32 12 40 C10.37512529 40.16788373 8.75009558 40.33426787 7.125 40.5 C5.76761719 40.63921875 5.76761719 40.63921875 4.3828125 40.78125 C1.56318316 41.04010122 -1.15897332 41 -4 41 C-4.33 41.33 -4.66 41.66 -5 42 C-6.92586895 42.56231877 -8.86625759 43.07535105 -10.8125 43.5625 C-11.87082031 43.83191406 -12.92914063 44.10132813 -14.01953125 44.37890625 C-17 45 -17 45 -21 45 C-21.33 43.02 -21.66 41.04 -22 39 C-19.36 38.34 -16.72 37.68 -14 37 C-14 36.67 -14 36.34 -14 36 C-15.98 35.34 -17.96 34.68 -20 34 C-20 33.34 -20 32.68 -20 32 C-20.99 31.67 -21.98 31.34 -23 31 C-24.0066124 28.46405362 -24.81965052 26.05036174 -25.5625 23.4375 C-25.77068359 22.74591797 -25.97886719 22.05433594 -26.19335938 21.34179688 C-30 8.53764205 -30 8.53764205 -30 3 C-25.03926578 1.67713754 -20.08888488 1.91106803 -15 2 C-15 2.99 -15 3.98 -15 5 C-18.3 5.66 -21.6 6.32 -25 7 C-24.7834375 7.96421875 -24.566875 8.9284375 -24.34375 9.921875 C-24.0653125 11.18515625 -23.786875 12.4484375 -23.5 13.75 C-23.2215625 15.00296875 -22.943125 16.2559375 -22.65625 17.546875 C-22 21 -22 21 -22 25 C-21.34 24.67 -20.68 24.34 -20 24 C-20.185625 23.278125 -20.37125 22.55625 -20.5625 21.8125 C-21.0324196 18.79158825 -20.91755021 16.90557567 -20 14 C-18.4375 12.1875 -18.4375 12.1875 -17 11 C-17.33 10.34 -17.66 9.68 -18 9 C-14.49128216 7.08615391 -13.18632214 6.95723754 -9.1875 7.875 C-8.135625 8.24625 -7.08375 8.6175 -6 9 C-6.33 9.99 -6.66 10.98 -7 12 C-5.35 12.66 -3.7 13.32 -2 14 C-1.34 9.38 -0.68 4.76 0 0 Z M-21 26 C-20.67 27.32 -20.34 28.64 -20 30 C-19.18015625 30.06058594 -18.3603125 30.12117188 -17.515625 30.18359375 C-16.43796875 30.26738281 -15.3603125 30.35117187 -14.25 30.4375 C-13.18265625 30.51871094 -12.1153125 30.59992187 -11.015625 30.68359375 C-8 31 -8 31 -5.671875 31.59765625 C-4.84429687 31.79681641 -4.84429687 31.79681641 -4 32 C-2.70366379 30.93354885 -2.70366379 30.93354885 -2.9375 28.4375 C-2.958125 27.633125 -2.97875 26.82875 -3 26 C-5.0836309 26.14151828 -7.16689938 26.28837936 -9.25 26.4375 C-10.41015625 26.51871094 -11.5703125 26.59992187 -12.765625 26.68359375 C-15.30977376 26.93247787 -17.55953248 27.28114942 -20 28 C-20.33 27.34 -20.66 26.68 -21 26 Z M-12 32 C-8 33 -8 33 -8 33 Z " fill="#0A643F" transform="translate(62,30)"/>
<path d="M0 0 C2.08135646 2.6779236 1.99011823 4.17190559 1.79296875 7.6015625 C1.60394284 8.94457175 1.40172404 10.28577907 1.1875 11.625 C1.09146484 12.305625 0.99542969 12.98625 0.89648438 13.6875 C0.16201637 18.67596726 0.16201637 18.67596726 -1 21 C-0.01 21.33 0.98 21.66 2 22 C1.67 22.66 1.34 23.32 1 24 C-8.9 24 -18.8 24 -29 24 C-29 23.34 -29 22.68 -29 22 C-28.01 22 -27.02 22 -26 22 C-26.33 21.34 -26.66 20.68 -27 20 C-27.825 20.61875 -28.65 21.2375 -29.5 21.875 C-35.28527347 25.6821706 -41.20786495 26.56415152 -48.015625 25.53125 C-51.05973556 24.71629127 -52.32216337 23.65657466 -54 21 C-55.29517746 16.79067325 -55.25974848 13.87296308 -53.5625 9.875 C-51.00792053 5.40883044 -47.8510831 2.73770141 -43 1 C-38.29469557 0.32316506 -33.8747907 -0.168114 -29.73046875 2.4140625 C-28 4 -28 4 -27.0625 5.875 C-26.97022679 9.01228924 -28.12262785 10.53999512 -30 13 C-33.50221796 15.59423553 -37.7838198 15.57838198 -42 16 C-40.09170375 18.33145587 -40.09170375 18.33145587 -36.8125 18.3125 C-32.35715715 17.94730796 -29.74413967 17.49609311 -26 15 C-24.80315536 11.71132512 -24.31952687 8.47566981 -24 5 C-24.66 5 -25.32 5 -26 5 C-26 4.34 -26 3.68 -26 3 C-24.06302033 2.66365624 -22.12539514 2.33102835 -20.1875 2 C-19.10855469 1.814375 -18.02960938 1.62875 -16.91796875 1.4375 C-14 1 -14 1 -11 1 C-10.236875 0.649375 -9.47375 0.29875 -8.6875 -0.0625 C-5.32099138 -1.23686347 -3.38856823 -1.05422123 0 0 Z M-40.625 4.1875 C-42.42149467 6.55560662 -42.23521845 8.09897251 -42 11 C-39.43750025 8.68767578 -39.43750025 8.68767578 -37 6 C-37 5.01 -37 4.02 -37 3 C-39.06631217 2.8033278 -39.06631217 2.8033278 -40.625 4.1875 Z M-12 6 C-14.34770643 9.52155964 -14.37669614 11.50771843 -14.625 15.6875 C-14.69976562 16.86699219 -14.77453125 18.04648437 -14.8515625 19.26171875 C-14.90054688 20.16535156 -14.94953125 21.06898437 -15 22 C-13.68 21.67 -12.36 21.34 -11 21 C-10.34 16.05 -9.68 11.1 -9 6 C-9.99 6 -10.98 6 -12 6 Z " fill="#096F43" transform="translate(120,36)"/>
<path d="M0 0 C3.50151668 2.90125668 5.52525806 6.3092548 6.1875 10.8125 C6.72518673 17.93684913 4.77881137 23.34665313 0.1875 28.8125 C2.4975 28.8125 4.8075 28.8125 7.1875 28.8125 C7.1875 27.8225 7.1875 26.8325 7.1875 25.8125 C8.1775 26.1425 9.1675 26.4725 10.1875 26.8125 C9.73476428 31.679409 8.54224936 34.2544325 5.1875 37.8125 C2.890963 38.9607685 1.60436833 38.92811175 -0.9453125 38.91015625 C-1.75097656 38.90693359 -2.55664062 38.90371094 -3.38671875 38.90039062 C-4.64935547 38.88782227 -4.64935547 38.88782227 -5.9375 38.875 C-7.21173828 38.86823242 -7.21173828 38.86823242 -8.51171875 38.86132812 C-10.61200909 38.84952874 -12.7122633 38.83159306 -14.8125 38.8125 C-15.1425 39.8025 -15.4725 40.7925 -15.8125 41.8125 C-16.4725 41.8125 -17.1325 41.8125 -17.8125 41.8125 C-17.30646008 39.64375748 -16.81266187 37.81282373 -15.8125 35.8125 C-17.2046875 34.94625 -17.2046875 34.94625 -18.625 34.0625 C-22.52947689 31.30639866 -24.3107421 29.31777371 -25.8125 24.8125 C-26.53035747 16.91606788 -25.33887014 11.83597838 -21.125 5.125 C-15.27252856 -0.72747144 -7.92328402 -3.34538659 0 0 Z M-14.8125 3.8125 C-16.11996709 4.91173541 -16.11996709 4.91173541 -16.125 7.625 C-16.03401324 14.94943393 -12.92079983 22.83192811 -8.8125 28.8125 C-6.72716367 29.69072312 -6.72716367 29.69072312 -4.8125 29.8125 C-3.06053643 22.30731411 -5.51961731 15.46620265 -8.8671875 8.671875 C-10.6405568 5.83998294 -11.57897522 4.89034159 -14.8125 3.8125 Z " fill="#05864C" transform="translate(27.8125,35.1875)"/>
<path d="M0 0 C0.80824219 0.10183594 1.61648437 0.20367187 2.44921875 0.30859375 C3.06410156 0.39238281 3.67898437 0.47617187 4.3125 0.5625 C3.6525 0.8925 2.9925 1.2225 2.3125 1.5625 C2.3125 2.2225 2.3125 2.8825 2.3125 3.5625 C0.29427083 3.46484375 -1.72395833 3.3671875 -3.7421875 3.26953125 C-4.38414062 3.36621094 -5.02609375 3.46289062 -5.6875 3.5625 C-6.6775 5.0475 -6.6775 5.0475 -7.6875 6.5625 C-6.90375 6.76875 -6.12 6.975 -5.3125 7.1875 C-2.6875 8.5625 -2.6875 8.5625 -1.375 11.6875 C-1.0346875 13.110625 -1.0346875 13.110625 -0.6875 14.5625 C-2.3125 16.625 -2.3125 16.625 -4.6875 18.5625 C-7.6875 18.6875 -7.6875 18.6875 -10.6875 17.5625 C-13.0625 14.5 -13.0625 14.5 -14.6875 11.5625 C-15.82016151 16.13489006 -15.82016151 16.13489006 -14.6875 20.5 C-11.65277049 22.11220005 -9.0625357 21.80357398 -5.6875 21.5625 C-4.6975 21.2325 -3.7075 20.9025 -2.6875 20.5625 C-3.61124478 24.25747913 -4.62552894 25.51473064 -7.6875 27.875 C-12.22249331 30.1945686 -16.71027582 30.37427133 -21.6875 29.5625 C-25.27672575 27.83198044 -27.06970858 26.58319886 -29.125 23.1875 C-29.85467212 19.78236346 -29.75693358 17.90447994 -28.6875 14.5625 C-25.81425327 10.2162597 -22.87969513 6.86054878 -17.6875 5.5625 C-16.676875 5.43875 -15.66625 5.315 -14.625 5.1875 C-11.1123711 4.44013215 -10.05339019 3.17313746 -7.6875 0.5625 C-4.59271121 -0.46909626 -3.16118607 -0.41232862 0 0 Z " fill="#05854B" transform="translate(152.6875,34.4375)"/>
<path d="M0 0 C0 1.98 0 3.96 0 6 C-0.85754883 5.99476318 -1.71509766 5.98952637 -2.59863281 5.98413086 C-5.78922273 5.96705848 -8.97978931 5.95453495 -12.17041016 5.94506836 C-13.54964973 5.94004882 -14.92888402 5.93323181 -16.30810547 5.92456055 C-18.29392183 5.9123908 -20.27977749 5.90728367 -22.265625 5.90234375 C-23.45961914 5.89710693 -24.65361328 5.89187012 -25.88378906 5.88647461 C-28.88642338 5.87275814 -28.88642338 5.87275814 -31.23339844 6.63110352 C-31.81637695 6.75283936 -32.39935547 6.8745752 -33 7 C-33.99 6.34 -34.98 5.68 -36 5 C-36 5.66 -36 6.32 -36 7 C-37.62487471 7.16788373 -39.24990442 7.33426787 -40.875 7.5 C-42.23238281 7.63921875 -42.23238281 7.63921875 -43.6171875 7.78125 C-46.43681684 8.04010122 -49.15897332 8 -52 8 C-52.33 8.33 -52.66 8.66 -53 9 C-54.92586895 9.56231877 -56.86625759 10.07535105 -58.8125 10.5625 C-60.39998047 10.96662109 -60.39998047 10.96662109 -62.01953125 11.37890625 C-65 12 -65 12 -69 12 C-69.33 10.02 -69.66 8.04 -70 6 C-67.36 5.34 -64.72 4.68 -62 4 C-62 3.34 -62 2.68 -62 2 C-60.3745692 2.14095064 -58.74965949 2.28792087 -57.125 2.4375 C-56.22007813 2.51871094 -55.31515625 2.59992188 -54.3828125 2.68359375 C-52 3 -52 3 -50 4 C-49.67 3.34 -49.34 2.68 -49 2 C-41.42453589 -0.14925602 -33.64554948 -0.17091351 -25.8359375 0.02734375 C-1.33187348 -0.20892133 -1.33187348 -0.20892133 0 0 Z " fill="#030303" transform="translate(110,63)"/>
<path d="M0 0 C2.8125 1.0625 2.8125 1.0625 4.0390625 2.65234375 C5.14622043 6.10242679 4.559756 9.18818702 4 12.6875 C3.85594727 13.7084375 3.85594727 13.7084375 3.70898438 14.75 C2.97451637 19.73846726 2.97451637 19.73846726 1.8125 22.0625 C2.8025 22.3925 3.7925 22.7225 4.8125 23.0625 C4.4825 23.7225 4.1525 24.3825 3.8125 25.0625 C-5.4275 25.0625 -14.6675 25.0625 -24.1875 25.0625 C-20.80506374 17.17014873 -20.80506374 17.17014873 -17.0625 14.125 C-16.35867187 13.53847656 -15.65484375 12.95195313 -14.9296875 12.34765625 C-13.1875 11.0625 -13.1875 11.0625 -12.1875 11.0625 C-12.1875 15.0225 -12.1875 18.9825 -12.1875 23.0625 C-11.1975 22.7325 -10.2075 22.4025 -9.1875 22.0625 C-8.1975 16.7825 -7.2075 11.5025 -6.1875 6.0625 C-6.8475 5.7325 -7.5075 5.4025 -8.1875 5.0625 C-4.0552686 0.07951507 -4.0552686 0.07951507 0 0 Z " fill="#077A47" transform="translate(117.1875,34.9375)"/>
<path d="M0 0 C1.15242188 0.01804687 2.30484375 0.03609375 3.4921875 0.0546875 C4.36101562 0.07789063 5.22984375 0.10109375 6.125 0.125 C3.57421703 3.2914892 1.15648804 3.8066833 -2.75 4.625 C-7.05520715 5.5313594 -10.19882123 6.69733478 -13.875 9.125 C-18.8558754 12.16211914 -23.56362729 12.81916445 -29.265625 13.5 C-32.2113353 13.89288465 -32.2113353 13.89288465 -33.875 17.125 C-33.00875 16.795 -32.1425 16.465 -31.25 16.125 C-24.87162434 14.30820857 -16.06547928 13.35711538 -10.16796875 16.625 C-9.41128906 17.12 -8.65460938 17.615 -7.875 18.125 C-1.96901528 18.64306884 3.48662887 17.65832299 9.29296875 16.5625 C11.95912826 16.15062432 14.43320302 16.04626371 17.125 16.125 C17.125 16.785 17.125 17.445 17.125 18.125 C13.77763779 19.1691107 10.42133431 20.1809656 7.0625 21.1875 C6.11955078 21.48205078 5.17660156 21.77660156 4.20507812 22.08007812 C-1.17467527 23.67338488 -5.31327162 24.67339629 -10.875 23.125 C-11.66777344 22.61839844 -12.46054688 22.11179687 -13.27734375 21.58984375 C-16.98624773 19.49835654 -20.25113829 19.64797212 -24.4375 19.6875 C-25.19224609 19.66751953 -25.94699219 19.64753906 -26.72460938 19.62695312 C-30.41722958 19.63020653 -32.40777481 19.73070753 -35.27734375 22.15234375 C-35.80457031 22.80332031 -36.33179688 23.45429688 -36.875 24.125 C-37.535 24.125 -38.195 24.125 -38.875 24.125 C-38.441875 23.1040625 -38.441875 23.1040625 -38 22.0625 C-36.74902645 18.79606907 -35.80052045 15.49653877 -34.875 12.125 C-34.32972656 12.01542969 -33.78445312 11.90585937 -33.22265625 11.79296875 C-21.51794173 9.61926706 -21.51794173 9.61926706 -12.875 2.125 C-8.47865167 0.24999263 -4.74882763 -0.09691485 0 0 Z " fill="#095E3B" transform="translate(96.875,7.875)"/>
<path d="M0 0 C3.50151668 2.90125668 5.52525806 6.3092548 6.1875 10.8125 C6.60193704 16.30379081 5.79636274 19.95461765 3.1875 24.8125 C0.5 27.75 0.5 27.75 -1.8125 29.8125 C-2.8025 29.1525 -3.7925 28.4925 -4.8125 27.8125 C-5.01487217 25.7213209 -5.2120424 23.62946782 -5.37890625 21.53515625 C-6.20370691 16.35600253 -8.19004602 11.34347843 -10.8125 6.8125 C-12.85220958 5.58605603 -12.85220958 5.58605603 -14.8125 4.8125 C-15.5625 2.6875 -15.5625 2.6875 -15.8125 0.8125 C-10.56395903 -1.81177049 -5.41605927 -2.28678058 0 0 Z " fill="#087345" transform="translate(27.8125,35.1875)"/>
<path d="M0 0 C-0.66 0 -1.32 0 -2 0 C-1.23419309 1.89786929 -0.46212423 3.79321244 0.3125 5.6875 C0.74175781 6.74324219 1.17101562 7.79898438 1.61328125 8.88671875 C2.92036617 11.9995808 2.92036617 11.9995808 4.65625 14.71875 C6.21468076 17.36445803 6.25875746 18.98116302 6 22 C5.34 22.33 4.68 22.66 4 23 C-2.82893005 20.26278424 -8.29782599 15.17458605 -13.625 10.25 C-14.2530957 9.6710498 -14.88119141 9.09209961 -15.52832031 8.49560547 C-17.06296336 7.04224828 -18.53739404 5.525831 -20 4 C-20 3.34 -20 2.68 -20 2 C-17.23062417 1.47007619 -14.45996921 0.9507542 -11.6875 0.4375 C-10.90181641 0.28603516 -10.11613281 0.13457031 -9.30664062 -0.02148438 C-8.54931641 -0.16005859 -7.79199219 -0.29863281 -7.01171875 -0.44140625 C-6.31522217 -0.57232666 -5.61872559 -0.70324707 -4.90112305 -0.83813477 C-3 -1 -3 -1 0 0 Z " fill="#019630" transform="translate(66,74)"/>
<path d="M0 0 C0.66 0 1.32 0 2 0 C2 1.32 2 2.64 2 4 C2.99 4 3.98 4 5 4 C5.33 2.68 5.66 1.36 6 0 C8.475 0.99 8.475 0.99 11 2 C11 2.66 11 3.32 11 4 C11.70358643 3.4944458 12.40717285 2.9888916 13.13208008 2.46801758 C16.58086273 0.70267067 18.10972377 0.87291565 21.88671875 1.51171875 C23.5409082 1.78338867 23.5409082 1.78338867 25.22851562 2.06054688 C26.94071289 2.37088867 26.94071289 2.37088867 28.6875 2.6875 C29.84056641 2.87505859 30.99363281 3.06261719 32.18164062 3.25585938 C40.71172759 4.71172759 40.71172759 4.71172759 43 7 C42.625 9.125 42.625 9.125 42 11 C38.20431539 11.97798721 35.4994001 11.92653069 31.6875 11.0625 C30.80449219 10.86785156 29.92148438 10.67320313 29.01171875 10.47265625 C28.34785156 10.31667969 27.68398437 10.16070312 27 10 C26.67 8.35 26.34 6.7 26 5 C25.34 5 24.68 5 24 5 C24 6.32 24 7.64 24 9 C23.01 9 22.02 9 21 9 C21 8.01 21 7.02 21 6 C20.34 5.67 19.68 5.34 19 5 C19 5.99 19 6.98 19 8 C12.375 8.125 12.375 8.125 9 7 C7.43881572 6.93259135 5.8749748 6.91485544 4.3125 6.9375 C3.50425781 6.94652344 2.69601563 6.95554687 1.86328125 6.96484375 C1.24839844 6.97644531 0.63351563 6.98804687 0 7 C-0.93423645 3.98968256 -1.04449911 3.13349732 0 0 Z M37 7 C36.67 7.66 36.34 8.32 36 9 C37.32 8.67 38.64 8.34 40 8 C39.01 7.67 38.02 7.34 37 7 Z " fill="#030303" transform="translate(114,63)"/>
<path d="M0 0 C5.61 0.66 11.22 1.32 17 2 C17 5 17 5 14.8125 7.3125 C13.884375 8.199375 12.95625 9.08625 12 10 C11.319375 10.928125 10.63875 11.85625 9.9375 12.8125 C6.02327267 17.64846473 0.31940544 20.90421604 -5 24 C-5.66 24 -6.32 24 -7 24 C-6.07333838 21.43386013 -5.2502048 19.30993539 -3.52734375 17.17578125 C-1.74281034 14.63361985 -1.11946197 12.44398103 -0.375 9.4375 C0.34630076 6.57944269 1.06739857 3.7978043 2 1 C1.34 0.67 0.68 0.34 0 0 Z " fill="#019936" transform="translate(132,73)"/>
<path d="M0 0 C0.74056641 0.00451172 1.48113281 0.00902344 2.24414062 0.01367188 C4.05862899 0.02537825 5.87307534 0.04331102 7.6875 0.0625 C8.82514351 4.32866316 9.6875 7.62736311 9.6875 12.0625 C8.759375 11.69125 7.83125 11.32 6.875 10.9375 C5.2971875 10.504375 5.2971875 10.504375 3.6875 10.0625 C2.6975 10.7225 1.7075 11.3825 0.6875 12.0625 C0.3575 9.7525 0.0275 7.4425 -0.3125 5.0625 C-1.3025 5.5575 -1.3025 5.5575 -2.3125 6.0625 C-1.6525 8.7025 -0.9925 11.3425 -0.3125 14.0625 C-2.2925 14.3925 -4.2725 14.7225 -6.3125 15.0625 C-6.93125 14.010625 -6.93125 14.010625 -7.5625 12.9375 C-8.80632093 10.89407989 -10.12815914 8.89727266 -11.5 6.9375 C-13.3125 4.0625 -13.3125 4.0625 -13.3125 1.0625 C-8.8746439 -0.04915232 -4.54293614 -0.05277763 0 0 Z " fill="#47A56B" transform="translate(83.3125,71.9375)"/>
<path d="M0 0 C2 4 4 8 6 12 C6.37125 12.6703125 6.7425 13.340625 7.125 14.03125 C8.251595 16.56608876 8.66960194 19.01761163 9.125 21.75 C9.29257813 22.73484375 9.46015625 23.7196875 9.6328125 24.734375 C9.75398438 25.48203125 9.87515625 26.2296875 10 27 C4.6 26.4 4.6 26.4 2.125 24.75 C1 23 1 23 1.1484375 20.8359375 C0.94785718 17.00379771 -0.70060352 14.17505145 -2.5 10.875 C-6 4.375 -6 4.375 -6 1 C-4 0 -4 0 0 0 Z " fill="#18AC4B" transform="translate(70,73)"/>
<path d="M0 0 C6.75 -0.125 6.75 -0.125 9 1 C8.50670798 6.62352902 7.65857884 10.98960142 5 16 C4.01 16.33 3.02 16.66 2 17 C2 15.02 2 13.04 2 11 C-0.24572616 11.88611695 -0.24572616 11.88611695 -1.375 14.5 C-3 17 -3 17 -7 18 C-6.67 14.7 -6.34 11.4 -6 8 C-4.68 7.67 -3.36 7.34 -2 7 C-1.34 4.69 -0.68 2.38 0 0 Z " fill="#3AA561" transform="translate(125,73)"/>
<path d="M0 0 C1.65 0 3.3 0 5 0 C5 0.99 5 1.98 5 3 C5.99 3 6.98 3 8 3 C10.15305957 6.85756507 11.39253254 9.55129785 11 14 C8.671875 13.76953125 8.671875 13.76953125 6 13 C4.453125 11.07421875 4.453125 11.07421875 3.25 8.6875 C2.63898438 7.51767578 2.63898438 7.51767578 2.015625 6.32421875 C1.09326122 4.21342471 0.47339026 2.24860375 0 0 Z " fill="#7BD98C" transform="translate(70,73)"/>
<path d="M0 0 C3 4.07142857 3 4.07142857 3 7 C2.34 7 1.68 7 1 7 C1 7.99 1 8.98 1 10 C1.66 10 2.32 10 3 10 C3 11.98 3 13.96 3 16 C2.67 15.01 2.34 14.02 2 13 C0.824375 12.62875 0.824375 12.62875 -0.375 12.25 C-3 11 -3 11 -4.8125 7.5625 C-6 4 -6 4 -6 1 C-4 0 -4 0 0 0 Z " fill="#31BC5B" transform="translate(70,73)"/>
<path d="M0 0 C2.97 0.495 2.97 0.495 6 1 C5.70996094 1.72445312 5.41992188 2.44890625 5.12109375 3.1953125 C4.42395452 4.93937509 3.72835724 6.68405586 3.03515625 8.4296875 C2.36357369 10.11808382 1.68611729 11.8041514 1.00390625 13.48828125 C0.38409817 15.03900729 -0.21648891 16.59776788 -0.78515625 18.16796875 C-1.5 20.0625 -1.5 20.0625 -3 23 C-5.1875 23.9375 -5.1875 23.9375 -7 24 C-6.07333838 21.43386013 -5.2502048 19.30993539 -3.52734375 17.17578125 C-1.74281034 14.63361985 -1.11946197 12.44398103 -0.375 9.4375 C0.34630076 6.57944269 1.06739857 3.7978043 2 1 C1.34 0.67 0.68 0.34 0 0 Z " fill="#12A44A" transform="translate(132,73)"/>
<path d="M0 0 C0.33 0 0.66 0 1 0 C1.05416741 2.72943537 1.09375225 5.45778564 1.125 8.1875 C1.15013672 9.34088867 1.15013672 9.34088867 1.17578125 10.51757812 C1.21296722 14.8497431 0.92726534 18.02866536 -1 22 C-1.36871088 23.65919896 -1.71281674 25.3247643 -2 27 C-2.99 27 -3.98 27 -5 27 C-4.34 22.71 -3.68 18.42 -3 14 C-2.67 14 -2.34 14 -2 14 C-1.34 9.38 -0.68 4.76 0 0 Z " fill="#09603C" transform="translate(62,30)"/>
<path d="M0 0 C1.85625 0.5878125 1.85625 0.5878125 3.75 1.1875 C3.75 2.5075 3.75 3.8275 3.75 5.1875 C3.110625 5.47625 2.47125 5.765 1.8125 6.0625 C-0.40206079 7.01573451 -0.40206079 7.01573451 -1.25 9.1875 C-1.25 8.5275 -1.25 7.8675 -1.25 7.1875 C-1.91 6.8575 -2.57 6.5275 -3.25 6.1875 C-3.91 5.1975 -4.57 4.2075 -5.25 3.1875 C-6.24 2.8575 -7.23 2.5275 -8.25 2.1875 C-5.45467546 -0.84076825 -3.81391921 -0.98052888 0 0 Z " fill="#095D3A" transform="translate(52.25,37.8125)"/>
<path d="M0 0 C0.80824219 0.10183594 1.61648437 0.20367187 2.44921875 0.30859375 C3.06410156 0.39238281 3.67898437 0.47617187 4.3125 0.5625 C3.3225 1.0575 3.3225 1.0575 2.3125 1.5625 C2.3125 2.2225 2.3125 2.8825 2.3125 3.5625 C1.095625 3.500625 -0.12125 3.43875 -1.375 3.375 C-5.26999203 3.36809399 -7.56440125 4.10187675 -10.6875 6.5625 C-11.0175 7.2225 -11.3475 7.8825 -11.6875 8.5625 C-13.6675 7.9025 -15.6475 7.2425 -17.6875 6.5625 C-17.6875 6.2325 -17.6875 5.9025 -17.6875 5.5625 C-16.78 5.48 -15.8725 5.3975 -14.9375 5.3125 C-11.22991549 4.45690357 -10.18517239 3.31855229 -7.6875 0.5625 C-4.59271121 -0.46909626 -3.16118607 -0.41232862 0 0 Z " fill="#047744" transform="translate(152.6875,34.4375)"/>
<path d="M0 0 C0.99 0.33 1.98 0.66 3 1 C3.33 6.61 3.66 12.22 4 18 C2.68 18.33 1.36 18.66 0 19 C-1 16 -1 16 0 13 C0.06937062 10.77181559 0.08457084 8.54165476 0.0625 6.3125 C0.05347656 5.13300781 0.04445313 3.95351562 0.03515625 2.73828125 C0.02355469 1.83464844 0.01195313 0.93101563 0 0 Z " fill="#19794E" transform="translate(94,72)"/>
<path d="M0 0 C1 2 1 2 0.328125 4.34765625 C-0.02765625 5.24355469 -0.3834375 6.13945313 -0.75 7.0625 C-1.26820313 8.41021484 -1.26820313 8.41021484 -1.796875 9.78515625 C-3 12 -3 12 -6 13 C-6.9375 9.875 -6.9375 9.875 -7 6 C-4.97453209 3.5556526 -2.61534535 1.7805219 0 0 Z " fill="#31AD5C" transform="translate(133,77)"/>
<path d="M0 0 C0.66 0 1.32 0 2 0 C4.15305957 3.85756507 5.39253254 6.55129785 5 11 C3.68 10.67 2.36 10.34 1 10 C1 9.01 1 8.02 1 7 C0.649375 6.154375 0.29875 5.30875 -0.0625 4.4375 C-0.371875 3.633125 -0.68125 2.82875 -1 2 C-0.67 1.34 -0.34 0.68 0 0 Z " fill="#64C77A" transform="translate(76,76)"/>
<path d="M0 0 C4.29 0 8.58 0 13 0 C9.69932885 3.30067115 8.56345004 3.90686837 4 4 C2.68 2.68 1.36 1.36 0 0 Z " fill="#085434" transform="translate(90,8)"/>
<path d="M0 0 C2.69600373 0.9885347 3.80558649 1.65977636 5.25 4.1875 C6.14461507 7.54230653 6.13556977 10.54297098 6 14 C5.01 13.67 4.02 13.34 3 13 C3.0928125 11.6696875 3.0928125 11.6696875 3.1875 10.3125 C2.97896309 6.62834788 2.0126182 5.01892731 0 2 C0 1.34 0 0.68 0 0 Z " fill="#11B04C" transform="translate(68,84)"/>
<path d="M0 0 C0.66 0.33 1.32 0.66 2 1 C0.515 2.485 0.515 2.485 -1 4 C-0.67 4.66 -0.34 5.32 0 6 C-0.99 6.33 -1.98 6.66 -3 7 C-3.66 7.66 -4.32 8.32 -5 9 C-6 6 -6 6 -5.3125 3.9375 C-3.76613258 1.65476715 -2.59177073 0.89092119 0 0 Z " fill="#066039" transform="translate(111,36)"/>
<path d="M0 0 C2.97 0.33 5.94 0.66 9 1 C8.01 1.33 7.02 1.66 6 2 C6 2.66 6 3.32 6 4 C5.34 4 4.68 4 4 4 C4 4.66 4 5.32 4 6 C2.68 5.34 1.36 4.68 0 4 C0 2.68 0 1.36 0 0 Z " fill="#085837" transform="translate(75,126)"/>
<path d="M0 0 C6.75 -0.125 6.75 -0.125 9 1 C8.1875 2.9375 8.1875 2.9375 7 5 C6.01 5.33 5.02 5.66 4 6 C4 4.35 4 2.7 4 1 C2.68 1.33 1.36 1.66 0 2 C0 1.34 0 0.68 0 0 Z " fill="#2FAA58" transform="translate(125,73)"/>
<path d="M0 0 C0.66 0.33 1.32 0.66 2 1 C2.08159574 5.16138263 1.98248524 8.9472484 1 13 C0.01 13 -0.98 13 -2 13 C-1.34 8.71 -0.68 4.42 0 0 Z " fill="#074F31" transform="translate(59,44)"/>
<path d="M0 0 C3.73678306 4.71159603 4.11284843 8.01903338 4 14 C3.566875 13.1028125 3.566875 13.1028125 3.125 12.1875 C1.95257974 9.80672208 1.95257974 9.80672208 0 7 C-0.07905064 4.66800612 -0.08798769 2.33167378 0 0 Z " fill="#36BA5C" transform="translate(74,82)"/>
<path d="M0 0 C0.66 0.33 1.32 0.66 2 1 C1.01 3.64 0.02 6.28 -1 9 C-1.66 9 -2.32 9 -3 9 C-3.75 6.75 -3.75 6.75 -4 4 C-2.0625 1.6875 -2.0625 1.6875 0 0 Z " fill="#0F8447" transform="translate(117,80)"/>
<path d="M0 0 C0.66 0 1.32 0 2 0 C2.75 2.75 2.75 2.75 3 6 C1.1875 8.375 1.1875 8.375 -1 10 C-1.66 10 -2.32 10 -3 10 C-2.690625 9.278125 -2.38125 8.55625 -2.0625 7.8125 C-1.07439461 5.19692691 -0.4712246 2.74881018 0 0 Z " fill="#085233" transform="translate(61,22)"/>
<path d="M0 0 C3.63 0 7.26 0 11 0 C9.68 0.33 8.36 0.66 7 1 C6.67 2.32 6.34 3.64 6 5 C6 4.01 6 3.02 6 2 C4.02 2.99 4.02 2.99 2 4 C2 3.01 2 2.02 2 1 C1.34 0.67 0.68 0.34 0 0 Z " fill="#09603C" transform="translate(77,37)"/>
<path d="M0 0 C0.66 0.33 1.32 0.66 2 1 C0.38405168 3.04119788 -1.2856382 5.04072937 -3 7 C-3.66 7 -4.32 7 -5 7 C-5 5.68 -5 4.36 -5 3 C-2.625 1.1875 -2.625 1.1875 0 0 Z " fill="#085A38" transform="translate(117,108)"/>
<path d="M0 0 C-1 3 -1 3 -3 5 C-4.32 5 -5.64 5 -7 5 C-5.22678182 1.07358831 -4.52021524 0 0 0 Z " fill="#085435" transform="translate(48,42)"/>
<path d="M0 0 C0.66 0.33 1.32 0.66 2 1 C2 2.65 2 4.3 2 6 C0.02 6.99 0.02 6.99 -2 8 C-1.34 5.36 -0.68 2.72 0 0 Z " fill="#5CB37B" transform="translate(122,82)"/>
<path d="M0 0 C2.64 0.33 5.28 0.66 8 1 C8 1.33 8 1.66 8 2 C6.35 2 4.7 2 3 2 C3 2.66 3 3.32 3 4 C1.35 3.67 -0.3 3.34 -2 3 C-1.34 2.67 -0.68 2.34 0 2 C0 1.34 0 0.68 0 0 Z " fill="#085535" transform="translate(82,130)"/>
<path d="M0 0 C0.66 0 1.32 0 2 0 C1.67 1.65 1.34 3.3 1 5 C-0.32 5.33 -1.64 5.66 -3 6 C-1.125 1.125 -1.125 1.125 0 0 Z " fill="#0D9546" transform="translate(128,91)"/>
<path d="M0 0 C0.66 0 1.32 0 2 0 C2 0.66 2 1.32 2 2 C2.66 2 3.32 2 4 2 C4 3.98 4 5.96 4 8 C3.67 7.01 3.34 6.02 3 5 C2.01 4.67 1.02 4.34 0 4 C0 2.68 0 1.36 0 0 Z " fill="#55CC72" transform="translate(69,81)"/>
<path d="M0 0 C0.66 0 1.32 0 2 0 C2 1.65 2 3.3 2 5 C0.02 5.99 0.02 5.99 -2 7 C-1.34 4.69 -0.68 2.38 0 0 Z " fill="#68C181" transform="translate(127,74)"/>
<path d="M0 0 C0.66 0.33 1.32 0.66 2 1 C1.67 3.31 1.34 5.62 1 8 C0.34 7.67 -0.32 7.34 -1 7 C-1.625 3.9375 -1.625 3.9375 -2 1 C-1.34 0.67 -0.68 0.34 0 0 Z " fill="#1AB24F" transform="translate(66,73)"/>
<path d="M0 0 C0.99 0.495 0.99 0.495 2 1 C2.6328125 3.06640625 2.6328125 3.06640625 3.125 5.5625 C3.29257813 6.38878906 3.46015625 7.21507813 3.6328125 8.06640625 C3.75398438 8.70449219 3.87515625 9.34257813 4 10 C3.34 10 2.68 10 2 10 C0.39644899 6.49223216 -0.22036864 3.85645121 0 0 Z " fill="#37AD5D" transform="translate(79,76)"/>
<path d="M0 0 C0.66 0.33 1.32 0.66 2 1 C-0.31 3.31 -2.62 5.62 -5 8 C-5 5 -5 5 -2.5 2.3125 C-1.675 1.549375 -0.85 0.78625 0 0 Z " fill="#095D3A" transform="translate(73,39)"/>
<path d="M0 0 C1.98 0 3.96 0 6 0 C5.67 0.99 5.34 1.98 5 3 C3.35 3 1.7 3 0 3 C0 2.01 0 1.02 0 0 Z " fill="#030303" transform="translate(158,72)"/>
<path d="M0 0 C1.65 0 3.3 0 5 0 C4.67 1.32 4.34 2.64 4 4 C1 2 1 2 0 0 Z " fill="#030303" transform="translate(34,72)"/>
<path d="M0 0 C0.66 0 1.32 0 2 0 C2 1.65 2 3.3 2 5 C1.34 5 0.68 5 0 5 C0 3.35 0 1.7 0 0 Z " fill="#085737" transform="translate(51,27)"/>
<path d="M0 0 C0.33 1.32 0.66 2.64 1 4 C0.34 3.67 -0.32 3.34 -1 3 C-0.67 2.01 -0.34 1.02 0 0 Z " fill="#074C2F" transform="translate(51,33)"/>
</svg>
