<?xml version="1.0" encoding="UTF-8"?>
<svg version="1.1" xmlns="http://www.w3.org/2000/svg" width="236" height="200">
<path d="M0 0 C0.7664843 -0.00453111 1.5329686 -0.00906223 2.3226797 -0.01373065 C4.88117195 -0.02635193 7.43945071 -0.02475576 9.99797058 -0.02310181 C11.8364489 -0.02908848 13.67492471 -0.03589435 15.51339722 -0.04345703 C20.50110392 -0.06111022 25.48874198 -0.06581213 30.47647691 -0.0670886 C33.59461253 -0.06851117 36.71273075 -0.07278277 39.83086205 -0.07808304 C50.71470114 -0.09658119 61.59849128 -0.10475393 72.48234558 -0.10317993 C82.61843702 -0.10197865 92.75431548 -0.12307897 102.89035302 -0.15466726 C111.60053151 -0.18084204 120.31064049 -0.19154672 129.02085799 -0.19026911 C134.21958671 -0.18975983 139.41812612 -0.19542464 144.61681557 -0.21662521 C149.50804506 -0.23602773 154.39890505 -0.23611824 159.29014778 -0.22159195 C161.08115429 -0.21950525 162.87218405 -0.22419647 164.66315079 -0.23631287 C177.07688649 -0.31482884 186.02986204 0.66064253 195.4127655 9.40805054 C201.49404331 15.72833053 204.44209499 21.75583625 204.46925354 30.69889832 C204.48204849 32.61018776 204.48204849 32.61018776 204.49510193 34.56008911 C204.494403 35.9596864 204.49347999 37.3592836 204.49235535 38.75888062 C204.49834413 40.2426843 204.50515048 41.72648487 204.51271057 43.21028137 C204.53034277 47.23108004 204.53506479 51.25179352 204.53634214 55.27262712 C204.53776594 57.78772947 204.54203988 60.30281033 204.54733658 62.81790733 C204.56582805 71.60098007 204.57400835 80.38399218 204.57243347 89.16708374 C204.57123249 97.34005992 204.59232855 105.51277184 204.6239208 113.68568116 C204.65011687 120.71434732 204.66079937 127.74292734 204.65952265 134.77164191 C204.65901397 138.96434464 204.6646448 143.15681244 204.68587875 147.34946632 C204.70531736 151.29519032 204.70534763 155.24045665 204.69084549 159.18619728 C204.68876319 160.62889275 204.69342365 162.07161729 204.70556641 163.51426315 C204.79681828 175.11292339 203.03841819 182.92160657 195.061203 191.47836304 C188.28296866 198.00027759 181.91253119 200.57645535 172.40365601 200.53485107 C171.63717171 200.53938219 170.8706874 200.5439133 170.08097631 200.54858172 C167.52248405 200.561203 164.96420529 200.55960683 162.40568542 200.55795288 C160.56720711 200.56393956 158.7287313 200.57074543 156.89025879 200.57830811 C151.90255208 200.59596129 146.91491402 200.60066321 141.9271791 200.60193968 C138.80904348 200.60336224 135.69092526 200.60763384 132.57279396 200.61293411 C121.68895486 200.63143226 110.80516472 200.63960501 99.92131042 200.63803101 C89.78521899 200.63682972 79.64934053 200.65793005 69.51330298 200.68951833 C60.8031245 200.71569311 52.09301552 200.72639779 43.38279802 200.72512019 C38.1840693 200.7246109 32.98552989 200.73027571 27.78684044 200.75147629 C22.89561095 200.77087881 18.00475095 200.77096931 13.11350822 200.75644302 C11.32250172 200.75435632 9.53147196 200.75904755 7.74050522 200.77116394 C-4.67323049 200.84967992 -13.62620603 199.87420855 -23.0091095 191.12680054 C-29.09038731 184.80652054 -32.03843898 178.77901482 -32.06559753 169.83595276 C-32.0741275 168.5617598 -32.08265747 167.28756683 -32.09144592 165.97476196 C-32.090747 164.57516467 -32.08982399 163.17556747 -32.08869934 161.77597046 C-32.09468812 160.29216678 -32.10149447 158.80836621 -32.10905457 157.3245697 C-32.12668677 153.30377103 -32.13140878 149.28305755 -32.13268614 145.26222396 C-32.13410993 142.7471216 -32.13838387 140.23204075 -32.14368057 137.71694374 C-32.16217204 128.93387101 -32.17035234 120.15085889 -32.16877747 111.36776733 C-32.16757648 103.19479116 -32.18867254 95.02207924 -32.22026479 86.84916991 C-32.24646086 79.82050376 -32.25714336 72.79192373 -32.25586665 65.76320916 C-32.25535797 61.57050643 -32.2609888 57.37803863 -32.28222275 53.18538475 C-32.30166136 49.23966075 -32.30169162 45.29439443 -32.28718948 41.34865379 C-32.28510718 39.90595833 -32.28976764 38.46323379 -32.3019104 37.02058792 C-32.39316227 25.42192769 -30.63476219 17.6132445 -22.657547 9.05648804 C-15.87931266 2.53457348 -9.50887519 -0.04160428 0 0 Z " fill="#FEFEFE" transform="translate(31.798171997070313,-0.267425537109375)"/>
<path d="M0 0 C0.66 0 1.32 0 2 0 C2 0.99 2 1.98 2 3 C2.66 3 3.32 3 4 3 C4 2.01 4 1.02 4 0 C5.32 0 6.64 0 8 0 C8 0.99 8 1.98 8 3 C8.99 3 9.98 3 11 3 C11 2.34 11 1.68 11 1 C25.81204231 1.85801465 25.81204231 1.85801465 32 4 C32.495 5.485 32.495 5.485 33 7 C32.67 7.66 32.34 8.32 32 9 C30.68 9 29.36 9 28 9 C28 9.66 28 10.32 28 11 C27.01 11.66 26.02 12.32 25 13 C25.52397386 17.19917078 26.78453142 19.2891356 29.5625 22.4375 C31.83998722 25.26327118 32.92675941 26.65377175 33.6875 30.25 C32.13922235 36.44311059 27.12578969 39.63869984 22.0625 42.9375 C21.40515869 43.3691748 20.74781738 43.80084961 20.07055664 44.24560547 C3.33599567 54.9970732 3.33599567 54.9970732 -5 54 C-7.21436726 52.26970372 -8.35157314 50.32719086 -10 48 C-10.61875 48.969375 -11.2375 49.93875 -11.875 50.9375 C-14 54 -14 54 -16 55 C-22.44737807 55.02194134 -27.79084599 53.19669775 -33.5 50.375 C-34.23686035 50.01962158 -34.9737207 49.66424316 -35.73291016 49.2980957 C-41.3613783 46.50249483 -46.37567335 43.28781462 -51 39 C-51.56976563 38.54238281 -52.13953125 38.08476562 -52.7265625 37.61328125 C-54 36 -54 36 -54.41015625 33.65625 C-53.73087205 29.25707614 -50.98928548 26.26583092 -48.43359375 22.71875 C-46.75969231 20.11165674 -46.75969231 20.11165674 -47.15625 17.29296875 C-48.20141098 14.45264701 -49.81243927 13.04642778 -52 11 C-52 10.34 -52 9.68 -52 9 C-45.95170514 8.10395632 -40.1105424 7.88730557 -34 8 C-34 8.66 -34 9.32 -34 10 C-33.01 10 -32.02 10 -31 10 C-31.33 9.01 -31.66 8.02 -32 7 C-25.38101391 5.85680792 -18.76681596 5.6699976 -12.0625 5.4375 C-10.90169922 5.39431641 -9.74089844 5.35113281 -8.54492188 5.30664062 C-5.69671768 5.20115158 -2.84843471 5.09903445 0 5 C0 3.35 0 1.7 0 0 Z " fill="#5F9E84" transform="translate(134,95)"/>
<path d="M0 0 C3.96 0 7.92 0 12 0 C12 0.66 12 1.32 12 2 C9.03 2 6.06 2 3 2 C3.33 3.010625 3.66 4.02125 4 5.0625 C5.07001321 8.75479911 5.15704155 12.15248207 5 16 C5.66 16 6.32 16 7 16 C6.938125 14.88625 6.87625 13.7725 6.8125 12.625 C6.874375 11.42875 6.93625 10.2325 7 9 C7.99 8.34 8.98 7.68 10 7 C9.67 6.34 9.34 5.68 9 5 C12.32534757 3.89155081 14.62182575 4.15545644 18 5 C17.67 5.99 17.34 6.98 17 8 C18.32 8.33 19.64 8.66 21 9 C21.66 6.36 22.32 3.72 23 1 C23.33 1 23.66 1 24 1 C24.33 4.96 24.66 8.92 25 13 C26.0725 11.72125 27.145 10.4425 28.25 9.125 C30.61494771 6.30525465 32.50422897 4.27743303 36 3 C40.1804509 3.29336498 42.48886112 3.65924075 46 6 C46.4375 8.4375 46.4375 8.4375 46 11 C44.4375 12.8125 44.4375 12.8125 42 14 C38.25 14.1875 38.25 14.1875 35 14 C35.495 15.485 35.495 15.485 36 17 C40.90094703 17.288291 44.21612143 17.33871638 48 14 C49.05505768 10.38265938 49.1966746 8.59002381 48 5 C52.455 4.505 52.455 4.505 57 4 C56.67 9.28 56.34 14.56 56 20 C56.66 19.67 57.32 19.34 58 19 C58.91485573 16.19521805 58.91485573 16.19521805 59.625 12.9375 C59.88539063 11.83277344 60.14578125 10.72804688 60.4140625 9.58984375 C60.60742188 8.73519531 60.80078125 7.88054687 61 7 C60.01 6.67 59.02 6.34 58 6 C59.125 4.5 59.125 4.5 61 3 C64.0625 2.6875 64.0625 2.6875 67 3 C69 5 69 5 69.01171875 6.98828125 C68.90472656 7.75527344 68.79773438 8.52226563 68.6875 9.3125 C68.57921875 10.11171875 68.4709375 10.9109375 68.359375 11.734375 C67.9725851 14.17283307 67.54388973 16.59134546 67 19 C67.66 19 68.32 19 69 19 C69 19.66 69 20.32 69 21 C65.04 21.33 61.08 21.66 57 22 C57.99 22.33 58.98 22.66 60 23 C60 24.65 60 26.3 60 28 C55.70834738 28.02891949 51.41671964 28.04677118 47.125 28.0625 C45.90167969 28.07087891 44.67835937 28.07925781 43.41796875 28.08789062 C41.66806641 28.09272461 41.66806641 28.09272461 39.8828125 28.09765625 C38.26463623 28.10551147 38.26463623 28.10551147 36.61376953 28.11352539 C34 28 34 28 32 27 C32 27.66 32 28.32 32 29 C28 29 24 29 20 29 C19.67 28.67 19.34 28.34 19 28 C18.67 28.99 18.34 29.98 18 31 C14.37 31.33 10.74 31.66 7 32 C6.67 30.68 6.34 29.36 6 28 C7.98 27.67 9.96 27.34 12 27 C11.13375 26.690625 11.13375 26.690625 10.25 26.375 C4.86646497 23.08506193 3.16731128 17.2068874 1.75 11.375 C1.57726562 10.72015625 1.40453125 10.0653125 1.2265625 9.390625 C0.39169442 6.11741205 0 3.4058724 0 0 Z " fill="#D2DCD8" transform="translate(71,71)"/>
<path d="M0 0 C0.81146484 -0.00386719 1.62292969 -0.00773437 2.45898438 -0.01171875 C7.22333811 -0.00402811 11.73921698 0.33039106 16.4375 1.125 C16.4375 3.97941014 16.31973999 6.4575245 15.9375 9.25 C15.39484289 12.80440514 15.39484289 12.80440514 15.4375 15.125 C16.38625 14.774375 17.335 14.42375 18.3125 14.0625 C21.4375 13.125 21.4375 13.125 23.4375 14.125 C23.1075 15.115 22.7775 16.105 22.4375 17.125 C20.7875 17.455 19.1375 17.785 17.4375 18.125 C17.4375 19.115 17.4375 20.105 17.4375 21.125 C10.10008031 23.4729743 3.09356218 23.31855213 -4.5625 23.125 C-4.0675 24.053125 -3.5725 24.98125 -3.0625 25.9375 C-1.5625 29.125 -1.5625 29.125 -1.5625 32.125 C-2.5525 32.125 -3.5425 32.125 -4.5625 32.125 C-4.706875 31.196875 -4.85125 30.26875 -5 29.3125 C-5.48350111 26.11774889 -5.48350111 26.11774889 -6.5625 23.125 C-7.34625 23.0425 -8.13 22.96 -8.9375 22.875 C-16.5618889 21.29754023 -24.49107192 18.11103312 -30.5625 13.125 C-30.5625 12.465 -30.5625 11.805 -30.5625 11.125 C-31.119375 10.898125 -31.67625 10.67125 -32.25 10.4375 C-35.22409588 8.74949964 -37.28258865 6.65823483 -39.5625 4.125 C-39.5625 3.465 -39.5625 2.805 -39.5625 2.125 C-36.89215623 1.72939352 -34.24670989 1.39687335 -31.5625 1.125 C-30.69882813 1.03347656 -29.83515625 0.94195312 -28.9453125 0.84765625 C-26.35706043 0.69021065 -24.11151806 0.63861493 -21.5625 1.125 C-18.65236364 4.24300325 -17.5625 5.84825931 -17.5625 10.125 C-16.5725 10.125 -15.5825 10.125 -14.5625 10.125 C-14.8925 7.815 -15.2225 5.505 -15.5625 3.125 C-16.2225 3.125 -16.8825 3.125 -17.5625 3.125 C-17.5625 2.465 -17.5625 1.805 -17.5625 1.125 C-11.66563833 0.27195227 -5.95426764 -0.02851206 0 0 Z " fill="#339B5D" transform="translate(121.5625,101.875)"/>
<path d="M0 0 C2.90334829 1.37269 4.38130202 3.24636227 6.39453125 5.734375 C7.11253906 6.59546875 7.83054688 7.4565625 8.5703125 8.34375 C10.08203125 10.984375 10.08203125 10.984375 9.93359375 13.6640625 C7.16282002 21.21378541 -2.43840984 25.76337995 -8.85546875 29.859375 C-13.46533618 31.55279569 -18.00066069 32.38266163 -22.91796875 31.984375 C-25.66796875 29.734375 -25.66796875 29.734375 -26.91796875 26.984375 C-25.58247625 22.97789749 -23.39030988 22.22692864 -19.91796875 19.984375 C-19.58796875 19.324375 -19.25796875 18.664375 -18.91796875 17.984375 C-21.22796875 19.304375 -23.53796875 20.624375 -25.91796875 21.984375 C-26.73177083 20.19401042 -27.54557292 18.40364583 -28.359375 16.61328125 C-30.80101738 14.06148959 -33.52023955 14.26586715 -36.91796875 13.984375 C-35.12729993 16.92248437 -33.33526116 19.85975581 -31.54296875 22.796875 C-31.03507812 23.63025391 -30.5271875 24.46363281 -30.00390625 25.32226562 C-29.5140625 26.12470703 -29.02421875 26.92714844 -28.51953125 27.75390625 C-27.84398193 28.86149292 -27.84398193 28.86149292 -27.15478516 29.99145508 C-26.1088965 31.6767273 -25.01818209 33.33405499 -23.91796875 34.984375 C-26.60483675 34.63324204 -27.65747966 34.30929126 -29.38183594 32.15844727 C-29.82172852 31.38041748 -30.26162109 30.6023877 -30.71484375 29.80078125 C-31.19824219 28.95580078 -31.68164062 28.11082031 -32.1796875 27.24023438 C-32.67082031 26.35142578 -33.16195312 25.46261719 -33.66796875 24.546875 C-34.17457031 23.66193359 -34.68117188 22.77699219 -35.203125 21.86523438 C-38.91796875 15.29166316 -38.91796875 15.29166316 -38.91796875 12.984375 C-38.02335937 12.94699219 -37.12875 12.90960938 -36.20703125 12.87109375 C-24.0854971 12.21203379 -14.93256019 10.0405275 -4.91796875 2.984375 C-4.41136719 2.406875 -3.90476563 1.829375 -3.3828125 1.234375 C-1.91796875 -0.015625 -1.91796875 -0.015625 0 0 Z " fill="#F8FAF9" transform="translate(155.91796875,112.015625)"/>
<path d="M0 0 C0.67804688 0.38671875 1.35609375 0.7734375 2.0546875 1.171875 C12.15806508 6.91426493 12.15806508 6.91426493 23.171875 10.42578125 C25 11 25 11 26.8125 13.875 C28 17 28 17 27 20 C28.32 20.33 29.64 20.66 31 21 C26.82412255 22.39195915 24.86525224 20.82323219 21 19 C22.98 20.32 24.96 21.64 27 23 C26.25 28.75 26.25 28.75 24 31 C13.47266733 32.06565024 5.25642802 27.99759394 -3 22 C-4.8984375 19.73828125 -4.8984375 19.73828125 -6 18 C-4.68 18 -3.36 18 -2 18 C-1.34 16.35 -0.68 14.7 0 13 C-2.31 13 -4.62 13 -7 13 C-5.58832253 7.73829306 -3.25149768 4.27828642 0 0 Z " fill="#F8FAF9" transform="translate(90,114)"/>
<path d="M0 0 C1.134375 0.226875 2.26875 0.45375 3.4375 0.6875 C7.10561012 0.78868924 10.76876115 0.74625205 14.4375 0.6875 C13.7775 3.6575 13.1175 6.6275 12.4375 9.6875 C12.7675 9.3575 13.0975 9.0275 13.4375 8.6875 C18.65598739 8.23371849 18.65598739 8.23371849 21.375 9.8125 C23.00124563 12.68234522 22.24958685 14.56408903 21.4375 17.6875 C20.9115625 18.986875 20.9115625 18.986875 20.375 20.3125 C19.19272231 22.88204727 19.19272231 22.88204727 19.4375 26.6875 C12.8125 26.9375 12.8125 26.9375 9.4375 24.6875 C9.911875 23.470625 10.38625 22.25375 10.875 21 C12.03674038 17.91481209 12.92675187 14.95628802 13.4375 11.6875 C9.8047609 14.10932607 9.75618053 15.19195117 8.75 19.3125 C8.49863281 20.31539062 8.24726563 21.31828125 7.98828125 22.3515625 C7.80652344 23.12242188 7.62476563 23.89328125 7.4375 24.6875 C4.1375 24.3575 0.8375 24.0275 -2.5625 23.6875 C-1.9025 23.0275 -1.2425 22.3675 -0.5625 21.6875 C0.21488464 19.60785422 0.91329108 17.49815361 1.5625 15.375 C1.91570312 14.24449219 2.26890625 13.11398438 2.6328125 11.94921875 C3.35756746 9.0114984 3.68899189 6.68900101 3.4375 3.6875 C2.25325674 2.27172523 2.25325674 2.27172523 -1.125 2.625 C-2.259375 2.645625 -3.39375 2.66625 -4.5625 2.6875 C-3.86238714 5.78364077 -3.86238714 5.78364077 -1.5 7.125 C-0.860625 7.640625 -0.22125 8.15625 0.4375 8.6875 C0.4375 10.0075 0.4375 11.3275 0.4375 12.6875 C-1.8725 13.0175 -4.1825 13.3475 -6.5625 13.6875 C-7.5525 11.7075 -8.5425 9.7275 -9.5625 7.6875 C-10.96682936 8.86468985 -10.96682936 8.86468985 -10.6875 12.1875 C-10.96682936 15.51031015 -10.96682936 15.51031015 -9.5625 16.6875 C-6.89191149 16.82865161 -4.23817762 16.72997107 -1.5625 16.6875 C-2.47763319 18.97533297 -3.21734646 20.42199728 -5.1875 21.9375 C-8.69367412 23.04471288 -11.96490192 23.37852379 -15.5625 22.6875 C-19.00902326 20.24621269 -20.34306289 18.85783126 -21.125 14.6875 C-20.39011365 10.76810616 -19.53972386 9.38117873 -16.5625 6.6875 C-14.07837663 5.53209378 -11.58994012 4.57195346 -9 3.6796875 C-6.49423105 2.78309045 -6.49423105 2.78309045 -4.41015625 1.05078125 C-2.5625 -0.3125 -2.5625 -0.3125 0 0 Z " fill="#19965E" transform="translate(162.5625,72.3125)"/>
<path d="M0 0 C2.75569447 2.18159145 4.43588747 3.87177494 6 7 C6.51196826 13.14361914 6.01058229 16.04575128 2 21 C1.34 21.66 0.68 22.32 0 23 C2.31 23 4.62 23 7 23 C7 22.34 7 21.68 7 21 C7.66 21 8.32 21 9 21 C8.72344067 24.31871194 8.27606864 25.71981094 5.90625 28.125 C2.33087651 30.43169257 -0.0879579 30.59207319 -4.3125 30.75 C-5.56675781 30.80671875 -6.82101563 30.8634375 -8.11328125 30.921875 C-9.06589844 30.94765625 -10.01851562 30.9734375 -11 31 C-10.67 30.01 -10.34 29.02 -10 28 C-10.94875 27.4225 -11.8975 26.845 -12.875 26.25 C-15.93968835 24.04342439 -16.71620984 23.35481014 -18 20 C-18.70077817 15.06195847 -18.55558401 11.11116802 -16.3125 6.625 C-11.3657946 1.0098209 -7.62111077 -1.64295685 0 0 Z " fill="#17955D" transform="translate(66,73)"/>
<path d="M0 0 C0.66 0 1.32 0 2 0 C2 0.99 2 1.98 2 3 C2.66 3 3.32 3 4 3 C4 2.01 4 1.02 4 0 C5.32 0 6.64 0 8 0 C8 0.99 8 1.98 8 3 C8.99 3 9.98 3 11 3 C11 2.34 11 1.68 11 1 C25.81204231 1.85801465 25.81204231 1.85801465 32 4 C32.495 5.485 32.495 5.485 33 7 C32.67 7.66 32.34 8.32 32 9 C30.68 9 29.36 9 28 9 C28 9.66 28 10.32 28 11 C26.49609375 12.515625 26.49609375 12.515625 24.4375 14.25 C23.70660156 14.86875 22.97570312 15.4875 22.22265625 16.125 C21.48917969 16.74375 20.75570312 17.3625 20 18 C19.37996094 18.556875 18.75992188 19.11375 18.12109375 19.6875 C9.949375 27 9.949375 27 5 27 C5 26.34 5 25.68 5 25 C5.804375 24.71125 6.60875 24.4225 7.4375 24.125 C10.1326468 23.26737432 10.1326468 23.26737432 11 21 C7.04 21.495 7.04 21.495 3 22 C2 15.375 2 15.375 2 12 C2.66 11.67 3.32 11.34 4 11 C4 10.34 4 9.68 4 9 C-2.95214281 7.68808003 -9.88444903 7.88941942 -16.9375 7.9375 C-18.19369141 7.94201172 -19.44988281 7.94652344 -20.74414062 7.95117188 C-23.82947663 7.96290319 -26.91471316 7.979319 -30 8 C-30 8.66 -30 9.32 -30 10 C-29.34 10 -28.68 10 -28 10 C-27.67 12.31 -27.34 14.62 -27 17 C-27.99 17 -28.98 17 -30 17 C-30.99 14.69 -31.98 12.38 -33 10 C-32.34 10 -31.68 10 -31 10 C-31.33 9.01 -31.66 8.02 -32 7 C-25.38101391 5.85680792 -18.76681596 5.6699976 -12.0625 5.4375 C-10.90169922 5.39431641 -9.74089844 5.35113281 -8.54492188 5.30664062 C-5.69671768 5.20115158 -2.84843471 5.09903445 0 5 C0 3.35 0 1.7 0 0 Z " fill="#26A956" transform="translate(134,95)"/>
<path d="M0 0 C12.71428571 -0.14285714 12.71428571 -0.14285714 19 1 C19 3.85441014 18.88223999 6.3325245 18.5 9.125 C17.95734289 12.67940514 17.95734289 12.67940514 18 15 C18.94875 14.649375 19.8975 14.29875 20.875 13.9375 C24 13 24 13 26 14 C25.67 14.99 25.34 15.98 25 17 C23.35 17.33 21.7 17.66 20 18 C20 18.99 20 19.98 20 21 C13.47542285 22.96968367 7.8178246 23.17044562 1 23 C1.66 19.7 2.32 16.4 3 13 C1.68 13.33 0.36 13.66 -1 14 C-0.67 9.38 -0.34 4.76 0 0 Z " fill="#1A7F4F" transform="translate(119,102)"/>
<path d="M0 0 C0.99 0.66 1.98 1.32 3 2 C3.4375 4.4375 3.4375 4.4375 3 7 C1.4375 8.8125 1.4375 8.8125 -1 10 C-4.75 10.1875 -4.75 10.1875 -8 10 C-7.67 10.99 -7.34 11.98 -7 13 C-2.09905297 13.288291 1.21612143 13.33871638 5 10 C6.05505768 6.38265938 6.1966746 4.59002381 5 1 C9.455 0.505 9.455 0.505 14 0 C13.67 5.61 13.34 11.22 13 17 C10.03 17 7.06 17 4 17 C4 16.01 4 15.02 4 14 C3.443125 14.28875 2.88625 14.5775 2.3125 14.875 C-3.08333267 17.49999968 -6.99467227 18.81428173 -13 18 C-16.10440538 15.9821365 -16.82508907 14.78709917 -17.625 11.1875 C-16.74587953 6.7039856 -14.3761054 4.00442407 -11 1 C-7.07117125 -1.41774077 -4.48820467 -0.97924466 0 0 Z " fill="#1F8158" transform="translate(114,75)"/>
<path d="M0 0 C3.96 0 7.92 0 12 0 C12 0.66 12 1.32 12 2 C9.03 2 6.06 2 3 2 C3.33 3.010625 3.66 4.02125 4 5.0625 C5.07001321 8.75479911 5.15704155 12.15248207 5 16 C5.66 16 6.32 16 7 16 C6.938125 14.88625 6.87625 13.7725 6.8125 12.625 C6.874375 11.42875 6.93625 10.2325 7 9 C7.99 8.34 8.98 7.68 10 7 C9.67 6.34 9.34 5.68 9 5 C12.32534757 3.89155081 14.62182575 4.15545644 18 5 C17.67 5.99 17.34 6.98 17 8 C18.89179203 8.6814823 18.89179203 8.6814823 21 9 C21.66 8.34 22.32 7.68 23 7 C23.05382106 9.62527189 23.09358313 12.24944713 23.125 14.875 C23.14175781 15.62136719 23.15851563 16.36773437 23.17578125 17.13671875 C23.1933959 19.09194461 23.10320189 21.04742021 23 23 C20.24714932 25.75285068 18.46656334 25.39640728 14.625 25.5 C12.91183594 25.57734375 12.91183594 25.57734375 11.1640625 25.65625 C8 25 8 25 5.7265625 22.4453125 C3.912335 18.82506667 2.70131644 15.28943323 1.75 11.375 C1.57726562 10.72015625 1.40453125 10.0653125 1.2265625 9.390625 C0.39169442 6.11741205 0 3.4058724 0 0 Z " fill="#6CA58D" transform="translate(71,71)"/>
<path d="M0 0 C0.66 0 1.32 0 2 0 C2 0.99 2 1.98 2 3 C2.66 3 3.32 3 4 3 C4 2.01 4 1.02 4 0 C5.32 0 6.64 0 8 0 C8 0.99 8 1.98 8 3 C8.99 3 9.98 3 11 3 C11 2.34 11 1.68 11 1 C25.81204231 1.85801465 25.81204231 1.85801465 32 4 C32.495 5.485 32.495 5.485 33 7 C32.67 7.66 32.34 8.32 32 9 C30.68 9 29.36 9 28 9 C27.67 9.66 27.34 10.32 27 11 C27 10.34 27 9.68 27 9 C14.10925399 8.13101598 1.29243474 7.87332452 -11.625 7.9375 C-13.42187373 7.94253462 -15.21874885 7.947094 -17.015625 7.95117188 C-21.34378563 7.96200005 -25.67187652 7.97915162 -30 8 C-30 8.66 -30 9.32 -30 10 C-29.34 10 -28.68 10 -28 10 C-27.67 12.31 -27.34 14.62 -27 17 C-27.99 17 -28.98 17 -30 17 C-30.99 14.69 -31.98 12.38 -33 10 C-32.34 10 -31.68 10 -31 10 C-31.33 9.01 -31.66 8.02 -32 7 C-25.38101391 5.85680792 -18.76681596 5.6699976 -12.0625 5.4375 C-10.90169922 5.39431641 -9.74089844 5.35113281 -8.54492188 5.30664062 C-5.69671768 5.20115158 -2.84843471 5.09903445 0 5 C0 3.35 0 1.7 0 0 Z " fill="#DCE1DE" transform="translate(134,95)"/>
<path d="M0 0 C0.66 0.66 1.32 1.32 2 2 C1.66156845 7.30209422 0.80295323 17.19704677 -3 21 C-0.36 21.66 2.28 22.32 5 23 C5.103125 21.783125 5.20625 20.56625 5.3125 19.3125 C5.77427318 15.59852427 6.65333113 13.00373615 9 10 C9.66 10 10.32 10 11 10 C9.86792453 21.13207547 9.86792453 21.13207547 7 24 C5.33382885 24.04063832 3.66611905 24.042721 2 24 C1.67 24.66 1.34 25.32 1 26 C-0.7015625 25.566875 -0.7015625 25.566875 -2.4375 25.125 C-6.93986857 23.99739428 -11.46496906 22.98678914 -16 22 C-16 21.67 -16 21.34 -16 21 C-14.741875 20.731875 -13.48375 20.46375 -12.1875 20.1875 C-9.00551199 19.40467463 -6.99755689 18.74664072 -5 16 C-6.670625 16.061875 -6.670625 16.061875 -8.375 16.125 C-12 16 -12 16 -14 14 C-14.3125 10.5 -14.3125 10.5 -14 7 C-13.01 6.34 -12.02 5.68 -11 5 C-10.34 6.98 -9.68 8.96 -9 11 C-6.69 11 -4.38 11 -2 11 C-3.24976756 7.34683329 -3.67098753 6.21934164 -7 4 C-7 3.01 -7 2.02 -7 1 C-4.48718205 -0.25640898 -2.78302919 -0.20872719 0 0 Z " fill="#EFF5F2" transform="translate(165,74)"/>
<path d="M0 0 C1.91541138 -0.10841951 3.83259773 -0.18578079 5.75 -0.25 C6.81734375 -0.29640625 7.8846875 -0.3428125 8.984375 -0.390625 C12 0 12 0 14.390625 1.828125 C16 4 16 4 16 7 C16.5775 7.2475 17.155 7.495 17.75 7.75 C21.09326408 9.60736894 23.51919253 11.55757759 24.75 15.25 C24.87375 16.11625 24.87375 16.11625 25 17 C19.24406487 17.90883186 15.70506569 15.39512861 10.9765625 12.5078125 C9.99816406 11.76144531 9.99816406 11.76144531 9 11 C9 10.34 9 9.68 9 9 C8.443125 8.773125 7.88625 8.54625 7.3125 8.3125 C4.33840412 6.62449964 2.27991135 4.53323483 0 2 C0 1.34 0 0.68 0 0 Z " fill="#0EA946" transform="translate(82,104)"/>
<path d="M0 0 C3.1875 -0.3125 3.1875 -0.3125 7 0 C9.63016161 2.1727422 11.47336894 3.94673788 13 7 C13.50872093 13.10465114 13.06705978 16.11952826 9 21 C8.01 21.66 7.02 22.32 6 23 C5.74605469 21.89140625 5.49210937 20.7828125 5.23046875 19.640625 C4.88331822 18.1769633 4.53563385 16.71342813 4.1875 15.25 C3.9390332 14.15558594 3.9390332 14.15558594 3.68554688 13.0390625 C2.69845784 8.94171177 1.61436036 6.3601989 -1 3 C-0.67 2.01 -0.34 1.02 0 0 Z " fill="#158153" transform="translate(59,73)"/>
<path d="M0 0 C0 2.64 0 5.28 0 8 C-0.99 8 -1.98 8 -3 8 C-3.66 8.66 -4.32 9.32 -5 10 C-5.66 7.69 -6.32 5.38 -7 3 C-7.99 3 -8.98 3 -10 3 C-9.67 3.66 -9.34 4.32 -9 5 C-8.98016647 6.41668102 -9.00712252 7.8342628 -9.0625 9.25 C-9.088128 13.22874677 -8.84963622 16.38880547 -7 20 C-4.49004504 21.43923199 -4.49004504 21.43923199 -2 22 C-5.30435084 23.12377697 -7.0506862 22.89554742 -10.25 21.5625 C-11.30960938 21.13130859 -11.30960938 21.13130859 -12.390625 20.69140625 C-12.92171875 20.46324219 -13.4528125 20.23507813 -14 20 C-12.68 19.67 -11.36 19.34 -10 19 C-10.96288175 14.70581542 -10.96288175 14.70581542 -13.9375 11.75 C-14.618125 11.5025 -15.29875 11.255 -16 11 C-19.60654039 8.59563974 -19.85452932 7.05320393 -21 3 C-23.97 2.505 -23.97 2.505 -27 2 C-27 1.67 -27 1.34 -27 1 C-23.59981616 0.64959938 -20.38715062 0.47440766 -17 1 C-14.08986364 4.11800325 -13 5.72325931 -13 10 C-12.01 10 -11.02 10 -10 10 C-10.33 7.69 -10.66 5.38 -11 3 C-11.66 3 -12.32 3 -13 3 C-13 2.34 -13 1.68 -13 1 C-8.62426048 0.40667939 -4.42471556 -0.13827236 0 0 Z " fill="#43C065" transform="translate(117,102)"/>
<path d="M0 0 C-0.66 2.97 -1.32 5.94 -2 9 C-1.67 8.67 -1.34 8.34 -1 8 C4.21848739 7.54621849 4.21848739 7.54621849 6.9375 9.125 C8.56374563 11.99484522 7.81208685 13.87658903 7 17 C6.649375 17.86625 6.29875 18.7325 5.9375 19.625 C4.75522231 22.19454727 4.75522231 22.19454727 5 26 C-1.625 26.25 -1.625 26.25 -5 24 C-4.525625 22.783125 -4.05125 21.56625 -3.5625 20.3125 C-2.40075962 17.22731209 -1.51074813 14.26878802 -1 11 C-1.99 11.33 -2.98 11.66 -4 12 C-4.125 5.25 -4.125 5.25 -3 3 C-4.32 2.67 -5.64 2.34 -7 2 C-7 1.67 -7 1.34 -7 1 C-2.25 0 -2.25 0 0 0 Z " fill="#16A663" transform="translate(177,73)"/>
<path d="M0 0 C3.35433109 0.94933899 6.69246505 1.89748835 10 3 C8.98208077 10.10377673 7.90094901 17.07511433 6 24 C2.7 23.67 -0.6 23.34 -4 23 C-3.34 22.34 -2.68 21.68 -2 21 C-1.22261536 18.92035422 -0.52420892 16.81065361 0.125 14.6875 C0.47820312 13.55699219 0.83140625 12.42648438 1.1953125 11.26171875 C1.92840569 8.29020022 2.32334433 6.03004927 2 3 C1.34 2.01 0.68 1.02 0 0 Z " fill="#129D5D" transform="translate(164,73)"/>
<path d="M0 0 C3.96 0 7.92 0 12 0 C12 0.66 12 1.32 12 2 C9.03 2 6.06 2 3 2 C3.33 3.010625 3.66 4.02125 4 5.0625 C5.07001321 8.75479911 5.15704155 12.15248207 5 16 C5.66 16 6.32 16 7 16 C7.33 14.68 7.66 13.36 8 12 C8.33 14.31 8.66 16.62 9 19 C12.63 18.67 16.26 18.34 20 18 C20.33 17.01 20.66 16.02 21 15 C21 17.64 21 20.28 21 23 C18.43106162 24.28446919 16.23423663 24.32977144 13.375 24.5625 C11.87066406 24.68818359 11.87066406 24.68818359 10.3359375 24.81640625 C9.17964844 24.90728516 9.17964844 24.90728516 8 25 C4.79213201 20.64646487 3.03237766 16.65166872 1.75 11.375 C1.57726562 10.72015625 1.40453125 10.0653125 1.2265625 9.390625 C0.39169442 6.11741205 0 3.4058724 0 0 Z " fill="#C5D6CE" transform="translate(71,71)"/>
<path d="M0 0 C2 2 2 2 2.01171875 3.953125 C1.90472656 4.71109375 1.79773438 5.4690625 1.6875 6.25 C1.57921875 7.04792969 1.4709375 7.84585938 1.359375 8.66796875 C0.93062763 11.45016636 0.49733464 14.22913555 0 17 C-2.64 17 -5.28 17 -8 17 C-7.48041715 12.62065881 -6.94324258 8.31196609 -6 4 C-6.99 3.67 -7.98 3.34 -9 3 C-6.40257043 -0.46323942 -4.16948329 -0.44356205 0 0 Z " fill="#198B59" transform="translate(138,74)"/>
<path d="M0 0 C3.1875 -0.4375 3.1875 -0.4375 7 0 C9.11158381 2.08545034 10.56739143 4.41206193 12 7 C12.61875 6.505 13.2375 6.01 13.875 5.5 C16 4 16 4 18 4 C16.66667905 7.99996286 14.5042173 8.83782337 11 11 C11.70339566 13.50965614 11.70339566 13.50965614 13 16 C14.87183587 16.84311576 14.87183587 16.84311576 17 17 C18.33333333 17.33333333 19.66666667 17.66666667 21 18 C17.20636801 19.84262125 15.03758912 20.30609415 11 19 C9.375 17.21484375 9.375 17.21484375 8 14.9375 C7.50242187 14.13054687 7.00484375 13.32359375 6.4921875 12.4921875 C5.75355469 11.25855469 5.75355469 11.25855469 5 10 C4.04211448 8.5205433 3.08381693 7.04135324 2.125 5.5625 C0 2.25471698 0 2.25471698 0 0 Z " fill="#24815A" transform="translate(119,126)"/>
<path d="M0 0 C2.81902173 4.22853259 3.63288503 8.7646707 4.90234375 13.65234375 C5.91995612 16.7558804 6.75813295 18.66140264 9 21 C11.59855733 21.8042208 11.59855733 21.8042208 14 22 C10.77208445 24.1519437 9.71599191 24.20086443 6 24 C6.33 25.32 6.66 26.64 7 28 C5.68 28.33 4.36 28.66 3 29 C1.8125 27.375 1.8125 27.375 1 25 C2.375 21.75 2.375 21.75 4 19 C3.34 19 2.68 19 2 19 C2 19.66 2 20.32 2 21 C-1.96 21.495 -1.96 21.495 -6 22 C-5.566875 21.50113281 -5.13375 21.00226563 -4.6875 20.48828125 C0.5121587 13.78409167 0.69225654 8.2942589 0 0 Z " fill="#EAEEEC" transform="translate(71,75)"/>
<path d="M0 0 C3.37716757 1.58520111 5.21386902 1.41002723 8.828125 0.765625 C12.88260376 0.17021204 16.97396629 0.36209671 21.0625 0.4375 C20.0625 2.4375 20.0625 2.4375 18.09375 3.2890625 C12.4528974 5.01265635 6.98164941 6.3695542 1.0625 5.4375 C0.0725 4.7775 -0.9175 4.1175 -1.9375 3.4375 C-3.86887682 3.16393157 -3.86887682 3.16393157 -5.94921875 3.2421875 C-6.70654297 3.24863281 -7.46386719 3.25507812 -8.24414062 3.26171875 C-9.02982422 3.27847656 -9.81550781 3.29523438 -10.625 3.3125 C-11.42228516 3.32152344 -12.21957031 3.33054687 -13.04101562 3.33984375 C-15.006639 3.36338415 -16.97210775 3.39925453 -18.9375 3.4375 C-18.9375 4.0975 -18.9375 4.7575 -18.9375 5.4375 C-19.5975 5.4375 -20.2575 5.4375 -20.9375 5.4375 C-19.96547994 2.94830576 -19.4048666 1.6926003 -17.01953125 0.390625 C-5.80023657 -3.08523222 -5.80023657 -3.08523222 0 0 Z " fill="#7EAD9A" transform="translate(111.9375,64.5625)"/>
<path d="M0 0 C0.99 0.66 1.98 1.32 3 2 C2.59007813 2.60328125 2.18015625 3.2065625 1.7578125 3.828125 C0.94957031 5.02695313 0.94957031 5.02695313 0.125 6.25 C-0.40867187 7.03890625 -0.94234375 7.8278125 -1.4921875 8.640625 C-2.81822015 10.71555692 -3.94928175 12.77614972 -5 15 C-2.69 15 -0.38 15 2 15 C1.25 19.75 1.25 19.75 -1 22 C3.07893892 25.57408008 7.33770209 27.81640841 12.1875 30.125 C19.74615385 33.74615385 19.74615385 33.74615385 22 36 C17.00784827 35.45554106 13.05161532 33.80984851 8.6875 31.4375 C8.03322021 31.08324951 7.37894043 30.72899902 6.70483398 30.36401367 C1.31923116 27.3525159 -4.29291347 24.03319879 -8 19 C-8.82562876 14.49590025 -7.06786529 12.0347489 -4.5625 8.375 C-1.85963 4.3986977 -1.85963 4.3986977 0 0 Z " fill="#5A9E82" transform="translate(88,112)"/>
<path d="M0 0 C1.32 0.66 2.64 1.32 4 2 C4.66 1.34 5.32 0.68 6 0 C6 0.66 6 1.32 6 2 C8.64 2 11.28 2 14 2 C14 1.34 14 0.68 14 0 C23.04028922 -0.1723784 31.98865693 0.3668316 41 1 C41 1.33 41 1.66 41 2 C32.09 2.99 23.18 3.98 14 5 C14 5.66 14 6.32 14 7 C13.01 7 12.02 7 11 7 C11 6.34 11 5.68 11 5 C9.53626953 5.14308594 9.53626953 5.14308594 8.04296875 5.2890625 C6.77066406 5.39992188 5.49835938 5.51078125 4.1875 5.625 C2.29064453 5.79902344 2.29064453 5.79902344 0.35546875 5.9765625 C-3 6 -3 6 -6 4 C-4.02 4 -2.04 4 0 4 C0 2.68 0 1.36 0 0 Z " fill="#F7F7F7" transform="translate(89,98)"/>
<path d="M0 0 C1.921875 0.19140625 1.921875 0.19140625 4 1 C8.22856266 6.72944139 8.51520684 13.14488676 8 20 C6.13671875 19.77734375 6.13671875 19.77734375 4 19 C2.76953125 17.00390625 2.76953125 17.00390625 1.8125 14.5625 C1.32716797 13.35787109 1.32716797 13.35787109 0.83203125 12.12890625 C0.55746094 11.42636719 0.28289063 10.72382812 0 10 C-0.33 9.34 -0.66 8.68 -1 8 C-1.125 4.4375 -1.125 4.4375 -1 1 C-0.67 0.67 -0.34 0.34 0 0 Z " fill="#F1F5F3" transform="translate(56,76)"/>
<path d="M0 0 C0.99 0.66 1.98 1.32 3 2 C3.4375 4.4375 3.4375 4.4375 3 7 C1.4375 8.8125 1.4375 8.8125 -1 10 C-4.75 10.1875 -4.75 10.1875 -8 10 C-8.33 10.66 -8.66 11.32 -9 12 C-9.125 4.25 -9.125 4.25 -8 2 C-8.99 1.67 -9.98 1.34 -11 1 C-7.22301161 -1.56835211 -4.3286606 -0.94443504 0 0 Z " fill="#2A865F" transform="translate(114,75)"/>
<path d="M0 0 C5.44693314 -0.09688221 10.63904667 -0.12862175 16 1 C16 2.32 16 3.64 16 5 C6.43 5 -3.14 5 -13 5 C-12.67 3.68 -12.34 2.36 -12 1 C-10.37509046 0.97301811 -8.75005367 0.95361243 -7.125 0.9375 C-6.22007813 0.92589844 -5.31515625 0.91429688 -4.3828125 0.90234375 C-2 1 -2 1 0 2 C0 1.34 0 0.68 0 0 Z " fill="#6E6E6E" transform="translate(114,94)"/>
<path d="M0 0 C0.66 0 1.32 0 2 0 C0.86792453 11.13207547 0.86792453 11.13207547 -2 14 C-3.66617115 14.04063832 -5.33388095 14.042721 -7 14 C-7.33 14.66 -7.66 15.32 -8 16 C-9.7015625 15.566875 -9.7015625 15.566875 -11.4375 15.125 C-15.93986857 13.99739428 -20.46496906 12.98678914 -25 12 C-25 11.67 -25 11.34 -25 11 C-23.741875 10.71125 -22.48375 10.4225 -21.1875 10.125 C-18.1460601 9.42696461 -16.69330122 8.79553415 -14 7 C-13.01 7 -12.02 7 -11 7 C-11.33 8.32 -11.66 9.64 -12 11 C-9.36 11.66 -6.72 12.32 -4 13 C-3.896875 11.783125 -3.79375 10.56625 -3.6875 9.3125 C-3.22572682 5.59852427 -2.34666887 3.00373615 0 0 Z " fill="#E8F0ED" transform="translate(174,84)"/>
<path d="M0 0 C7.41017023 -0.11459026 14.64206267 0.08839714 22 1 C22 1.33 22 1.66 22 2 C19.69 2 17.38 2 15 2 C14.8453125 2.9590625 14.8453125 2.9590625 14.6875 3.9375 C14.460625 4.618125 14.23375 5.29875 14 6 C13.01 6.33 12.02 6.66 11 7 C10.67 9.31 10.34 11.62 10 14 C8.68 14.33 7.36 14.66 6 15 C5 8.375 5 8.375 5 5 C5.66 4.67 6.32 4.34 7 4 C7 3.34 7 2.68 7 2 C4.69 1.67 2.38 1.34 0 1 C0 0.67 0 0.34 0 0 Z " fill="#369D60" transform="translate(131,102)"/>
<path d="M0 0 C0 0.66 0 1.32 0 2 C-1.98 2.33 -3.96 2.66 -6 3 C-5.29988714 6.09614077 -5.29988714 6.09614077 -2.9375 7.4375 C-2.298125 7.953125 -1.65875 8.46875 -1 9 C-1 10.32 -1 11.64 -1 13 C-3.31 13.33 -5.62 13.66 -8 14 C-8.433125 12.88625 -8.86625 11.7725 -9.3125 10.625 C-10.69911119 6.82487666 -10.69911119 6.82487666 -14 5 C-13.0925 4.731875 -12.185 4.46375 -11.25 4.1875 C-8.03932599 3.19729814 -8.03932599 3.19729814 -5.875 1.375 C-4 0 -4 0 0 0 Z " fill="#30A06E" transform="translate(164,72)"/>
<path d="M0 0 C3.3 0 6.6 0 10 0 C7.10844698 4.85780907 3.77949953 8.87281005 -1 12 C-1.99 12 -2.98 12 -4 12 C-3.03440019 7.83760857 -1.52816328 3.9865129 0 0 Z " fill="#07A33E" transform="translate(151,105)"/>
<path d="M0 0 C-2.63173273 3.31088956 -5.5724401 3.96133263 -9.5625 5.0625 C-14.24819058 6.21848899 -14.24819058 6.21848899 -18 9 C-20.53125 9.59765625 -20.53125 9.59765625 -23.5 10.0625 C-27.37920565 10.6285743 -27.37920565 10.6285743 -31 12 C-30.67 11.01 -30.34 10.02 -30 9 C-27.5234375 8.26171875 -27.5234375 8.26171875 -24.375 7.6875 C-20.09031904 6.74880665 -17.48665273 5.98839012 -14.4375 2.8125 C-10.31708744 -1.3386619 -5.4892831 -0.53602403 0 0 Z " fill="#91B9A8" transform="translate(125,52)"/>
<path d="M0 0 C3.96 0 7.92 0 12 0 C12 0.66 12 1.32 12 2 C9.03 2 6.06 2 3 2 C4.32 7.94 5.64 13.88 7 20 C9.31 20.66 11.62 21.32 14 22 C14 22.33 14 22.66 14 23 C10.6875 23.25 10.6875 23.25 7 23 C3.7350317 19.83106018 2.88135575 15.78374096 1.8125 11.5 C1.63525391 10.83613281 1.45800781 10.17226562 1.27539062 9.48828125 C0.42008388 6.17933393 0 3.44526634 0 0 Z " fill="#4D9577" transform="translate(71,71)"/>
<path d="M0 0 C2.31 0 4.62 0 7 0 C7 0.66 7 1.32 7 2 C7.66 2.33 8.32 2.66 9 3 C8.67 4.65 8.34 6.3 8 8 C5.03 8 2.06 8 -1 8 C-0.67 6.35 -0.34 4.7 0 3 C-0.66 2.67 -1.32 2.34 -2 2 C-1.34 2 -0.68 2 0 2 C0 1.34 0 0.68 0 0 Z " fill="#11724A" transform="translate(82,81)"/>
<path d="M0 0 C1.34592097 1.65651812 2.67518731 3.32655239 4 5 C4.52851563 5.62777344 5.05703125 6.25554687 5.6015625 6.90234375 C8.13015485 10.02413667 9.84244 12.19644402 10.625 16.1875 C9.28845919 22.20193363 4.70294589 25.13615427 -0.25 28.3125 C-1.32765625 29.00988281 -2.4053125 29.70726562 -3.515625 30.42578125 C-4.74539062 31.20501953 -4.74539062 31.20501953 -6 32 C-6.66 31.67 -7.32 31.34 -8 31 C-6.89591797 30.22076172 -6.89591797 30.22076172 -5.76953125 29.42578125 C1.72579629 24.37456332 1.72579629 24.37456332 8 18 C7.68930884 13.84364272 6.16035465 11.49365674 3.5625 8.3125 C2.94503906 7.54550781 2.32757813 6.77851562 1.69140625 5.98828125 C0.00218929 3.94857722 0.00218929 3.94857722 -2 2 C-1.34 2 -0.68 2 0 2 C0 1.34 0 0.68 0 0 Z " fill="#449574" transform="translate(157,109)"/>
<path d="M0 0 C0.66 0 1.32 0 2 0 C2 0.99 2 1.98 2 3 C2.66 3 3.32 3 4 3 C4 2.01 4 1.02 4 0 C5.32 0 6.64 0 8 0 C8 0.99 8 1.98 8 3 C8.99 3 9.98 3 11 3 C11 2.34 11 1.68 11 1 C13.97 1.33 16.94 1.66 20 2 C19.01 3.32 18.02 4.64 17 6 C17 5.01 17 4.02 17 3 C16.34 3 15.68 3 15 3 C15 3.66 15 4.32 15 5 C10.05 5 5.1 5 0 5 C0 3.35 0 1.7 0 0 Z " fill="#747474" transform="translate(134,95)"/>
<path d="M0 0 C3.63 0 7.26 0 11 0 C11 2.97 11 5.94 11 9 C5.61103792 7.57351004 3.3524585 4.21006416 0 0 Z " fill="#039127" transform="translate(82,105)"/>
<path d="M0 0 C4.05281712 1.22527029 7.44360764 2.69880494 11 5 C10.50038509 9.37163047 9.30670786 12.04136665 6 15 C2.25 14.8125 2.25 14.8125 -1 14 C-1 13.67 -1 13.34 -1 13 C-0.05125 12.79375 0.8975 12.5875 1.875 12.375 C5.29166667 11.29166667 5.29166667 11.29166667 6.375 7.875 C6.58125 6.92625 6.7875 5.9775 7 5 C6.21625 4.731875 5.4325 4.46375 4.625 4.1875 C2 3 2 3 0 0 Z " fill="#2B845F" transform="translate(110,132)"/>
<path d="M0 0 C3.25 -0.3125 3.25 -0.3125 7 0 C9.4375 2.375 9.4375 2.375 11 5 C11 5.66 11 6.32 11 7 C9.02 7.66 7.04 8.32 5 9 C4.16094435 7.87926138 3.32892169 6.75325453 2.5 5.625 C2.0359375 4.99851563 1.571875 4.37203125 1.09375 3.7265625 C0 2 0 2 0 0 Z " fill="#1D7A54" transform="translate(119,126)"/>
<path d="M0 0 C1.11310547 0.00451172 2.22621094 0.00902344 3.37304688 0.01367188 C6.10292101 0.02538807 8.83268174 0.04179301 11.5625 0.0625 C11.5625 0.3925 11.5625 0.7225 11.5625 1.0625 C1.9925 1.3925 -7.5775 1.7225 -17.4375 2.0625 C-17.4375 2.7225 -17.4375 3.3825 -17.4375 4.0625 C-16.7775 4.0625 -16.1175 4.0625 -15.4375 4.0625 C-15.1075 6.3725 -14.7775 8.6825 -14.4375 11.0625 C-15.4275 11.0625 -16.4175 11.0625 -17.4375 11.0625 C-18.4275 8.7525 -19.4175 6.4425 -20.4375 4.0625 C-19.7775 4.0625 -19.1175 4.0625 -18.4375 4.0625 C-18.7675 3.0725 -19.0975 2.0825 -19.4375 1.0625 C-12.95400193 -0.11885474 -6.57535493 -0.05072974 0 0 Z " fill="#8FCB9D" transform="translate(121.4375,100.9375)"/>
<path d="M0 0 C3.63 0 7.26 0 11 0 C10.34 0.66 9.68 1.32 9 2 C5.375 1.625 5.375 1.625 2 1 C3.79066882 3.93810937 5.58270759 6.87538081 7.375 9.8125 C7.88289063 10.64587891 8.39078125 11.47925781 8.9140625 12.33789062 C9.64882812 13.54155273 9.64882812 13.54155273 10.3984375 14.76953125 C11.07398682 15.87711792 11.07398682 15.87711792 11.76318359 17.00708008 C12.80907225 18.6923523 13.89978666 20.34967999 15 22 C12.313132 21.64886704 11.26048909 21.32491626 9.53613281 19.17407227 C9.09624023 18.39604248 8.65634766 17.6180127 8.203125 16.81640625 C7.71972656 15.97142578 7.23632812 15.12644531 6.73828125 14.25585938 C6.24714844 13.36705078 5.75601563 12.47824219 5.25 11.5625 C4.74339844 10.67755859 4.23679687 9.79261719 3.71484375 8.88085938 C0 2.30728816 0 2.30728816 0 0 Z " fill="#C8D8D1" transform="translate(117,125)"/>
<path d="M0 0 C0.99 0 1.98 0 3 0 C3.33 0.99 3.66 1.98 4 3 C4.66 3.33 5.32 3.66 6 4 C5.88490339 5.41750563 5.75746342 6.83401169 5.625 8.25 C5.55539063 9.03890625 5.48578125 9.8278125 5.4140625 10.640625 C4.98492887 13.085877 4.21399362 14.84836903 3 17 C2.34 17 1.68 17 1 17 C1.33 11.72 1.66 6.44 2 1 C1.34 0.67 0.68 0.34 0 0 Z " fill="#E7EEEB" transform="translate(126,74)"/>
<path d="M0 0 C1.4370809 -0.05422947 2.87475462 -0.09289723 4.3125 -0.125 C5.11300781 -0.14820312 5.91351563 -0.17140625 6.73828125 -0.1953125 C9 0 9 0 12 2 C11.67 2.99 11.34 3.98 11 5 C9.741875 5.020625 8.48375 5.04125 7.1875 5.0625 C6.47980469 5.07410156 5.77210938 5.08570312 5.04296875 5.09765625 C3 5 3 5 0 4 C0 2.68 0 1.36 0 0 Z " fill="#818181" transform="translate(155,98)"/>
<path d="M0 0 C0.66 0.66 1.32 1.32 2 2 C-0.36865853 3.18131571 -2.74356516 4.34495951 -5.125 5.5 C-5.79015625 5.83386719 -6.4553125 6.16773438 -7.140625 6.51171875 C-11.2721534 8.49647259 -14.31091326 9.40901691 -19 9 C-14.57587075 3.53489917 -6.41141223 2.13713741 0 0 Z " fill="#6FA58F" transform="translate(148,140)"/>
<path d="M0 0 C1.21236328 0.01353516 1.21236328 0.01353516 2.44921875 0.02734375 C3.37154297 0.04474609 3.37154297 0.04474609 4.3125 0.0625 C4.3125 1.3825 4.3125 2.7025 4.3125 4.0625 C0.6825 4.3925 -2.9475 4.7225 -6.6875 5.0625 C-7.0175 3.7425 -7.3475 2.4225 -7.6875 1.0625 C-4.80538698 0.10179566 -2.98899956 -0.04331883 0 0 Z " fill="#5A5A5A" transform="translate(84.6875,97.9375)"/>
<path d="M0 0 C1.32 0.66 2.64 1.32 4 2 C4.66 1.34 5.32 0.68 6 0 C6 0.66 6 1.32 6 2 C6.763125 1.938125 7.52625 1.87625 8.3125 1.8125 C11 2 11 2 12.8125 3.375 C14 5 14 5 14 7 C13.01 7 12.02 7 11 7 C11 6.34 11 5.68 11 5 C9.53626953 5.14308594 9.53626953 5.14308594 8.04296875 5.2890625 C6.77066406 5.39992188 5.49835938 5.51078125 4.1875 5.625 C2.29064453 5.79902344 2.29064453 5.79902344 0.35546875 5.9765625 C-3 6 -3 6 -6 4 C-4.02 4 -2.04 4 0 4 C0 2.68 0 1.36 0 0 Z " fill="#DAE8DC" transform="translate(89,98)"/>
<path d="M0 0 C3.3 0 6.6 0 10 0 C10 0.33 10 0.66 10 1 C7.69 1 5.38 1 3 1 C2.896875 1.639375 2.79375 2.27875 2.6875 2.9375 C2.460625 3.618125 2.23375 4.29875 2 5 C1.01 5.33 0.02 5.66 -1 6 C-1 7.65 -1 9.3 -1 11 C-1.99 11.33 -2.98 11.66 -4 12 C-4 9.36 -4 6.72 -4 4 C-3.01 4.33 -2.02 4.66 -1 5 C-0.67 3.35 -0.34 1.7 0 0 Z " fill="#56B576" transform="translate(143,103)"/>
<path d="M0 0 C-1 2 -1 2 -3.14453125 2.88671875 C-4.02496094 3.15097656 -4.90539062 3.41523437 -5.8125 3.6875 C-6.68519531 3.95949219 -7.55789062 4.23148437 -8.45703125 4.51171875 C-11.11403969 5.02189702 -12.50223961 4.98068249 -15 4 C-15.66 3.34 -16.32 2.68 -17 2 C-11.21642935 -0.01167675 -6.09781001 -0.22084624 0 0 Z " fill="#9FC0B2" transform="translate(133,65)"/>
<path d="M0 0 C1.6026782 -0.10824843 3.20745748 -0.18570645 4.8125 -0.25 C5.70582031 -0.29640625 6.59914063 -0.3428125 7.51953125 -0.390625 C10 0 10 0 11.84375 1.875 C13 4 13 4 12.6875 6.25 C12.3471875 7.11625 12.3471875 7.11625 12 8 C11.01 7.34 10.02 6.68 9 6 C8.67 6.66 8.34 7.32 8 8 C7.34 6.02 6.68 4.04 6 2 C3.03 1.505 3.03 1.505 0 1 C0 0.67 0 0.34 0 0 Z " fill="#2EB85A" transform="translate(90,103)"/>
<path d="M0 0 C0.99 0 1.98 0 3 0 C3 2.64 3 5.28 3 8 C2.01 8 1.02 8 0 8 C-0.66 8.66 -1.32 9.32 -2 10 C-3.03023161 6.72199032 -3.17153978 5.38596452 -1.75 2.1875 C-1.1725 1.465625 -0.595 0.74375 0 0 Z " fill="#46A06D" transform="translate(114,102)"/>
<path d="M0 0 C-0.66 2.97 -1.32 5.94 -2 9 C-1.67 8.67 -1.34 8.34 -1 8 C0.99958364 7.95919217 3.00045254 7.95745644 5 8 C4.360625 8.20625 3.72125 8.4125 3.0625 8.625 C0.65074923 9.89538209 0.65074923 9.89538209 0.25 13.125 C0.1675 14.07375 0.085 15.0225 0 16 C-0.33 16 -0.66 16 -1 16 C-1 14.35 -1 12.7 -1 11 C-1.99 11.33 -2.98 11.66 -4 12 C-4.125 5.25 -4.125 5.25 -3 3 C-4.32 2.67 -5.64 2.34 -7 2 C-7 1.67 -7 1.34 -7 1 C-2.25 0 -2.25 0 0 0 Z " fill="#47B180" transform="translate(177,73)"/>
<path d="M0 0 C3.72450216 2.10515339 5.6795921 3.24267224 7.375 7.25 C7.684375 8.61125 7.684375 8.61125 8 10 C5.125 10.125 5.125 10.125 2 10 C1.34 9.34 0.68 8.68 0 8 C0.66 8 1.32 8 2 8 C1.34 5.36 0.68 2.72 0 0 Z " fill="#1BB552" transform="translate(99,111)"/>
<path d="M0 0 C0.66 0 1.32 0 2 0 C1.98839844 0.96421875 1.97679688 1.9284375 1.96484375 2.921875 C1.95582031 4.18515625 1.94679688 5.4484375 1.9375 6.75 C1.92589844 8.00296875 1.91429688 9.2559375 1.90234375 10.546875 C1.97978973 13.28536501 2.17219185 15.41880293 3 18 C1.68 17.67 0.36 17.34 -1 17 C-1.98120464 13.94736336 -1.98120464 12.05263664 -1 9 C-0.34 9 0.32 9 1 9 C0.67 6.03 0.34 3.06 0 0 Z " fill="#2C8B5A" transform="translate(117,102)"/>
<path d="M0 0 C-0.33 2.97 -0.66 5.94 -1 9 C-2.98 9 -4.96 9 -7 9 C-7 5 -7 5 -5.72265625 3.515625 C-1.11111111 0 -1.11111111 0 0 0 Z " fill="#0A814D" transform="translate(127,82)"/>
<path d="M0 0 C1.32 0.33 2.64 0.66 4 1 C3.01 1 2.02 1 1 1 C1 2.32 1 3.64 1 5 C4.63 5.33 8.26 5.66 12 6 C10.68 6.33 9.36 6.66 8 7 C7.67 7.66 7.34 8.32 7 9 C7 8.34 7 7.68 7 7 C5.081875 7.061875 5.081875 7.061875 3.125 7.125 C0.9453125 7.1953125 0.9453125 7.1953125 -1 7 C-1.66 6.34 -2.32 5.68 -3 5 C-2.01 3.35 -1.02 1.7 0 0 Z " fill="#D8DBD9" transform="translate(154,97)"/>
<path d="M0 0 C2.64 0 5.28 0 8 0 C7.65120368 3.25543229 6.97866739 4.01873107 4.4375 6.25 C3.633125 6.8275 2.82875 7.405 2 8 C2 6.02 2 4.04 2 2 C1.34 2 0.68 2 0 2 C0 1.34 0 0.68 0 0 Z " fill="#1F865A" transform="translate(119,76)"/>
<path d="M0 0 C-0.66 1.32 -1.32 2.64 -2 4 C-2.66 4 -3.32 4 -4 4 C-4 3.34 -4 2.68 -4 2 C-4.99 2 -5.98 2 -7 2 C-6.67 2.66 -6.34 3.32 -6 4 C-5.960008 5.99960012 -5.95653201 8.00047242 -6 10 C-6.99 9.67 -7.98 9.34 -9 9 C-8.34 9 -7.68 9 -7 9 C-7.33 6.69 -7.66 4.38 -8 2 C-8.66 2 -9.32 2 -10 2 C-10 1.34 -10 0.68 -10 0 C-2.25 -1.125 -2.25 -1.125 0 0 Z " fill="#53BA71" transform="translate(114,103)"/>
<path d="M0 0 C2.64 0 5.28 0 8 0 C7.25 2.4375 7.25 2.4375 6 5 C3.875 5.8125 3.875 5.8125 2 6 C1.34 4.02 0.68 2.04 0 0 Z " fill="#2C825F" transform="translate(157,124)"/>
<path d="M0 0 C3.3 0.33 6.6 0.66 10 1 C10 2.32 10 3.64 10 5 C8.02 5 6.04 5 4 5 C4 4.34 4 3.68 4 3 C3.01 3 2.02 3 1 3 C0.67 2.01 0.34 1.02 0 0 Z " fill="#656565" transform="translate(120,94)"/>
<path d="M0 0 C0.33 0 0.66 0 1 0 C1 2.64 1 5.28 1 8 C-0.32 8 -1.64 8 -3 8 C-3 7.34 -3 6.68 -3 6 C-5.64 6 -8.28 6 -11 6 C-11 5.67 -11 5.34 -11 5 C-7.12315913 3.80712589 -4.08378077 3 0 3 C0 2.01 0 1.02 0 0 Z " fill="#EFF3F2" transform="translate(91,86)"/>
<path d="M0 0 C2.31 0 4.62 0 7 0 C7 1.32 7 2.64 7 4 C4 4 1 4 -2 4 C-2.66 3.01 -3.32 2.02 -4 1 C-3.01 1.33 -2.02 1.66 -1 2 C-0.67 1.34 -0.34 0.68 0 0 Z " fill="#575757" transform="translate(93,96)"/>
<path d="M0 0 C2.31 0.33 4.62 0.66 7 1 C7 1.66 7 2.32 7 3 C7.99 3 8.98 3 10 3 C10 3.66 10 4.32 10 5 C7.03 5 4.06 5 1 5 C1.33 4.34 1.66 3.68 2 3 C1.34 2.67 0.68 2.34 0 2 C0 1.34 0 0.68 0 0 Z " fill="#5B5B5B" transform="translate(114,94)"/>
<path d="M0 0 C2.97 0.33 5.94 0.66 9 1 C8.01 2.32 7.02 3.64 6 5 C6 4.01 6 3.02 6 2 C5.34 2 4.68 2 4 2 C4 2.66 4 3.32 4 4 C1.69 4 -0.62 4 -3 4 C-3 3.34 -3 2.68 -3 2 C-2.01 2 -1.02 2 0 2 C0 1.34 0 0.68 0 0 Z " fill="#5E5E5E" transform="translate(145,96)"/>
<path d="M0 0 C1.65 0 3.3 0 5 0 C4.34 2.97 3.68 5.94 3 9 C4.98 9 6.96 9 9 9 C9 9.33 9 9.66 9 10 C6.69 10 4.38 10 2 10 C1.34 6.7 0.68 3.4 0 0 Z " fill="#5D9B82" transform="translate(78,80)"/>
<path d="M0 0 C0.66 0.33 1.32 0.66 2 1 C1.52354792 5.28806873 0.34097516 7.26647487 -3 10 C-3.66 10 -4.32 10 -5 10 C-3.33333333 6.66666667 -1.66666667 3.33333333 0 0 Z " fill="#E8EEEC" transform="translate(121,138)"/>
<path d="M0 0 C-1.15897264 3.47691793 -1.8640843 4.22015595 -5 6 C-8.25 6.1875 -8.25 6.1875 -11 6 C-11.33 6.66 -11.66 7.32 -12 8 C-12.33 7.01 -12.66 6.02 -13 5 C-12.113125 4.731875 -11.22625 4.46375 -10.3125 4.1875 C-6.87308399 2.95450181 -3.60500565 0 0 0 Z " fill="#77AC96" transform="translate(137,130)"/>
<path d="M0 0 C1.98 0 3.96 0 6 0 C5.67 1.98 5.34 3.96 5 6 C3.0625 5.25 3.0625 5.25 1 4 C0.25 1.875 0.25 1.875 0 0 Z " fill="#1A7B53" transform="translate(83,128)"/>
<path d="M0 0 C0.33 0 0.66 0 1 0 C1.226875 0.94875 1.45375 1.8975 1.6875 2.875 C2.69083714 6.19323388 2.69083714 6.19323388 5.625 7.375 C6.40875 7.58125 7.1925 7.7875 8 8 C4.69564916 9.12377697 2.9493138 8.89554742 -0.25 7.5625 C-0.95640625 7.27503906 -1.6628125 6.98757812 -2.390625 6.69140625 C-2.92171875 6.46324219 -3.4528125 6.23507813 -4 6 C-2.68 5.67 -1.36 5.34 0 5 C0 3.35 0 1.7 0 0 Z " fill="#45B76E" transform="translate(107,116)"/>
<path d="M0 0 C1.65 0 3.3 0 5 0 C5 0.99 5 1.98 5 3 C8.3 3 11.6 3 15 3 C15 3.33 15 3.66 15 4 C10.38 4.33 5.76 4.66 1 5 C1.33 4.01 1.66 3.02 2 2 C1.34 1.34 0.68 0.68 0 0 Z " fill="#4EB585" transform="translate(54,99)"/>
<path d="M0 0 C3.77561189 3.50592533 6.69142681 7.38285361 9 12 C7.171875 11.77734375 7.171875 11.77734375 5 11 C3.515625 9.00390625 3.515625 9.00390625 2.25 6.5625 C1.82203125 5.75941406 1.3940625 4.95632812 0.953125 4.12890625 C0 2 0 2 0 0 Z " fill="#E6ECEA" transform="translate(123,135)"/>
<path d="M0 0 C0.99 0 1.98 0 3 0 C3 2.64 3 5.28 3 8 C1.02 8.66 -0.96 9.32 -3 10 C-1.50163895 6.88801935 0.19933758 3.9465385 2 1 C1.34 0.67 0.68 0.34 0 0 Z " fill="#4D9A79" transform="translate(125,75)"/>
<path d="M0 0 C1.98 0 3.96 0 6 0 C6 0.66 6 1.32 6 2 C4.03533587 3.06775224 2.03144641 4.06553465 0 5 C-0.66 4.67 -1.32 4.34 -2 4 C-1.34 2.68 -0.68 1.36 0 0 Z " fill="#9ABCAE" transform="translate(112,53)"/>
<path d="M0 0 C1.65 0 3.3 0 5 0 C5.33 1.65 5.66 3.3 6 5 C2.83884224 3.63016497 2.0072908 3.0109362 0 0 Z " fill="#098B20" transform="translate(82,105)"/>
<path d="M0 0 C0.66 0 1.32 0 2 0 C2 2.97 2 5.94 2 9 C1.01 8.67 0.02 8.34 -1 8 C-0.67 5.36 -0.34 2.72 0 0 Z " fill="#00992F" transform="translate(91,105)"/>
<path d="M0 0 C0.66 0.33 1.32 0.66 2 1 C1.319375 1.61875 1.319375 1.61875 0.625 2.25 C-1.05950374 4.06408095 -1.99265971 5.75285627 -3 8 C-3.33 7.34 -3.66 6.68 -4 6 C-4.66 5.67 -5.32 5.34 -6 5 C-4.02 3.35 -2.04 1.7 0 0 Z " fill="#479574" transform="translate(57,73)"/>
<path d="M0 0 C0.66 0 1.32 0 2 0 C1.6875 2.375 1.6875 2.375 1 5 C0.01 5.66 -0.98 6.32 -2 7 C-2.125 4.625 -2.125 4.625 -2 2 C-1.34 1.34 -0.68 0.68 0 0 Z " fill="#F3F6F5" transform="translate(108,76)"/>
<path d="M0 0 C-0.66 1.32 -1.32 2.64 -2 4 C-2 3.34 -2 2.68 -2 2 C-3.98 2.99 -3.98 2.99 -6 4 C-6.99 3.34 -7.98 2.68 -9 2 C-5.86501708 0.14223235 -3.62528568 -0.20140476 0 0 Z " fill="#6DA48D" transform="translate(112,74)"/>
<path d="M0 0 C0.66 0 1.32 0 2 0 C2.33 1.32 2.66 2.64 3 4 C0.6875 4.625 0.6875 4.625 -2 5 C-2.99 4.34 -3.98 3.68 -5 3 C-3.35 3 -1.7 3 0 3 C0 2.01 0 1.02 0 0 Z " fill="#F4F5F4" transform="translate(149,98)"/>
<path d="M0 0 C1.65 0 3.3 0 5 0 C4.67 1.32 4.34 2.64 4 4 C2.68 4 1.36 4 0 4 C0 2.68 0 1.36 0 0 Z " fill="#464646" transform="translate(155,98)"/>
<path d="M0 0 C2.71595986 3.1540179 3.96846241 4.87384964 5 9 C2.69 7.02 0.38 5.04 -2 3 C-1.34 2.67 -0.68 2.34 0 2 C0 1.34 0 0.68 0 0 Z " fill="#5EA285" transform="translate(157,109)"/>
<path d="M0 0 C1.32 0 2.64 0 4 0 C3.67 1.32 3.34 2.64 3 4 C1.68 4 0.36 4 -1 4 C-0.67 2.68 -0.34 1.36 0 0 Z " fill="#4B4B4B" transform="translate(102,95)"/>
</svg>
