<?xml version="1.0" encoding="UTF-8"?>
<svg version="1.1" xmlns="http://www.w3.org/2000/svg" width="200" height="200">
<path d="M0 0 C1.27419296 -0.00852997 2.54838593 -0.01705994 3.8611908 -0.02584839 C5.26078809 -0.02514946 6.66038528 -0.02422645 8.0599823 -0.02310181 C9.54378598 -0.02909059 11.02758655 -0.03589694 12.51138306 -0.04345703 C16.53218172 -0.06108923 20.55289521 -0.06581125 24.5737288 -0.0670886 C27.08883116 -0.0685124 29.60391201 -0.07278634 32.11900902 -0.07808304 C40.90208175 -0.09657451 49.68509387 -0.10475481 58.46818542 -0.10317993 C66.6411616 -0.10197895 74.81387352 -0.12307501 82.98678285 -0.15466726 C90.015449 -0.18086333 97.04402903 -0.19154583 104.07274359 -0.19026911 C108.26544632 -0.18976043 112.45791413 -0.19539126 116.65056801 -0.21662521 C120.59629201 -0.23606382 124.54155833 -0.23609409 128.48729897 -0.22159195 C129.92999443 -0.21950965 131.37271897 -0.22417011 132.81536484 -0.23631287 C144.41402507 -0.32756474 152.22270826 1.43083535 160.77946472 9.40805054 C166.86074253 15.72833053 169.8087942 21.75583625 169.83595276 30.69889832 C169.84874771 32.61018776 169.84874771 32.61018776 169.86180115 34.56008911 C169.86110222 35.9596864 169.86017921 37.3592836 169.85905457 38.75888062 C169.86504335 40.2426843 169.8718497 41.72648487 169.87940979 43.21028137 C169.89704199 47.23108004 169.90176401 51.25179352 169.90304136 55.27262712 C169.90446516 57.78772947 169.9087391 60.30281033 169.9140358 62.81790733 C169.93252727 71.60098007 169.94070757 80.38399218 169.93913269 89.16708374 C169.93793171 97.34005992 169.95902776 105.51277184 169.99062002 113.68568116 C170.01681609 120.71434732 170.02749858 127.74292734 170.02622187 134.77164191 C170.02571319 138.96434464 170.03134402 143.15681244 170.05257797 147.34946632 C170.07201658 151.29519032 170.07204685 155.24045665 170.05754471 159.18619728 C170.05546241 160.62889275 170.06012287 162.07161729 170.07226562 163.51426315 C170.1635175 175.11292339 168.40511741 182.92160657 160.42790222 191.47836304 C154.10762223 197.55964085 148.08011651 200.50769252 139.13705444 200.53485107 C137.225765 200.54764603 137.225765 200.54764603 135.27586365 200.56069946 C133.87626635 200.56000054 132.47666916 200.55907753 131.07707214 200.55795288 C129.59326846 200.56394166 128.10946789 200.57074801 126.62567139 200.57830811 C122.60487272 200.59594031 118.58415924 200.60066232 114.56332564 200.60193968 C112.04822329 200.60336347 109.53314243 200.60763741 107.01804543 200.61293411 C98.23497269 200.63142558 89.45196057 200.63960588 80.66886902 200.63803101 C72.49589284 200.63683002 64.32318092 200.65792608 56.15027159 200.68951833 C49.12160544 200.7157144 42.09302542 200.7263969 35.06431085 200.72512019 C30.87160812 200.72461151 26.67914032 200.73024234 22.48648643 200.75147629 C18.54076244 200.7709149 14.59549611 200.77094516 10.64975548 200.75644302 C9.20706001 200.75436072 7.76433547 200.75902118 6.32168961 200.77116394 C-5.27697063 200.86241581 -13.08565381 199.10401573 -21.64241028 191.12680054 C-27.72368809 184.80652054 -30.67173976 178.77901482 -30.69889832 169.83595276 C-30.70742828 168.5617598 -30.71595825 167.28756683 -30.7247467 165.97476196 C-30.72404778 164.57516467 -30.72312477 163.17556747 -30.72200012 161.77597046 C-30.7279889 160.29216678 -30.73479526 158.80836621 -30.74235535 157.3245697 C-30.75998755 153.30377103 -30.76470956 149.28305755 -30.76598692 145.26222396 C-30.76741072 142.7471216 -30.77168465 140.23204075 -30.77698135 137.71694374 C-30.79547282 128.93387101 -30.80365312 120.15085889 -30.80207825 111.36776733 C-30.80087726 103.19479116 -30.82197332 95.02207924 -30.85356557 86.84916991 C-30.87976164 79.82050376 -30.89044414 72.79192373 -30.88916743 65.76320916 C-30.88865875 61.57050643 -30.89428958 57.37803863 -30.91552353 53.18538475 C-30.93496214 49.23966075 -30.9349924 45.29439443 -30.92049026 41.34865379 C-30.91840796 39.90595833 -30.92306843 38.46323379 -30.93521118 37.02058792 C-31.02646305 25.42192769 -29.26806297 17.6132445 -21.29084778 9.05648804 C-14.97056778 2.97521023 -8.94306206 0.02715855 0 0 Z " fill="#091300" transform="translate(30.431472778320313,-0.267425537109375)"/>
<path d="M0 0 C0.66 0 1.32 0 2 0 C2.27972656 0.75023437 2.55945312 1.50046875 2.84765625 2.2734375 C7.57157397 14.33385765 14.17833398 25.37638886 25.99609375 31.5703125 C31.28398448 33.88087649 36.2320832 35.60673295 42 36 C41.34 36.99 40.68 37.98 40 39 C39.34 39 38.68 39 38 39 C38 39.66 38 40.32 38 41 C38.99 41.33 39.98 41.66 41 42 C40.505 42.99 40.505 42.99 40 44 C42.42381048 46.42381048 43.52894921 46.44016497 46.875 46.8125 C47.73867187 46.92207031 48.60234375 47.03164062 49.4921875 47.14453125 C52.57714581 46.9667377 53.64238986 45.90760986 56 44 C59.25 43.8125 59.25 43.8125 62 44 C61.01 42.02 60.02 40.04 59 38 C60.175625 38.33 61.35125 38.66 62.5625 39 C72.81120865 41.23079147 83.79914927 41.52375017 93 36 C98.08620746 32.40307589 101.69175739 28.91487169 104 23 C104.66 23 105.32 23 106 23 C107.57170996 26.14341993 107.23175783 29.55771451 107 33 C106.67 33.99 106.34 34.98 106 36 C107.65 35.34 109.3 34.68 111 34 C110.63265306 40.36734694 110.63265306 40.36734694 107.625 43.375 C105 45 105 45 102 46 C103.98 46.495 103.98 46.495 106 47 C105.78125 48.87109375 105.78125 48.87109375 105 51 C102.96875 52.16015625 102.96875 52.16015625 100.5 53.0625 C98.0666176 53.9059671 98.0666176 53.9059671 96 55 C95.67 55.99 95.34 56.98 95 58 C91.78548731 59.60725635 88.56387464 59.05748185 85 59 C84.67 59.99 84.34 60.98 84 62 C78.158256 62.35050464 74.1468192 62.16727335 69 59 C68.01 59.99 68.01 59.99 67 61 C63.42779828 61.23296968 60.43358947 60.92900148 57 60 C57.495 61.175625 57.99 62.35125 58.5 63.5625 C60.64475486 69.41183143 60.66223451 73.85661313 58.25 79.625 C56.27310248 83.73302108 54.2156033 87.89219835 50 90 C43.44973346 90.69224803 37.89042677 89.41476062 31.75 87.25 C30.58597656 86.87101562 30.58597656 86.87101562 29.3984375 86.484375 C24.90529206 84.95087826 21.5523398 83.26815261 18 80 C19.98 80 21.96 80 24 80 C24.2475 79.484375 24.495 78.96875 24.75 78.4375 C25.75000181 76.48749648 26.83106606 74.57914513 27.9375 72.6875 C32.17595199 65.32131423 32.17595199 65.32131423 33 57 C33.99 57 34.98 57 36 57 C35.85128718 64.98993405 35.06350528 71.5716685 30 78 C27.83203125 79.74609375 27.83203125 79.74609375 26 81 C27.32 81.33 28.64 81.66 30 82 C30 81.01 30 80.02 30 79 C30.98548369 77.65590191 31.98767284 76.3239983 33 75 C33.78233233 73.27311258 34.51162313 71.52126353 35.1875 69.75 C35.53167969 68.85796875 35.87585938 67.9659375 36.23046875 67.046875 C36.48441406 66.37140625 36.73835938 65.6959375 37 65 C37.99 65 38.98 65 40 65 C39.01 64.67 38.02 64.34 37 64 C37.020625 62.906875 37.04125 61.81375 37.0625 60.6875 C37.18544452 57.05615809 37.18544452 57.05615809 36 54 C37.32 54.33 38.64 54.66 40 55 C40.33 54.01 40.66 53.02 41 52 C37.37 52 33.74 52 30 52 C29.505 52.99 29.505 52.99 29 54 C28.0925 54.185625 27.185 54.37125 26.25 54.5625 C22.11125614 56.39309824 20.92230884 58.31349739 18.90234375 62.26953125 C17.29907956 67.12096706 17.61615412 71.95882408 18 77 C19.32 77.66 20.64 78.32 22 79 C19.625 79.125 19.625 79.125 17 79 C14.281484 76.281484 14.63738395 74.67205652 14.5625 70.875 C14.65905373 63.60128576 16.67321528 59.41248643 21.66796875 54.2890625 C22.10753906 53.86367187 22.54710938 53.43828125 23 53 C21.02 52.01 19.04 51.02 17 50 C17 49.34 17 48.68 17 48 C15.741875 48.061875 14.48375 48.12375 13.1875 48.1875 C9.24378462 48.1805812 9.24378462 48.1805812 7.3125 46.75 C6.879375 46.1725 6.44625 45.595 6 45 C4.7625 44.071875 4.7625 44.071875 3.5 43.125 C0.93297093 40.94302529 -0.43829557 38.95901892 -2 36 C-1.505 35.505 -1.505 35.505 -1 35 C-1.969375 34.278125 -2.93875 33.55625 -3.9375 32.8125 C-6.29913506 30.86762407 -6.93412331 30.2117465 -7.875 27.1875 C-7.91625 26.465625 -7.9575 25.74375 -8 25 C-6.35 25 -4.7 25 -3 25 C-3.804375 24.38125 -4.60875 23.7625 -5.4375 23.125 C-8 21 -8 21 -9 19 C-9.23076923 13.46153846 -9.23076923 13.46153846 -8 11 C-5.11562221 12.29299694 -3.12780579 13.65941363 -1 16 C-1.7425 14.948125 -1.7425 14.948125 -2.5 13.875 C-4.25771576 10.50604479 -4.54675527 8.74917903 -4 5 C-2.125 2.125 -2.125 2.125 0 0 Z " fill="#F7F7F6" transform="translate(49,55)"/>
<path d="M0 0 C0.99 0 1.98 0 3 0 C2.85128718 7.98993405 2.06350528 14.5716685 -3 21 C-5.16796875 22.74609375 -5.16796875 22.74609375 -7 24 C-5.68 24.33 -4.36 24.66 -3 25 C-3 24.01 -3 23.02 -3 22 C-2.01451631 20.65590191 -1.01232716 19.3239983 0 18 C0.78233233 16.27311258 1.51162313 14.52126353 2.1875 12.75 C2.53167969 11.85796875 2.87585938 10.9659375 3.23046875 10.046875 C3.61138672 9.03367187 3.61138672 9.03367187 4 8 C10.86476118 9.08918967 16.77470211 10.90238801 23 14 C23 12.35 23 10.7 23 9 C22.01 8.67 21.02 8.34 20 8 C20.66 7.67 21.32 7.34 22 7 C22.66 7.33 23.32 7.66 24 8 C24.33 6.68 24.66 5.36 25 4 C27.53518191 11.76399459 27.74671312 17.43679472 24.1484375 24.9140625 C22.30113279 28.26937105 20.47936349 31.26031825 17 33 C10.44973346 33.69224803 4.89042677 32.41476062 -1.25 30.25 C-2.02601562 29.99734375 -2.80203125 29.7446875 -3.6015625 29.484375 C-8.09470794 27.95087826 -11.4476602 26.26815261 -15 23 C-13.02 23 -11.04 23 -9 23 C-8.7525 22.484375 -8.505 21.96875 -8.25 21.4375 C-7.24999819 19.48749648 -6.16893394 17.57914513 -5.0625 15.6875 C-0.82404801 8.32131423 -0.82404801 8.32131423 0 0 Z " fill="#EBECEB" transform="translate(82,112)"/>
<path d="M0 0 C1.19109375 -0.00386719 1.19109375 -0.00386719 2.40625 -0.0078125 C4.5 0.125 4.5 0.125 6.5 1.125 C6.17 2.445 5.84 3.765 5.5 5.125 C4.51 4.795 3.52 4.465 2.5 4.125 C2.83 5.115 3.16 6.105 3.5 7.125 C3.22428861 9.13375442 2.89764263 11.13678687 2.5 13.125 C4.975 13.62 4.975 13.62 7.5 14.125 C4.5 15.125 4.5 15.125 2.5 15.125 C2.32984375 15.87265625 2.1596875 16.6203125 1.984375 17.390625 C1.74203125 18.37546875 1.4996875 19.3603125 1.25 20.375 C1.01796875 21.34953125 0.7859375 22.3240625 0.546875 23.328125 C-0.61799266 26.44023411 -2.01330545 27.96712456 -4.5 30.125 C-2.025 31.115 -2.025 31.115 0.5 32.125 C-3.67587745 33.51695915 -5.63474776 31.94823219 -9.5 30.125 C-7.85 28.805 -6.2 27.485 -4.5 26.125 C-4.83 25.465 -5.16 24.805 -5.5 24.125 C-4.51 24.125 -3.52 24.125 -2.5 24.125 C-1.48888907 21.07586772 -1.48888907 21.07586772 -2.5 18.125 C-1.51 18.125 -0.52 18.125 0.5 18.125 C0.83 14.165 1.16 10.205 1.5 6.125 C0.51 6.125 -0.48 6.125 -1.5 6.125 C-1.17 8.105 -0.84 10.085 -0.5 12.125 C-1.16 12.125 -1.82 12.125 -2.5 12.125 C-2.7475 13.32125 -2.995 14.5175 -3.25 15.75 C-4.26057498 19.82839187 -5.97946225 22.73802739 -8.5 26.125 C-9.16 27.115 -9.82 28.105 -10.5 29.125 C-11.16 29.125 -11.82 29.125 -12.5 29.125 C-12.5 28.465 -12.5 27.805 -12.5 27.125 C-14.15 26.795 -15.8 26.465 -17.5 26.125 C-18.13568793 17.77629852 -17.55713069 11.95978875 -12.5 5.125 C-10.52805885 3.15305885 -8.99095467 2.292635 -6.5 1.125 C-4.13386544 -0.05806728 -2.63219264 -0.00854608 0 0 Z " fill="#161F0D" transform="translate(83.5,105.875)"/>
<path d="M0 0 C0.99 0 1.98 0 3 0 C2.85128718 7.98993405 2.06350528 14.5716685 -3 21 C-4.32 21.99 -5.64 22.98 -7 24 C3.89 26.97 3.89 26.97 15 30 C20.4269605 22.4022553 22.08061296 17.88740805 23 9 C22.01 8.67 21.02 8.34 20 8 C20.66 7.67 21.32 7.34 22 7 C22.66 7.33 23.32 7.66 24 8 C24.33 6.68 24.66 5.36 25 4 C27.53518191 11.76399459 27.74671312 17.43679472 24.1484375 24.9140625 C22.30113279 28.26937105 20.47936349 31.26031825 17 33 C10.44973346 33.69224803 4.89042677 32.41476062 -1.25 30.25 C-2.02601562 29.99734375 -2.80203125 29.7446875 -3.6015625 29.484375 C-8.09470794 27.95087826 -11.4476602 26.26815261 -15 23 C-13.02 23 -11.04 23 -9 23 C-8.7525 22.484375 -8.505 21.96875 -8.25 21.4375 C-7.24999819 19.48749648 -6.16893394 17.57914513 -5.0625 15.6875 C-0.82404801 8.32131423 -0.82404801 8.32131423 0 0 Z " fill="#DFE1DE" transform="translate(82,112)"/>
<path d="M0 0 C6.84394556 0.69254211 12.88556515 2.95755174 19 6 C18.67 7.98 18.34 9.96 18 12 C13.73493961 13.4216868 10.79962257 11.65386682 6.8125 10.0625 C6.06291016 9.77181641 5.31332031 9.48113281 4.54101562 9.18164062 C2.69075523 8.46274964 0.84493352 7.73245347 -1 7 C-1.04254356 5.00045254 -1.04080783 2.99958364 -1 1 C-0.67 0.67 -0.34 0.34 0 0 Z " fill="#E3E4E2" transform="translate(86,120)"/>
<path d="M0 0 C8.75 -0.125 8.75 -0.125 11 1 C10.67 2.32 10.34 3.64 10 5 C9.01 4.67 8.02 4.34 7 4 C7.33 4.99 7.66 5.98 8 7 C7.72428861 9.00875442 7.39764263 11.01178687 7 13 C8.65 13.33 10.3 13.66 12 14 C9 15 9 15 7 15 C6.82984375 15.74765625 6.6596875 16.4953125 6.484375 17.265625 C6.24203125 18.25046875 5.9996875 19.2353125 5.75 20.25 C5.51796875 21.22453125 5.2859375 22.1990625 5.046875 23.203125 C3.88200734 26.31523411 2.48669455 27.84212456 0 30 C2.475 30.99 2.475 30.99 5 32 C0.82412255 33.39195915 -1.13474776 31.82323219 -5 30 C-3.35 28.68 -1.7 27.36 0 26 C-0.33 25.34 -0.66 24.68 -1 24 C-0.01 24 0.98 24 2 24 C3.01111093 20.95086772 3.01111093 20.95086772 2 18 C2.99 18 3.98 18 5 18 C5.33 14.04 5.66 10.08 6 6 C5.01 6 4.02 6 3 6 C3.33 7.98 3.66 9.96 4 12 C3.34 12 2.68 12 2 12 C1.34 8.04 0.68 4.08 0 0 Z " fill="#565D50" transform="translate(79,106)"/>
<path d="M0 0 C6.37732315 1.87724961 12.70695459 3.85671642 19 6 C17.25 9.875 17.25 9.875 15 11 C13.21240234 10.56274414 13.21240234 10.56274414 11.0859375 9.78515625 C9.94511719 9.37426758 9.94511719 9.37426758 8.78125 8.95507812 C7.59015625 8.51325195 7.59015625 8.51325195 6.375 8.0625 C5.57320312 7.77181641 4.77140625 7.48113281 3.9453125 7.18164062 C1.96107862 6.46117475 -0.01978837 5.73144862 -2 5 C-2 2 -2 2 0 0 Z " fill="#FCFCFC" transform="translate(81,132)"/>
<path d="M0 0 C4.6889493 0.55619669 8.19924267 1.88182673 12.375 4.0625 C13.43460938 4.61035156 14.49421875 5.15820312 15.5859375 5.72265625 C16.38257812 6.14417969 17.17921875 6.56570312 18 7 C18 8.65 18 10.3 18 12 C11.54646385 9.94235079 5.2638737 7.57616518 -1 5 C-0.67 3.35 -0.34 1.7 0 0 Z " fill="#FCFCFC" transform="translate(87,114)"/>
<path d="M0 0 C2.5085974 4.84995498 3.44485479 8.48380056 3 14 C1.38641686 18.73690497 -0.69525276 23.19954067 -4 27 C-4.99 26.67 -5.98 26.34 -7 26 C-6.01 24.515 -6.01 24.515 -5 23 C-4.34 23 -3.68 23 -3 23 C-3.04125 22.071875 -3.0825 21.14375 -3.125 20.1875 C-3.1462373 15.0268365 -2.02043018 10.03837402 -1 5 C-1.99 4.67 -2.98 4.34 -4 4 C-3.34 3.67 -2.68 3.34 -2 3 C-1.34 3.33 -0.68 3.66 0 4 C0 2.68 0 1.36 0 0 Z " fill="#EBECEA" transform="translate(106,116)"/>
<path d="M0 0 C0.99 0 1.98 0 3 0 C2.85097175 8.00688142 2.09011866 14.57037642 -3 21 C-5.8125 23.0625 -5.8125 23.0625 -8 24 C-8.33 23.01 -8.66 22.02 -9 21 C-8.443125 20.319375 -7.88625 19.63875 -7.3125 18.9375 C-4.6153727 15.51141937 -3.33879949 12.16744403 -1.83203125 8.109375 C-1 6 -1 6 0 5 C0.04063832 3.33382885 0.042721 1.66611905 0 0 Z " fill="#E8E9E7" transform="translate(82,112)"/>
<path d="M0 0 C0.7425 0.2475 1.485 0.495 2.25 0.75 C2.25 1.08 2.25 1.41 2.25 1.75 C1.363125 1.894375 0.47625 2.03875 -0.4375 2.1875 C-4.5661587 4.13498052 -5.80885501 6.02660742 -7.84765625 10.01953125 C-9.45092044 14.87096706 -9.13384588 19.70882408 -8.75 24.75 C-7.43 25.41 -6.11 26.07 -4.75 26.75 C-7.125 26.875 -7.125 26.875 -9.75 26.75 C-12.468516 24.031484 -12.11261605 22.42205652 -12.1875 18.625 C-12.09630309 12.27629205 -10.83600242 8.5404856 -6.75 3.75 C-6.09 2.904375 -5.43 2.05875 -4.75 1.1875 C-2.75 -0.25 -2.75 -0.25 0 0 Z " fill="#C9CBC7" transform="translate(75.75,107.25)"/>
<path d="M0 0 C8.75 -0.125 8.75 -0.125 11 1 C10.67 2.32 10.34 3.64 10 5 C9.01 4.67 8.02 4.34 7 4 C7 4.66 7 5.32 7 6 C5.68 6 4.36 6 3 6 C3.33 7.98 3.66 9.96 4 12 C3.34 12 2.68 12 2 12 C1.34 8.04 0.68 4.08 0 0 Z " fill="#B5B8B2" transform="translate(79,106)"/>
<path d="M0 0 C2 3.75 2 3.75 2 6 C1.34 6 0.68 6 0 6 C0.061875 7.8253125 0.061875 7.8253125 0.125 9.6875 C0.13754508 13.21894127 -0.40001783 15.80003566 -2 19 C-3.15837573 15.52487282 -2.77265943 13.86329714 -2.0625 10.3125 C-1.77052734 8.82169922 -1.77052734 8.82169922 -1.47265625 7.30078125 C-1.31667969 6.54152344 -1.16070312 5.78226562 -1 5 C-1.99 4.67 -2.98 4.34 -4 4 C-3.34 3.67 -2.68 3.34 -2 3 C-1.34 3.33 -0.68 3.66 0 4 C0 2.68 0 1.36 0 0 Z " fill="#767B71" transform="translate(106,116)"/>
<path d="M0 0 C0.33 1.32 0.66 2.64 1 4 C0.34 4 -0.32 4 -1 4 C-1 5.32 -1 6.64 -1 8 C-3 10 -3 10 -5.1640625 10.1953125 C-6.38222656 10.16050781 -6.38222656 10.16050781 -7.625 10.125 C-8.44226563 10.10695312 -9.25953125 10.08890625 -10.1015625 10.0703125 C-10.72804688 10.04710937 -11.35453125 10.02390625 -12 10 C-12 9.67 -12 9.34 -12 9 C-10.948125 8.814375 -9.89625 8.62875 -8.8125 8.4375 C-4.04002892 7.1279805 -2.50108148 4.09267879 0 0 Z " fill="#878C82" transform="translate(102,135)"/>
<path d="M0 0 C1.65 0.33 3.3 0.66 5 1 C5 1.33 5 1.66 5 2 C4.0925 2.185625 3.185 2.37125 2.25 2.5625 C-2.208036 4.53432362 -2.91981256 6.67961071 -5 11 C-5.66 10.01 -6.32 9.02 -7 8 C-4.69 5.36 -2.38 2.72 0 0 Z " fill="#D2D4D0" transform="translate(73,107)"/>
<path d="M0 0 C3.25543229 0.34879632 4.01873107 1.02133261 6.25 3.5625 C6.8275 4.366875 7.405 5.17125 8 6 C5.03 5.505 5.03 5.505 2 5 C1.67 5.99 1.34 6.98 1 8 C0.67 5.36 0.34 2.72 0 0 Z " fill="#CED0CD" transform="translate(85,109)"/>
<path d="M0 0 C1.45823212 -0.0270043 2.91660675 -0.04639787 4.375 -0.0625 C5.18710938 -0.07410156 5.99921875 -0.08570312 6.8359375 -0.09765625 C9 0 9 0 11 1 C10.67 2.32 10.34 3.64 10 5 C9.34 4.34 8.68 3.68 8 3 C6.03309626 2.32707499 6.03309626 2.32707499 3.875 1.875 C2.59625 1.58625 1.3175 1.2975 0 1 C0 0.67 0 0.34 0 0 Z " fill="#1A2312" transform="translate(79,106)"/>
<path d="M0 0 C0.99 0.33 1.98 0.66 3 1 C3 3.31 3 5.62 3 8 C2.01 7.34 1.02 6.68 0 6 C-0.1875 2.875 -0.1875 2.875 0 0 Z " fill="#CFD1CD" transform="translate(106,122)"/>
<path d="M0 0 C5.75 -0.125 5.75 -0.125 8 1 C8 1.66 8 2.32 8 3 C7.01 3.33 6.02 3.66 5 4 C2.3125 2.0625 2.3125 2.0625 0 0 Z " fill="#BFC1BC" transform="translate(67,135)"/>
<path d="M0 0 C0.99 0 1.98 0 3 0 C3 1.98 3 3.96 3 6 C2.01 5.67 1.02 5.34 0 5 C0 3.35 0 1.7 0 0 Z " fill="#FAFAFA" transform="translate(82,112)"/>
</svg>
